<svg width="40" height="40" viewBox="60 45 40 40" fill="none" xmlns="http://www.w3.org/2000/svg">
<g filter="url(#filter0_d)">
<circle r="20" transform="matrix(-1 0 0 1 80 65.5322)" fill="url(#paint0_linear)"/>
</g>
<mask id="mask0" mask-type="alpha" maskUnits="userSpaceOnUse" x="60" y="45" width="40" height="41">
<circle r="20" transform="matrix(-1 0 0 1 80 65.5322)" fill="url(#paint1_linear)"/>
</mask>
<g mask="url(#mask0)">
<g opacity="0.25">
<path d="M19.5836 146.484C19.3413 146.166 19.2732 145.967 19.4727 145.898C19.6192 145.871 19.6318 145.777 19.4576 145.659C19.3238 145.593 19.2027 145.434 19.2684 145.3C19.2811 145.206 19.1322 144.901 18.9707 144.689C18.7561 144.517 18.6476 144.264 18.7007 144.224C18.8067 144.143 18.5066 143.199 18.292 143.027C18.2517 142.974 18.1456 143.055 18.0395 143.135C17.9334 143.216 17.9081 143.403 18.0419 143.469C18.1226 143.575 18.163 143.628 18.0696 143.615C17.9762 143.602 17.8273 143.297 17.7442 142.857C17.661 142.418 17.391 141.953 17.136 141.728C16.8003 141.397 16.7599 141.344 16.9848 141.089C17.197 140.928 17.2223 140.741 17.1011 140.582C16.98 140.423 16.8335 140.451 16.7678 140.584C16.7021 140.718 16.5556 140.746 16.4749 140.64C16.3941 140.534 16.4068 140.44 16.6063 140.372C16.7528 140.344 16.8715 140.17 16.8438 140.024C16.8161 139.877 16.7227 139.865 16.6973 140.052C16.672 140.238 16.5786 140.226 16.3893 139.867C16.2809 139.615 16.1724 139.362 16.185 139.269C16.1977 139.175 16.0892 138.923 15.8343 138.698C15.5793 138.473 15.4708 138.22 15.5239 138.18C15.5769 138.14 15.5064 137.607 15.3425 137.061C15.1786 136.516 15.1208 135.889 15.1865 135.756C15.2522 135.622 15.2625 135.195 15.207 134.902C15.1516 134.609 15.0961 134.316 15.2426 134.288C15.336 134.301 15.3614 134.114 15.2402 133.955C15.0383 133.69 15.0914 133.65 15.3463 133.874C15.682 134.205 15.8412 134.084 15.8894 133.377C15.9527 132.91 16.0058 132.87 16.2861 132.908C16.5133 132.986 16.5663 132.946 16.3922 132.827C16.3114 132.721 16.2306 132.615 16.3241 132.627C16.4175 132.64 16.4959 132.413 16.4808 132.173C16.4657 131.933 16.4332 131.12 16.3881 130.4C16.3279 129.441 16.4316 129.026 16.6841 128.918C16.8433 128.797 16.962 128.623 16.9216 128.57C16.7071 128.398 17.3539 127.486 17.6215 127.618C17.7553 127.684 17.768 127.59 17.7529 127.35C17.6848 127.151 17.7505 127.017 17.897 126.989C18.0435 126.962 18.1092 126.828 18.0284 126.722C18.0007 126.575 18.0664 126.441 18.0791 126.348C18.1851 126.267 18.2255 126.32 18.2659 126.373C18.2532 126.467 18.4274 126.585 18.6673 126.57C18.9476 126.608 18.988 126.661 18.7481 126.676C18.6016 126.704 18.4702 126.972 18.5256 127.265C18.5835 127.891 18.9041 127.982 18.8867 127.409C18.8716 127.169 18.95 126.942 19.003 126.901C19.3213 126.659 19.3997 126.432 19.1574 126.114C18.9555 125.848 18.8621 125.836 18.6499 125.997C18.1068 126.494 19.782 123.962 20.7217 122.996C20.9466 122.741 21.0907 122.38 21.116 122.193C21.1009 121.953 21.3258 121.698 21.4849 121.577C21.8966 121.347 22.3439 120.504 22.6423 119.355C22.7587 118.847 22.9305 118.633 23.1173 118.658C23.2512 118.724 23.5164 118.522 23.6882 118.307C24.388 117.356 25.3404 116.296 25.5146 116.414C25.555 116.467 25.9263 116.185 26.2699 115.756C26.6666 115.286 26.9445 114.991 27.0252 115.097C27.1464 115.256 27.3585 115.094 27.9547 114.557C28.1669 114.395 28.3134 114.368 28.3815 114.567C28.4496 114.767 28.543 114.779 28.6087 114.645C28.4345 114.527 28.4068 114.38 28.326 114.274C28.1518 114.155 28.7353 113.711 29.2404 113.494C29.5461 113.345 29.7456 113.277 30.0765 112.942C30.2356 112.82 30.3291 112.833 30.4098 112.939C30.4375 113.086 30.584 113.058 30.6497 112.924C30.7558 112.843 30.7281 112.697 30.6347 112.684C30.5412 112.672 30.5666 112.485 30.7257 112.364C30.8848 112.242 31.0844 112.174 31.1247 112.227C31.2055 112.333 31.3646 112.212 31.4961 111.945C31.6275 111.677 31.7866 111.556 31.9077 111.715C31.9885 111.821 32.135 111.793 32.1477 111.7C32.1603 111.607 32.3068 111.579 32.4406 111.645C32.5744 111.71 32.6274 111.67 32.4129 111.498C32.0772 111.167 32.5142 110.751 32.9029 111.041C33.2109 111.226 33.3574 111.198 33.4484 110.877C33.7113 110.342 34.0826 110.059 34.4967 110.163C34.8577 110.307 34.8577 110.307 34.815 109.921C34.7722 109.534 34.7722 109.534 35.1989 109.545C35.5323 109.542 35.7848 109.434 35.9162 109.166C36.2195 108.684 36.6311 108.454 36.727 108.8C36.7673 108.853 36.9946 108.932 37.1411 108.904C37.5805 108.821 37.6462 108.687 37.3912 108.462C37.3105 108.356 37.2954 108.116 37.3738 107.889C37.5709 107.488 38.023 107.311 38.1972 107.43C38.2376 107.483 38.6089 107.2 38.9398 106.864C39.3238 106.488 39.6951 106.206 39.7885 106.218C39.8819 106.231 40.3467 105.961 40.7837 105.544C41.2207 105.128 41.6981 104.765 41.8446 104.737C42.3371 104.613 43.1731 104.061 44.1406 103.24C45.4263 102.178 45.4794 102.137 46.2395 102.145C46.6132 102.196 46.8657 102.087 46.7723 102.075C46.6512 101.916 47.75 100.828 47.9899 100.813C48.0834 100.825 48.2021 100.651 48.2805 100.424C48.3589 100.197 48.6241 99.9948 48.7706 99.9671C48.9701 99.899 49.4348 99.6289 49.8188 99.2528C50.2028 98.8767 50.5741 98.5941 50.7206 98.5664C50.867 98.5386 51.2384 98.256 51.5693 97.9203C52.6555 96.9258 53.532 96.4261 53.7465 96.5979C53.8273 96.704 53.8803 96.6636 53.8122 96.4641C53.7568 96.1712 53.8629 96.0904 54.6459 95.5781C55.1637 95.2677 56.2246 94.4601 57.0456 93.6675C57.8262 92.8219 58.6219 92.2162 58.7153 92.2288C58.8618 92.2011 59.127 91.9992 59.3518 91.7443C59.5767 91.4893 59.8419 91.2874 60.0288 91.3127C60.256 91.3911 60.309 91.3507 60.1349 91.232C60.0541 91.1259 60.0794 90.939 60.1982 90.7648C60.423 90.5099 60.4634 90.5629 60.5592 90.9089C60.602 91.2953 60.602 91.2953 60.7865 90.9873C61.0089 90.399 62.3049 88.9097 62.3073 89.243C62.2289 89.4702 62.3224 89.4829 62.5749 89.3744C62.974 89.2382 63.027 89.1978 62.7317 88.9199C62.6105 88.7608 62.7016 88.4401 63.0982 87.9706C63.3888 87.5819 63.5985 87.087 63.6239 86.9001C63.5407 86.4607 64.0308 86.0039 64.8542 85.5446C65.6649 85.1788 66.7662 84.4242 68.1857 83.4273C68.7692 82.9831 69.3804 82.6854 69.4739 82.6981C69.6077 82.7638 69.7138 82.683 69.6987 82.4431C69.6837 82.2032 69.7494 82.0694 69.8024 82.029C69.8555 81.9886 69.8555 81.9886 69.9085 81.9483C70.1056 81.5468 70.3835 81.2515 70.5704 81.2768C70.6511 81.3829 70.8103 81.2618 70.929 81.0876C71.0478 80.9134 71.26 80.7519 71.4595 80.6838C71.659 80.6157 71.8712 80.4541 72.0026 80.1865C72.0936 79.8659 72.2401 79.8381 72.3612 79.9973C72.4824 80.1564 72.6819 80.0883 72.8941 79.9268C73.0532 79.8056 73.3184 79.6037 73.4776 79.4826C73.5837 79.4018 73.662 79.1746 73.6216 79.1216C73.5939 78.9751 73.7531 78.8539 73.9652 78.6924C74.2709 78.5435 74.3366 78.4097 74.1497 78.3844C74.0159 78.3187 74.0286 78.2253 74.2811 78.1168C74.5867 77.9679 74.5867 77.9679 74.5084 78.1952C74.4426 78.329 74.4173 78.5158 74.4577 78.5689C74.4981 78.6219 74.4197 78.8492 74.2606 78.9703C74.0484 79.1318 73.97 79.3591 74.0912 79.5182C74.1719 79.6243 74.2527 79.7304 74.225 79.5839C74.2376 79.4905 74.3437 79.4097 74.4372 79.4224C74.6644 79.5007 75.2859 78.7763 75.5614 78.1476C75.6397 77.9204 75.7205 78.0265 75.7229 78.3598C75.7807 78.9861 75.9145 79.0518 76.3793 78.7818C76.6318 78.6733 76.8717 78.6582 76.8591 78.7516C76.8868 78.8981 76.9802 78.9108 77.0863 78.83C77.1924 78.7493 77.3262 78.815 77.5004 78.9337C77.7023 79.1989 77.8892 79.2243 78.061 79.0097C78.2858 78.7547 78.2985 78.6613 78.0182 78.6233C77.8313 78.598 77.6571 78.4792 77.6698 78.3858C77.6825 78.2924 77.882 78.2243 78.0688 78.2496C78.2961 78.328 78.536 78.3129 78.6421 78.2322C78.6951 78.1918 78.9881 78.1364 79.2683 78.1743C79.7355 78.2377 79.7758 78.2907 79.7782 78.624C79.7806 78.9574 79.7276 78.9977 79.46 78.8663C79.2327 78.788 79.1797 78.8283 79.2882 79.0809C79.3563 79.2804 79.2526 79.6945 78.8559 80.164C78.5123 80.5932 78.2495 81.1284 78.2772 81.2749C78.1988 81.5021 78.2012 81.8354 78.1632 82.1157C78.1253 82.396 78.1934 82.5955 78.2741 82.7016C78.4079 82.7673 78.3422 82.9011 78.0493 82.9566C77.5568 83.0801 77.2409 83.6557 77.3922 84.2946C77.4753 84.734 77.4753 84.734 77.1547 84.643C76.9678 84.6177 76.7279 84.6327 76.6749 84.6731C76.5688 84.7539 76.6092 84.8069 76.7026 84.8196C76.796 84.8323 76.8641 85.0318 76.8388 85.2186C76.8008 85.4989 76.9346 85.5646 77.72 85.3856C78.4524 85.247 78.5585 85.1663 78.2909 85.0349C78.0232 84.9035 78.0359 84.81 78.4072 84.5274C78.6724 84.3254 78.7912 84.1513 78.6701 83.9921C78.5085 83.7799 78.5845 83.2194 78.7967 83.0579C78.8497 83.0175 78.8624 82.924 78.7816 82.818C78.7009 82.7119 78.6605 82.6588 78.7539 82.6715C78.8473 82.6842 79.0191 82.4696 79.0975 82.2423C79.3073 81.7475 80.156 81.1014 80.2518 81.4474C80.2796 81.5938 80.2669 81.6873 80.1204 81.715C79.7744 81.8108 79.605 82.3587 79.7563 82.9976C79.9202 83.5431 79.9202 83.5431 80.0239 83.1291C80.0619 82.8488 80.259 82.4473 80.4181 82.3262C80.5899 82.1116 80.9866 81.6421 81.2771 81.2533C81.6864 80.6904 81.8986 80.5289 82.0198 80.688C82.1005 80.7941 82.247 80.7664 82.3254 80.5391C82.3911 80.4053 82.6563 80.2034 82.8028 80.1757C83.0957 80.1203 83.1361 80.1733 82.9516 80.4813C82.8329 80.6555 82.8353 80.9888 82.9968 81.201C83.1987 81.4662 83.08 81.6404 82.5772 82.1907C82.2463 82.5264 81.9431 83.0086 81.9178 83.1955C81.8671 83.5692 81.9732 83.4884 82.6351 82.817C83.0721 82.4005 83.3626 82.0117 83.2819 81.9056C83.2415 81.8526 83.2542 81.7592 83.3072 81.7188C83.3602 81.6784 83.57 81.1836 83.7268 80.7291C83.8281 79.9817 84.0252 79.5803 84.1186 79.5929C84.2121 79.6056 84.2524 79.6586 84.1464 79.7394C84.0933 79.7798 84.2271 79.8455 84.4544 79.9239C84.9215 79.9872 85.1337 79.8256 84.8787 79.6008C84.7449 79.5351 84.7298 79.2952 84.8359 79.2144C85.0077 78.9999 85.1012 79.0125 85.5176 79.4495C85.813 79.7274 86.121 79.9119 86.174 79.8715C86.2271 79.8311 86.4139 79.8565 86.4947 79.9625C86.6158 80.1217 86.6435 80.2682 86.444 80.3363C86.2849 80.4574 86.0577 80.379 85.8961 80.1668C85.7346 79.9547 85.6008 79.889 85.5351 80.0228C85.4971 80.303 84.4465 80.6839 84.3784 80.4844C84.3507 80.3379 84.2572 80.3253 84.1108 80.353C83.9643 80.3807 84.1258 80.5929 84.4211 80.8708C84.7165 81.1487 84.9841 81.2801 85.0498 81.1463C85.1155 81.0125 85.2216 80.9317 85.3554 80.9974C85.4892 81.0631 85.6484 80.942 85.7141 80.8082C85.8455 80.5406 85.8455 80.5406 85.7948 80.9143C85.7695 81.1011 85.532 81.4495 85.2264 81.5984C84.7086 81.9087 84.5796 82.5097 84.9557 82.8937C85.1172 83.1058 85.1702 83.0655 85.1021 82.8659C84.9659 82.4669 85.5217 81.8762 85.7893 82.0077C85.9231 82.0734 85.8978 82.2602 85.7387 82.3814C85.5138 82.6363 85.4933 83.4898 85.7181 83.2349C85.7712 83.1945 85.8116 83.2475 85.7862 83.4344C85.7482 83.7147 85.8417 83.7273 86.2938 83.5507C86.8923 83.3464 87.1955 82.8643 86.7814 82.7606C86.6476 82.6949 86.5415 82.7756 86.5289 82.869C86.5162 82.9625 86.4101 83.0432 86.3294 82.9371C86.2486 82.8311 86.2739 82.6442 86.433 82.5231C86.5922 82.4019 86.5771 82.162 86.4686 81.9095C86.3071 81.6973 86.3324 81.5104 86.3451 81.417C86.4512 81.3362 86.532 81.4423 86.6531 81.6015C86.7212 81.801 86.9081 81.8263 86.9738 81.6925C87.0799 81.6117 87.2794 81.5436 87.4132 81.6093C87.547 81.675 87.5193 81.5286 87.3704 81.223C87.1535 80.7178 87.1257 80.5714 87.2849 80.4502C87.4313 80.4225 87.444 80.3291 87.3102 80.2634C87.1764 80.1977 87.136 80.1446 87.189 80.1042C87.2421 80.0639 87.3608 79.8897 87.4796 79.7155C87.5453 79.5817 87.7448 79.5136 87.7852 79.5666C87.866 79.6727 87.8533 79.7661 87.6942 79.8873C87.535 80.0084 87.5628 80.1549 87.6435 80.261C87.7243 80.3671 87.8304 80.2863 87.843 80.1929C87.8557 80.0995 87.9618 80.0187 88.0426 80.1248C88.1233 80.2309 88.151 80.3773 88.1384 80.4708C88.1661 80.6172 88.1938 80.7637 88.2872 80.7764C88.421 80.8421 88.4614 80.8951 88.3553 80.9759C88.3023 81.0163 88.1558 81.044 88.022 80.9783C87.8478 80.8595 87.7821 80.9933 87.8375 81.2863C87.8526 81.5262 87.8019 81.8999 87.6832 82.0741C87.4077 82.7027 87.9002 82.5792 88.4686 81.8951C88.9309 81.2918 88.984 81.2514 89.0268 81.6378C89.0418 81.8777 88.9634 82.1049 88.817 82.1326C88.6705 82.1603 88.6578 82.2538 88.7513 82.2664C88.8447 82.2791 88.9128 82.4786 88.8471 82.6124C88.8218 82.7993 88.7283 82.7866 88.7006 82.6401C88.6729 82.4937 88.6072 82.6275 88.5162 82.9481C88.4782 83.2284 88.2937 83.5364 88.1472 83.5641C88.0008 83.5918 87.9477 83.6322 88.1346 83.6575C88.2684 83.7233 88.2834 83.9631 88.2051 84.1904C88.0483 84.6449 88.0483 84.6449 87.7656 84.2735C87.5637 84.0083 87.3895 83.8896 87.3365 83.9299C87.2304 84.0107 87.3112 84.1168 87.4046 84.1295C87.498 84.1421 87.5257 84.2886 87.5004 84.4754C87.4347 84.6093 87.5028 84.8088 87.677 84.9275C87.8512 85.0463 87.932 85.1524 87.7728 85.2735C87.6667 85.3543 87.6414 85.5411 87.7222 85.6472C87.8029 85.7533 87.7903 85.8467 87.6842 85.9275C87.5781 86.0083 87.3936 86.3163 87.3026 86.6369C87.2116 86.9576 86.9083 87.4398 86.7769 87.7074C86.1301 88.6187 86.0541 89.1793 86.6044 89.682C87.2355 90.2908 87.6496 90.3945 88.0739 90.0715C88.3391 89.8696 88.3795 89.9226 88.4753 90.2686C88.5838 90.5212 88.5181 90.655 88.2782 90.67C88.0914 90.6447 88.1064 90.8846 88.1896 91.324C88.3939 91.9226 88.3939 91.9226 88.6314 91.5742C88.8158 91.2662 88.8689 91.2258 88.8586 91.6526C88.8357 92.1727 88.9568 92.3319 89.2347 92.0365C89.4469 91.875 89.4469 91.875 89.3685 92.1022C89.3028 92.236 89.2775 92.4229 89.3052 92.5694C89.3329 92.7158 89.2545 92.9431 89.0297 93.198C88.6204 93.761 88.6481 93.9075 89.196 94.0769C89.7439 94.2463 89.7439 94.2463 89.3599 94.6224C89.029 94.9581 89.0694 95.0111 89.5262 95.5012C89.8216 95.7791 90.0639 96.0974 90.0108 96.1377C89.9578 96.1781 90.3062 96.4156 90.748 96.6658C91.5912 97.1131 91.9142 97.5374 91.3006 97.5018C91.1138 97.4765 90.9143 97.5446 90.8082 97.6254C90.6364 97.84 91.0529 98.277 91.52 98.3403C91.7069 98.3656 91.881 98.4844 92.0022 98.6435C92.151 98.9491 92.098 98.9895 91.4844 98.9539C90.8708 98.9183 90.2572 98.8827 89.5502 98.8344C88.6563 98.7609 86.3103 98.871 86.1512 98.9922C86.0451 99.0729 85.6991 99.1687 85.3658 99.1711C84.6461 99.2163 83.8908 99.8751 82.9408 101.269C82.6376 101.751 82.0945 102.248 81.7762 102.49C81.3114 102.76 81.2584 102.801 81.3898 102.533C81.5616 102.319 81.4151 102.346 80.9908 102.669C80.6195 102.952 80.3416 103.247 80.3289 103.341C80.3163 103.434 80.1445 103.649 79.9046 103.664C79.6116 103.719 79.4929 103.893 79.5079 104.133C79.4699 104.414 79.3638 104.494 78.9775 104.537C78.4977 104.567 78.485 104.661 78.5935 104.913C78.702 105.166 78.6489 105.206 78.1818 105.143C77.9015 105.105 77.5682 105.107 77.6086 105.16C77.3711 105.509 77.1034 105.377 77.0203 104.938C76.9371 104.498 76.9902 104.458 77.3108 104.549C77.6315 104.64 77.5911 104.587 77.2958 104.309C77.0408 104.084 76.907 104.019 76.5761 104.354C76.2982 104.65 76.2729 104.837 76.5152 105.155C76.7852 105.62 76.7852 105.62 76.3054 105.65C76.0251 105.612 75.8129 105.773 75.8003 105.867C75.7876 105.96 75.5754 106.122 75.3355 106.137C75.0022 106.139 74.9491 106.179 75.3506 106.377C75.6586 106.561 75.6459 106.654 75.4337 106.816C75.0624 107.099 74.7291 107.101 74.7797 106.727C74.8581 106.5 74.7243 106.434 74.3783 106.53C73.7394 106.681 72.9437 107.287 73.277 107.285C73.4639 107.31 73.7164 107.202 73.8756 107.08C74.2999 106.757 74.5802 106.795 74.6103 107.275C74.6254 107.515 74.7465 107.674 74.8803 107.74C74.9738 107.753 75.0015 107.899 74.8954 107.98C74.7893 108.061 74.5494 108.076 74.3752 107.957C74.201 107.838 73.9611 107.853 73.749 108.015C73.5898 108.136 73.3119 108.431 73.1528 108.552C72.9279 108.807 72.8345 108.795 72.6453 108.436C72.4964 108.13 72.403 108.118 72.3246 108.345C72.2589 108.479 72.0594 108.547 71.9256 108.481C71.7514 108.362 71.5923 108.484 71.5265 108.617C71.4608 108.751 71.5289 108.951 71.7031 109.069C71.8369 109.135 71.8647 109.282 71.8116 109.322C71.7055 109.403 71.4807 109.658 71.2558 109.913C70.8719 110.289 70.9122 110.342 71.2329 110.433C71.7404 110.549 71.4752 110.751 70.955 110.728C70.6217 110.731 70.5686 110.771 70.6898 110.93C70.8109 111.089 70.7048 111.17 70.3311 111.119C69.811 111.096 69.5457 111.298 69.7603 111.47C69.8411 111.576 69.8284 111.67 69.8157 111.763C69.7096 111.844 69.6289 111.738 69.4674 111.526C69.1974 111.061 68.9321 111.263 69.1364 111.861C69.1919 112.154 69.1665 112.341 69.0327 112.275C68.8989 112.21 68.8585 112.157 68.9242 112.023C69.0303 111.942 68.8965 111.876 68.697 111.944C68.0985 112.149 67.9267 112.363 68.2877 112.507C68.5149 112.586 68.5427 112.732 68.3305 112.894C68.1587 113.108 67.9718 113.083 67.7169 112.858C67.5023 112.686 67.4619 112.633 67.4896 112.78C67.5577 112.979 67.5047 113.02 67.184 112.929C66.7699 112.825 66.7699 112.825 67.0122 113.143C67.2672 113.368 67.2141 113.408 66.747 113.345C66.1865 113.269 66.1865 113.269 66.4161 113.681C66.6457 114.093 66.3955 114.534 66.1002 114.256C66.0194 114.15 66.0321 114.057 66.1509 113.883C66.2569 113.802 66.2823 113.615 66.2015 113.509C65.9466 113.284 65.6964 113.726 65.8856 114.085C66.0345 114.39 66.0345 114.39 65.6734 114.246C65.4462 114.168 65.3528 114.155 65.4336 114.261C65.5143 114.367 65.5016 114.461 65.4486 114.501C65.3552 114.488 65.3299 114.675 65.398 114.875C65.5064 115.127 65.4534 115.168 65.2008 115.276C65.0013 115.344 64.8018 115.412 64.7488 115.453C64.6957 115.493 64.4305 115.695 64.0718 115.884C63.2888 116.397 63.2358 116.437 62.8645 116.72C62.7053 116.841 62.3593 116.937 62.1194 116.952C61.6523 116.888 61.5082 117.249 61.8439 117.58C62.1393 117.858 62.0332 117.939 61.4473 118.05C60.9548 118.173 60.384 118.524 59.7752 119.155C59.6034 119.37 59.1513 119.546 58.8584 119.602C58.472 119.645 58.3659 119.725 58.5931 119.804C58.8204 119.882 58.8077 119.976 58.4491 120.165C57.8782 120.516 57.7721 120.596 55.1705 122.242C53.9758 122.984 52.622 123.847 52.1169 124.064C51.6521 124.334 51.1343 124.644 50.9222 124.806C50.4851 125.222 49.2754 125.724 49.2603 125.484C49.273 125.391 49.1796 125.378 49.1265 125.418C49.0204 125.499 49.0481 125.646 49.0355 125.739C49.159 126.232 48.8938 126.434 48.6286 126.635C47.9113 127.014 46.517 127.824 46.1988 128.066C46.0396 128.187 45.7467 128.243 45.6002 128.271C45.4134 128.245 45.0547 128.434 44.7895 128.636C43.8347 129.363 43.1047 129.835 42.8244 129.797C42.6376 129.772 42.6376 129.772 42.7183 129.878C42.8395 130.037 42.7334 130.118 42.4278 130.267C42.1752 130.375 41.2988 130.875 40.5688 131.347C37.9546 133.086 37.7954 133.207 36.8533 133.84C36.3355 134.15 35.8177 134.461 35.6182 134.529C35.4717 134.557 35.3126 134.678 35.2999 134.771C35.2873 134.865 35.0877 134.933 34.9413 134.961C34.5549 135.003 33.4434 136.185 33.6579 136.356C33.7387 136.463 34.0443 136.314 34.3095 136.112C34.6278 135.869 34.893 135.668 35.0395 135.64C35.3855 135.544 33.5819 136.917 32.4276 137.712C31.6977 138.184 31.1925 138.401 30.8719 138.31C30.4578 138.206 30.4047 138.246 30.4879 138.686C30.4776 139.113 30.0533 139.436 29.5988 139.279C29.5054 139.266 29.5457 139.319 29.6796 139.385C29.8537 139.504 29.788 139.638 29.3637 139.961C27.785 141.079 27.3606 141.402 26.0369 142.745C25.2689 143.497 24.5944 144.262 24.5817 144.355C24.516 144.489 24.4226 144.476 24.3015 144.317C24.0869 144.145 24.0338 144.186 23.809 144.441C23.6372 144.655 23.425 144.817 23.2382 144.791C23.0513 144.766 22.7457 144.915 22.5613 145.223C22.4298 145.491 22.2707 145.612 22.3364 145.478C22.4021 145.344 22.334 145.145 22.2936 145.092C22.0791 144.92 21.7885 145.308 21.7125 145.869C21.6492 146.336 21.5962 146.377 21.2478 146.139C20.9802 146.008 20.8337 146.035 20.7149 146.21C20.5582 146.664 20.1893 147.28 20.1489 147.227C19.947 146.962 19.7855 146.75 19.5836 146.484ZM75.8916 79.5719C76.1442 79.4635 76.1442 79.4635 75.8235 79.3724C75.3564 79.3091 75.3033 79.3495 75.4649 79.5617C75.5987 79.6274 75.7855 79.6527 75.8916 79.5719ZM77.1704 83.1229C77.3953 82.8679 77.408 82.7745 77.0342 82.7238C76.8474 82.6985 76.6202 82.6201 76.5671 82.6605C76.5267 82.6075 76.5014 82.7943 76.4761 82.9812C76.5062 83.461 76.8269 83.552 77.1704 83.1229ZM76.1848 85.13C76.3313 85.1023 76.3036 84.9558 76.1698 84.8901C76.0486 84.7309 75.9022 84.7587 75.8895 84.8521C75.8768 84.9455 75.9045 85.092 75.9045 85.092C75.9449 85.145 76.1318 85.1704 76.1848 85.13ZM72.2774 81.3179C72.3835 81.2372 72.4088 81.0503 72.3684 80.9973C72.1538 80.8255 71.8609 80.8809 71.8759 81.1208C71.838 81.4011 72.1056 81.5325 72.2774 81.3179ZM81.6684 100.478C81.8806 100.316 82.012 100.049 81.9843 99.9021C81.9566 99.7556 81.704 99.8641 81.4792 100.119C80.9234 100.71 81.1253 100.975 81.6684 100.478ZM79.948 102.29C80.0541 102.209 80.0945 102.262 80.0692 102.449C80.0439 102.636 80.0716 102.783 80.0842 102.689C80.1373 102.649 80.2964 102.528 80.4959 102.459C80.6954 102.391 80.7081 102.298 80.5213 102.273C80.3344 102.247 80.3471 102.154 80.5466 102.086C80.7461 102.018 80.7184 101.871 80.4104 101.687C79.9409 101.29 79.1048 101.843 79.4809 102.227C79.6551 102.346 79.8419 102.371 79.948 102.29ZM71.0285 91.2338C71.228 91.1657 71.2485 90.3122 71.034 90.1404C70.9532 90.0343 70.8067 90.062 70.7537 90.1024C70.7006 90.1428 70.7687 90.3423 70.8899 90.5014C71.1045 90.6732 71.0514 90.7136 70.8242 90.6353C70.6373 90.6099 70.4909 90.6376 70.4655 90.8245C70.4679 91.1578 70.7759 91.3423 71.0285 91.2338ZM68.2496 94.1871C67.9543 93.9093 67.7144 93.9243 67.7168 94.2576C67.7318 94.4975 68.0398 94.682 68.2924 94.5735C68.4388 94.5458 68.3707 94.3463 68.2496 94.1871ZM68.674 93.8641C68.5528 93.705 68.366 93.6796 68.3533 93.7731C68.2472 93.8538 68.2749 94.0003 68.3684 94.013C68.4491 94.119 68.5956 94.0913 68.689 94.104C68.7824 94.1167 68.7951 94.0232 68.674 93.8641ZM70.152 91.7334C70.2328 91.8395 70.2985 91.7057 70.2304 91.5062C70.0665 90.9607 69.3468 91.0059 68.9375 91.5688C68.316 92.2933 68.5607 92.9449 69.2099 92.3669C69.4221 92.2054 69.7 91.91 69.7657 91.7762C69.8718 91.6954 70.0182 91.6677 70.152 91.7334ZM78.432 104.701C78.5381 104.62 78.5507 104.527 78.4573 104.514C78.4169 104.461 78.3235 104.448 78.177 104.476C78.0305 104.504 78.0179 104.597 78.1517 104.663C78.2451 104.676 78.3789 104.741 78.432 104.701ZM74.546 103.889C74.5991 103.849 74.6244 103.662 74.5436 103.556C74.4629 103.449 74.7281 103.248 75.1675 103.164C75.713 103 76.0717 102.811 76.481 102.248C76.7715 101.86 76.9687 101.458 76.9283 101.405C76.8879 101.352 76.7414 101.38 76.6884 101.42C76.5823 101.501 76.5419 101.448 76.4611 101.342C76.4057 101.049 75.9663 101.132 75.9283 101.412C75.903 101.599 75.9434 101.652 76.1833 101.637C76.4232 101.622 76.4232 101.622 76.3044 101.796C76.1983 101.877 76.0138 102.185 75.8421 102.4L75.5515 102.788L75.5341 102.215C75.5823 101.508 75.2086 101.457 74.9204 102.179C74.7233 102.581 74.6576 102.715 74.4304 102.636C74.2966 102.571 74.2966 102.571 74.443 102.543C74.5895 102.515 74.6426 102.475 74.5618 102.369C74.481 102.263 74.2689 102.424 74.0567 102.586C73.6727 102.962 73.7131 103.015 74.2658 103.851C74.3996 103.917 74.493 103.929 74.546 103.889ZM72.4486 101.464C72.5697 101.623 72.7035 101.689 72.7162 101.595C72.7289 101.502 72.5547 101.383 72.4209 101.317C72.2467 101.199 72.2871 101.252 72.4486 101.464ZM70.9117 99.1148C71.1643 99.0064 71.1365 98.8599 71.0154 98.7008C70.9346 98.5947 70.8008 98.529 70.7478 98.5693C70.6947 98.6097 70.5886 98.6905 70.3891 98.7586C70.1896 98.8267 70.2173 98.9732 70.2981 99.0792C70.5127 99.251 70.6995 99.2764 70.9117 99.1148ZM73.6395 103.909C73.801 104.121 73.9879 104.146 74.0409 104.106C74.2 103.985 73.569 103.376 73.1549 103.272C73.0211 103.206 72.8216 103.275 72.8493 103.421C72.8113 103.701 73.0663 103.926 73.2254 103.805C73.2911 103.671 73.4653 103.79 73.6395 103.909ZM73.1114 104.646C73.2326 104.805 73.4321 104.737 73.5912 104.616C73.8691 104.32 73.7884 104.214 73.3339 104.058C72.9198 103.954 72.7757 104.315 73.1114 104.646ZM60.4627 92.323C60.3566 92.4037 60.4374 92.5098 60.4777 92.5629C60.5585 92.669 60.705 92.6412 60.758 92.6009C60.8641 92.5201 60.7834 92.414 60.743 92.361C60.6622 92.2549 60.5688 92.2422 60.4627 92.323ZM69.3118 102.846C69.4052 102.859 69.5113 102.778 69.5366 102.591C69.6023 102.458 69.5089 102.445 69.3497 102.566C69.3244 102.753 69.2183 102.834 69.3118 102.846ZM63.4376 98.1018C63.3695 97.9023 63.4756 97.8215 63.7558 97.8595C64.223 97.9228 64.4882 97.7209 64.1271 97.5768C63.8999 97.4984 63.8999 97.4984 64.2332 97.4961C64.4201 97.5214 64.7787 97.3321 64.9505 97.1176C65.2815 96.7818 65.3345 96.7415 64.827 96.6251C64.4129 96.5214 64.1604 96.6299 63.6172 97.1271C62.968 97.7051 62.9554 97.7986 63.2507 98.0764C63.4526 98.3417 63.5057 98.3013 63.4376 98.1018ZM70.8979 108.342C71.1251 108.42 71.0974 108.274 70.8147 107.902C70.5321 107.531 70.3983 107.465 70.2391 107.587C70.0673 107.801 70.4434 108.185 70.8979 108.342ZM69.7514 108.377C69.8045 108.336 69.7768 108.19 69.7894 108.096C69.7617 107.95 69.6683 107.937 69.5622 108.018C69.4561 108.099 69.4838 108.245 69.5242 108.298C69.658 108.364 69.7514 108.377 69.7514 108.377ZM60.5605 100.376C60.505 100.083 60.2525 100.191 59.3634 100.784C58.4086 101.511 58.027 102.221 58.7847 101.895C58.9842 101.827 58.9438 101.774 58.81 101.708C58.5297 101.67 59.6437 100.822 60.2422 100.618C60.4821 100.603 60.5882 100.522 60.5605 100.376ZM67.9948 112.563C68.1135 112.389 68.0858 112.242 67.952 112.176C67.8182 112.111 67.7525 112.245 67.7272 112.431C67.7573 112.911 67.7976 112.964 67.9948 112.563ZM65.526 110.42C65.6851 110.299 65.8973 110.138 65.9907 110.15C66.0842 110.163 66.3367 110.055 66.4024 109.921C66.5616 109.8 66.708 109.772 66.6954 109.865C66.7231 110.012 66.8292 109.931 66.9479 109.757C67.3169 109.141 66.8473 108.744 66.385 109.348C66.2789 109.428 66.0794 109.496 65.8925 109.471C65.6123 109.433 65.4531 109.554 65.3217 109.822C65.1903 110.09 65.0438 110.117 64.91 110.052C64.8292 109.945 64.6828 109.973 64.7105 110.12C64.6598 110.493 65.2481 110.716 65.526 110.42ZM58.0951 102.42C58.2162 102.579 58.3627 102.552 58.3754 102.458C58.388 102.365 58.3199 102.165 58.2795 102.112C58.1988 102.006 58.0523 102.034 57.9993 102.074C57.9462 102.115 57.9739 102.261 58.0951 102.42ZM52.7122 106.686C53.1793 106.749 53.2577 106.522 52.9624 106.244C52.6267 105.913 52.2403 105.956 52.2023 106.236C52.1643 106.516 52.3385 106.635 52.7122 106.686ZM58.0846 115.834C58.2058 115.993 58.3926 116.018 58.4053 115.925C58.5114 115.844 58.4837 115.698 58.3903 115.685C58.3095 115.579 58.1226 115.554 58.0696 115.594C57.9231 115.622 57.9105 115.715 58.0846 115.834ZM50.2142 120.904C50.2672 120.864 50.2395 120.717 50.2521 120.624C50.2244 120.477 50.131 120.464 50.0249 120.545C49.9188 120.626 49.9465 120.772 49.9869 120.826C50.1207 120.891 50.1611 120.944 50.2142 120.904ZM41.222 114.595C41.3685 114.567 41.3811 114.474 41.2473 114.408C41.1666 114.302 41.0201 114.33 40.967 114.37C40.8609 114.451 40.8483 114.544 40.9417 114.557C40.9821 114.61 41.1286 114.582 41.222 114.595ZM16.7618 130.451C16.8148 130.41 16.7871 130.264 16.7467 130.211C16.719 130.064 16.6256 130.052 16.5195 130.133C16.4134 130.213 16.4411 130.36 16.5346 130.372C16.6153 130.479 16.7087 130.491 16.7618 130.451Z" fill="white"/>
<path d="M15.3819 133.261C15.3289 133.301 15.1824 133.329 15.1016 133.223C15.0209 133.117 15.0335 133.023 15.127 133.036C15.2734 133.008 15.3669 133.021 15.4072 133.074C15.4476 133.127 15.435 133.22 15.3819 133.261Z" fill="white"/>
<path d="M15.7991 131.938C15.693 132.019 15.6653 131.872 15.7437 131.645C15.8751 131.377 15.9281 131.337 15.9962 131.536C16.0239 131.683 15.9052 131.857 15.7991 131.938Z" fill="white"/>
<path d="M72.1624 109.893C72.2835 110.052 72.2709 110.145 72.1774 110.133C72.031 110.16 71.9375 110.148 71.8972 110.095C71.8568 110.042 71.8694 109.948 71.8821 109.855C71.9478 109.721 72.0816 109.787 72.1624 109.893Z" fill="white"/>
<path d="M72.521 109.704C72.6271 109.623 72.7206 109.635 72.8013 109.742C72.8821 109.848 72.8694 109.941 72.8164 109.981C72.7103 110.062 72.6169 110.05 72.5361 109.943C72.4957 109.89 72.468 109.744 72.521 109.704Z" fill="white"/>
<path d="M72.3421 108.918C72.5289 108.943 72.6881 108.822 72.6603 108.676C72.673 108.582 72.7538 108.689 72.8092 108.981C73.0135 109.58 72.7609 109.689 72.3041 109.198C72.0895 109.027 72.1022 108.933 72.3421 108.918Z" fill="white"/>
<path d="M76.0244 107.372C76.1052 107.478 76.1329 107.624 76.0798 107.665C75.9737 107.745 75.9207 107.786 75.8803 107.733C75.8399 107.68 75.8526 107.586 75.8249 107.44C75.8502 107.253 75.9436 107.266 76.0244 107.372Z" fill="white"/>
<path d="M72.4119 79.6236C72.2654 79.6513 72.3311 79.5175 72.5963 79.3156C72.7681 79.101 72.9146 79.0733 72.8489 79.2071C72.7302 79.3813 72.5584 79.5959 72.4119 79.6236Z" fill="white"/>
<path d="M75.0515 77.6979C74.9454 77.7787 74.7989 77.8064 74.7181 77.7003C74.6374 77.5942 74.65 77.5008 74.7688 77.3266C74.8749 77.2458 75.0214 77.2181 75.1021 77.3242C75.1829 77.4303 75.1576 77.6172 75.0515 77.6979Z" fill="white"/>
<path d="M86.933 89.013C86.5315 88.8158 86.5315 88.8158 86.6756 88.4548C86.807 88.1872 86.9005 88.1998 87.0897 88.5585C87.4531 89.0359 87.3344 89.2101 86.933 89.013Z" fill="white"/>
<path d="M76.2383 77.7161C76.0792 77.8372 75.8796 77.9053 75.8393 77.8523C75.7585 77.7462 75.7712 77.6528 75.8899 77.4786C75.996 77.3978 76.1955 77.3297 76.289 77.3424C76.3697 77.4485 76.3571 77.5419 76.2383 77.7161Z" fill="white"/>
<path d="M87.2037 87.7177C87.4816 87.4223 87.6154 87.488 87.4713 87.8491C87.4056 87.9829 87.2464 88.104 87.153 88.0914C87.0192 88.0257 87.0849 87.8918 87.2037 87.7177Z" fill="white"/>
<path d="M89.2235 88.6099C89.4784 88.8347 89.5465 89.0342 89.4681 89.2615C89.3771 89.5821 89.2837 89.5694 88.7334 89.0667C88.3977 88.7358 88.1554 88.4175 88.1554 88.4175C88.1403 88.1776 88.8347 88.3193 89.2235 88.6099Z" fill="white"/>
<path d="M78.0997 76.9694C78.2335 77.0351 78.2208 77.1285 78.1147 77.2093C78.0086 77.29 77.8091 77.3581 77.7157 77.3455C77.5819 77.2798 77.5945 77.1863 77.7006 77.1056C77.8598 76.9844 77.9658 76.9037 78.0997 76.9694Z" fill="white"/>
<path d="M88.0041 87.7786C87.9234 87.6725 87.936 87.5791 88.0952 87.4579C88.2013 87.3772 88.3073 87.2964 88.3477 87.3494C88.3881 87.4025 88.3754 87.4959 88.2567 87.6701C88.1379 87.8443 88.1379 87.8443 88.0041 87.7786Z" fill="white"/>
<path d="M89.0698 87.6376C89.1759 87.5568 89.282 87.4761 89.3224 87.5291C89.3628 87.5822 89.297 87.716 89.2313 87.8498C89.1656 87.9836 89.0595 88.0644 88.9788 87.9583C88.9384 87.9052 88.9107 87.7587 89.0698 87.6376Z" fill="white"/>
<path d="M80.064 77.5686C79.8542 78.0635 79.8542 78.0635 79.6903 77.518C79.3775 76.6669 79.0822 76.389 79.0996 76.9622C79.1297 77.442 78.9983 77.7096 78.7434 77.4848C78.6626 77.3787 78.7006 77.0984 78.7386 76.8181C78.8423 76.404 78.9484 76.3233 79.269 76.4143C79.4963 76.4927 79.7892 76.4372 79.9483 76.3161C80.1732 76.0611 80.2136 76.1142 80.2033 76.5409C80.2587 76.8339 80.1954 77.301 80.064 77.5686Z" fill="white"/>
<path d="M89.6834 87.6732C89.9233 87.6581 89.9257 87.9915 89.6731 88.1C89.4736 88.1681 89.4736 88.1681 89.4586 87.9282C89.4712 87.8347 89.59 87.6605 89.6834 87.6732Z" fill="white"/>
<path d="M88.8789 85.1856C88.9319 85.1452 89.1037 84.9306 89.1821 84.7034C89.3135 84.4358 89.4726 84.3146 89.7529 84.3526C90.0863 84.3502 90.1266 84.4033 90.076 84.777C89.9596 85.2845 90.3357 85.6685 90.9089 85.651C91.2953 85.6082 91.2826 85.7017 90.8456 86.1182C90.3959 86.6281 89.8227 86.6455 90.0325 86.1507C90.0982 86.0168 90.0024 85.6709 89.7878 85.4991C89.4925 85.2212 89.3991 85.2085 89.2146 85.5165C88.9644 85.9583 88.9114 85.9987 88.7878 85.5062C88.8005 85.4128 88.8258 85.226 88.8789 85.1856Z" fill="white"/>
<path d="M80.7694 75.5235C80.7187 75.8972 80.5065 76.0587 80.4637 75.6724C80.4234 75.6193 80.5421 75.4451 80.7013 75.324C80.82 75.1498 80.8604 75.2028 80.7694 75.5235Z" fill="white"/>
<path d="M86.6483 80.9348C86.5549 80.9221 86.5145 80.8691 86.4868 80.7226C86.4995 80.6292 86.5652 80.4954 86.5778 80.402C86.6839 80.3212 86.7243 80.3742 86.7394 80.6141C86.8075 80.8137 86.7418 80.9475 86.6483 80.9348Z" fill="white"/>
<path d="M86.6364 79.2682C86.5303 79.3489 86.4369 79.3363 86.3561 79.2302C86.2753 79.1241 86.288 79.0307 86.341 78.9903C86.4471 78.9095 86.5406 78.9222 86.6213 79.0283C86.7147 79.0409 86.7425 79.1874 86.6364 79.2682Z" fill="white"/>
<path d="M86.8469 77.0133C86.9909 76.6522 87.1097 76.478 87.2965 76.5034C87.4834 76.5287 87.5111 76.6752 87.3267 76.9832C86.9577 77.5992 86.5714 77.6419 86.8469 77.0133Z" fill="white"/>
<path d="M88.2476 78.9633C88.1541 78.9506 88.1668 78.8572 88.3259 78.736C88.4851 78.6149 88.5381 78.5745 88.5128 78.7614C88.4471 78.8952 88.341 78.9759 88.2476 78.9633Z" fill="white"/>
<path d="M89.3813 79.0218C89.3687 79.1152 89.2499 79.2894 89.0377 79.451L88.7195 79.6932L88.8762 79.2388C89.1264 78.797 89.3789 78.6885 89.3813 79.0218Z" fill="white"/>
<path d="M85.8739 78.927C85.98 78.8462 86.0734 78.8589 86.1138 78.9119C86.1542 78.965 86.1415 79.0584 86.0354 79.1392C85.9293 79.2199 85.8359 79.2073 85.7955 79.1542C85.7551 79.1012 85.7678 79.0077 85.8739 78.927Z" fill="white"/>
</g>
<g opacity="0.25">
<path d="M106.048 59.5999C105.654 59.6687 105.445 59.6375 105.477 59.429C105.519 59.2862 105.442 59.232 105.257 59.3321C105.137 59.4207 104.94 59.4551 104.851 59.3353C104.774 59.2811 104.434 59.2728 104.172 59.3187C103.92 59.4303 103.646 59.4105 103.635 59.3448C103.612 59.2135 102.635 59.0458 102.384 59.1574C102.318 59.1688 102.341 59.3002 102.364 59.4315C102.387 59.5629 102.541 59.6713 102.661 59.5826C102.792 59.5597 102.858 59.5482 102.804 59.6253C102.75 59.7025 102.41 59.6942 101.981 59.566C101.553 59.4379 101.016 59.464 100.699 59.5871C100.251 59.7331 100.185 59.7446 100.062 59.4277C100.016 59.165 99.8621 59.0566 99.6651 59.091C99.4681 59.1255 99.4254 59.2683 99.514 59.3881C99.6026 59.508 99.5599 59.6508 99.4286 59.6738C99.2972 59.6967 99.2201 59.6425 99.2513 59.434C99.294 59.2912 99.1939 59.1057 99.0511 59.063C98.9083 59.0203 98.8541 59.0974 99.0084 59.2058C99.1627 59.3142 99.1085 59.3913 98.703 59.3945C98.4288 59.3747 98.1547 59.355 98.0775 59.3008C98.0004 59.2466 97.7262 59.2268 97.4093 59.3499C97.0925 59.4729 96.8183 59.4532 96.8068 59.3875C96.7953 59.3218 96.2897 59.1395 95.7299 59.0343C95.1701 58.9291 94.5874 58.6925 94.4988 58.5726C94.4101 58.4528 94.0359 58.2475 93.7502 58.162C93.4646 58.0766 93.179 57.9912 93.2217 57.8483C93.2759 57.7712 93.1216 57.6628 92.9246 57.6972C92.5962 57.7546 92.5847 57.6889 92.9016 57.5659C93.3498 57.4199 93.3154 57.2229 92.7097 56.855C92.324 56.584 92.3125 56.5183 92.4751 56.2869C92.6491 56.1211 92.6377 56.0554 92.4521 56.1555C92.3208 56.1785 92.1894 56.2014 92.2436 56.1243C92.2978 56.0472 92.132 55.8731 91.9121 55.7762C91.6921 55.6793 90.9551 55.3343 90.2952 55.0436C89.4153 54.6559 89.0952 54.3735 89.115 54.0993C89.0806 53.9023 88.9805 53.7168 88.9148 53.7282C88.6636 53.8398 88.1516 52.8464 88.3913 52.6692C88.5112 52.5806 88.4341 52.5264 88.2141 52.4295C88.0056 52.3982 87.917 52.2784 87.9597 52.1355C88.0024 51.9927 87.9138 51.8728 87.7825 51.8958C87.6396 51.8531 87.551 51.7332 87.4739 51.679C87.4509 51.5477 87.5166 51.5362 87.5823 51.5247C87.6594 51.5789 87.8449 51.4788 87.9419 51.2588C88.1044 51.0274 88.1701 51.0159 88.0732 51.2359C88.0305 51.3787 88.2077 51.6184 88.4934 51.7039C89.0761 51.9404 89.3044 51.6975 88.7873 51.4495C88.5673 51.3526 88.4016 51.1785 88.3901 51.1128C88.3212 50.7188 88.1555 50.5448 87.7614 50.6136C87.4331 50.671 87.3789 50.7481 87.4248 51.0108C87.6167 51.7217 86.1381 49.07 85.7116 47.791C85.5885 47.4741 85.3342 47.1802 85.1799 47.0718C84.9599 46.9749 84.8368 46.658 84.8024 46.461C84.7877 45.9898 84.2445 45.205 83.3615 44.4118C82.9643 44.0751 82.8527 43.8239 82.9611 43.6696C83.0809 43.581 83.0236 43.2526 82.912 43.0014C82.3885 41.9424 81.8848 40.6092 82.0704 40.5091C82.1361 40.4976 82.0557 40.0379 81.8326 39.5355C81.5979 38.9674 81.4634 38.5849 81.5948 38.5619C81.7918 38.5275 81.7459 38.2648 81.5425 37.4882C81.4966 37.2255 81.5393 37.0827 81.7478 37.114C81.9563 37.1452 82.0105 37.0681 81.9218 36.9482C81.7363 37.0483 81.5935 37.0056 81.4621 37.0285C81.2766 37.1286 81.1504 36.4062 81.1899 35.8579C81.1982 35.5181 81.2294 35.3096 81.0834 34.8614C81.049 34.6643 81.1032 34.5872 81.2345 34.5643C81.3774 34.607 81.4201 34.4641 81.3315 34.3443C81.3085 34.2129 81.1657 34.1702 81.1115 34.2474C81.0573 34.3245 80.903 34.2161 80.8686 34.0191C80.8341 33.8221 80.8654 33.6136 80.9311 33.6021C81.0624 33.5792 81.028 33.3822 80.8507 33.1424C80.6735 32.9027 80.639 32.7057 80.8361 32.6713C80.9674 32.6483 81.0101 32.5055 80.933 32.4513C80.8558 32.3971 80.8985 32.2543 81.0184 32.1656C81.1383 32.077 81.1268 32.0114 80.8756 32.1229C80.4274 32.2689 80.2584 31.6894 80.6952 31.4777C81.0006 31.289 81.0433 31.1462 80.8004 30.9179C80.4459 30.4384 80.3655 29.9787 80.648 29.6587C80.9419 29.4043 80.9419 29.4043 80.5791 29.2646C80.2163 29.125 80.2163 29.125 80.4217 28.7507C80.5728 28.4536 80.5925 28.1795 80.4153 27.9397C80.1265 27.4488 80.1118 26.9776 80.4631 27.0516C80.5288 27.0401 80.7028 26.8743 80.7456 26.7315C80.8737 26.303 80.7851 26.1832 80.4682 26.3062C80.3369 26.3292 80.1169 26.2323 79.9511 26.0582C79.6853 25.6986 79.7363 25.2159 79.9218 25.1158C79.9875 25.1044 79.9071 24.6447 79.7611 24.1964C79.6037 23.6826 79.5233 23.2229 79.5775 23.1457C79.6317 23.0686 79.6056 22.5317 79.4366 21.9521C79.2677 21.3726 79.1644 20.7815 79.2071 20.6387C79.3238 20.1446 79.2173 19.148 78.9336 17.9118C78.581 16.2814 78.5695 16.2158 78.9259 15.5444C79.1427 15.2358 79.1625 14.9616 79.1083 15.0388C78.9113 15.0732 78.4503 13.5972 78.5472 13.3772C78.6014 13.3001 78.5013 13.1146 78.3356 12.9405C78.1698 12.7664 78.1124 12.4381 78.1551 12.2952C78.1864 12.0868 78.1602 11.5499 78.0027 11.036C77.8453 10.5221 77.7649 10.0624 77.8077 9.9196C77.8504 9.77678 77.77 9.31708 77.624 8.86886C77.2402 7.44704 77.1994 6.43901 77.4506 6.32743C77.582 6.30448 77.5705 6.23882 77.362 6.20757C77.0764 6.12213 77.0534 5.99079 76.9584 5.05991C76.9208 4.45739 76.6913 3.14396 76.3648 2.0505C75.9727 0.968513 75.8006 -0.0165554 75.8548 -0.0937058C75.8975 -0.236523 75.8401 -0.564883 75.7171 -0.881763C75.594 -1.19864 75.5366 -1.527 75.645 -1.6813C75.8191 -1.84707 75.8076 -1.91274 75.6221 -1.81264C75.4907 -1.78969 75.3364 -1.89808 75.2363 -2.08362C75.1133 -2.4005 75.179 -2.41197 75.5303 -2.33801C75.8931 -2.19838 75.8931 -2.19838 75.7043 -2.50378C75.2842 -2.97178 74.5573 -4.80739 74.8544 -4.65628C75.0202 -4.48222 75.0744 -4.55937 75.0942 -4.83353C75.1567 -5.25051 75.1452 -5.31618 74.7626 -5.18165C74.5656 -5.14722 74.3227 -5.37548 74.0881 -5.94357C73.8764 -6.38032 73.5334 -6.79411 73.3791 -6.90251C72.9506 -7.03066 72.7702 -7.6759 72.7409 -8.61826C72.7887 -9.50641 72.6248 -10.8313 72.3921 -12.5503C72.2659 -13.2726 72.2825 -13.9523 72.3367 -14.0295C72.4565 -14.1181 72.4336 -14.2494 72.2136 -14.3463C71.9936 -14.4432 71.905 -14.5631 71.8935 -14.6288C71.8821 -14.6945 71.8821 -14.6945 71.8706 -14.7601C71.6047 -15.1197 71.4702 -15.5023 71.5786 -15.6566C71.7099 -15.6795 71.6755 -15.8765 71.5754 -16.0621C71.4753 -16.2476 71.4294 -16.5103 71.4606 -16.7188C71.4919 -16.9273 71.446 -17.19 71.2687 -17.4297C71.0258 -17.658 71.0685 -17.8008 71.2655 -17.8352C71.4626 -17.8696 71.4938 -18.0781 71.4479 -18.3408C71.4135 -18.5378 71.3561 -18.8662 71.3217 -19.0632C71.2987 -19.1945 71.1329 -19.3686 71.0673 -19.3571C70.9244 -19.3999 70.89 -19.5969 70.8441 -19.8596C70.8524 -20.1994 70.7638 -20.3193 70.6554 -20.165C70.5355 -20.0763 70.4584 -20.1305 70.4781 -20.4047C70.4864 -20.7445 70.4864 -20.7445 70.6522 -20.5705C70.7408 -20.4506 70.8951 -20.3422 70.9608 -20.3537C71.0265 -20.3652 71.1922 -20.1911 71.2267 -19.9941C71.2726 -19.7314 71.4383 -19.5573 71.6353 -19.5918C71.7667 -19.6147 71.898 -19.6377 71.7552 -19.6804C71.6781 -19.7346 71.6551 -19.8659 71.7093 -19.9431C71.8834 -20.1088 71.5257 -20.9938 71.094 -21.5275C70.9283 -21.7015 71.0596 -21.7245 71.3567 -21.5734C71.9395 -21.3368 72.0594 -21.4255 72.0332 -21.9623C72.053 -22.2365 72.1499 -22.4564 72.227 -22.4022C72.3699 -22.3595 72.4241 -22.4367 72.4011 -22.568C72.3782 -22.6994 72.498 -22.788 72.6836 -22.8881C73.0119 -22.9455 73.1203 -23.0998 73.0087 -23.351C72.8857 -23.6678 72.8085 -23.722 72.6459 -23.4906C72.5376 -23.3363 72.352 -23.2362 72.2749 -23.2904C72.1977 -23.3446 72.229 -23.5531 72.3374 -23.7074C72.5114 -23.8731 72.6083 -24.0931 72.5854 -24.2245C72.5739 -24.2901 72.6593 -24.5758 72.8219 -24.8072C73.0929 -25.193 73.1586 -25.2044 73.4557 -25.0533C73.7528 -24.9022 73.7643 -24.8365 73.5245 -24.6593C73.3505 -24.4935 73.362 -24.4278 73.6361 -24.4081C73.8446 -24.3768 74.1647 -24.0944 74.3993 -23.5263C74.6225 -23.0239 74.977 -22.5444 75.1198 -22.5017C75.2855 -22.3276 75.5827 -22.1765 75.8141 -22.0139C76.0455 -21.8513 76.254 -21.8201 76.3854 -21.8431C76.5052 -21.9317 76.5939 -21.8118 76.5084 -21.5262C76.3918 -21.032 76.7577 -20.4869 77.3947 -20.3275C77.8231 -20.1993 77.8231 -20.1993 77.5949 -19.9564C77.4865 -19.8021 77.3896 -19.5822 77.401 -19.5165C77.424 -19.3851 77.4897 -19.3966 77.5439 -19.4738C77.5981 -19.5509 77.8065 -19.5197 77.9608 -19.4113C78.1923 -19.2487 78.3122 -19.3373 78.5143 -20.1171C78.7279 -20.8312 78.7049 -20.9625 78.4652 -20.7853C78.2254 -20.608 78.1483 -20.6622 78.068 -21.1219C78.0106 -21.4503 77.9105 -21.6358 77.7135 -21.6014C77.4508 -21.5555 76.9879 -21.8807 76.942 -22.1434C76.9305 -22.209 76.8534 -22.2632 76.722 -22.2403C76.5907 -22.2173 76.525 -22.2058 76.5792 -22.283C76.6334 -22.3601 76.5218 -22.6113 76.3561 -22.7854C76.013 -23.1992 75.8294 -24.2499 76.1807 -24.176C76.3235 -24.1333 76.4007 -24.0791 76.358 -23.9362C76.284 -23.5849 76.6927 -23.1826 77.3297 -23.0232C77.8895 -22.918 77.8895 -22.918 77.5694 -23.2005C77.3379 -23.3631 77.0721 -23.7227 77.0376 -23.9197C76.9261 -24.1709 76.6914 -24.739 76.4798 -25.1757C76.168 -25.798 76.1221 -26.0607 76.3191 -26.0951C76.4504 -26.1181 76.4932 -26.2609 76.3274 -26.435C76.2388 -26.5548 76.1814 -26.8832 76.2241 -27.026C76.3095 -27.3116 76.3752 -27.3231 76.5639 -27.0177C76.664 -26.8322 76.9611 -26.6811 77.2238 -26.727C77.5522 -26.7843 77.6523 -26.5988 77.9099 -25.8994C78.0559 -25.4511 78.3447 -24.9602 78.499 -24.8518C78.8076 -24.635 78.7846 -24.7664 78.4926 -25.6628C78.3237 -26.2424 78.112 -26.6791 77.9806 -26.6562C77.915 -26.6447 77.8378 -26.6989 77.8264 -26.7646C77.8149 -26.8302 77.4719 -27.244 77.1403 -27.5922C76.5231 -28.0257 76.2573 -28.3853 76.3115 -28.4625C76.3657 -28.5396 76.4313 -28.5511 76.4543 -28.4198C76.4658 -28.3541 76.5856 -28.4427 76.7597 -28.6085C77.0307 -28.9942 76.9848 -29.2569 76.6679 -29.1339C76.548 -29.0452 76.328 -29.1421 76.3051 -29.2735C76.1935 -29.5247 76.2477 -29.6018 76.8273 -29.7708C77.2098 -29.9053 77.5152 -30.0941 77.5038 -30.1597C77.4923 -30.2254 77.6007 -30.3797 77.732 -30.4026C77.929 -30.4371 78.0718 -30.3944 78.0406 -30.1859C78.075 -29.9888 77.901 -29.8231 77.6383 -29.7772C77.3756 -29.7313 77.2557 -29.6426 77.3444 -29.5228C77.5758 -29.3602 77.4311 -28.2521 77.2226 -28.2833C77.0797 -28.326 77.0256 -28.2489 76.9828 -28.1061C76.9401 -27.9632 77.2028 -28.0091 77.5854 -28.1437C77.9679 -28.2782 78.2076 -28.4555 78.119 -28.5753C78.0304 -28.6952 78.0074 -28.8265 78.1273 -28.9152C78.2472 -29.0038 78.2127 -29.2008 78.1241 -29.3207C77.9469 -29.5604 77.9469 -29.5604 78.2555 -29.3436C78.4098 -29.2352 78.61 -28.8641 78.6017 -28.5243C78.6393 -27.9218 79.1136 -27.5309 79.6275 -27.6884C79.8902 -27.7343 79.8787 -27.8 79.6703 -27.8312C79.2533 -27.8937 78.9842 -28.6588 79.224 -28.8361C79.3438 -28.9247 79.4981 -28.8163 79.5325 -28.6193C79.6556 -28.3024 80.4041 -27.8918 80.2811 -28.2087C80.2696 -28.2744 80.3353 -28.2858 80.4896 -28.1775C80.721 -28.0149 80.7752 -28.092 80.8262 -28.5747C80.9199 -29.2001 80.6311 -29.6911 80.3487 -29.371C80.2288 -29.2824 80.2517 -29.151 80.3289 -29.0969C80.406 -29.0427 80.429 -28.9113 80.2977 -28.8884C80.1663 -28.8654 80.012 -28.9738 79.9776 -29.1708C79.9432 -29.3678 79.7232 -29.4647 79.449 -29.4845C79.1863 -29.4386 79.032 -29.547 78.9549 -29.6012C78.9319 -29.7325 79.0633 -29.7555 79.2603 -29.7899C79.4688 -29.7587 79.5772 -29.913 79.4886 -30.0328C79.4656 -30.1642 79.4969 -30.3727 79.6167 -30.4613C79.7366 -30.5499 79.5938 -30.5926 79.2539 -30.6009C78.7056 -30.6405 78.5628 -30.6832 78.5284 -30.8802C78.5711 -31.023 78.4939 -31.0772 78.3741 -30.9886C78.2542 -30.9 78.1885 -30.8885 78.177 -30.9542C78.1656 -31.0198 78.0655 -31.2054 77.9654 -31.3909C77.8767 -31.5108 77.908 -31.7193 77.9737 -31.7307C78.105 -31.7537 78.1822 -31.6995 78.2166 -31.5025C78.251 -31.3055 78.3938 -31.2627 78.5252 -31.2857C78.6565 -31.3086 78.6336 -31.44 78.5564 -31.4942C78.4793 -31.5484 78.4563 -31.6797 78.5877 -31.7027C78.719 -31.7256 78.8618 -31.6829 78.939 -31.6287C79.0818 -31.586 79.2246 -31.5433 79.2788 -31.6204C79.3987 -31.709 79.4643 -31.7205 79.4873 -31.5892C79.4988 -31.5235 79.456 -31.3807 79.3362 -31.2921C79.1506 -31.192 79.2393 -31.0721 79.5249 -30.9867C79.7449 -30.8897 80.0535 -30.673 80.1536 -30.4874C80.5852 -29.9538 80.7019 -30.4479 80.3557 -31.2672C80.0324 -31.9552 80.021 -32.0208 80.3837 -31.8812C80.6037 -31.7843 80.7695 -31.6102 80.7268 -31.4674C80.684 -31.3246 80.7612 -31.2704 80.8154 -31.3475C80.8696 -31.4247 81.0781 -31.3934 81.1667 -31.2736C81.321 -31.1652 81.2668 -31.088 81.124 -31.1307C80.9812 -31.1735 81.0698 -31.0536 81.3127 -30.8253C81.5441 -30.6628 81.7329 -30.3574 81.6901 -30.2145C81.6474 -30.0717 81.6589 -30.006 81.7673 -30.1603C81.8872 -30.249 82.1071 -30.152 82.2729 -29.978C82.6044 -29.6299 82.6044 -29.6299 82.1447 -29.5495C81.8164 -29.4921 81.6308 -29.392 81.6423 -29.3264C81.6653 -29.195 81.7966 -29.218 81.8508 -29.2951C81.905 -29.3723 82.0478 -29.3296 82.2021 -29.2212C82.2907 -29.1013 82.4992 -29.0701 82.6848 -29.1702C82.8703 -29.2703 83.0017 -29.2932 83.0361 -29.0962C83.059 -28.9649 83.2133 -28.8565 83.3447 -28.8794C83.476 -28.9024 83.5532 -28.8482 83.5761 -28.7168C83.5991 -28.5855 83.7878 -28.2801 84.0307 -28.0518C84.2736 -27.8236 84.5625 -27.3326 84.7397 -27.0929C85.2517 -26.0995 85.7146 -25.7744 86.414 -26.0319C87.2448 -26.3125 87.5272 -26.6325 87.4354 -27.1579C87.378 -27.4863 87.4437 -27.4977 87.795 -27.4238C88.0692 -27.404 88.1578 -27.2841 88.0609 -27.0642C87.9525 -26.9099 88.1725 -26.813 88.6009 -26.6848C89.2264 -26.5911 89.2264 -26.5911 89.0262 -26.9622C88.8375 -27.2676 88.826 -27.3332 89.2003 -27.1279C89.6517 -26.8684 89.8487 -26.9029 89.7142 -27.2854C89.6683 -27.5481 89.6683 -27.5481 89.834 -27.374C89.9226 -27.2542 90.0769 -27.1458 90.2198 -27.1031C90.3626 -27.0603 90.5284 -26.8863 90.6514 -26.5694C90.9632 -25.9471 91.106 -25.9044 91.5083 -26.3131C91.9106 -26.7218 91.9106 -26.7218 92.0681 -26.2079C92.2141 -25.7597 92.2798 -25.7711 92.925 -25.9516C93.3076 -26.0861 93.7016 -26.155 93.7131 -26.0893C93.7246 -26.0236 94.0956 -26.2238 94.5209 -26.5012C95.3058 -27.0444 95.8312 -27.1362 95.5175 -26.6076C95.4091 -26.4533 95.3778 -26.2448 95.4008 -26.1135C95.5124 -25.8623 96.0919 -26.0312 96.3629 -26.417C96.4713 -26.5713 96.6568 -26.6714 96.8538 -26.7058C97.1937 -26.6975 97.2052 -26.6318 96.8915 -26.1033C96.5778 -25.5747 96.2641 -25.0462 95.8962 -24.4405C95.4199 -23.6805 94.4393 -21.5465 94.4737 -21.3495C94.4967 -21.2181 94.4227 -20.8668 94.2716 -20.5697C93.9808 -19.9098 94.2187 -18.9362 95.0195 -17.4519C95.3083 -16.9609 95.5002 -16.25 95.569 -15.856C95.5952 -15.3192 95.6067 -15.2535 95.4294 -15.4932C95.3178 -15.7444 95.2751 -15.6016 95.3669 -15.0762C95.4473 -14.6165 95.5818 -14.234 95.6589 -14.1798C95.7361 -14.1256 95.8477 -13.8744 95.7507 -13.6544C95.6653 -13.3688 95.7654 -13.1832 95.9854 -13.0863C96.2168 -12.9237 96.2398 -12.7924 96.1001 -12.4296C95.9063 -11.9897 95.9835 -11.9355 96.2576 -11.9157C96.5318 -11.8959 96.5433 -11.8303 96.2723 -11.4445C96.1097 -11.2131 95.9586 -10.916 96.0243 -10.9275C96.2245 -10.5564 95.9847 -10.3791 95.5563 -10.5073C95.1278 -10.6354 95.1163 -10.7011 95.3446 -10.944C95.5728 -11.187 95.5072 -11.1755 95.1246 -11.041C94.8077 -10.9179 94.6879 -10.8293 94.8339 -10.3811C94.9684 -9.9985 95.1227 -9.89011 95.5167 -9.95897C96.0536 -9.98511 96.0536 -9.9851 95.8597 -9.54517C95.6972 -9.31373 95.7431 -9.05104 95.8202 -8.99685C95.8974 -8.94265 95.9433 -8.67997 95.8464 -8.46C95.6952 -8.16289 95.7067 -8.09721 96.0663 -8.36309C96.3717 -8.55181 96.4489 -8.49762 96.4948 -8.23493C96.5751 -7.77523 96.424 -7.47811 96.1154 -7.6949C95.9496 -7.86896 95.8298 -7.78033 95.7558 -7.42902C95.5964 -6.79208 95.7686 -5.807 95.9197 -6.10412C96.0281 -6.25841 96.0478 -6.53258 96.0134 -6.72959C95.9216 -7.25496 96.0842 -7.4864 96.5241 -7.29258C96.7441 -7.19566 96.9411 -7.23009 97.0609 -7.31872C97.1151 -7.39586 97.258 -7.35314 97.2809 -7.2218C97.3039 -7.09046 97.207 -6.87049 97.0214 -6.77039C96.8359 -6.67029 96.739 -6.45032 96.7849 -6.18764C96.8193 -5.99062 96.9538 -5.60807 96.9883 -5.41106C97.1113 -5.09418 97.0571 -5.01703 96.6516 -5.01384C96.3118 -5.02213 96.2576 -4.94498 96.4233 -4.77092C96.512 -4.65106 96.4807 -4.44256 96.3609 -4.35394C96.1753 -4.25384 96.2098 -4.05683 96.2984 -3.93696C96.387 -3.8171 96.5955 -3.78585 96.781 -3.88595C96.9009 -3.97458 97.0437 -3.93186 97.0552 -3.86618C97.0781 -3.73484 97.2012 -3.41796 97.3242 -3.10108C97.4817 -2.58718 97.5474 -2.59866 97.7757 -2.84158C98.1123 -3.23879 98.1697 -2.91043 97.9102 -2.45903C97.7591 -2.16191 97.7706 -2.09624 97.9676 -2.13067C98.1646 -2.16509 98.1875 -2.03375 97.9708 -1.72516C97.7113 -1.27375 97.7686 -0.945395 98.0198 -1.05697C98.1512 -1.07992 98.2283 -1.02573 98.3055 -0.971534C98.3284 -0.84019 98.1971 -0.817238 97.9344 -0.771333C97.3976 -0.745194 97.4549 -0.416842 98.0804 -0.323112C98.366 -0.237672 98.5203 -0.129283 98.4005 -0.0406569C98.2806 0.0479659 98.2149 0.0594422 98.1263 -0.0604224C98.1034 -0.191767 97.9835 -0.103145 97.9523 0.105347C97.8585 0.730821 97.9701 0.98203 98.264 0.727634C98.4381 0.561861 98.5809 0.604583 98.6268 0.867269C98.7384 1.11848 98.63 1.27277 98.3131 1.39583C98.0619 1.5074 97.9962 1.51888 98.1391 1.5616C98.3475 1.59284 98.359 1.65851 98.1308 1.90143C97.8483 2.2215 97.8483 2.2215 98.2423 2.15264C98.5592 2.02959 98.5707 2.09526 98.2997 2.481C97.9746 2.94388 97.9746 2.94388 98.4457 2.92922C98.9169 2.91456 99.1943 3.33983 98.8117 3.47436C98.6804 3.49731 98.6032 3.44312 98.5031 3.25758C98.4802 3.12623 98.3259 3.01785 98.1945 3.0408C97.8776 3.16385 98.155 3.58912 98.5605 3.58593C98.9003 3.59423 98.9003 3.59423 98.6064 3.84862C98.4323 4.01439 98.3781 4.09154 98.5095 4.06859C98.6408 4.04563 98.718 4.09983 98.7294 4.1655C98.6753 4.24265 98.8295 4.35104 99.038 4.38228C99.3122 4.40205 99.3237 4.46772 99.3039 4.74189C99.2727 4.95037 99.2414 5.15887 99.2529 5.22454C99.2644 5.29021 99.3218 5.61857 99.3249 6.02407C99.4199 6.95495 99.4314 7.02062 99.5117 7.48032C99.5462 7.67733 99.4722 8.02864 99.3753 8.24861C99.1043 8.63435 99.3587 8.92828 99.8069 8.78227C100.189 8.64774 100.212 8.77909 100.042 9.35036C99.9249 9.84449 99.974 10.5127 100.255 11.3435C100.366 11.5947 100.315 12.0773 100.23 12.363C100.09 12.7257 100.113 12.8571 100.287 12.6913C100.461 12.5255 100.538 12.5797 100.541 12.9852C100.591 13.6534 100.613 13.7848 100.879 16.8516C100.988 18.2536 101.132 19.8527 101.093 20.401C101.119 20.9379 101.157 21.5404 101.203 21.8031C101.372 22.3826 101.261 23.6878 101.041 23.5909C100.964 23.5367 100.91 23.6138 100.921 23.6795C100.944 23.8108 101.087 23.8535 101.164 23.9077C101.658 24.0244 101.716 24.3528 101.773 24.6811C101.78 25.4921 101.858 27.1027 101.927 27.4967C101.961 27.6937 101.876 27.9794 101.833 28.1222C101.725 28.2765 101.728 28.682 101.785 29.0104C101.992 30.1924 102.075 31.0576 101.913 31.2891C101.804 31.4434 101.804 31.4434 101.936 31.4204C102.133 31.386 102.156 31.5173 102.147 31.8572C102.128 32.1313 102.168 33.1394 102.252 34.0046C102.594 37.1256 102.629 37.3226 102.758 38.4505C102.796 39.053 102.833 39.6555 102.802 39.864C102.759 40.0068 102.794 40.2038 102.871 40.258C102.948 40.3122 102.917 40.5207 102.874 40.6635C102.735 41.0263 103.273 42.5565 103.524 42.4449C103.655 42.422 103.664 42.0822 103.606 41.7538C103.537 41.3598 103.48 41.0314 103.523 40.8886C103.597 40.5373 103.987 42.7701 104.162 44.1607C104.246 45.0259 104.206 45.5742 103.978 45.8171C103.695 46.1372 103.707 46.2029 104.135 46.331C104.51 46.5363 104.601 47.0617 104.253 47.3933C104.199 47.4704 104.265 47.4589 104.385 47.3703C104.57 47.2702 104.659 47.3901 104.751 47.9154C105.018 49.8314 105.11 50.3568 105.694 52.1497C106.008 53.1775 106.378 54.1281 106.455 54.1823C106.543 54.3022 106.489 54.3793 106.292 54.4137C106.041 54.5253 106.052 54.591 106.176 54.9079C106.287 55.1591 106.333 55.4218 106.225 55.5761C106.116 55.7304 106.108 56.0702 106.297 56.3756C106.474 56.6153 106.508 56.8123 106.42 56.6925C106.331 56.5726 106.123 56.5414 106.057 56.5528C105.806 56.6644 106.017 57.1012 106.48 57.4263C106.866 57.6973 106.877 57.763 106.506 57.9632C106.267 58.1404 106.224 58.2832 106.324 58.4688C106.656 58.8169 107.033 59.4277 106.967 59.4392C106.639 59.4966 106.376 59.5425 106.048 59.5999ZM72.5108 -21.166C72.5305 -21.4401 72.5305 -21.4401 72.3023 -21.1972C72.0313 -20.8115 72.0428 -20.7458 72.3055 -20.7917C72.4253 -20.8803 72.5337 -21.0346 72.5108 -21.166ZM76.2521 -20.6693C76.1291 -20.9861 76.0519 -21.0403 75.8351 -20.7317C75.7267 -20.5774 75.5527 -20.4117 75.5642 -20.346C75.4985 -20.3345 75.6528 -20.2261 75.8071 -20.1177C76.247 -19.9239 76.4753 -20.1668 76.2521 -20.6693ZM77.5815 -18.8713C77.6242 -19.0141 77.4814 -19.0568 77.3615 -18.9682C77.1645 -18.9337 77.1218 -18.7909 77.1989 -18.7367C77.2761 -18.6825 77.4189 -18.6398 77.4189 -18.6398C77.4846 -18.6513 77.593 -18.8056 77.5815 -18.8713ZM72.3998 -17.1536C72.3768 -17.285 72.2226 -17.3934 72.1569 -17.3819C71.9057 -17.2703 71.8202 -16.9847 72.0402 -16.8878C72.2716 -16.7252 72.5114 -16.9024 72.3998 -17.1536ZM93.7322 -16.6855C93.6863 -16.9482 93.509 -17.1879 93.3662 -17.2307C93.2234 -17.2734 93.2036 -16.9992 93.3267 -16.6823C93.5957 -15.9172 93.9241 -15.9746 93.7322 -16.6855ZM94.5508 -14.3245C94.5279 -14.4559 94.5935 -14.4673 94.7478 -14.359C94.9021 -14.2506 95.0449 -14.2078 94.9678 -14.262C94.9563 -14.3277 94.9219 -14.5247 94.9531 -14.7332C94.9844 -14.9417 94.9072 -14.9959 94.7988 -14.8416C94.6904 -14.6873 94.6133 -14.7415 94.6445 -14.95C94.6758 -15.1585 94.533 -15.2012 94.2276 -15.0125C93.6595 -14.7779 93.7659 -13.7813 94.2798 -13.9388C94.4654 -14.0389 94.5738 -14.1932 94.5508 -14.3245ZM80.6316 -11.4861C80.6629 -11.6946 79.9144 -12.1052 79.6632 -11.9936C79.5318 -11.9706 79.4891 -11.8278 79.5006 -11.7622C79.512 -11.6965 79.7205 -11.6652 79.9176 -11.6997C80.1688 -11.8112 80.1802 -11.7456 80.0062 -11.5798C79.8978 -11.4255 79.8551 -11.2827 80.0094 -11.1743C80.3065 -11.0232 80.6119 -11.2119 80.6316 -11.4861ZM81.9769 -7.66055C81.5944 -7.52602 81.4975 -7.30605 81.7946 -7.15494C82.0145 -7.05803 82.32 -7.24675 82.3397 -7.52091C82.3824 -7.66373 82.1739 -7.69498 81.9769 -7.66055ZM81.8851 -8.18592C81.6881 -8.15149 81.5797 -7.9972 81.6569 -7.943C81.6798 -7.81166 81.8226 -7.76894 81.8768 -7.84609C82.0082 -7.86904 82.0509 -8.01186 82.1051 -8.089C82.1593 -8.16615 82.0821 -8.22035 81.8851 -8.18592ZM80.6724 -10.4781C80.8038 -10.501 80.7152 -10.6209 80.5067 -10.6521C79.9469 -10.7573 79.6561 -10.0974 79.9679 -9.47513C80.3256 -8.59016 81.0167 -8.5079 80.8019 -9.35016C80.756 -9.61284 80.6214 -9.9954 80.5328 -10.1153C80.5099 -10.2466 80.5526 -10.3894 80.6724 -10.4781ZM95.9949 -11.8698C95.972 -12.0012 95.8948 -12.0554 95.8406 -11.9782C95.775 -11.9667 95.7208 -11.8896 95.6781 -11.7468C95.6353 -11.6039 95.7125 -11.5497 95.8323 -11.6384C95.8865 -11.7155 96.0064 -11.8041 95.9949 -11.8698ZM93.4873 -8.7922C93.4758 -8.85787 93.3215 -8.96626 93.1902 -8.94331C93.0588 -8.92035 93.0014 -9.24871 93.1296 -9.67717C93.2348 -10.237 93.2316 -10.6425 92.9198 -11.2648C92.7082 -11.7015 92.4423 -12.0611 92.3766 -12.0496C92.311 -12.0382 92.2682 -11.8953 92.2797 -11.8297C92.3027 -11.6983 92.237 -11.6868 92.1057 -11.6639C91.82 -11.7493 91.6919 -11.3209 91.9233 -11.1583C92.0776 -11.0499 92.1433 -11.0614 92.2402 -11.2813C92.3371 -11.5013 92.3371 -11.5013 92.4372 -11.3158C92.4601 -11.1844 92.6489 -10.879 92.7604 -10.6278L92.9721 -10.1911L92.455 -10.4391C91.8493 -10.807 91.6326 -10.4984 92.1413 -9.91053C92.4072 -9.55093 92.4958 -9.43106 92.3218 -9.26529C92.2019 -9.17667 92.2019 -9.17667 92.2446 -9.31949C92.2874 -9.46231 92.2759 -9.52798 92.1445 -9.50503C92.0132 -9.48207 92.0591 -9.21939 92.105 -8.9567C92.2625 -8.44281 92.3282 -8.45428 93.3247 -8.56075C93.4446 -8.64938 93.4988 -8.72652 93.4873 -8.7922ZM90.3695 -8.04432C90.5665 -8.07875 90.6864 -8.16738 90.6092 -8.22157C90.5321 -8.27577 90.3465 -8.17567 90.2267 -8.08705C90.0411 -7.98695 90.1068 -7.99842 90.3695 -8.04432ZM87.5769 -7.75934C87.5966 -8.0335 87.4538 -8.07622 87.2568 -8.04179C87.1254 -8.01884 87.0056 -7.93022 87.0171 -7.86455C87.0285 -7.79888 87.0515 -7.66753 87.0202 -7.45904C86.989 -7.25055 87.1318 -7.20783 87.2632 -7.23078C87.5144 -7.34236 87.6228 -7.49665 87.5769 -7.75934ZM93.0882 -7.978C93.3508 -8.02391 93.4592 -8.1782 93.4478 -8.24387C93.4133 -8.44089 92.5825 -8.16035 92.3001 -7.84029C92.1802 -7.75166 92.149 -7.54317 92.2918 -7.50045C92.5232 -7.33787 92.8401 -7.46092 92.8057 -7.65793C92.7171 -7.7778 92.9026 -7.8779 93.0882 -7.978ZM93.5 -7.17018C93.697 -7.20461 93.7283 -7.4131 93.6939 -7.61011C93.5593 -7.99266 93.428 -7.96971 93.0799 -7.63817C92.7974 -7.3181 93.0518 -7.02417 93.5 -7.17018ZM76.7417 -1.60223C76.7646 -1.47089 76.896 -1.49384 76.9616 -1.50531C77.093 -1.52827 77.1357 -1.67109 77.1242 -1.73676C77.1013 -1.8681 76.9699 -1.84515 76.9043 -1.83367C76.7729 -1.81072 76.7187 -1.73357 76.7417 -1.60223ZM90.1552 -4.62304C90.2094 -4.70019 90.1865 -4.83153 90.0322 -4.93992C89.9436 -5.05978 89.8894 -4.98264 89.9238 -4.78562C90.0781 -4.67723 90.101 -4.54589 90.1552 -4.62304ZM83.2412 -1.58753C83.0327 -1.61877 83.0098 -1.75012 83.1724 -1.98156C83.4434 -2.3673 83.386 -2.69565 83.092 -2.44126C82.918 -2.27549 82.918 -2.27549 83.0691 -2.5726C83.1775 -2.72689 83.1743 -3.1324 83.0627 -3.38361C82.9167 -3.83183 82.9052 -3.89751 82.5686 -3.50029C82.2861 -3.18022 82.2664 -2.90606 82.4583 -2.19515C82.6731 -1.3529 82.7503 -1.29871 83.1328 -1.43323C83.4612 -1.49061 83.4497 -1.55628 83.2412 -1.58753ZM95.7647 -3.50532C95.9388 -3.67109 95.796 -3.71381 95.3363 -3.63347C94.8766 -3.55314 94.7567 -3.46452 94.7911 -3.2675C94.9027 -3.01629 95.4166 -3.17378 95.7647 -3.50532ZM95.2687 -2.47116C95.2572 -2.53683 95.1144 -2.57954 95.0372 -2.63374C94.8944 -2.67646 94.8402 -2.59931 94.8632 -2.46797C94.8861 -2.33663 95.0289 -2.29391 95.0946 -2.30538C95.2145 -2.394 95.2687 -2.47116 95.2687 -2.47116ZM83.9381 2.01293C83.6525 1.92749 83.6327 2.20165 83.7506 3.26387C83.9572 4.44596 84.4118 5.11096 84.4711 4.28848C84.5023 4.07999 84.4367 4.09146 84.3168 4.18009C84.1542 4.41153 83.9132 3.03243 84.007 2.40696C84.1039 2.18699 84.0809 2.05565 83.9381 2.01293ZM98.1786 1.01327C98.0785 0.827733 97.9357 0.785015 97.8158 0.873638C97.6959 0.962261 97.7846 1.08213 97.9389 1.19052C98.3788 1.38435 98.4445 1.37287 98.1786 1.01327ZM95.1411 2.22084C95.1067 2.02383 95.0608 1.76114 95.115 1.68399C95.1692 1.60685 95.1889 1.33269 95.1003 1.21282C95.0659 1.0158 95.1086 0.872984 95.1858 0.927183C95.3286 0.969901 95.3056 0.838556 95.2055 0.653017C94.8281 0.0422094 94.26 0.276836 94.5832 0.964794C94.6062 1.09613 94.575 1.30463 94.4666 1.45892C94.304 1.69037 94.3384 1.88738 94.5157 2.12712C94.6929 2.36685 94.6502 2.50967 94.5303 2.59829C94.399 2.62124 94.3563 2.76406 94.4991 2.80678C94.8077 3.02356 95.2757 2.6034 95.1411 2.22084ZM84.6203 5.14221C84.8173 5.10778 84.86 4.96496 84.7829 4.91076C84.7057 4.85657 84.4972 4.82533 84.4316 4.8368C84.3002 4.85975 84.2575 5.00257 84.269 5.06824C84.2805 5.13392 84.4233 5.17663 84.6203 5.14221ZM85.9337 11.8834C86.2047 11.4977 86.0389 11.3236 85.6563 11.4581C85.2081 11.6041 85.0685 11.9669 85.2999 12.1295C85.5314 12.2921 85.7169 12.192 85.9337 11.8834ZM96.5278 11.3179C96.7248 11.2835 96.8332 11.1292 96.7561 11.075C96.7331 10.9437 96.5903 10.901 96.5361 10.9781C96.4048 11.0011 96.2964 11.1553 96.3079 11.221C96.2651 11.3638 96.3423 11.418 96.5278 11.3179ZM97.4121 20.6382C97.4006 20.5725 97.2578 20.5298 97.1807 20.4756C97.0378 20.4329 96.9836 20.51 97.0066 20.6414C97.0296 20.7727 97.1724 20.8154 97.238 20.8039C97.3579 20.7153 97.4236 20.7038 97.4121 20.6382ZM87.6755 25.7235C87.7182 25.5807 87.6411 25.5265 87.5212 25.6151C87.3899 25.6381 87.3471 25.7809 87.3586 25.8466C87.3816 25.9779 87.4587 26.0321 87.5129 25.955C87.5786 25.9435 87.6213 25.8007 87.6755 25.7235ZM90.5119 54.735C90.5005 54.6693 90.3577 54.6266 90.292 54.6381C90.1492 54.5954 90.095 54.6725 90.1179 54.8038C90.1409 54.9352 90.2837 54.9779 90.3379 54.9008C90.4692 54.8778 90.5234 54.8007 90.5119 54.735Z" fill="white"/>
<path d="M92.373 57.2522C92.3845 57.3179 92.3418 57.4607 92.2105 57.4836C92.0791 57.5066 92.002 57.4524 92.0562 57.3752C92.0989 57.2324 92.1531 57.1553 92.2188 57.1438C92.2844 57.1323 92.3616 57.1865 92.373 57.2522Z" fill="white"/>
<path d="M91.3899 56.2735C91.4128 56.4048 91.27 56.3621 91.1043 56.1881C90.927 55.9483 90.9155 55.8826 91.124 55.9139C91.2668 55.9566 91.3669 56.1421 91.3899 56.2735Z" fill="white"/>
<path d="M97.7234 -3.91527C97.9204 -3.9497 97.9975 -3.8955 97.9433 -3.81836C97.9006 -3.67554 97.8464 -3.59839 97.7808 -3.58691C97.7151 -3.57544 97.6379 -3.62964 97.5608 -3.68383C97.4722 -3.8037 97.592 -3.89232 97.7234 -3.91527Z" fill="white"/>
<path d="M97.7202 -4.32078C97.6972 -4.45212 97.7514 -4.52927 97.8828 -4.55222C98.0141 -4.57517 98.0913 -4.52098 98.1027 -4.45531C98.1257 -4.32396 98.0715 -4.24682 97.9402 -4.22386C97.8745 -4.21239 97.7317 -4.25511 97.7202 -4.32078Z" fill="white"/>
<path d="M96.9404 -4.5229C97.0488 -4.67719 97.0144 -4.87421 96.8716 -4.91693C96.7944 -4.97112 96.9258 -4.99408 97.2114 -4.90864C97.8369 -4.81491 97.8171 -4.54075 97.1719 -4.36031C96.9207 -4.24873 96.8435 -4.30293 96.9404 -4.5229Z" fill="white"/>
<path d="M97.2599 -8.50399C97.3912 -8.52694 97.534 -8.48422 97.5455 -8.41855C97.5685 -8.2872 97.58 -8.22153 97.5143 -8.21006C97.4486 -8.19858 97.3715 -8.25278 97.2286 -8.2955C97.0743 -8.40389 97.1285 -8.48103 97.2599 -8.50399Z" fill="white"/>
<path d="M70.9569 -18.052C70.9142 -17.9092 70.8256 -18.029 70.7682 -18.3574C70.6566 -18.6086 70.6994 -18.7514 70.788 -18.6316C70.8881 -18.446 70.9997 -18.1948 70.9569 -18.052Z" fill="white"/>
<path d="M70.4603 -21.2814C70.4832 -21.15 70.4405 -21.0072 70.3092 -20.9843C70.1778 -20.9613 70.1007 -21.0155 70.0006 -21.201C69.9776 -21.3324 70.0204 -21.4752 70.1517 -21.4982C70.283 -21.5211 70.4373 -21.4127 70.4603 -21.2814Z" fill="white"/>
<path d="M85.9709 -26.6313C85.6113 -26.3654 85.6113 -26.3654 85.3569 -26.6593C85.1796 -26.8991 85.2338 -26.9762 85.6393 -26.9794C86.2304 -27.0827 86.3305 -26.8971 85.9709 -26.6313Z" fill="white"/>
<path d="M71.022 -22.327C71.0564 -22.13 71.0252 -21.9215 70.9595 -21.91C70.8282 -21.8871 70.751 -21.9413 70.6509 -22.1268C70.628 -22.2582 70.6592 -22.4666 70.7134 -22.5438C70.8448 -22.5667 70.9219 -22.5125 71.022 -22.327Z" fill="white"/>
<path d="M84.945 -27.4672C84.8105 -27.8497 84.9303 -27.9383 85.1847 -27.6444C85.2734 -27.5245 85.3078 -27.3275 85.2536 -27.2504C85.1337 -27.1617 85.0451 -27.2816 84.945 -27.4672Z" fill="white"/>
<path d="M86.6659 -28.8507C86.9827 -28.9738 87.1912 -28.9425 87.357 -28.7685C87.5999 -28.5402 87.5457 -28.463 86.8463 -28.2055C86.3981 -28.0595 86.004 -27.9906 86.004 -27.9906C85.7841 -28.0875 86.2291 -28.639 86.6659 -28.8507Z" fill="white"/>
<path d="M71.2146 -24.3233C71.3344 -24.4119 71.4116 -24.3577 71.4345 -24.2264C71.4575 -24.095 71.4262 -23.8865 71.372 -23.8094C71.2522 -23.7208 71.175 -23.775 71.1521 -23.9063C71.1177 -24.1033 71.0947 -24.2347 71.2146 -24.3233Z" fill="white"/>
<path d="M85.3671 -28.15C85.2358 -28.1271 85.1586 -28.1812 85.1242 -28.3783C85.1012 -28.5096 85.0783 -28.6409 85.1439 -28.6524C85.2096 -28.6639 85.2868 -28.6097 85.3869 -28.4242C85.487 -28.2386 85.487 -28.2386 85.3671 -28.15Z" fill="white"/>
<path d="M85.7318 -29.1612C85.7088 -29.2926 85.6859 -29.4239 85.7516 -29.4354C85.8172 -29.4469 85.9059 -29.327 85.9945 -29.2071C86.0831 -29.0873 86.1061 -28.9559 85.9747 -28.933C85.909 -28.9215 85.7662 -28.9642 85.7318 -29.1612Z" fill="white"/>
<path d="M72.6498 -25.7923C72.9928 -25.3785 72.9928 -25.3785 72.433 -25.4837C71.5334 -25.5972 71.1508 -25.4627 71.6679 -25.2146C72.1078 -25.0208 72.2851 -24.7811 71.9682 -24.658C71.8369 -24.6351 71.6054 -24.7977 71.374 -24.9602C71.0539 -25.2427 71.0309 -25.374 71.2592 -25.617C71.4333 -25.7827 71.5187 -26.0684 71.4843 -26.2654C71.3612 -26.5823 71.4269 -26.5937 71.8012 -26.3884C72.0868 -26.303 72.4725 -26.032 72.6498 -25.7923Z" fill="white"/>
<path d="M86.0455 -29.6898C86.1424 -29.9097 86.4395 -29.7586 86.4198 -29.4845C86.3885 -29.276 86.3885 -29.276 86.1685 -29.3729C86.0914 -29.4271 85.9913 -29.6126 86.0455 -29.6898Z" fill="white"/>
<path d="M83.4665 -30.1189C83.455 -30.1846 83.3434 -30.4358 83.1776 -30.6098C83.0004 -30.8496 82.966 -31.0466 83.1285 -31.278C83.2797 -31.5751 83.3453 -31.5866 83.6539 -31.3698C84.0511 -31.0332 84.565 -31.1907 84.8131 -31.7077C84.9527 -32.0705 85.0298 -32.0163 85.1988 -31.4368C85.4449 -30.803 85.1969 -30.2859 84.8539 -30.6997C84.7652 -30.8196 84.4139 -30.8935 84.1627 -30.782C83.7802 -30.6474 83.726 -30.5703 83.9147 -30.2649C84.192 -29.8396 84.2035 -29.7739 83.7094 -29.8906C83.6322 -29.9448 83.4779 -30.0532 83.4665 -30.1189Z" fill="white"/>
<path d="M71.1578 -27.3588C71.4664 -27.1421 71.5123 -26.8794 71.1495 -27.019C71.0839 -27.0075 70.9838 -27.1931 70.9493 -27.3901C70.8492 -27.5756 70.9149 -27.5871 71.1578 -27.3588Z" fill="white"/>
<path d="M78.6661 -30.0921C78.6119 -30.015 78.5462 -30.0035 78.4034 -30.0462C78.3262 -30.1004 78.2376 -30.2203 78.1605 -30.2745C78.1375 -30.4058 78.2032 -30.4173 78.4232 -30.3204C78.6316 -30.2891 78.7203 -30.1693 78.6661 -30.0921Z" fill="white"/>
<path d="M77.1805 -30.8477C77.2035 -30.7163 77.1493 -30.6392 77.0179 -30.6162C76.8866 -30.5933 76.8094 -30.6475 76.7979 -30.7132C76.775 -30.8445 76.8292 -30.9216 76.9605 -30.9446C77.0147 -31.0217 77.1575 -30.979 77.1805 -30.8477Z" fill="white"/>
<path d="M75.2748 -32.0712C75.0204 -32.3651 74.9203 -32.5507 75.0287 -32.705C75.137 -32.8593 75.2799 -32.8166 75.4686 -32.5112C75.846 -31.9003 75.7064 -31.5376 75.2748 -32.0712Z" fill="white"/>
<path d="M77.6504 -32.4187C77.5962 -32.3415 77.5191 -32.3957 77.4846 -32.5928C77.4502 -32.7898 77.4387 -32.8554 77.593 -32.747C77.6817 -32.6272 77.7046 -32.4958 77.6504 -32.4187Z" fill="white"/>
<path d="M78.2236 -33.3987C78.3008 -33.3445 78.4009 -33.1589 78.4468 -32.8962L78.5156 -32.5022L78.1841 -32.8503C77.9067 -33.2756 77.9265 -33.5498 78.2236 -33.3987Z" fill="white"/>
<path d="M76.527 -30.3274C76.504 -30.4588 76.5582 -30.5359 76.6239 -30.5474C76.6896 -30.5589 76.7667 -30.5047 76.7897 -30.3733C76.8126 -30.242 76.7584 -30.1648 76.6927 -30.1534C76.6271 -30.1419 76.5499 -30.1961 76.527 -30.3274Z" fill="white"/>
</g>
</g>
<path d="M80.0116 63.7895C81.7604 63.7895 83.5092 63.7841 85.258 63.7895C86.1269 63.7895 86.8373 64.418 86.9794 65.2869C87.1106 66.0958 86.6023 66.921 85.8045 67.1942C85.6132 67.2543 85.4164 67.2871 85.2142 67.2871C81.744 67.2871 78.2737 67.2871 74.8034 67.2871C73.776 67.2871 73 66.5275 73 65.5329C73.0055 64.5546 73.776 63.795 74.7925 63.795C76.5358 63.7841 78.2737 63.7895 80.0116 63.7895Z" fill="#FEFEFE"/>
<path d="M81.7494 65.5438C81.7494 67.2926 81.7549 69.0414 81.7494 70.7902C81.7494 71.6591 81.121 72.3696 80.252 72.5117C79.4432 72.6428 78.618 72.1346 78.3448 71.3367C78.2792 71.1454 78.2518 70.9487 78.2518 70.7465C78.2518 67.2762 78.2518 63.8059 78.2518 60.3357C78.2518 59.3083 79.0115 58.5322 80.0061 58.5322C80.9843 58.5377 81.744 59.3083 81.744 60.3247C81.7549 62.0681 81.7494 63.8059 81.7494 65.5438Z" fill="#FEFEFE"/>
<defs>
<filter id="filter0_d" x="0" y="0.532227" width="160" height="160" filterUnits="userSpaceOnUse" color-interpolation-filters="sRGB">
<feFlood flood-opacity="0" result="BackgroundImageFix"/>
<feColorMatrix in="SourceAlpha" type="matrix" values="0 0 0 0 0 0 0 0 0 0 0 0 0 0 0 0 0 0 127 0"/>
<feOffset dy="15"/>
<feGaussianBlur stdDeviation="30"/>
<feColorMatrix type="matrix" values="0 0 0 0 0.188235 0 0 0 0 0.670588 0 0 0 0 0.466667 0 0 0 0.15 0"/>
<feBlend mode="multiply" in2="BackgroundImageFix" result="effect1_dropShadow"/>
<feBlend mode="normal" in="SourceGraphic" in2="effect1_dropShadow" result="shape"/>
</filter>
<linearGradient id="paint0_linear" x1="20" y1="0" x2="58.0328" y2="31.694" gradientUnits="userSpaceOnUse">
<stop stop-color="#32AB77"/>
<stop offset="1" stop-color="#1F983A"/>
</linearGradient>
<linearGradient id="paint1_linear" x1="20" y1="0" x2="58.0328" y2="31.694" gradientUnits="userSpaceOnUse">
<stop stop-color="#32AB77"/>
<stop offset="1" stop-color="#1F983A"/>
</linearGradient>
</defs>
</svg>
