<svg width="12" height="16" viewBox="0 0 12 16" fill="none" xmlns="http://www.w3.org/2000/svg">
<path d="M8.31732 10.7321C8.31732 9.52361 8.31732 8.31084 8.31732 7.10235C8.31732 6.95289 8.32515 6.8077 8.46997 6.74364C8.61872 6.67959 8.71266 6.78207 8.8066 6.88883C9.03362 7.14505 9.26456 7.397 9.4955 7.64467C9.81256 7.98203 10.2196 7.98203 10.5367 7.63613C10.9281 7.2091 11.3195 6.7778 11.7031 6.34223C12.0084 6.00061 12.0124 5.56077 11.707 5.22341C10.3175 3.70319 8.92403 2.17869 7.52664 0.667002C6.91994 0.00937567 5.96095 0.000834998 5.35816 0.654191C3.9412 2.18296 2.54382 3.72454 1.13861 5.26185C0.868529 5.56077 0.864615 6.01769 1.1347 6.32088C1.54178 6.78207 1.95669 7.23473 2.37942 7.67884C2.66908 7.98203 3.07224 7.97349 3.3619 7.66603C3.60849 7.40554 3.85118 7.13224 4.09386 6.86321C4.17997 6.76499 4.27391 6.68813 4.40308 6.74364C4.54008 6.80342 4.55965 6.93153 4.55965 7.07672C4.55574 9.47663 4.55965 11.8723 4.55574 14.2722C4.55574 14.8658 4.82582 15.1689 5.3699 15.1689C6.09403 15.1689 6.81817 15.1689 7.5423 15.1689C8.03158 15.1689 8.31732 14.8529 8.31732 14.3192C8.31732 13.1235 8.31732 11.9278 8.31732 10.7321Z" fill="#32AB77"/>
</svg>
