<svg width="12" height="16" viewBox="0 0 12 16" fill="none" xmlns="http://www.w3.org/2000/svg">
<path d="M8.31732 4.60579C8.31732 5.81428 8.31732 7.02705 8.31732 8.23554C8.31732 8.385 8.32515 8.5302 8.46997 8.59425C8.61872 8.6583 8.71266 8.55582 8.8066 8.44906C9.03362 8.19284 9.26456 7.94089 9.4955 7.69322C9.81256 7.35586 10.2196 7.35586 10.5367 7.70176C10.9281 8.12879 11.3195 8.56009 11.7031 8.99566C12.0084 9.33728 12.0124 9.77712 11.707 10.1145C10.3175 11.6347 8.92403 13.1592 7.52664 14.6709C6.91994 15.3285 5.96095 15.3371 5.35816 14.6837C3.9412 13.1549 2.54382 11.6134 1.13861 10.076C0.868529 9.77712 0.864615 9.3202 1.1347 9.01701C1.54178 8.55582 1.95669 8.10317 2.37942 7.65905C2.66908 7.35586 3.07224 7.3644 3.3619 7.67186C3.60849 7.93235 3.85118 8.20565 4.09386 8.47468C4.17997 8.5729 4.27391 8.64976 4.40308 8.59425C4.54008 8.53447 4.55965 8.40636 4.55965 8.26117C4.55574 5.86126 4.55965 3.46562 4.55574 1.06571C4.55574 0.472136 4.82582 0.168944 5.3699 0.168944C6.09403 0.168944 6.81817 0.168944 7.5423 0.168944C8.03158 0.168944 8.31732 0.484948 8.31732 1.01874C8.31732 2.21442 8.31732 3.4101 8.31732 4.60579Z" fill="#32AB77"/>
</svg>
