<svg width="370" height="281" viewBox="0 0 370 281" fill="none" xmlns="http://www.w3.org/2000/svg">
<g opacity="0.1">
<path d="M324.522 276.92C312.482 279.447 300.442 281.469 288.173 280.079C276.707 278.815 265.24 278.815 253.888 278.31C234.281 277.299 214.788 279.068 195.18 278.562C180.503 278.057 165.826 278.436 151.149 278.183C136.243 277.931 121.222 278.689 106.43 276.793C90.721 274.771 74.8973 275.656 59.303 273.002C52.4231 271.864 45.3139 271.864 37.1728 269.463C39.5807 268.452 40.6127 267.947 41.7593 267.568C41.3007 265.798 39.9247 265.166 38.7781 265.798C31.5542 269.842 24.2157 266.43 17.9091 264.282C12.0613 262.26 5.98405 257.078 4.03475 249.369C2.31479 242.671 1.05348 235.973 0.250828 229.275C-0.437158 223.209 0.365493 217.016 1.74147 211.076C2.31479 208.802 1.05348 206.527 1.28281 204.378C1.51214 200.587 -0.437158 195.658 5.06673 193.889C5.98405 193.636 5.75472 191.867 4.8374 190.603C2.31479 187.191 0.82415 183.779 3.11744 179.229C4.60808 176.322 0.480157 174.806 0.938815 171.899C1.05348 170.888 0.709486 169.498 2.08546 169.624C2.42945 169.624 2.77344 171.267 3.34677 173.036C3.92009 170.003 4.14942 167.981 3.2321 165.959C0.365493 159.514 -0.895815 153.069 3.46143 146.75C3.5761 140.431 2.77344 134.112 3.34677 127.793C5.06673 124.002 4.49341 119.957 4.60808 116.04C5.1814 99.7369 6.90136 83.434 6.90136 67.1312C6.90136 62.0761 8.27734 57.0209 9.07999 51.9658C9.88264 51.2075 10.5706 51.2075 11.3733 51.9658C10.9146 88.3628 9.07999 124.76 9.19465 161.283C9.30932 181.504 11.6026 201.724 8.392 222.071C7.24536 229.78 9.65331 238.374 11.7173 246.21C13.3226 252.402 19.1705 254.424 24.2157 256.193C34.5355 259.985 45.4286 261.501 56.2071 262.765C67.2148 263.903 78.3373 264.155 89.3451 265.798C106.315 268.326 123.4 268.579 140.371 268.452C185.778 268.326 231.07 269.337 276.363 269.716C287.37 269.842 298.493 270.727 309.501 270.727C316.61 270.727 323.49 269.463 330.14 266.683C331.402 268.705 331.516 268.705 331.058 269.337C329.338 272.37 326.815 274.518 324.522 276.92Z" fill="white"/>
<path d="M363.277 30.4813C363.048 28.8384 362.704 27.1955 362.475 25.5525C361.672 17.4643 358.347 13.7993 350.894 14.0521C324.635 14.9368 298.836 11.019 272.807 8.36507C256.983 6.72215 240.816 7.48042 224.763 8.23869C187.382 10.1344 149.887 7.85956 112.392 7.6068C110.901 1.03512 114.8 1.91977 118.354 2.42528C129.706 2.80442 141.058 4.0682 152.41 3.30993C171.788 2.04614 191.166 1.41425 210.544 1.28787C226.712 1.28787 242.765 -0.228668 258.933 1.03512C277.508 2.67804 296.199 3.05717 314.774 5.20561C326.929 6.59577 338.854 6.97491 351.008 6.59577C361.672 6.34301 368.208 12.6619 369.355 23.4041C369.928 24.9207 370.043 26.69 369.813 28.2065C369.469 30.3549 371.189 33.5144 368.208 34.5254C364.997 35.7892 364.883 31.9979 363.277 30.4813Z" fill="white"/>
<path d="M363.277 30.4813C363.965 30.7341 364.997 30.8606 365.227 31.3661C365.8 32.8826 366.373 34.02 368.093 33.3882C370.043 32.7563 369.011 30.987 369.125 29.7232C369.355 27.7011 369.24 25.5527 369.24 23.5306C370.272 30.987 370.272 38.0642 368.667 45.6469C367.405 51.4603 370.043 58.6638 368.093 64.73C363.965 77.8734 368.437 90.764 367.979 103.781C367.864 108.583 366.029 113.133 366.259 117.809C366.832 133.101 365.456 148.266 363.277 163.305C360.869 179.734 359.837 196.669 355.251 212.593C351.467 225.357 350.894 238.88 347.224 251.644C344.931 253.413 343.44 256.193 341.262 258.089C340.344 258.847 338.739 260.996 338.051 257.71C341.835 244.314 343.67 230.286 346.078 216.637C347.339 209.181 350.32 202.483 351.696 195.026C354.104 182.136 356.741 169.371 357.315 156.228C358.461 130.7 361.557 105.171 360.984 79.5163C360.525 63.0871 362.933 46.9105 363.277 30.4813Z" fill="white"/>
<path d="M338.051 257.71C340.918 259.1 341.147 255.814 342.523 254.677C344.014 253.54 344.472 250.38 347.224 251.644C345.619 262.26 341.835 271.106 331.401 274.266C328.993 275.024 327.387 278.562 324.291 276.92C324.177 273.886 326.814 273.002 327.961 270.98C328.649 269.716 331.515 269.337 329.91 266.809C333.121 264.155 336.56 261.88 338.051 257.71Z" fill="white"/>
<path d="M48.2943 6.2168C43.249 6.2168 38.2038 6.2168 33.2732 6.2168C32.6999 4.95302 32.4706 3.81561 33.3879 2.55183C38.2038 1.03528 43.249 1.03528 48.0649 1.41442C58.3847 2.17269 68.8192 0.277012 79.139 2.80458C80.6296 5.71129 77.9923 6.2168 76.8457 7.48059C71.5711 7.10145 66.1819 6.84869 60.7927 6.46956C56.5501 4.70026 52.4222 2.17269 48.2943 6.2168Z" fill="white"/>
<path d="M118.354 2.42528C115.258 2.67804 112.506 3.30993 112.392 7.6068C104.365 7.6068 96.3386 7.60697 88.1975 7.60697C86.7068 5.20578 87.9681 3.3101 89.3441 1.5408C99.0906 1.5408 108.722 0.529603 118.354 2.42528Z" fill="white"/>
<path d="M11.3733 51.9658C10.5706 51.9658 9.88264 51.9658 9.07999 51.9658C11.1439 41.7291 7.81774 31.2397 10.799 21.1294C11.2577 31.3661 13.5519 41.6028 11.3733 51.9658Z" fill="white"/>
<path d="M3.34677 127.793C4.37875 134.112 7.58935 140.431 3.46143 146.75C2.77344 146.497 1.5112 146.244 1.5112 145.865C1.39654 139.799 -0.895815 133.354 3.34677 127.793Z" fill="white"/>
<path d="M89.3441 1.5408C89.0001 3.56286 88.5415 5.58492 88.1975 7.60697C84.4136 7.60697 80.6296 7.48059 76.8457 7.48059C76.731 5.33215 79.483 4.95302 79.139 2.80458C82.5789 3.05734 85.7895 0.782532 89.3441 1.5408Z" fill="white"/>
<path d="M33.2732 2.55181C33.9612 3.81559 33.8466 4.953 33.1586 6.21678C27.196 6.21678 21.1188 6.21678 15.1563 6.21678C20.8895 3.31008 26.9667 2.55181 33.2732 2.55181Z" fill="white"/>
<path d="M48.2943 6.2168C48.5236 4.95302 46.345 2.55185 49.2116 2.55185C53.3395 2.67823 57.9261 1.41442 60.7927 6.46956C56.5501 6.34318 52.4222 6.34318 48.2943 6.2168Z" fill="white"/>
</g>
</svg>
