<svg width="151" height="30" viewBox="0 0 151 30" fill="none" xmlns="http://www.w3.org/2000/svg">
<g opacity="0.25">
<path d="M145.716 5.57558C145.716 5.4397 145.58 5.4397 145.443 5.57558C145.307 5.57558 145.307 5.71146 145.443 5.84734C145.58 5.84734 145.716 5.98322 145.716 5.84734C145.716 5.84734 145.716 5.71146 145.716 5.57558Z" fill="white"/>
<path d="M144.216 4.89619C144.08 4.76031 143.944 4.62442 143.807 4.7603C143.671 4.89618 143.535 4.89618 143.398 4.7603C143.398 4.62442 143.398 4.48854 143.671 4.35266C143.807 4.21679 144.08 3.94503 144.08 3.80915C144.08 3.53739 144.216 3.53739 144.625 3.53739C144.898 3.53739 145.034 3.67327 145.034 3.80915C145.034 4.21679 145.716 3.67327 145.853 3.12975C146.125 2.58624 146.262 2.45036 146.398 2.85799C146.398 3.12975 146.534 3.12975 146.671 2.99387C146.943 2.72211 146.534 2.1786 146.262 2.45036C146.125 2.45036 146.125 2.45035 146.125 2.31447C146.125 2.17859 146.262 2.04271 146.398 2.04271C146.671 2.04271 146.671 1.90683 146.398 1.4992C146.125 1.09156 145.989 0.955677 145.853 1.22744C145.716 1.36332 145.443 1.36332 145.307 1.22744C145.171 1.09156 145.171 0.955677 145.307 0.955677C145.443 0.955677 145.443 0.683918 145.307 0.548038C145.171 0.412159 145.034 0.412159 145.034 0.548038C144.898 0.683918 144.898 0.683922 144.898 0.412163C144.898 0.00452423 145.034 0.0045166 145.307 0.0045166C145.58 0.0045166 145.58 0.1404 145.58 0.276279C145.307 0.548038 145.716 0.955677 145.989 0.819798C146.125 0.683918 146.262 0.683918 146.398 0.819798C146.534 0.955677 146.534 0.955677 146.671 0.819798C146.807 0.683918 146.943 0.683918 146.943 0.683918C147.216 1.09156 147.352 0.412155 147.216 0.0045166C147.08 -0.267242 146.943 -0.403118 146.807 -0.267235C146.807 -0.131355 146.671 -0.131359 146.534 -0.131359C146.398 -0.131359 146.398 -0.403118 146.534 -0.538998C146.671 -0.674877 146.807 -0.674881 146.943 -0.674881C147.08 -0.539001 147.216 -0.674877 147.352 -0.810757C147.625 -1.08252 147.625 -1.08252 147.216 -1.08252C146.943 -1.08252 146.671 -1.08252 146.671 -1.2184C146.534 -1.35427 146.398 -1.49016 146.262 -1.35428C146.125 -1.35428 145.989 -1.2184 146.125 -1.08252C146.262 -0.810757 145.853 0.00452042 145.58 -0.131359C145.443 -0.131359 145.443 -0.267239 145.58 -0.403118C146.125 -0.674877 145.716 -0.81076 144.898 -0.674881C144.489 -0.539001 144.216 -0.539001 144.489 -0.674881C145.171 -1.08252 145.171 -1.08252 144.625 -1.2184C144.216 -1.35427 144.08 -1.49015 144.08 -1.76191C144.08 -2.16956 144.08 -2.16955 144.353 -1.89779C144.489 -1.76191 144.762 -1.76191 144.762 -1.76191C144.898 -1.76191 144.762 -1.8978 144.625 -2.03368C144.489 -2.16956 144.489 -2.30544 144.898 -2.44131C145.171 -2.57719 145.443 -2.57719 145.443 -2.44131C145.443 -2.30544 145.443 -2.16956 145.307 -2.03368C145.171 -2.03368 145.034 -1.76191 145.171 -1.62603C145.171 -1.35427 145.443 -1.35427 145.989 -1.62603C146.398 -1.76191 146.807 -1.8978 146.943 -1.76191C147.08 -1.62603 147.216 -1.76191 147.352 -2.16955C147.489 -2.71307 147.352 -2.71307 146.534 -2.16955C146.262 -2.03367 146.262 -2.03368 146.534 -2.44131C146.807 -2.84895 146.807 -3.12071 146.534 -3.52835C146.125 -4.20774 146.125 -4.4795 146.671 -4.34362C146.943 -4.20774 147.216 -4.20774 147.489 -4.34362C148.034 -4.61538 148.989 -4.34362 149.261 -3.93599C149.398 -3.66423 149.534 -3.66423 149.534 -3.80011C149.534 -3.93599 149.534 -4.20774 149.261 -4.34362C149.125 -4.4795 148.989 -4.75127 149.125 -4.88715C149.261 -5.02303 148.989 -5.02303 148.58 -4.88715C148.034 -4.75127 147.898 -4.75126 147.762 -5.02302C147.625 -5.43066 147.625 -5.43066 147.352 -4.88715C147.08 -4.47951 147.08 -4.34362 146.807 -4.61538C146.398 -4.88714 146.534 -5.43066 146.807 -5.29478C147.08 -5.1589 147.08 -5.15891 146.943 -5.43066C146.807 -5.56654 146.943 -5.70242 147.08 -5.70242C147.216 -5.70242 147.352 -5.8383 147.216 -5.97418C147.08 -6.11006 146.807 -5.97418 146.125 -5.70242C145.58 -5.43066 145.171 -5.1589 145.171 -5.29478C145.171 -5.43066 145.171 -5.43066 145.307 -5.43066C145.443 -5.43066 145.443 -5.56654 145.307 -5.70242C145.034 -5.97418 145.034 -6.11006 145.307 -6.24594C145.443 -6.38182 145.716 -6.38182 145.716 -6.24594C145.989 -5.8383 146.398 -5.97418 146.534 -6.38182C146.671 -6.5177 146.671 -6.65358 146.671 -6.65358C146.807 -6.38182 147.352 -7.33298 147.216 -7.60474C147.08 -7.8765 147.08 -7.87649 146.943 -7.74061C146.671 -7.33297 145.989 -6.78946 145.853 -7.06121C145.716 -7.19709 146.125 -7.46885 146.534 -7.74061C147.08 -8.01237 147.352 -8.42001 147.352 -8.69177C147.352 -8.96353 147.489 -9.09941 147.625 -9.23529C148.034 -9.50705 147.898 -9.91469 147.625 -9.91469C147.352 -9.91469 147.352 -10.0506 147.489 -10.3223C147.625 -10.5941 147.625 -10.73 147.625 -10.4582C147.625 -10.1864 148.307 -9.77881 148.443 -9.91469C148.443 -9.91469 148.443 -10.1864 148.307 -10.5941C148.171 -10.8658 148.034 -11.1376 147.898 -11.0017C147.898 -10.8658 147.625 -10.8658 147.489 -11.0017C147.216 -11.1376 147.352 -11.2735 147.625 -11.2735C147.898 -11.2735 148.171 -11.4094 148.307 -11.4094C148.443 -11.5452 148.307 -11.5452 148.034 -11.5452C147.762 -11.5452 147.489 -11.5452 147.625 -11.6811C147.762 -11.817 147.625 -12.0888 147.352 -12.3605C146.807 -12.904 146.807 -13.1758 147.352 -13.1758C147.898 -13.1758 148.034 -13.4476 147.489 -13.7193C147.216 -13.8552 147.216 -13.9911 147.352 -13.9911C147.489 -13.9911 147.625 -14.2628 147.489 -14.6705C147.489 -15.0781 147.352 -15.3499 147.216 -15.3499C146.943 -15.214 146.807 -15.6216 147.08 -15.7575C147.489 -16.0293 147.352 -16.4369 146.943 -16.7087C146.671 -16.8445 146.534 -17.1163 146.671 -17.3881C146.671 -17.6598 146.671 -17.9316 146.534 -17.9316C146.398 -17.9316 146.534 -18.0675 146.671 -18.0675C146.943 -18.0675 146.943 -18.2033 146.943 -18.3392C146.943 -18.4751 146.807 -18.4751 146.671 -18.4751C146.534 -18.4751 146.534 -18.611 146.534 -18.8827C146.534 -19.1545 146.671 -19.4263 146.807 -19.5621C146.943 -19.698 147.08 -19.8339 146.943 -20.1057C146.943 -20.2415 147.08 -20.5133 147.216 -20.5133C147.352 -20.5133 147.489 -20.6492 147.352 -20.6492C147.216 -20.6492 147.216 -21.0568 147.216 -21.4645C147.216 -22.2797 146.943 -23.3668 146.671 -23.2309C146.534 -23.2309 146.534 -23.2309 146.534 -23.3668C146.534 -23.5026 146.671 -23.6385 146.807 -23.5026C147.216 -23.2309 147.08 -24.7256 146.671 -25.1332C146.398 -25.2691 146.398 -25.405 146.534 -25.5408C147.216 -25.9485 146.534 -27.8508 145.716 -28.1226C145.443 -28.2584 145.443 -28.3943 145.716 -28.6661C145.989 -29.0737 145.989 -29.0737 145.58 -29.2096C145.307 -29.2096 145.034 -29.3455 144.762 -29.6172C144.489 -29.889 144.489 -29.889 144.898 -30.1607C145.307 -30.2966 145.443 -30.4325 145.171 -30.5684C145.034 -30.7043 144.762 -30.976 144.625 -31.1119C144.489 -31.2478 144.353 -31.3837 144.216 -31.3837C144.08 -31.3837 143.944 -31.2478 143.671 -31.3837C143.535 -31.3837 142.853 -31.5195 142.307 -31.5195C141.762 -31.5195 141.08 -31.6554 140.944 -31.6554C140.398 -31.7913 136.58 -32.1989 136.035 -32.1989C135.353 -32.1989 132.217 -32.6066 131.671 -32.6066C131.399 -32.6066 130.444 -32.7425 129.49 -32.8783C128.535 -33.0142 127.717 -33.1501 127.444 -33.1501C127.308 -33.286 127.035 -33.286 126.899 -33.1501C126.763 -33.0142 126.49 -33.0142 126.354 -33.1501C126.217 -33.286 125.672 -33.286 125.263 -33.4219C124.854 -33.4219 122.945 -33.8295 121.036 -34.1013C119.263 -34.5089 117.627 -34.6448 117.49 -34.6448C117.354 -34.6448 116.672 -34.6448 115.854 -34.9165C113.263 -35.46 111.354 -35.8677 110.673 -35.7318C110.4 -35.7318 109.991 -35.8677 109.854 -35.8677C109.718 -36.0036 109.445 -36.0036 109.309 -35.8677C109.173 -35.7318 108.9 -35.7318 108.764 -35.8677C108.627 -36.0036 107.945 -36.0036 107.4 -36.1394C106.855 -36.1394 106.173 -36.2753 106.036 -36.2753C105.9 -36.2753 105.218 -36.4112 104.673 -36.4112C104.128 -36.4112 103.037 -36.683 102.219 -36.8188C101.4 -37.0906 100.446 -37.2265 100.037 -37.2265H99.355L99.9005 -39.2647C100.173 -40.3517 100.446 -41.4387 100.31 -41.5746C100.173 -41.7105 100.31 -41.9823 100.446 -42.254C100.582 -42.3899 100.855 -42.9334 100.719 -43.2052C100.719 -43.4769 100.719 -44.0205 100.855 -44.1563C100.991 -44.2922 100.991 -44.564 100.855 -44.6999C100.719 -44.8357 100.719 -45.2434 100.855 -45.5151C100.991 -45.7869 100.991 -46.1945 100.855 -46.1945C100.719 -46.3304 100.855 -46.4663 100.855 -46.4663C100.991 -46.4663 100.991 -47.1457 100.855 -47.961C100.855 -48.6404 100.719 -49.7274 100.855 -50.135C100.855 -50.5427 100.855 -51.0862 100.719 -51.358C100.582 -51.4938 100.446 -52.0374 100.582 -52.3091C100.582 -52.8526 100.582 -52.8526 100.037 -52.9885C99.7641 -52.9885 99.355 -53.2603 99.355 -53.3962C99.2187 -53.532 99.0823 -53.532 99.0823 -53.532C98.946 -53.3962 97.5824 -53.532 95.2644 -53.6679C94.5826 -53.8038 93.9008 -53.6679 93.7644 -53.532C93.6281 -53.3962 92.8099 -53.3962 91.9918 -53.3962C90.0828 -53.532 84.7649 -53.8038 82.9923 -53.8038C82.1741 -53.8038 81.2197 -53.9397 80.5379 -53.9397C79.5834 -53.9397 75.4927 -54.0755 73.5837 -53.9397C71.2656 -53.9397 70.1748 -53.9397 69.7657 -53.9397C69.6294 -53.9397 68.9476 -53.9397 68.4022 -53.9397C67.8567 -53.9397 67.3113 -53.9397 67.1749 -53.9397C67.0386 -53.9397 66.0841 -53.9397 64.9932 -53.9397C63.9024 -53.8038 61.0389 -53.8038 58.7209 -53.6679C56.4028 -53.532 53.1302 -53.532 51.6303 -53.3962C50.1304 -53.2603 47.676 -53.2603 46.1761 -53.1244C42.4945 -53.2603 24.6318 -51.7656 24.3591 -51.6297C24.3591 -51.6297 23.5409 -51.4938 22.5864 -51.358C21.6319 -51.2221 19.9957 -51.0862 18.9048 -50.9503C17.814 -50.8144 16.314 -50.5427 15.7686 -50.5427C13.8596 -50.2709 11.9506 -49.9992 10.3144 -49.7274C9.35987 -49.5915 8.40537 -49.3198 7.9963 -49.3198C7.31452 -49.1839 2.13298 -48.2327 0.087635 -47.8251C-0.866859 -47.6892 -2.23042 -47.4175 -3.32127 -47.1457C-4.41212 -47.0098 -6.45747 -46.4663 -8.09374 -46.0587C-9.73002 -45.651 -11.0936 -45.3793 -11.2299 -45.2434C-11.5027 -45.2434 -11.5027 -45.1075 -11.2299 -44.9716C-11.0936 -44.9716 -11.0936 -44.9716 -11.5027 -45.1075C-12.5935 -45.2434 -21.4567 -42.5258 -26.0928 -40.6235C-30.0471 -38.9929 -32.5015 -37.4982 -33.5924 -36.1394C-34.0014 -35.5959 -34.4105 -35.0524 -34.4105 -34.7806C-34.4105 -34.6448 -34.8196 -33.9654 -35.2287 -33.4219C-35.7741 -32.6066 -35.9104 -32.3348 -35.7741 -32.0631C-35.6377 -31.7913 -35.6377 -31.6554 -35.7741 -31.7913C-36.0468 -31.9272 -36.0468 -31.7913 -35.9104 -28.6661C-35.9104 -27.8508 -35.5014 -27.1714 -34.2742 -26.0844C-33.7287 -25.5408 -33.3197 -25.1332 -33.1833 -24.8614C-33.047 -24.5897 -32.2288 -24.3179 -30.7289 -23.7744C-30.3198 -23.6385 -29.9108 -23.3668 -29.7744 -23.2309C-29.5017 -22.6874 -27.8654 -22.1439 -26.2291 -22.008C-25.411 -21.8721 -24.5929 -21.8721 -24.5929 -21.8721C-24.4565 -21.8721 -23.9111 -21.8721 -23.2293 -21.7362C-22.2748 -21.4645 -18.0478 -21.6003 -17.6387 -21.8721C-17.6387 -21.8721 -16.9569 -21.8721 -16.4115 -21.8721C-15.7297 -21.8721 -15.1843 -21.8721 -15.1843 -21.8721C-15.1843 -21.8721 -14.6388 -22.008 -13.9571 -22.008C-13.4116 -22.008 -12.8662 -22.1439 -12.7299 -22.1439C-12.5935 -22.1439 -10.4118 -22.4156 -10.0027 -22.4156C-9.73002 -22.4156 -9.45731 -22.4156 -9.32095 -22.4156C-9.18459 -22.4156 -8.77552 -22.4156 -8.63917 -22.4156C-8.50281 -22.4156 -7.54832 -22.4156 -6.86654 -22.5515C-6.0484 -22.5515 -5.36662 -22.5515 -5.23026 -22.5515C-5.0939 -22.5515 -4.82119 -22.5515 -4.54848 -22.6874C-4.27577 -22.8232 -4.00305 -22.8232 -4.00305 -22.8232C-3.8667 -22.6874 -2.63949 -22.6874 -1.13957 -22.9591C-0.866856 -22.9591 -0.457787 -22.9591 -0.457787 -22.9591C-0.185074 -22.8232 2.81477 -23.2309 3.08748 -23.3668C3.22383 -23.5026 3.49654 -23.5026 3.49654 -23.3668C3.6329 -23.3668 5.13282 -23.3668 7.04181 -23.5026C8.9508 -23.6385 10.7234 -23.7744 10.9961 -23.7744C12.6324 -23.7744 13.5869 -23.9103 13.8596 -24.0462C13.996 -24.182 14.2687 -24.182 14.4051 -24.0462C14.8141 -23.9103 13.4506 -23.3668 9.22351 -22.2797C4.86011 -21.0568 2.81476 -20.3774 0.496704 -19.4263C0.087635 -19.2904 -0.594143 -19.0186 -1.00321 -18.8827C-1.68499 -18.611 -1.95771 -18.4751 -2.23042 -18.0675C-2.50314 -17.6598 -2.50313 -17.5239 -2.63949 -17.7957C-2.63949 -17.9316 -2.9122 -17.9316 -3.45763 -17.7957C-4.27577 -17.3881 -4.54848 -17.5239 -4.00305 -18.0675C-3.73034 -18.3392 -3.8667 -18.3392 -4.27577 -18.0675C-4.82119 -17.7957 -4.82119 -17.6598 -4.41212 -17.5239C-4.13941 -17.3881 -4.00305 -17.2522 -4.00305 -17.1163C-4.00305 -16.9804 -3.8667 -16.9804 -3.73034 -17.2522C-3.45763 -17.5239 -3.32127 -17.5239 -3.32127 -17.2522C-3.18491 -16.9804 -3.32127 -16.8445 -3.59399 -16.7087C-3.8667 -16.5728 -4.00305 -16.4369 -3.8667 -16.301C-3.8667 -16.1651 -3.73034 -16.1651 -3.59399 -16.301C-3.45763 -16.5728 -3.32127 -16.301 -3.32127 -15.8934C-3.32127 -15.6216 -3.45763 -15.4858 -3.59399 -15.6216C-3.73034 -15.7575 -3.8667 -15.6216 -4.00305 -15.4858C-4.13941 -15.3499 -4.27577 -15.214 -4.54848 -15.214C-4.82119 -15.214 -4.82119 -15.214 -4.82119 -15.0781C-4.68484 -14.9422 -4.54848 -14.6705 -4.54848 -14.3987C-4.41212 -14.127 -4.41212 -13.9911 -4.54848 -13.8552C-5.91204 -13.1758 -5.91204 -13.1758 -5.36662 -13.8552C-4.95755 -14.3987 -4.95755 -14.3987 -5.36662 -14.3987C-5.63933 -14.3987 -5.91204 -14.5346 -6.0484 -14.8064C-6.18476 -14.9422 -6.32111 -14.9422 -6.32111 -14.8064C-6.45747 -14.6705 -6.59382 -14.5346 -6.86654 -14.3987C-7.00289 -14.2628 -7.13925 -14.127 -7.13925 -14.127C-7.13925 -13.9911 -7.13925 -13.7193 -7.41196 -13.4476C-7.68467 -13.1758 -7.68468 -12.904 -7.54832 -12.904C-7.41196 -12.904 -7.68467 -12.6323 -8.09374 -12.3605C-8.50281 -12.0888 -8.91188 -11.9529 -9.04824 -12.0888C-9.1846 -12.2246 -9.04824 -12.2246 -8.63917 -12.3605C-8.09374 -12.4964 -8.09374 -12.4964 -8.50281 -12.6323C-9.04824 -12.7682 -9.04824 -12.7682 -8.63917 -13.1758C-8.36646 -13.4476 -8.36646 -13.5834 -8.77552 -13.5834C-9.18459 -13.5834 -9.18459 -13.7193 -9.18459 -14.127C-9.18459 -14.8064 -9.45731 -14.6705 -9.73002 -13.9911C-9.86638 -13.5834 -10.5482 -13.0399 -10.8209 -13.1758C-10.9572 -13.1758 -10.9572 -13.3117 -10.9572 -13.5834C-10.9572 -13.8552 -10.9572 -13.8552 -11.3663 -13.7193C-11.639 -13.5834 -11.7754 -13.3117 -11.639 -13.3117C-11.5027 -13.3117 -11.5027 -13.0399 -11.639 -12.904C-11.5027 -12.4964 -11.5027 -12.3605 -11.5027 -12.2246C-11.3663 -12.2246 -11.639 -12.0888 -11.9117 -11.9529C-12.1844 -11.817 -12.3208 -11.817 -12.3208 -11.9529C-11.9117 -12.3605 -12.3208 -12.3605 -13.1389 -11.9529C-13.8207 -11.5452 -13.9571 -11.4094 -13.548 -11.4094C-13.4116 -11.2735 -13.2753 -11.1376 -13.2753 -11.1376C-13.4116 -10.8658 -14.0934 -10.4582 -14.3661 -10.4582C-14.6388 -10.5941 -15.1843 -8.96353 -14.9116 -8.69177C-14.7752 -8.55589 -14.9116 -8.42001 -15.0479 -8.28413C-15.1843 -8.14825 -15.3206 -8.14825 -15.457 -8.01237C-15.5933 -8.01237 -15.5933 -8.01237 -15.7297 -8.14825C-15.7297 -8.28414 -15.8661 -8.28413 -16.0024 -8.42001C-16.1388 -8.42001 -16.1388 -8.28414 -16.0024 -8.14825C-15.8661 -7.8765 -15.8661 -7.8765 -16.1388 -8.01237C-16.2751 -8.14825 -16.4115 -8.14825 -16.4115 -8.01237C-16.4115 -7.8765 -16.5478 -7.8765 -16.8205 -8.01237C-17.0933 -8.01237 -17.366 -8.01237 -17.2296 -8.01237C-17.2296 -7.8765 -17.2296 -7.8765 -17.5023 -8.01237C-17.775 -8.14825 -17.9114 -8.01237 -17.9114 -7.8765C-18.0478 -7.60474 -18.0478 -7.60474 -18.3205 -8.01237C-18.4568 -8.28413 -18.7295 -8.42001 -18.8659 -8.28413C-19.1386 -8.14825 -19.1386 -8.01237 -18.4568 -7.46886L-18.0478 -7.1971L-18.5932 -7.33298C-18.8659 -7.46886 -19.0022 -7.46886 -18.8659 -7.33298C-18.7295 -7.1971 -18.7295 -6.92534 -18.7295 -6.78946C-18.8659 -6.5177 -18.7295 -6.24594 -18.4568 -5.8383C-18.0478 -5.43066 -18.0478 -5.43066 -18.5932 -5.15891C-18.8659 -5.02303 -19.1386 -4.75127 -19.4113 -4.20774C-19.5477 -3.80011 -19.8204 -3.52835 -20.0931 -3.52835C-20.3658 -3.52835 -20.3658 -3.66423 -20.0931 -3.93599C-19.9567 -4.20774 -19.8204 -4.4795 -19.9567 -4.61538C-20.0931 -4.88714 -20.2295 -4.88714 -20.2295 -4.61538C-20.3658 -4.4795 -20.5022 -4.20775 -20.7749 -4.07187C-21.0476 -4.07187 -21.3203 -3.80011 -21.3203 -3.52835C-21.4567 -2.98483 -21.3203 -2.71307 -21.184 -3.12071C-21.0476 -3.12071 -21.0476 -3.12071 -21.0476 -2.84895C-20.9112 -2.16955 -20.7749 -1.62603 -20.6385 -1.89779C-20.6385 -2.03367 -20.5022 -2.44131 -20.3658 -2.71307C-19.9567 -3.39247 -19.684 -2.84895 -20.0931 -2.03368C-20.5022 -1.2184 -20.6385 -0.810757 -20.5022 -0.403118C-20.3658 -0.131359 -20.5022 -0.131359 -20.6385 -0.403118L-20.9112 -0.810757V-0.267235C-20.9112 0.00452423 -20.7749 0.412159 -20.6385 0.548038C-20.5022 0.683918 -20.5022 0.819801 -20.6385 1.09156C-20.9112 1.36332 -20.7749 1.4992 -20.5022 1.77096C-20.0931 2.1786 -19.9567 2.72211 -20.5022 2.58623C-20.7749 2.45035 -20.7749 2.45035 -20.6385 2.72211C-20.5022 2.85799 -20.0931 3.12975 -19.684 3.26563C-19.275 3.40151 -18.8659 3.67327 -18.7295 3.80915C-18.5932 4.08091 -18.4568 4.08091 -18.0478 4.08091C-17.775 4.08091 -17.6387 4.08091 -17.6387 4.08091C-17.6387 4.08091 -17.5023 4.35267 -17.366 4.48855C-16.9569 4.76031 -16.9569 4.89618 -17.2296 5.03206C-17.5023 5.16794 -17.5023 5.30383 -17.2296 5.30383C-16.9569 5.30383 -16.8205 5.30383 -16.6842 5.16795C-16.5478 5.03207 -16.4115 5.16794 -16.1388 5.4397C-16.0024 5.71146 -15.7297 5.98322 -15.5933 5.98322C-15.457 5.98322 -15.457 5.84734 -15.457 5.84734C-15.457 5.71146 -15.457 5.57558 -15.3206 5.57558C-15.1843 5.57558 -15.1843 5.57558 -15.1843 5.71146C-15.1843 5.84734 -15.0479 5.84734 -14.9116 5.84734C-14.7752 5.84734 -14.7752 6.1191 -14.7752 6.39086C-14.7752 6.66262 -14.7752 6.93438 -14.7752 6.93438C-14.6388 6.93438 -14.5025 6.93438 -14.3661 7.07026C-14.2298 7.20614 -13.9571 7.34202 -13.8207 7.20614C-13.548 7.20614 -13.2753 7.20614 -13.1389 7.34202C-13.0026 7.4779 -13.0026 7.61378 -13.2753 7.61378C-13.4116 7.61378 -13.548 7.74966 -13.548 7.88554C-13.548 8.02142 -13.2753 8.02142 -13.1389 7.88554C-13.0026 7.74966 -12.8662 7.74966 -12.8662 7.88554C-12.8662 8.02142 -12.7299 8.02141 -12.7299 8.15729C-12.4571 8.42905 -12.1844 8.83669 -12.3208 8.83669C-12.4571 8.83669 -12.4571 8.97257 -12.3208 9.10845C-12.3208 9.24433 -12.0481 9.10845 -12.0481 8.83669C-11.9117 8.56493 -11.639 8.42905 -11.3663 8.42905C-10.9572 8.42905 -10.9572 8.42905 -10.9572 8.15729C-10.9572 7.74965 -10.4118 7.34202 -10.1391 7.61378C-10.1391 7.74966 -10.1391 7.88554 -10.2754 7.88554C-10.4118 8.02142 -10.2754 8.02141 -10.0027 8.15729C-9.45731 8.29317 -9.32095 8.56493 -9.59366 8.70081C-9.73002 8.83669 -9.86637 8.70081 -10.0027 8.42905C-10.1391 8.1573 -10.1391 8.1573 -10.1391 8.42905C-10.1391 8.83669 -10.1391 8.83669 -10.2754 8.42905C-10.4118 7.88554 -10.6845 7.88554 -10.8209 8.29317C-10.9572 8.83669 -10.8209 8.97257 -10.4118 8.83669C-10.1391 8.70081 -9.86638 8.83669 -9.73002 9.10845C-9.59366 9.38021 -9.45731 9.38021 -9.18459 9.24434C-9.04824 9.38021 -8.77552 9.38021 -8.77552 9.65197C-8.63917 9.92373 -8.50281 9.92373 -8.36646 9.78785C-8.09374 9.51609 -7.13925 9.65197 -7.41196 10.0596C-7.54832 10.1955 -7.41196 10.4672 -7.2756 10.6031C-7.00289 10.739 -7.00289 10.8749 -7.41196 10.8749C-7.82103 10.8749 -7.82103 11.0108 -7.41196 11.0108C-7.13925 11.1466 -7.00289 11.0108 -7.00289 10.8749C-7.00289 10.739 -6.86654 10.6031 -6.73018 10.4672C-6.45747 10.3314 -6.18476 10.739 -6.32111 11.0108C-6.45747 11.1466 -6.32111 11.1466 -6.18476 10.8749C-5.91204 10.6031 -5.77568 10.6031 -5.77568 10.8749C-5.77568 11.1466 -5.50297 11.2825 -5.23026 11.1466C-4.82119 11.0108 -4.82119 10.739 -5.23026 10.739C-5.36662 10.739 -5.36662 10.739 -5.36662 10.6031C-5.23026 10.4672 -4.95755 10.6031 -4.68484 10.6031C-4.13941 10.739 -3.04856 10.3314 -3.45763 10.1955C-3.59399 10.1955 -3.59399 9.92373 -3.45763 9.65197C-3.18492 9.10845 -2.9122 9.24434 -2.9122 9.92373C-2.9122 10.3314 -3.18491 10.4672 -3.73034 10.8749L-4.54848 11.2825L-3.59399 11.4184C-2.9122 11.5543 -2.63949 11.4184 -2.50313 11.2825C-2.50313 11.1466 -2.23042 11.0108 -2.09407 11.0108C-1.82135 11.0108 -1.82135 11.1466 -1.95771 11.4184C-1.95771 11.826 -1.95771 11.9619 -1.68499 12.0978C-1.41228 12.2337 -1.41228 12.2337 -1.54864 12.5054C-1.685 12.6413 -1.95771 13.1848 -2.09407 13.4566C-2.50314 14.2719 -2.77584 14.8154 -3.04856 15.3589C-3.18491 15.4948 -3.32127 16.0383 -3.45763 16.5818C-3.59399 17.1253 -3.73034 17.533 -4.00305 17.533C-4.27577 17.533 -4.41212 17.9406 -4.54848 18.62C-4.68483 19.1635 -4.82119 19.4353 -4.82119 19.2994C-4.82119 19.0277 -4.95755 19.0277 -5.0939 19.0277C-5.23026 19.1635 -5.23026 19.2994 -4.95755 19.5712C-4.54848 19.9788 -3.8667 20.2506 -3.59399 20.1147C-3.45763 20.1147 -3.32127 19.9788 -3.32127 20.1147C-3.18491 20.1147 -3.18491 20.1147 -3.32127 19.9788C-3.45763 19.8429 -3.32127 19.7071 -3.04856 19.5712C-2.77584 19.4353 -2.63949 19.4353 -2.50313 19.4353C-2.50313 19.5712 -2.23042 19.4353 -1.95771 19.2994L-1.54864 19.0277L-1.82135 19.4353C-2.09406 19.8429 -2.09406 19.8429 -1.82135 19.9788C-1.54864 20.1147 -1.41228 19.9788 -1.27593 19.9788C-1.27593 19.8429 -1.13957 19.8429 -1.00321 19.9788C-0.866856 19.9788 -1.00322 20.2506 -1.27593 20.3865C-1.685 20.6582 -1.82135 20.7941 -1.68499 21.0658C-1.54864 21.3376 -1.41228 21.3376 -1.41228 21.0658C-1.27593 20.5223 -0.594147 20.2506 -0.594147 20.6582C-0.594147 20.7941 -0.321434 21.0658 -0.0487213 21.0658C0.223991 21.2017 0.496704 21.3376 0.496704 21.4735C0.496704 21.6094 0.633064 21.6094 1.04213 21.3376C1.4512 20.93 1.4512 20.93 1.58755 21.2017C1.72391 21.6094 2.67841 21.3376 2.81476 20.7941C2.95112 20.5223 3.08747 20.5223 3.36019 20.6582C3.6329 20.7941 3.90561 20.93 4.04197 21.2017C4.17833 21.3376 4.45104 21.4735 4.72375 21.3376C5.13282 21.2017 5.13282 21.3376 4.99646 21.4735C4.86011 21.6094 4.86011 21.8811 5.13282 22.1529C5.40553 22.4247 5.54189 22.4247 5.95096 22.1529C6.36003 21.8811 6.49638 21.8811 6.7691 22.2888C6.90545 22.5605 7.17817 22.6964 7.45088 22.5605C7.85995 22.4247 7.85995 22.5605 8.26902 23.2399C8.67809 24.0552 8.67809 24.0552 9.22351 23.6476C9.49623 23.5117 9.76894 23.104 9.9053 22.9682C9.9053 22.8323 10.3144 22.5605 10.5871 22.2888C10.8598 22.017 11.1325 21.6094 11.2689 21.3376C11.4052 21.0659 11.5416 20.7941 11.6779 20.7941C11.8143 20.6582 11.8143 20.5223 11.8143 20.3865C11.8143 20.2506 11.8143 20.2506 11.8143 20.2506C12.087 20.2506 11.9506 21.0658 11.6779 21.0658C11.5416 21.0658 11.4052 21.2017 11.4052 21.3376C11.4052 21.4735 11.5416 21.4735 11.8143 21.3376C12.087 21.2017 12.2234 21.2017 12.2234 21.4735C12.2234 21.6094 12.3597 21.7452 12.6324 21.7452C12.9051 21.7452 12.9051 21.6094 12.7688 21.6094C12.6324 21.4735 12.6324 21.4735 12.9051 21.4735C13.0415 21.4735 13.3142 21.3376 13.3142 21.2017C13.3142 21.0659 13.4506 20.93 13.5869 20.93C13.7233 20.93 13.8596 20.7941 13.8596 20.6582C13.8596 20.5223 13.7233 20.5223 13.7233 20.5223C13.5869 20.5223 13.4506 20.5223 13.3142 20.3865C13.1778 20.1147 13.1778 20.1147 13.5869 20.1147C13.8596 20.1147 13.996 20.1147 13.8596 19.9788C13.8596 19.8429 13.996 19.7071 14.2687 19.5712L14.6778 19.4353H14.1323C13.5869 19.4353 13.0415 18.8918 13.4506 18.62C13.5869 18.4841 13.7233 18.62 13.8596 18.7559C13.996 19.1635 14.4051 19.1635 14.8141 18.4841C15.2232 17.9406 15.7686 18.0765 15.4959 18.62C15.3595 18.8918 15.3596 19.0277 15.6323 19.0277C15.7686 19.0277 15.905 18.8918 15.905 18.7559C15.7686 18.3483 16.1777 18.2124 16.314 18.4841C16.4504 18.62 16.5868 18.7559 16.8595 18.62C17.4049 18.4841 16.9958 18.0765 16.314 18.0765C15.7686 17.9406 15.7686 17.9406 15.905 17.533C16.0413 17.2612 16.0413 16.9895 15.905 16.8536C15.7686 16.5818 15.6323 16.5818 15.6323 16.9895C15.6323 17.2612 15.4959 17.533 15.4959 17.533C15.3595 17.533 15.3596 17.533 15.3596 17.2612C15.3596 16.9895 15.3595 17.1254 15.2232 17.3971C15.0868 17.8047 14.9505 17.8047 14.6778 17.8047C14.4051 17.8047 14.4051 17.6689 14.6778 17.533C14.8141 17.3971 14.9505 17.2612 14.8141 17.1254C14.8141 16.9895 14.5414 16.9895 14.4051 17.1254C13.996 17.533 13.8596 17.533 13.7233 17.533C13.4506 17.3971 14.1323 16.9895 14.5414 17.1254C14.6778 17.1254 15.0868 17.1253 15.3596 16.8536C15.7686 16.5818 15.905 16.5818 15.7686 16.0383C15.6323 15.7666 15.7686 15.4948 15.905 15.4948C16.0413 15.4948 16.314 15.223 16.4504 15.0872C16.5868 14.8154 16.7231 14.6795 16.8595 14.8154C16.9958 14.8154 16.9958 15.223 16.7231 15.7666C16.4504 16.446 16.4504 16.5818 16.8595 16.7177C17.1322 16.7177 17.2685 16.7177 17.2685 16.5818C17.4049 16.1742 17.9503 16.7177 17.9503 16.9895C17.9503 17.3971 18.4957 17.3971 18.9048 16.8536C19.0412 16.7177 19.1775 16.7177 19.1775 16.8536C19.1775 17.1253 19.3139 17.1253 19.4502 16.8536C19.5866 16.7177 19.8593 16.5818 19.9957 16.7177C20.132 16.8536 20.132 16.8536 19.8593 16.8536C19.5866 16.8536 19.5866 16.9895 20.132 17.1254C20.5411 17.2612 20.8138 17.2612 20.8138 17.1254C20.8138 16.9895 21.0865 16.7177 21.3592 16.446C21.6319 16.1742 21.9047 16.0383 21.9047 16.1742C21.9047 16.3101 21.7683 16.4459 21.6319 16.5818C21.3592 16.7177 21.3592 16.7177 21.7683 16.7177C22.041 16.7177 22.3137 16.4459 22.3137 16.1742C22.4501 15.4948 22.5864 15.3589 22.5864 16.0383C22.5864 16.446 22.7228 16.5818 22.9955 16.5818C23.2682 16.7177 23.4046 16.5818 23.4046 16.446C23.1319 16.0383 23.5409 15.3589 23.95 15.4948C24.4954 15.6307 24.4954 15.9024 24.0863 16.0383C23.8136 16.1742 23.6773 16.1742 23.8136 16.446C24.0864 16.8536 23.8136 17.2612 23.2682 17.3971C23.1319 17.3971 22.9955 17.533 23.1319 17.6689C23.2682 17.8047 23.2682 17.8047 23.2682 17.6689C23.2682 17.533 23.4046 17.533 23.6773 17.533C23.95 17.533 24.0864 17.3971 24.2227 16.9895C24.3591 16.4459 24.3591 16.446 24.6318 16.7177C24.7681 16.8536 24.7681 16.7177 24.7681 16.3101C24.6318 15.3589 25.0408 15.0872 25.4499 15.9024C25.5863 16.1742 26.1317 15.9024 26.2681 15.4948C26.4044 15.0872 26.4044 15.0872 26.5408 15.3589C26.6771 15.4948 26.8135 15.6307 27.0862 15.4948C27.6316 15.3589 27.6316 15.3589 27.3589 15.223C27.2225 15.223 27.2225 15.0872 27.3589 14.9513C27.4953 14.8154 27.768 14.8154 27.768 14.9513C28.0407 15.0872 29.1315 14.4078 29.4043 14.0001C29.5406 13.7284 29.677 13.7284 29.677 13.8642C29.677 14.0001 29.677 14.136 29.5406 14.136C29.4043 14.2719 29.4043 14.2719 29.5406 14.2719C29.677 14.2719 29.8133 14.136 30.086 13.8642C30.3587 13.4566 30.4951 13.4566 30.9042 13.4566C31.1769 13.5925 31.3132 13.5925 31.3132 13.3207C31.3132 13.049 31.4496 13.049 31.586 13.3207C31.7223 13.5925 31.8587 13.5925 31.995 13.4566C32.1314 13.3207 32.4041 13.3207 32.8132 13.4566C33.3586 13.7284 33.3586 13.7284 33.2222 13.3207C33.0859 13.049 33.0859 13.049 33.4949 13.1848C33.7677 13.3207 34.0404 13.5925 34.0404 13.7284C34.0404 13.8642 34.1767 14.0001 34.3131 13.8642C34.4494 13.8642 34.4494 13.7284 34.4494 13.5925C34.4494 13.4566 34.5858 13.3207 34.7222 13.1848C34.9949 13.049 34.9949 12.9131 34.7222 12.7772C34.4494 12.6413 34.4494 12.6413 34.8585 12.5054C35.4039 12.3696 35.4039 12.3696 35.2676 12.7772C35.1312 13.1848 35.2676 13.3207 35.9494 13.3207C36.3584 13.3207 36.7675 13.3207 36.7675 13.1848C36.7675 13.049 36.6311 13.049 36.3584 12.9131C35.9493 12.9131 35.9494 12.9131 36.2221 12.5054C36.7675 11.9619 36.7675 11.9619 36.9038 12.2337C37.0402 12.3696 37.1766 12.3696 37.3129 12.2337C37.4493 12.0978 37.722 12.0978 37.9947 12.2337C38.2674 12.3696 38.4038 12.3696 38.2674 12.2337C37.9947 11.6902 38.5401 11.826 38.9492 12.3696C39.4946 13.049 39.7673 13.049 40.04 12.5054C40.1764 12.2337 40.1764 12.0978 39.9037 12.3696C39.631 12.5054 39.4946 12.5054 39.2219 11.9619C38.9492 11.2825 38.9492 11.2825 39.7673 10.8749C40.1764 10.6031 40.7218 10.4672 40.8582 10.6031C40.9945 10.739 41.54 10.6031 41.949 10.4672C42.3581 10.3314 42.7672 10.1955 42.9035 10.3314C43.0399 10.4672 43.449 10.4672 43.858 10.3314C44.2671 10.1955 44.5398 10.0596 44.6762 10.1955C44.6762 10.1955 45.0852 10.1955 45.3579 9.92373C46.3124 9.38021 47.5396 9.78785 46.8579 10.4672C46.7215 10.6031 46.8579 10.739 47.5396 10.739C48.6305 10.739 48.9032 10.6031 48.6305 10.3314C48.4941 10.1955 48.7668 10.1955 48.9032 10.3314C49.3123 10.4672 49.4486 10.3314 50.1304 9.92373C50.5395 9.65197 51.0849 9.24433 51.3576 8.97257C51.6303 8.83669 51.903 8.70081 51.903 8.83669C51.903 8.97257 52.1758 8.97257 52.3121 8.83669C52.4485 8.70081 52.7212 8.83669 52.8575 8.83669C52.9939 8.97257 53.403 8.83669 53.9484 8.42905C54.6302 7.88554 54.9029 7.88553 54.9029 8.15729C55.0392 8.56493 55.4483 8.83669 55.4483 8.42905C55.4483 8.02142 56.1301 8.02142 56.5392 8.29317C56.9482 8.56493 57.3573 8.29317 57.4936 7.74966C57.4936 7.4779 57.63 7.34201 57.7664 7.47789C57.9027 7.61377 57.9027 7.61378 57.7664 7.74966C57.63 7.88554 57.63 7.88554 57.7664 8.02142C57.9027 8.02142 58.0391 8.02142 58.1754 7.88554C58.3118 7.74966 58.4482 7.74966 58.4482 7.74966C58.5845 8.02142 60.3571 7.74965 60.9026 7.47789C61.9934 6.93438 62.6752 6.66262 62.8115 6.52674C63.0843 6.39086 62.6752 7.61378 62.4025 7.74966C62.2661 7.88554 62.2661 7.88554 62.5388 7.88554C62.8115 7.88554 62.9479 7.61378 63.0843 6.93438C63.357 6.1191 63.357 5.98322 63.766 6.25498C64.0387 6.39086 64.0387 6.52674 63.6297 6.93438C63.2206 7.34202 63.0843 7.88554 63.4933 7.61378C63.6297 7.61378 63.6297 7.4779 63.4933 7.34202C63.4933 7.20614 63.4933 7.07026 63.6297 7.07026C63.766 7.07026 63.766 7.07026 63.766 7.20614C63.766 7.34202 63.9024 7.34202 64.1751 7.20614C64.4478 7.07026 64.7205 7.07026 64.8569 7.20614C65.1296 7.34202 64.9932 7.4779 64.5842 7.61378C64.1751 7.74966 64.0388 7.88554 64.0388 8.02142C64.0388 8.1573 63.9024 8.29317 63.6297 8.42905C63.0843 8.56493 63.0843 8.56494 63.6297 8.56494C63.9024 8.56494 64.1751 8.42905 64.3115 8.29317C64.3115 8.1573 64.4478 8.1573 64.5842 8.29317C64.5842 8.42905 64.8569 8.42905 64.9932 8.42905C65.1296 8.42905 65.266 8.29317 65.1296 8.29317C64.9932 8.29317 64.9932 8.1573 65.1296 8.02142C65.266 7.88554 65.4023 8.02142 65.5387 8.02142C65.675 8.29317 66.0841 8.1573 66.0841 7.88554C66.0841 7.74966 66.0841 7.74966 66.2205 8.02142C66.3568 8.29317 66.6295 8.56493 67.1749 8.70081C67.9931 8.83669 68.4022 8.70081 68.6749 8.15729C68.8112 7.88553 68.8112 7.88553 68.5385 8.15729C68.1294 8.56493 67.9931 8.42906 68.1294 7.88554C68.1294 7.61378 68.4022 7.47789 68.5385 7.47789C68.9476 7.47789 69.2203 8.1573 68.9476 8.42905C68.8112 8.56493 68.8112 8.70081 68.9476 8.70081C69.0839 8.70081 69.2203 8.56493 69.2203 8.29317C69.3566 8.02142 69.3567 7.88554 69.493 8.02142C69.6294 8.1573 69.7657 8.1573 69.7657 8.02142C69.9021 7.88554 70.0384 7.88553 70.1748 8.15729C70.4475 8.56493 70.7202 8.42905 70.7202 8.02142C70.7202 7.88554 70.8566 7.61378 70.9929 7.61378C71.5384 7.4779 71.402 6.93438 70.8566 6.66262C70.5839 6.52674 70.4475 6.52674 70.5839 6.66262C70.5839 6.66262 70.3111 6.66262 69.7657 6.66262C69.2203 6.66262 68.9476 6.66262 69.0839 6.7985C69.493 6.93438 68.6749 7.34202 68.1294 7.20614C67.7204 7.07026 67.7204 7.07026 68.1294 6.93438C68.5385 6.7985 68.5385 6.7985 68.2658 6.66262C67.7204 6.52674 67.7204 6.39086 68.5385 5.84734C68.9476 5.57558 69.3567 5.4397 69.3567 5.57558C69.3567 5.84734 70.9929 5.71146 71.402 5.4397C71.5384 5.30382 71.6747 5.16794 71.6747 5.03206C71.6747 4.89618 71.9474 4.76031 72.3565 4.89619C72.7656 5.03207 73.1746 4.89618 73.4473 4.7603C73.7201 4.62442 74.1291 4.62442 74.4018 4.7603C74.9473 5.03206 74.9473 5.03207 75.22 4.48855C75.4927 4.08091 75.629 3.94503 75.9017 4.08091C76.0381 4.21679 76.1745 4.35266 76.3108 4.35266C76.3108 4.35266 76.7199 4.62443 76.9926 4.89619C77.8107 5.4397 77.8107 5.57558 77.129 5.71146C76.7199 5.71146 76.5835 5.84734 76.5835 5.98322C76.5835 6.25498 76.5835 6.25498 76.8563 6.25498C77.6744 6.1191 78.2198 6.1191 79.0379 6.25498C79.8561 6.39086 80.2652 6.25498 80.2652 5.84734C80.2652 5.71146 80.4015 5.57558 80.6742 5.4397C80.9469 5.30382 81.2197 5.4397 81.356 5.71146C81.4924 5.98322 81.6287 6.1191 82.0378 5.84734C82.3105 5.71146 82.5832 5.57558 82.8559 5.71146C82.9923 5.71146 83.265 5.71146 83.4014 5.57558C83.5377 5.4397 83.6741 5.4397 83.8104 5.57558C83.9468 5.71146 83.9468 5.71146 83.9468 5.4397C83.9468 5.16794 84.0831 5.03207 84.2195 5.16795C84.3558 5.30383 84.6286 5.16794 85.0376 5.03206C85.3103 4.89618 85.583 4.7603 85.583 5.03206C85.583 5.16794 85.7194 5.16795 85.9921 5.16795C86.2648 5.03207 86.5376 5.16795 86.5376 5.16795C86.6739 5.30383 86.6739 5.16795 86.5376 4.89619C86.5376 4.62443 86.5375 4.35266 86.6739 4.35266C86.8103 4.35266 86.9466 4.48854 86.9466 4.7603C86.9466 5.03206 87.083 5.03206 87.492 4.7603C87.7648 4.62442 87.9011 4.48855 87.9011 4.62443C87.9011 4.76031 88.0375 4.76031 88.3102 4.62443C88.5829 4.48855 88.8556 4.35267 88.992 4.48855C89.1283 4.48855 89.401 4.48854 89.5374 4.35266C89.9465 4.08091 90.4919 4.35266 90.2192 4.62443C90.0828 4.76031 90.0828 5.03207 90.2192 5.16795C90.3555 5.4397 90.4919 5.4397 90.7646 5.16795C91.0373 4.89619 91.0373 4.89619 91.1737 5.30383C91.31 5.57558 91.31 5.71146 91.4464 5.57558C91.5827 5.30383 92.9463 5.16794 93.219 5.4397C93.3554 5.57558 93.219 5.71146 92.8099 5.84734C92.4009 5.98322 92.4009 6.1191 92.5372 6.25498C92.6736 6.39086 92.9463 6.39086 92.9463 6.25498C93.0826 6.1191 93.219 6.1191 93.3554 6.25498C93.7644 6.52674 94.5826 6.1191 94.3099 5.71146C94.1735 5.57558 94.3099 5.4397 94.5826 5.30383C95.2644 5.16795 95.2643 5.4397 94.4462 6.1191L94.3099 6.66262L95.5371 6.1191C96.2188 5.84734 96.7643 5.71146 96.9006 5.71146C96.9006 5.84734 97.1733 5.84734 97.3097 5.71146C97.4461 5.57558 97.7188 5.71146 97.8551 5.98322C97.9915 6.25498 98.1278 6.25498 97.9915 5.98322C97.8551 5.57558 99.2187 4.7603 99.4914 5.03206C99.4914 5.16794 99.9005 5.16795 100.31 5.16795C100.719 5.16795 100.991 5.16795 101.128 5.16795C101.128 5.30383 101.4 5.16795 101.673 4.89619C101.946 4.62443 102.082 4.62442 101.946 4.7603C101.809 5.03206 101.946 5.03206 102.628 4.7603C103.037 4.62442 103.582 4.48855 103.718 4.62443C103.855 4.76031 104.128 4.76031 104.4 4.62443C104.673 4.48855 104.809 4.48854 104.946 4.7603C105.218 5.16794 105.764 5.30382 106.309 5.03206C106.582 4.89618 106.855 4.89618 106.991 5.03206C107.127 5.16794 107.673 5.03207 108.218 4.89619C109.036 4.76031 109.309 4.7603 109.445 5.03206C109.582 5.30382 109.991 5.4397 110.264 5.4397C111.082 5.4397 111.218 5.30383 110.536 5.16795C110.127 5.03207 109.991 5.03207 110.4 4.89619C110.673 4.89619 110.809 4.89619 110.809 4.89619C110.809 4.89619 111.082 5.30383 111.354 5.57558C111.627 5.84734 111.627 6.1191 111.491 6.1191C111.354 6.1191 111.354 6.25498 111.491 6.25498C111.627 6.39086 111.9 6.39086 112.036 6.39086C112.173 6.39086 112.173 6.25498 112.036 6.25498C111.9 6.1191 111.9 6.1191 112.036 5.98322C112.173 5.84734 112.173 5.84734 112.036 5.71146C111.9 5.71146 111.9 5.57558 112.036 5.4397C112.173 5.4397 112.309 5.16794 112.445 5.03206C112.718 4.7603 112.718 4.7603 112.582 5.03206C112.445 5.16794 112.445 5.30383 112.582 5.30383C112.718 5.30383 112.718 5.30382 112.582 5.4397C112.582 5.57558 112.582 5.84734 112.582 6.1191C112.718 6.52674 112.718 6.52674 112.991 6.39086C113.263 6.25498 113.263 6.1191 112.991 6.1191C112.718 6.1191 112.718 5.98322 112.718 5.57558V5.03206L113.263 5.16795C113.672 5.30383 113.809 5.4397 113.809 5.71146C113.809 5.84734 113.945 6.1191 114.082 6.1191C114.491 6.39086 114.627 6.1191 114.354 5.57558C114.218 5.30383 114.218 5.16795 114.218 5.16795C114.218 5.16795 114.491 5.03207 114.627 4.89619C114.763 4.76031 114.9 4.7603 115.036 5.03206C115.036 5.30382 115.172 5.30383 115.172 4.89619C115.172 4.62443 115.309 4.35267 115.309 4.48855C115.309 4.48855 115.581 4.7603 115.718 5.03206C115.991 5.4397 116.809 5.84734 117.218 5.57558C117.354 5.4397 117.9 5.71146 118.036 5.98322C118.172 6.1191 117.49 6.39086 117.354 6.25498C117.218 6.1191 117.081 6.1191 117.081 6.39086C117.081 6.52674 116.945 6.66262 116.809 6.66262C116.536 6.66262 116.536 6.7985 116.672 6.7985C116.809 6.93438 117.081 6.93438 117.218 6.7985C117.354 6.66262 117.49 6.7985 117.49 6.7985C117.49 6.93438 117.627 6.93438 117.763 6.93438C117.9 6.93438 118.036 6.7985 117.9 6.66262C117.763 6.52674 117.9 6.39086 118.172 6.25498C118.581 6.1191 118.581 6.1191 118.445 6.52674C118.309 6.7985 118.581 7.20614 118.854 6.93438C118.99 6.93438 118.99 6.7985 118.854 6.66262C118.718 6.66262 118.854 6.39086 119.127 6.25498C119.399 6.1191 119.672 5.98322 119.809 6.1191C119.809 6.25498 119.808 6.39086 119.536 6.52674C119.399 6.66262 119.263 6.93438 119.263 7.07026C119.263 7.20614 119.399 7.34202 119.536 7.34202C119.808 7.20614 120.081 7.74966 119.809 8.02142C119.672 8.1573 119.808 8.1573 119.945 8.02142C120.218 7.88554 120.218 7.74965 119.945 7.47789C119.808 7.20613 119.808 6.93438 119.945 6.7985C120.081 6.66262 120.218 6.52674 120.354 6.66262C120.354 6.7985 120.763 6.66262 121.036 6.39086C121.717 5.98322 121.854 6.1191 121.581 6.7985C121.445 7.07026 121.308 7.07026 120.899 7.07026C120.49 6.93438 120.354 7.07026 120.218 7.34202C119.945 7.88554 120.49 8.29317 121.445 8.15729C122.263 8.02141 122.399 8.02142 122.399 7.74966C122.399 7.4779 122.399 7.47789 122.808 7.47789C123.081 7.61377 123.081 7.61378 123.081 7.74966C122.808 8.1573 123.217 8.56493 124.172 8.70081C125.399 8.97257 125.535 8.97258 125.126 8.56494C124.99 8.42906 124.581 8.29317 124.308 8.42905L123.763 8.56494L124.172 8.15729C124.445 7.88553 124.581 7.74966 124.854 7.88554C125.126 8.02142 125.126 7.88553 125.263 7.47789C125.263 7.20613 125.399 7.07026 125.399 7.20614C125.399 7.88554 125.672 8.29317 126.081 8.15729C126.354 8.02141 126.49 8.1573 126.49 8.29317C126.49 8.42905 126.354 8.56493 126.217 8.70081C126.081 8.70081 125.945 8.83669 125.945 8.83669C125.945 8.97257 126.354 8.97257 126.763 8.83669C127.308 8.70081 127.581 8.83669 127.717 8.97257C127.854 9.10845 127.99 9.24433 128.126 9.10845C128.263 8.97257 128.535 9.10845 128.944 9.10845C129.217 9.24433 129.626 9.24433 129.762 9.10845C129.899 8.97257 130.035 8.70081 130.035 8.42905C130.172 7.61378 130.853 7.34202 131.399 8.02142C131.671 8.29317 131.671 8.42905 131.262 8.42905C130.99 8.42905 130.717 8.56494 130.444 8.56494C130.172 8.70082 130.172 8.70081 130.581 8.70081C130.853 8.70081 131.399 8.56494 131.535 8.56494C131.671 8.42906 131.944 8.42906 132.081 8.56494C132.217 8.70082 132.217 8.70081 132.081 8.70081C131.944 8.70081 131.808 8.83669 131.944 8.97257C132.081 9.24433 132.217 9.24433 132.353 8.83669C132.49 8.56493 132.762 8.42905 132.899 8.42905C133.171 8.42905 133.308 8.42905 133.444 8.15729C133.58 7.88553 133.58 7.88554 133.171 7.74966C132.899 7.74966 132.899 7.74965 133.171 7.47789C133.444 7.34201 133.58 7.34202 133.717 7.34202C133.853 7.4779 134.126 7.34202 134.535 7.20614C134.944 7.07026 135.353 6.93438 135.489 7.07026C135.762 7.20614 135.762 7.20614 135.762 6.93438C135.762 6.7985 135.899 6.66262 136.035 6.66262C136.171 6.66262 136.171 6.66262 136.035 6.52674C135.899 6.39086 135.762 6.52674 135.626 6.52674C135.626 6.66262 135.489 6.52674 135.489 6.39086C135.489 6.25498 135.353 6.1191 135.217 6.25498C135.08 6.39086 134.944 6.25498 135.08 6.1191C135.217 5.71146 135.626 5.71146 135.762 5.98322C135.899 6.1191 136.171 6.25498 136.444 6.39086C136.989 6.52674 136.989 6.52674 136.989 6.1191C136.989 5.71146 136.989 5.71146 137.398 6.1191C137.535 6.39086 137.808 6.66262 137.944 6.93438C138.08 7.20614 138.217 7.20614 138.489 7.20614C138.762 7.07026 138.762 7.07026 138.489 6.7985C138.217 6.66262 138.353 6.52674 138.898 6.66262C139.58 6.7985 140.535 6.93438 140.807 6.7985C140.807 6.7985 140.807 6.52674 140.807 6.39086C140.671 5.98322 140.262 5.71146 140.398 6.1191C140.398 6.25498 140.262 6.39086 139.989 6.25498C139.58 6.25498 139.58 6.1191 139.58 5.71146C139.58 5.30382 139.717 5.16795 140.126 5.16795C140.944 5.03207 141.762 4.76031 141.626 4.48855C141.353 4.21679 142.171 3.94503 142.58 4.21679C142.989 4.35267 143.807 3.67327 143.807 3.26563C143.807 2.85799 144.216 2.58624 144.353 2.85799C144.353 2.99387 144.216 3.53739 143.807 3.94503C143.398 4.76031 143.262 4.76031 143.671 4.48855C143.944 4.35267 144.216 4.35267 144.353 4.48855C144.489 4.62443 144.762 4.62443 144.762 4.62443C144.353 5.16795 144.353 5.03207 144.216 4.89619ZM144.216 2.85799C143.807 3.26563 143.262 2.99387 143.398 2.58623C143.535 2.04271 143.944 1.90683 144.08 2.1786C144.216 2.31448 144.353 2.31448 144.353 2.1786C144.489 2.04271 144.489 2.04271 144.489 2.1786C144.489 2.31448 144.762 2.45036 145.171 2.45036C145.58 2.45036 145.853 2.58623 145.853 2.72211C145.853 2.85799 145.58 2.85799 145.171 2.72211C144.762 2.72211 144.489 2.72211 144.216 2.85799ZM143.944 1.22744C143.944 1.09156 143.944 1.09156 144.08 1.09156C144.216 1.09156 144.353 1.22744 144.489 1.22744C144.489 1.36332 144.489 1.36332 144.353 1.36332C144.216 1.36332 144.08 1.22744 143.944 1.22744ZM142.716 2.1786C142.58 2.04271 142.716 1.90684 142.989 1.77096C143.398 1.63508 143.398 1.63507 143.125 2.04271C142.989 2.17859 142.853 2.45036 142.853 2.45036C142.853 2.45036 142.853 2.31448 142.716 2.1786ZM138.217 4.48855C138.217 4.35267 138.353 4.35267 138.489 4.21679C138.626 4.21679 138.626 4.21679 138.489 4.35266C138.353 4.62442 138.217 4.62443 138.217 4.48855ZM131.535 7.88554C131.535 7.61378 132.49 7.07026 132.899 7.20614C133.035 7.34202 133.035 7.34201 132.626 7.47789C132.353 7.61377 132.217 7.74966 132.217 7.88554C132.217 8.1573 132.217 8.15729 131.944 8.15729C131.671 8.15729 131.535 8.02142 131.535 7.88554ZM128.126 9.10845C128.126 8.97257 127.99 8.97257 128.126 8.83669C128.126 8.83669 128.263 8.83669 128.399 8.83669C128.535 8.83669 128.535 8.97257 128.399 9.10845C128.399 9.24433 128.263 9.24433 128.126 9.10845ZM130.717 7.47789C130.308 7.47789 130.308 7.4779 130.853 7.07026C131.126 6.7985 131.535 6.66262 131.671 6.7985C131.944 6.93438 131.944 6.93438 131.535 7.20614C131.399 7.20614 130.99 7.34201 130.717 7.47789ZM126.217 8.83669C126.081 8.83669 126.081 8.70082 126.217 8.56494C126.354 8.42906 126.49 8.42906 126.626 8.56494C126.626 8.70082 126.626 8.83669 126.626 8.83669C126.49 8.97257 126.354 8.97257 126.217 8.83669ZM127.717 7.34202C127.444 7.34202 127.035 7.34201 126.899 7.47789C126.626 7.61377 126.626 7.61378 127.035 7.61378C127.308 7.61378 127.308 7.61378 127.172 7.74966C126.626 7.88554 126.354 7.20614 126.626 6.52674C126.899 5.71146 127.035 5.57558 126.899 6.1191C126.899 6.39086 126.899 6.52674 127.172 6.39086C127.308 6.25498 127.581 6.25498 127.581 6.39086C127.717 6.52674 127.99 6.66262 128.263 6.66262C128.808 6.66262 128.944 7.07026 128.535 7.34202C128.399 7.34202 127.99 7.34202 127.717 7.34202ZM125.399 8.15729C125.263 7.88553 125.399 7.88554 126.081 7.74966C126.49 7.74966 126.49 7.74966 126.081 8.02142C125.672 8.1573 125.399 8.29317 125.399 8.15729ZM124.99 7.47789C124.99 7.20613 125.263 6.93438 125.399 6.93438C125.535 6.7985 125.535 7.07026 125.399 7.20614C125.126 7.88554 124.854 8.02141 124.99 7.47789ZM139.853 -2.03368C139.58 -2.16956 139.58 -2.16955 139.717 -2.30543C139.853 -2.44131 140.126 -2.30543 140.126 -2.16955C140.262 -2.03367 140.262 -1.89779 140.262 -1.89779C140.262 -1.89779 140.126 -2.03368 139.853 -2.03368ZM126.49 5.30383C126.354 5.16795 126.217 4.89619 126.217 4.62443C126.217 4.21679 126.354 4.21679 126.626 4.7603C127.172 5.4397 127.035 5.71146 126.49 5.30383ZM145.034 -6.11006C145.171 -6.38182 145.171 -6.38182 145.171 -6.11006C145.171 -5.8383 145.171 -5.70242 145.034 -5.70242C145.034 -5.70242 145.034 -5.8383 145.034 -6.11006ZM123.899 6.39086C123.763 6.39086 123.899 6.39086 124.172 6.25498C124.445 6.25498 124.445 6.1191 124.445 5.98322C124.445 5.84734 124.581 5.71146 124.717 5.57558C125.126 5.30383 125.126 5.71146 124.854 5.84734C124.717 5.98322 124.717 6.1191 124.854 6.25498C124.854 6.52674 124.581 6.52674 123.899 6.39086ZM143.807 -5.56654C143.671 -5.70242 143.807 -5.8383 143.944 -5.8383C144.08 -5.8383 144.353 -5.8383 144.353 -5.70242C144.353 -5.56654 144.353 -5.43066 144.216 -5.43066C144.08 -5.43066 143.944 -5.43066 143.807 -5.56654ZM120.49 8.02142C120.354 8.02142 120.354 7.88554 120.49 7.74966C120.627 7.74966 120.763 7.74966 120.899 7.74966C121.036 7.74966 121.036 7.88554 120.899 8.02142C120.899 8.1573 120.627 8.1573 120.49 8.02142ZM145.443 -7.74061C145.443 -8.01237 145.443 -8.14825 145.58 -8.28413C145.716 -8.42001 145.716 -8.55589 145.716 -8.69177C145.58 -8.82765 145.716 -8.82766 145.853 -8.82766C145.989 -8.82766 146.125 -8.69177 145.989 -8.42001C145.853 -8.14825 145.853 -7.87649 145.853 -7.74061C145.989 -7.33297 145.989 -7.33298 145.716 -7.33298C145.58 -7.33298 145.443 -7.60473 145.443 -7.74061ZM134.399 -0.538998C134.399 -0.674877 134.535 -0.674877 134.808 -0.810757C134.944 -0.810757 134.944 -0.81076 134.808 -0.674881C134.535 -0.539001 134.399 -0.538998 134.399 -0.538998ZM123.354 5.98322C123.354 5.84734 123.49 5.84734 123.626 5.71146C123.763 5.71146 123.763 5.71146 123.626 5.84734C123.49 5.98322 123.354 6.1191 123.354 5.98322ZM121.99 5.84734C122.127 5.30383 122.536 5.57558 122.536 5.98322C122.536 6.39086 122.536 6.39086 122.127 6.25498C122.127 6.25498 121.99 6.1191 121.99 5.84734ZM147.216 -9.09941C146.943 -9.23529 146.943 -9.37117 147.08 -9.77881C147.216 -10.0506 147.216 -10.1864 147.216 -10.0506C147.216 -9.91469 147.352 -9.77881 147.489 -9.77881C147.625 -9.77881 147.762 -9.64293 147.762 -9.37117C147.625 -8.96353 147.625 -8.96353 147.216 -9.09941ZM122.945 5.16795C122.808 4.89619 122.808 4.76031 123.081 4.62443C123.354 4.48855 123.49 4.48855 123.49 4.89619C123.49 5.16795 123.354 5.4397 123.354 5.4397C123.217 5.57558 122.945 5.4397 122.945 5.16795ZM122.127 5.4397C121.99 5.4397 121.99 5.30383 122.263 5.16795C122.399 5.03207 122.536 5.16795 122.536 5.30383C122.536 5.4397 122.536 5.57558 122.399 5.57558C122.399 5.57558 122.263 5.4397 122.127 5.4397ZM123.899 4.21679C123.763 4.21679 123.899 4.08091 124.036 3.94503C124.172 3.80915 124.308 3.80915 124.308 3.94503C124.308 4.08091 124.308 4.21679 124.172 4.21679C124.172 4.21679 124.036 4.21679 123.899 4.21679ZM120.218 5.03206C120.354 4.89618 120.354 4.76031 120.354 4.62443C120.218 4.35266 120.899 3.94503 121.172 4.21679C121.308 4.35267 121.445 4.48855 121.581 4.48855C121.717 4.48855 121.581 4.76031 121.445 4.89619C121.308 5.03207 121.172 5.03207 121.172 4.89619C121.172 4.48855 120.899 4.76031 120.763 5.30383C120.627 5.71146 120.627 5.71146 120.354 5.57558C120.081 5.30383 120.081 5.16794 120.218 5.03206ZM118.309 4.21679C118.172 4.21679 118.172 4.08091 118.172 3.94503C118.172 3.67327 118.854 3.67327 118.99 3.80915C118.99 4.08091 118.581 4.35267 118.309 4.21679ZM142.171 -10.3223C142.171 -10.73 142.444 -11.0017 142.58 -10.73C142.716 -10.5941 142.58 -10.4582 142.307 -10.0506C142.307 -9.91469 142.307 -10.0506 142.171 -10.3223ZM147.216 -20.9209C147.08 -21.0568 147.216 -21.0568 147.216 -21.0568C147.352 -21.0568 147.489 -21.1927 147.489 -21.4645C147.625 -21.8721 147.625 -21.8721 147.625 -21.4645C147.625 -20.9209 147.352 -20.6492 147.216 -20.9209ZM147.352 -21.8721C147.352 -21.8721 147.352 -22.008 147.489 -22.1439C147.489 -22.2797 147.625 -22.2797 147.762 -22.1439C147.762 -22.008 147.762 -21.8721 147.625 -21.8721C147.489 -21.8721 147.352 -21.8721 147.352 -21.8721ZM103.582 2.1786C103.446 2.31448 103.582 2.31448 103.582 2.1786C103.446 1.77095 103.855 1.77095 103.991 2.04271C104.128 2.17859 103.991 2.17859 103.855 2.04271C103.855 2.04271 103.718 2.04271 103.582 2.1786ZM146.943 -25.1332C146.943 -25.2691 146.807 -25.2691 146.943 -25.405C146.943 -25.405 147.08 -25.405 147.216 -25.405C147.352 -25.405 147.352 -25.2691 147.216 -25.1332C147.08 -24.9973 146.943 -24.9973 146.943 -25.1332ZM94.1735 4.35266C94.1735 4.21679 94.0372 4.21679 93.9008 4.35266C93.7644 4.48854 93.6281 4.62443 93.6281 4.48855C93.6281 4.35267 93.3554 4.35267 93.0826 4.48855C92.5372 4.62443 92.5372 4.21679 93.0826 3.94503C93.3554 3.80915 93.6281 3.67327 93.7644 3.67327C93.9008 3.67327 94.1735 3.67327 94.3099 3.94503C94.5826 4.08091 94.7189 4.21679 94.7189 3.94503C94.8553 3.80915 94.8553 3.80915 94.8553 3.94503C94.8553 4.08091 94.7189 4.35267 94.4462 4.48855C94.3099 4.62443 94.1735 4.62442 94.1735 4.35266ZM88.5829 3.67327C88.1738 3.40151 88.3102 3.26563 88.7192 3.26563C88.8556 3.26563 89.1283 3.40151 89.1283 3.53739C89.1283 3.94503 88.8556 3.94503 88.5829 3.67327ZM86.8103 4.08091C86.6739 3.94503 86.6739 3.80915 86.9466 3.67327C87.083 3.53739 87.3557 3.67327 87.492 3.80915C87.7648 4.21679 87.2193 4.35266 86.8103 4.08091ZM84.4922 4.7603C84.0831 4.35266 84.4922 4.21679 84.9013 4.62443C85.174 4.76031 85.174 4.89618 85.0376 5.03206C84.7649 5.03206 84.4922 4.89618 84.4922 4.7603ZM82.1741 5.16795C82.1741 5.16795 82.1741 5.03207 82.1741 4.89619C82.1741 4.76031 82.3105 4.76031 82.4469 4.89619C82.4469 5.03207 82.4469 5.16795 82.4469 5.16795C82.3105 5.16795 82.1741 5.16795 82.1741 5.16795ZM79.3107 5.98322C78.9016 5.84734 78.9016 5.71146 79.1743 5.57558C79.3107 5.4397 79.447 5.57558 79.447 5.71146C79.447 5.84734 79.5834 5.84734 79.5834 5.84734C79.7197 5.84734 79.8561 5.84734 79.9924 5.98322C80.4015 6.1191 79.7197 6.25498 79.3107 5.98322ZM80.9469 5.16795C80.9469 5.03207 80.9469 4.89619 81.0833 4.89619C81.2197 4.89619 81.356 4.89618 81.356 5.03206C81.356 5.16794 81.356 5.30383 81.2197 5.30383C81.0833 5.30383 80.9469 5.30383 80.9469 5.16795ZM78.2198 5.4397C77.9471 5.03206 78.2198 4.7603 78.7652 5.03206C79.1743 5.30382 79.1743 5.30382 78.7652 5.4397C78.4925 5.71146 78.2198 5.57558 78.2198 5.4397ZM66.6295 8.42905C66.4932 8.1573 66.9022 8.02141 67.3113 8.15729C67.7204 8.42905 67.7204 8.42905 67.1749 8.42905C66.9022 8.42905 66.7659 8.42905 66.6295 8.42905ZM67.3113 6.1191C67.1749 5.98322 67.3113 5.71146 67.4477 5.71146C67.584 5.57558 67.7204 5.71146 67.8567 5.84734C67.9931 5.98322 67.8567 6.25498 67.7204 6.25498C67.584 6.25498 67.3113 6.25498 67.3113 6.1191ZM65.266 6.39086C65.266 6.25498 64.9932 6.25498 64.8569 6.39086C64.5842 6.52674 64.4478 6.52674 64.4478 6.39086C64.3115 6.1191 64.8569 5.57558 65.1296 5.71146C65.266 5.71146 65.4023 5.71146 65.4023 5.57558C65.4023 5.4397 65.675 5.57558 65.675 5.71146C65.8114 5.98322 65.8114 6.1191 65.675 6.25498C65.5387 6.52674 65.266 6.52674 65.266 6.39086ZM58.8572 7.61378C58.7209 7.4779 58.7209 7.34202 58.8572 7.20614C59.1299 7.07026 59.4026 7.20613 59.4026 7.47789C59.2663 7.88553 58.9936 7.88554 58.8572 7.61378ZM53.6757 6.66262C53.1302 6.7985 52.7212 6.7985 52.7212 6.66262C52.7212 6.39086 54.4938 5.98322 55.0392 5.98322C55.5847 6.25498 54.9029 6.52674 53.6757 6.66262ZM47.5396 10.6031C47.4033 10.4672 47.4033 10.4672 47.5396 10.6031C47.676 10.4672 47.8124 10.4672 47.676 10.3314C47.676 10.1955 47.676 10.1955 47.8124 10.1955C47.9487 10.1955 48.0851 10.3314 48.2214 10.3314C48.3578 10.4672 47.8124 10.739 47.5396 10.6031ZM57.9027 3.53739C57.9027 3.53739 57.9027 3.40151 57.9027 3.26563C57.9027 3.12975 58.0391 3.12975 58.1754 3.26563C58.1754 3.40151 58.1754 3.53739 58.1754 3.53739C58.0391 3.67327 57.9027 3.67327 57.9027 3.53739ZM49.9941 7.47789C49.8577 7.47789 49.7213 7.34202 49.7213 7.34202C49.7213 7.20614 49.9941 7.20614 50.2668 7.20614C50.6758 7.20614 50.5395 7.47789 49.9941 7.47789ZM55.0392 4.08091C54.9029 3.94503 54.7665 3.80915 54.7665 3.80915C54.7665 3.67327 54.7665 3.67327 54.6302 3.67327C54.4938 3.67327 54.3575 3.94503 54.3575 4.08091C54.2211 4.35266 51.2213 5.4397 50.4031 5.4397C50.1304 5.4397 49.8577 5.57558 49.7213 5.57558C49.585 5.71146 49.1759 5.71146 48.9032 5.71146C48.6305 5.71146 48.2214 5.84734 48.0851 5.84734C47.9487 5.98322 47.5396 5.98322 47.2669 6.1191C46.7215 6.25498 46.7215 6.25498 47.2669 6.25498C47.5396 6.25498 47.8124 6.39086 47.676 6.52674C47.5396 6.7985 46.3124 6.93438 46.3124 6.66262C46.3124 6.39086 45.767 6.39086 45.3579 6.52674C45.0852 6.66262 45.2216 6.66262 45.4943 6.7985C46.0397 6.93438 46.0397 7.07026 45.3579 7.47789C45.0852 7.61377 44.8125 7.74966 44.6762 7.61378C44.6762 7.4779 44.4035 7.61378 44.2671 7.61378C43.9944 7.74966 43.9944 7.74965 44.1307 7.47789C44.2671 7.34201 44.1307 7.07026 43.9944 7.07026C43.858 6.93438 43.858 6.93438 43.9944 6.7985C44.4035 6.52674 42.0854 7.20613 41.4036 7.47789C40.9945 7.61377 40.7218 7.74966 40.7218 7.61378C40.5855 7.4779 40.4491 7.4779 40.3128 7.61378C40.1764 7.74966 39.7673 7.88554 39.4946 7.88554C38.9492 8.02142 38.9492 8.1573 38.9492 8.42905C38.9492 8.97257 38.5401 9.24433 38.4038 8.70081C38.4038 8.42905 38.2674 8.42906 37.9947 8.56494C37.722 8.70082 37.722 8.83669 37.722 8.97257C37.8583 9.38021 36.4948 9.65197 35.9494 9.38021C35.5403 9.38021 35.2676 9.38021 35.1312 9.38021C34.9949 9.38021 34.5858 9.51609 33.904 9.51609C33.3586 9.51609 32.8132 9.65197 32.8132 9.78785C32.6768 9.92373 31.8587 10.0596 31.3132 9.92373C31.0405 9.92373 30.6315 10.0596 30.3587 10.3314C30.086 10.6031 29.677 10.739 29.2679 10.739C28.8588 10.739 28.7225 10.739 28.4498 11.2825C28.177 11.826 28.177 11.826 28.177 11.4184C28.3134 11.0108 28.177 11.0108 27.9043 11.2825C27.6316 11.5543 27.3589 11.6902 26.9498 11.6902C26.5408 11.6902 26.2681 11.6902 26.1317 11.9619C25.9953 12.2337 25.859 12.2337 25.4499 12.0978C25.1772 11.9619 24.9045 11.9619 25.0408 11.9619C25.0408 12.0978 25.0408 12.0978 24.7681 11.9619C24.4954 11.826 24.4954 11.826 24.6318 12.0978C24.7681 12.2337 24.7681 12.5054 24.6318 12.5054C24.4954 12.5054 24.3591 12.5054 24.3591 12.3696C24.2227 12.2337 24.0864 12.3696 23.6773 12.6413C23.4046 12.9131 22.9955 13.049 22.9955 12.9131C22.9955 12.7772 22.9955 12.6413 23.2682 12.5054C23.5409 12.3696 23.5409 12.2337 23.4046 12.2337C23.2682 12.2337 22.8591 12.3696 22.041 12.7772C21.9047 12.9131 21.4956 12.9131 21.3592 12.9131C20.9502 12.7772 19.5866 13.4566 19.9957 13.5925C20.132 13.5925 20.132 13.7284 19.9957 13.8642C19.8593 13.8642 19.7229 13.8642 19.5866 13.7284C19.4502 13.5925 19.1775 13.5925 19.1775 13.5925C19.0412 13.5925 19.0412 13.7284 19.1775 13.8642C19.3139 13.8642 19.3139 14.0001 19.1775 14.136C19.0412 14.2719 19.0412 14.2719 19.3139 14.2719C19.5866 14.2719 19.5866 14.2719 19.4502 14.4078C19.1775 14.5436 18.6321 14.5436 18.4957 14.4078C18.4957 14.2719 18.4957 14.136 18.4957 14.0001C18.6321 13.7284 18.6321 13.7284 18.4957 13.8642C18.3594 14.0001 18.223 14.136 18.223 14.2719C18.223 14.5436 16.9958 14.8154 16.8595 14.6795C16.7231 14.4078 15.3595 15.4948 15.2232 15.9024C15.0868 16.1742 15.0868 16.1742 14.9505 16.0383C14.8141 15.9024 14.6778 16.0383 14.5414 16.1742C14.4051 16.3101 14.2687 16.3101 14.2687 16.1742C14.2687 15.9024 13.996 15.9024 13.5869 15.9024C12.7688 16.0383 12.3597 16.3101 12.6324 16.446C12.7688 16.446 12.7688 16.7177 12.7688 16.7177C12.6324 16.8536 12.6324 16.8536 12.4961 16.7177C12.2234 16.3101 11.5416 16.446 10.9961 16.7177C10.7234 16.8536 10.5871 16.8536 10.5871 16.8536C10.5871 16.7177 10.3144 16.8536 10.0416 16.9895C9.76894 17.1253 9.63258 17.3971 9.63258 17.533C9.76894 17.6689 9.76894 17.6689 9.9053 17.533C9.9053 17.3971 10.178 17.533 10.3144 17.6689C10.4507 17.9406 10.4507 18.0765 9.9053 18.2124C9.49623 18.3483 9.35987 18.4841 9.35987 18.7559C9.35987 19.1635 9.08716 19.4353 8.9508 19.0277C8.81445 18.7559 8.9508 18.0765 9.22351 18.0765C9.35987 18.0765 9.22351 17.9406 9.08715 17.8047C8.81444 17.533 8.81445 17.3971 8.9508 17.2612C9.08716 17.1253 9.08716 16.9895 8.81445 16.8536C8.67809 16.7177 8.54173 16.446 8.67809 16.446C8.81444 16.3101 8.9508 16.4459 8.9508 16.5818C8.9508 16.7177 9.08716 16.8536 9.22351 16.8536C9.35987 16.8536 9.35987 16.5818 9.35987 16.5818C9.35987 16.4459 9.63258 16.0383 10.0416 15.7666C10.4507 15.4948 10.7234 15.223 10.5871 15.0872C10.4507 15.0872 10.4507 14.9513 10.5871 14.8154C10.5871 14.6795 10.4507 14.5436 10.0416 14.5436C9.49622 14.4078 9.49623 14.4078 9.49623 14.0001C9.63258 13.4566 10.0417 13.1848 10.3144 13.4566C10.4507 13.5925 10.7234 13.5925 10.8598 13.3207C10.9961 13.1848 11.2689 13.049 11.4052 13.049C11.5416 13.049 11.5416 13.1848 11.4052 13.3207C11.2689 13.3207 11.2689 13.4566 11.2689 13.5925C11.2689 13.7284 11.5416 13.5925 11.6779 13.3207C11.8143 13.049 11.9506 12.9131 11.8143 12.7772C11.6779 12.6413 11.6779 12.5054 11.8143 12.5054C11.9506 12.5054 12.087 12.2337 12.2234 12.0978C12.3597 11.9619 12.4961 11.9619 12.6324 12.0978C12.6324 12.2337 12.7688 12.2337 13.0415 12.0978C13.1778 11.9619 13.4506 11.9619 13.5869 12.0978C13.7233 12.2337 13.996 12.2337 14.1323 12.0978C14.2687 11.9619 14.5414 12.0978 14.5414 12.2337C14.6778 12.3696 14.9505 12.6413 15.2232 12.6413C15.6323 12.6413 15.6323 12.6413 15.3596 12.3696C15.0868 12.0978 15.0868 12.0978 15.6323 12.0978C15.905 12.0978 16.4504 11.9619 16.5868 11.826C16.8595 11.6902 17.1322 11.4184 17.2685 11.4184C17.5412 11.2825 17.5413 11.2825 17.4049 11.5543C17.2685 11.826 17.4049 11.826 17.814 11.5543C18.223 11.4184 18.3594 11.2825 18.3594 11.4184C18.3594 11.5543 18.4957 11.5543 18.4957 11.5543C18.6321 11.5543 18.7685 11.5543 18.9048 11.826C19.0412 12.0978 19.1775 12.0978 19.723 11.6902C19.9957 11.4184 20.4047 11.2825 20.4047 11.4184C20.4047 11.5543 20.5411 11.5543 20.6774 11.4184C20.8138 11.4184 20.8138 11.2825 20.6774 11.1466C20.5411 11.1466 20.5411 10.8749 20.6774 10.739C20.8138 10.6031 20.9502 10.4672 20.9502 10.6031C21.0865 10.8749 22.5864 10.6031 22.5864 10.3314C22.5864 10.1955 22.7228 10.1955 22.9955 10.1955C23.2682 10.3314 23.6773 10.1955 23.95 9.92373C24.3591 9.65197 24.6318 9.51609 24.6318 9.78785C24.7681 9.92373 24.9045 9.92373 25.1772 9.78785C25.859 9.38021 26.8135 9.38021 26.8135 9.78785C26.8135 10.0596 27.0862 10.0596 27.2225 9.92373C27.3589 9.78785 27.3589 9.78785 27.3589 9.65197C27.0862 9.51609 27.4953 8.97257 27.768 8.97257C27.9043 8.97257 28.0407 9.10846 28.0407 9.24434C28.0407 9.51609 28.3134 9.38021 28.4498 8.97257C28.4498 8.70081 28.5861 8.70081 28.7225 8.83669C28.8588 8.83669 29.1315 8.83669 29.2679 8.70081C29.4043 8.56493 29.677 8.56493 29.9497 8.70081C30.086 8.83669 30.3587 8.83669 30.6315 8.70081C30.9042 8.56493 31.1769 8.56493 31.1769 8.70081C31.3132 8.83669 31.4496 8.70082 31.7223 8.56494C32.1314 8.1573 33.2222 7.88554 33.2222 8.29317C33.2222 8.42905 33.2222 8.56493 33.3586 8.42905C33.4949 8.42905 33.7677 8.29317 34.0404 8.15729C34.4494 8.02141 34.4494 8.02142 34.3131 7.88554C34.1767 7.74966 34.1767 7.74966 34.4494 7.88554C34.9949 8.02142 35.4039 7.88554 35.2676 7.61378C35.1312 7.4779 36.7675 7.07026 37.3129 7.07026C37.4493 7.07026 37.5856 7.07026 37.722 6.93438C37.722 6.7985 37.8583 6.93438 37.8583 7.07026C37.9947 7.34202 38.1311 7.34202 38.5401 7.20614C38.8128 7.07026 38.8128 6.93438 38.6765 7.07026C38.5401 7.07026 38.2674 7.07026 38.2674 6.93438C38.1311 6.7985 38.4038 6.66262 39.4946 6.7985C40.1764 6.7985 40.1764 6.7985 40.1764 6.52674C40.1764 6.39086 40.04 6.1191 39.9037 6.1191C39.7673 6.1191 39.7673 5.98322 39.9037 5.98322C40.04 5.98322 40.1764 6.1191 40.3128 6.39086C40.4491 6.66262 40.5855 6.7985 40.8582 6.66262C41.1309 6.52674 41.2673 6.52674 41.1309 6.39086C41.4036 6.66262 41.4036 6.66262 41.6763 6.66262C41.8127 6.7985 42.3581 6.66262 42.7672 6.39086C43.3126 6.1191 43.449 5.98322 43.3126 5.98322C42.9035 5.98322 42.9035 5.57558 43.449 5.30383C43.7217 5.16795 43.858 5.16794 43.7217 5.4397C43.5853 5.71146 43.5853 5.71146 43.858 5.4397C44.2671 5.03206 45.3579 4.89619 45.4943 5.16795C45.6307 5.30383 45.767 5.30383 45.9034 5.16795C46.1761 4.89619 46.3124 4.89619 46.5851 5.16795C46.8579 5.4397 46.9942 5.4397 47.2669 5.16795C47.5396 4.89619 47.676 4.89618 47.676 5.03206C47.676 5.4397 48.2214 5.03206 48.7669 4.35266C49.1759 3.80915 49.3123 3.80915 49.3123 4.08091C49.4486 4.35266 49.585 4.35267 50.1304 3.80915C50.5395 3.40151 50.9485 3.40151 50.9485 3.53739C51.0849 3.67327 51.2213 3.67327 51.3576 3.53739C51.903 3.26563 52.8575 3.26563 52.7212 3.53739C52.5848 3.67327 52.7212 3.80915 52.9939 3.94503C53.5393 4.08091 53.6757 3.94503 53.403 3.67327C53.1302 3.40151 53.2666 3.26563 54.3575 2.99387C54.9029 2.85799 55.3119 2.85799 55.4483 2.99387C55.5847 3.12975 55.721 3.12975 55.8574 2.99387C56.1301 2.72211 56.2664 2.72211 56.4028 3.12975C56.5392 3.40151 56.5392 3.53739 55.9937 3.94503C55.721 4.08091 55.312 4.21679 55.0392 4.08091ZM47.2669 8.02142C47.1306 8.02142 47.1306 7.88554 47.2669 7.74966C47.4033 7.61378 47.676 7.61378 47.8124 7.74966C47.9487 7.74966 47.9487 7.88554 47.8124 8.02142C47.5396 8.1573 47.4033 8.1573 47.2669 8.02142ZM49.7213 6.39086C49.4486 6.39086 49.4486 6.39086 49.585 6.1191C49.8577 5.71146 50.4031 5.57558 50.5395 5.84734C50.8122 5.98322 50.2668 6.39086 49.7213 6.39086ZM37.3129 10.8749L36.6311 10.739L37.4493 10.4672C38.4038 10.0596 38.4038 10.0596 38.4038 10.4672C38.4038 10.739 37.9947 11.0108 37.3129 10.8749ZM33.3586 12.9131C33.3586 12.7772 33.3586 12.7772 33.4949 12.7772C33.6313 12.7772 33.7677 12.9131 33.904 13.049C34.0404 13.3207 34.0404 13.3207 33.7677 13.1848C33.6313 13.049 33.3586 12.9131 33.3586 12.9131ZM47.8124 3.94503C47.4033 3.80915 47.4033 3.80915 47.9487 3.67327C48.2214 3.53739 48.6305 3.40151 48.7669 3.40151C48.9032 3.26563 49.1759 3.26563 49.1759 3.40151C49.3123 3.53739 48.2214 4.08091 47.8124 3.94503ZM34.9949 11.1466C34.9949 11.0108 34.9949 10.8749 35.1312 10.739C35.2676 10.6031 35.4039 10.739 35.4039 10.8749C35.4039 11.0108 35.2676 11.1466 35.2676 11.2825C35.2676 11.2825 35.1312 11.2825 34.9949 11.1466ZM28.177 14.136C28.0407 14.0001 28.0407 13.8642 28.3134 13.8642C28.5861 13.8642 28.7225 13.8642 28.7225 14.0001C28.7225 14.2719 28.4498 14.4078 28.177 14.136ZM27.0862 14.136C27.0862 14.0001 26.8135 13.8642 26.5408 13.8642C26.2681 13.8642 25.9953 13.8642 25.859 13.7284C25.7226 13.5925 25.7226 13.4566 26.4044 13.3207C27.0862 13.049 27.0862 13.049 26.8135 12.7772C26.5408 12.5054 26.5408 12.5054 26.9498 12.6413C27.2225 12.7772 27.3589 12.7772 27.2225 13.049C27.0862 13.1848 27.0862 13.3207 27.2225 13.3207C27.2225 13.3207 27.4953 13.1848 27.768 13.1848C28.0407 13.049 28.3134 13.049 28.4498 13.1848C28.7225 13.3207 28.5861 13.3207 28.177 13.4566C27.768 13.5925 27.6316 13.7284 27.768 13.8642C27.9043 13.8642 27.768 14.0001 27.6316 14.0001C27.4953 14.0001 27.3589 14.136 27.3589 14.2719C27.3589 14.4078 27.4953 14.5436 27.3589 14.5436C27.2225 14.4078 27.0862 14.2719 27.0862 14.136ZM41.54 5.30383C41.54 5.16795 41.54 5.03207 41.6763 4.89619C41.8127 4.76031 41.949 4.76031 42.0854 4.89619C42.0854 5.03207 42.0854 5.16795 41.949 5.30383C41.8127 5.4397 41.6763 5.4397 41.54 5.30383ZM28.7225 12.9131C28.5861 12.7772 28.8588 12.5054 29.1315 12.5054C29.2679 12.5054 29.2679 12.6413 29.1315 12.7772C28.9952 12.9131 28.7225 12.9131 28.7225 12.9131ZM38.4038 6.52674C38.2674 6.39086 38.2674 6.25498 38.4038 6.25498C38.5401 6.1191 38.6765 6.25498 38.8128 6.39086C39.0855 6.66262 38.6765 6.7985 38.4038 6.52674ZM23.95 15.3589C23.95 15.223 23.95 15.0872 23.95 15.0872C24.0864 15.0872 24.2227 15.0872 24.3591 15.0872C24.4954 15.0872 24.4954 15.223 24.3591 15.3589C24.2227 15.3589 24.0864 15.3589 23.95 15.3589ZM22.8591 15.7666C22.8591 15.6307 22.8591 15.4948 22.9955 15.4948C23.1319 15.4948 23.2682 15.4948 23.2682 15.6307C23.2682 15.7665 23.2682 15.9024 23.1319 15.9024C22.9955 15.9024 22.8591 15.9024 22.8591 15.7666ZM30.9042 10.4672C30.4951 10.3314 30.4951 10.3314 30.9042 10.4672C31.3132 10.4672 31.586 10.4672 31.4496 10.6031C31.4496 10.6031 31.1769 10.6031 30.9042 10.4672ZM20.2684 16.7177C20.132 16.5818 20.2684 16.5818 20.2684 16.5818C20.4047 16.5818 20.5411 16.4459 20.6774 16.1742C20.9502 15.7665 20.9502 15.7665 20.8138 16.1742C20.5411 16.8536 20.4047 16.9895 20.2684 16.7177ZM21.4956 15.223C21.4956 15.0872 21.4956 14.8154 21.6319 14.6795C21.9047 14.5436 22.041 14.8154 22.041 15.3589C22.041 15.9024 21.4956 15.7665 21.4956 15.223ZM24.2227 14.0001C24.2227 14.0001 24.2227 13.8642 24.2227 13.7284C24.2227 13.5925 24.3591 13.5925 24.4954 13.7284C24.4954 13.8642 24.4954 14.0001 24.4954 14.0001C24.3591 14.136 24.2227 14.136 24.2227 14.0001ZM22.5864 14.8154C22.4501 14.6795 22.4501 14.6795 22.9955 14.4078C23.4046 14.2719 23.5409 14.136 23.5409 13.8642C23.5409 13.7284 23.5409 13.7284 23.8136 13.8642C24.0864 14.0001 23.95 14.136 23.5409 14.4078C23.1319 14.8154 22.7228 14.9513 22.5864 14.8154ZM19.3139 15.9024C19.1775 15.6307 19.5866 15.3589 19.8593 15.6307C20.132 15.9024 19.9957 16.4459 19.723 16.3101C19.4502 16.3101 19.3139 16.0383 19.3139 15.9024ZM10.5871 20.7941C10.4507 20.7941 10.4507 20.6582 10.5871 20.5223C10.7234 20.5223 10.8598 20.5223 10.8598 20.5223C10.8598 20.6582 10.9961 20.6582 10.8598 20.7941C10.7234 20.93 10.7234 20.93 10.5871 20.7941ZM18.7685 15.4948C18.7685 15.3589 18.7685 15.223 18.7685 15.223C18.9048 15.223 19.0412 15.223 19.1775 15.223C19.3139 15.223 19.3139 15.3589 19.1775 15.4948C18.9048 15.6307 18.7685 15.6307 18.7685 15.4948ZM18.0867 15.6307C18.0867 15.223 17.9503 15.0872 17.5412 15.0872C17.2685 15.0872 17.1322 14.9513 17.1322 14.9513C17.1322 14.8154 17.2685 14.8154 17.5412 14.9513C17.814 15.0872 17.9503 14.9513 18.0867 14.8154C18.3594 14.5436 18.4957 15.223 18.223 15.7666C18.0867 16.1742 18.0867 16.1742 18.0867 15.6307ZM12.7688 18.4841C12.7688 18.2124 13.3142 17.9406 13.3142 18.0765C13.3142 18.2124 13.3142 18.3483 13.0415 18.4841C12.9051 18.62 12.7688 18.62 12.7688 18.4841ZM10.8598 19.7071C10.7234 19.7071 10.8598 19.4353 11.1325 19.2994C11.4052 19.1635 11.5416 19.1635 11.5416 19.2994C11.5416 19.4353 11.4052 19.5712 11.2689 19.7071C11.1325 19.7071 10.9961 19.7071 10.8598 19.7071ZM12.087 18.7559C12.087 18.62 12.087 18.4841 12.2234 18.4841C12.3597 18.4841 12.4961 18.4841 12.4961 18.62C12.4961 18.7559 12.4961 18.8918 12.3597 18.8918C12.2234 18.8918 12.087 18.7559 12.087 18.7559ZM10.4507 18.2124C10.4507 17.9406 11.4052 18.0765 11.6779 18.3483C11.8143 18.62 11.6779 18.62 11.1325 18.4841C10.7234 18.3483 10.4507 18.3483 10.4507 18.2124ZM13.4506 16.7177C13.0415 16.446 13.0415 16.3101 13.4506 16.1742C13.7233 16.0383 13.8596 16.0383 13.8596 16.446C14.1323 16.8536 13.8596 16.9895 13.4506 16.7177ZM7.85995 20.2506C7.85995 20.1147 7.85995 19.9788 7.9963 19.8429C8.13266 19.5712 8.26902 19.5712 8.13266 19.9788C8.13266 20.3865 7.99631 20.5223 7.85995 20.2506ZM11.6779 17.533C11.6779 17.3971 11.5416 17.2612 11.5416 17.3971C11.4052 17.3971 11.2689 17.2612 11.2689 17.1254C11.2689 16.8536 11.4052 16.8536 11.6779 16.8536C12.087 16.8536 12.087 16.9895 11.9506 17.3971C11.8143 17.6689 11.6779 17.8047 11.6779 17.533ZM2.54205 18.8918C2.54205 18.7559 2.54205 18.62 2.67841 18.62C2.81476 18.62 2.81476 18.7559 2.81476 18.8918C2.67841 19.2994 2.54205 19.2994 2.54205 18.8918ZM-4.41212 19.5712C-4.41212 19.5712 -4.41212 19.4353 -4.41212 19.2994C-4.41212 19.1635 -4.27577 19.1635 -4.13941 19.2994C-4.13941 19.4353 -4.13941 19.5712 -4.13941 19.5712C-4.27577 19.5712 -4.27576 19.5712 -4.41212 19.5712ZM-7.2756 9.24434C-7.2756 9.24434 -7.2756 9.10845 -7.2756 8.97257C-7.2756 8.83669 -7.13925 8.83669 -7.00289 8.97257C-7.00289 9.10845 -7.00289 9.24434 -7.00289 9.24434C-7.13925 9.38021 -7.2756 9.38021 -7.2756 9.24434ZM-7.82103 8.15729C-7.95739 8.02141 -7.82103 7.88554 -7.68468 7.88554C-7.54832 7.88554 -7.41196 8.02141 -7.41196 8.15729C-7.41196 8.42905 -7.54832 8.42905 -7.82103 8.15729ZM-13.1389 7.20614C-13.1389 7.20614 -13.1389 7.07026 -13.1389 6.93438C-13.1389 6.7985 -13.0026 6.7985 -12.8662 6.93438C-12.8662 7.07026 -12.8662 7.20614 -12.8662 7.20614C-13.0026 7.20614 -13.1389 7.20614 -13.1389 7.20614ZM-20.2295 1.63507C-20.2295 1.36332 -20.0931 1.22744 -20.0931 1.22744C-19.8204 1.22744 -19.9567 1.77095 -20.0931 1.90683C-20.2295 1.90683 -20.2295 1.77095 -20.2295 1.63507ZM-2.63949 -11.5452C-3.18491 -11.6811 -3.45763 -11.9529 -3.18491 -12.0888C-3.04856 -12.0888 -3.04856 -12.0888 -3.04856 -11.9529C-3.04856 -11.817 -3.04856 -11.6811 -2.9122 -11.817C-2.9122 -11.817 -2.63949 -11.9529 -2.50313 -11.9529C-2.23042 -11.9529 -2.23042 -12.0888 -2.36678 -12.2246C-2.63949 -12.3605 -2.50314 -12.4964 -2.23042 -12.6323C-1.95771 -12.7682 -1.82135 -12.7682 -1.82135 -12.2246C-1.68499 -11.4094 -1.68499 -11.4094 -1.13957 -11.9529C-0.730499 -12.2246 -0.730499 -12.2246 -1.00321 -11.9529C-1.27592 -11.4094 -1.95771 -11.2735 -2.63949 -11.5452ZM-19.8204 -1.08252C-19.9567 -1.2184 -19.8204 -1.35427 -19.684 -1.49015C-19.4113 -1.62603 -19.4113 -1.62603 -19.5477 -1.2184C-19.5477 -0.946636 -19.684 -0.810757 -19.684 -0.810757C-19.684 -0.810757 -19.684 -0.946636 -19.8204 -1.08252ZM-4.27577 -11.2735C-4.41212 -11.4094 -4.41212 -11.5452 -4.27577 -11.5452C-4.13941 -11.5452 -4.00305 -11.4094 -4.00305 -11.4094C-4.00305 -11.2735 -4.00305 -11.1376 -4.00305 -11.1376C-4.13941 -11.0017 -4.27577 -11.1376 -4.27577 -11.2735ZM-10.6845 -7.74061C-10.6845 -7.87649 -10.6845 -8.14825 -10.6845 -8.14825C-10.6845 -8.14825 -10.5482 -8.14825 -10.4118 -8.01237C-10.2754 -7.8765 -10.2754 -7.74062 -10.4118 -7.60474C-10.5482 -7.46886 -10.6845 -7.46885 -10.6845 -7.74061ZM-5.36662 -11.0017C-5.36662 -11.1376 -5.23026 -11.2735 -5.0939 -11.4094C-4.82119 -11.5452 -4.68484 -11.5452 -4.82119 -11.2735C-5.0939 -10.8658 -5.23026 -10.73 -5.36662 -11.0017ZM-18.0478 -4.07187C-18.1841 -4.07187 -18.1841 -4.07187 -18.0478 -4.07187C-17.9114 -4.20775 -17.775 -4.34363 -17.9114 -4.47951C-17.9114 -4.61539 -17.9114 -4.75127 -17.775 -4.88715C-17.6387 -4.88715 -17.5023 -4.75127 -17.6387 -4.47951C-17.5023 -3.93599 -17.775 -3.80011 -18.0478 -4.07187ZM-5.91204 -11.6811C-6.18475 -12.3605 -6.18476 -12.3605 -6.0484 -12.4964C-5.91204 -12.4964 -5.77569 -12.3605 -5.63933 -11.9529C-5.50297 -11.4094 -5.63933 -11.0017 -5.91204 -11.6811ZM-13.9571 -6.78946C-14.0934 -6.92534 -14.0934 -7.06122 -13.9571 -7.1971C-13.8207 -7.1971 -13.6844 -7.19709 -13.548 -7.06121C-13.4116 -6.92533 -13.4116 -6.78946 -13.548 -6.65358C-13.6844 -6.5177 -13.8207 -6.65358 -13.9571 -6.78946ZM-3.8667 -13.1758C-4.00305 -13.1758 -3.73034 -13.4476 -3.45763 -13.7193C-3.04856 -14.127 -2.50313 -14.127 -2.36678 -13.7193C-2.36678 -13.5834 -3.73034 -13.0399 -3.8667 -13.1758ZM-16.0024 -6.24594C-16.1388 -6.5177 -16.1388 -6.92533 -16.0024 -7.06121C-15.8661 -7.33297 -15.7297 -7.1971 -15.8661 -6.92534C-15.8661 -6.65358 -15.8661 -6.38182 -15.7297 -6.24594C-15.5933 -6.11006 -15.5933 -5.97418 -15.5933 -5.97418C-15.7297 -5.8383 -15.8661 -5.97418 -16.0024 -6.24594ZM-18.4568 -4.47951C-18.4568 -4.61539 -18.4568 -4.75127 -18.3205 -4.75127C-18.1841 -4.75127 -18.0478 -4.75126 -18.0478 -4.61538C-18.0478 -4.4795 -18.0478 -4.34362 -18.1841 -4.34362C-18.3205 -4.34362 -18.3205 -4.34363 -18.4568 -4.47951ZM-20.9112 -3.25659C-21.0476 -3.52835 -20.7749 -3.52835 -20.5022 -3.39247C-20.3658 -3.25659 -20.3658 -3.25659 -20.5022 -3.12071C-20.7749 -3.25659 -20.9112 -3.25659 -20.9112 -3.25659ZM-15.5933 -7.06121C-15.7297 -7.19709 -15.5933 -7.33298 -15.3206 -7.46886C-15.0479 -7.60474 -14.9116 -7.60474 -14.9116 -7.33298C-14.9116 -7.1971 -14.9116 -6.92534 -15.1843 -6.92534C-15.3206 -6.92534 -15.457 -6.92533 -15.5933 -7.06121ZM-3.45763 -14.2628C-3.59399 -14.3987 -3.32127 -14.6705 -3.04856 -14.6705C-2.9122 -14.6705 -2.9122 -14.5346 -3.04856 -14.3987C-3.32127 -14.2628 -3.45763 -14.127 -3.45763 -14.2628ZM-9.86637 -10.4582C-10.0027 -10.4582 -10.0027 -10.5941 -9.86637 -10.73C-9.73002 -10.73 -9.59366 -10.73 -9.59366 -10.5941C-9.59366 -10.4582 -9.45731 -10.4582 -9.59366 -10.3223C-9.73002 -10.4582 -9.73002 -10.4582 -9.86637 -10.4582ZM-0.730503 -16.1651C-0.730503 -16.301 -0.730499 -16.301 -0.457787 -16.4369C-0.32143 -16.4369 -0.0487213 -16.4369 -0.0487213 -16.4369C-0.0487213 -16.4369 -0.185074 -16.301 -0.32143 -16.1651C-0.457787 -16.1651 -0.594147 -16.1651 -0.730503 -16.1651ZM-2.9122 -15.3499C-3.04856 -15.6216 -2.50313 -15.8934 -2.36678 -15.7575C-2.23042 -15.7575 -2.23042 -15.6216 -2.23042 -15.4858C-2.23042 -15.3499 -2.77585 -15.214 -2.9122 -15.3499ZM-18.0478 -6.24594C-18.0478 -6.38182 -18.1841 -6.38182 -18.0478 -6.5177C-18.0478 -6.5177 -17.9114 -6.5177 -17.775 -6.5177C-17.6387 -6.5177 -17.6387 -6.38182 -17.775 -6.24594C-17.775 -6.11006 -17.9114 -6.11006 -18.0478 -6.24594ZM0.63306 -17.7957C0.63306 -18.0675 0.769421 -18.2033 0.905777 -18.0675C1.31484 -17.7957 1.31484 -17.6598 0.905777 -17.5239C0.769421 -17.3881 0.63306 -17.3881 0.63306 -17.7957ZM-1.95771 -17.1163C-2.36678 -16.7087 -2.36678 -16.7087 -1.95771 -17.1163C-1.95771 -17.3881 -1.685 -17.7957 -1.54864 -17.9316C-1.27593 -18.2033 -1.13957 -18.0675 -1.13957 -17.6598C-1.13957 -17.3881 -1.13957 -17.2522 -1.41228 -17.3881C-1.54864 -17.3881 -1.82135 -17.2522 -1.95771 -17.1163ZM2.81476 -19.8339C2.81476 -19.9698 2.95112 -19.9698 3.22383 -20.1057C3.36019 -20.1057 3.36019 -20.1057 3.22383 -19.9698C2.95112 -19.8339 2.81476 -19.8339 2.81476 -19.8339ZM-10.6845 -11.9529C-10.9572 -12.0888 -10.5482 -12.6323 -10.1391 -12.7682C-10.0027 -12.7682 -9.73002 -12.7682 -9.45731 -12.7682C-9.04824 -12.6323 -9.1846 -12.6323 -9.73002 -12.2246C-10.2754 -12.0888 -10.6845 -11.817 -10.6845 -11.9529ZM-2.9122 -17.5239C-2.9122 -17.6598 -2.77584 -17.5239 -2.50313 -17.3881C-2.23042 -17.2522 -2.23042 -17.1163 -2.50313 -17.2522C-2.77584 -17.2522 -2.9122 -17.3881 -2.9122 -17.5239ZM-0.730503 -18.611C-1.00322 -18.7469 -0.730499 -18.8827 -0.32143 -18.8827C-0.0487175 -18.8827 0.087635 -18.8827 -0.185078 -18.7469C-0.45779 -18.611 -0.730503 -18.611 -0.730503 -18.611Z" fill="white"/>
<path d="M142.171 5.57558C141.898 5.16795 141.489 5.16794 141.489 5.71146C141.489 5.98322 141.626 5.98322 142.035 5.98322C142.307 5.98322 142.444 5.98322 142.171 5.57558Z" fill="white"/>
<path d="M140.671 6.1191C140.671 5.98322 140.535 5.98322 140.398 5.98322C140.262 5.98322 140.262 6.1191 140.262 6.25498C140.262 6.39086 140.398 6.39086 140.535 6.39086C140.671 6.39086 140.671 6.25498 140.671 6.1191Z" fill="white"/>
<path d="M147.762 1.36332C147.762 1.09156 147.762 0.955681 147.762 1.09156C147.762 1.22744 147.489 1.4992 147.352 1.4992C147.216 1.4992 147.08 1.63508 147.216 1.77096C147.352 2.1786 147.625 2.04271 147.762 1.36332Z" fill="white"/>
<path d="M149.671 0.276279C149.534 0.276279 149.261 0.276283 149.125 0.412163C148.989 0.548042 149.125 0.548038 149.398 0.548038C149.807 0.412159 149.943 0.276279 149.671 0.276279Z" fill="white"/>
<path d="M136.035 8.42905C135.899 8.42905 135.762 8.29317 135.762 8.42905C135.762 8.42905 135.762 8.56493 135.762 8.70081C135.762 8.83669 135.899 8.83669 136.035 8.70081C136.035 8.56493 136.035 8.56493 136.035 8.42905Z" fill="white"/>
<path d="M134.126 8.56494C134.126 8.42906 133.99 8.42905 133.853 8.70081C133.717 8.83669 133.717 8.97257 133.717 8.97257C133.717 8.97257 133.853 8.97257 133.99 8.83669C134.126 8.83669 134.262 8.70082 134.126 8.56494Z" fill="white"/>
<path d="M148.58 -0.538998C148.58 -0.674877 148.307 -0.674877 148.171 -0.538998C148.034 -0.403118 147.898 -0.403118 147.898 -0.267235C147.898 -0.267235 148.034 -0.267235 148.307 -0.267235C148.58 -0.403118 148.716 -0.403118 148.58 -0.538998Z" fill="white"/>
<path d="M149.398 -2.71307C149.125 -2.98483 148.716 -2.84895 148.852 -2.44131C148.989 -2.30544 149.125 -2.16955 149.261 -2.30543C149.534 -2.57719 149.534 -2.71307 149.398 -2.71307Z" fill="white"/>
<path d="M148.58 -3.80011C148.58 -4.20775 148.443 -4.20774 148.034 -3.66423C147.898 -3.52835 147.898 -3.39247 148.034 -3.25659C148.307 -3.25659 148.58 -3.39247 148.58 -3.80011Z" fill="white"/>
<path d="M149.125 -6.38182C149.125 -6.5177 149.261 -6.65358 149.398 -6.65358C149.534 -6.65358 149.534 -6.92533 149.534 -7.06121C149.534 -7.33297 149.398 -7.33297 149.261 -7.06121C149.125 -6.92533 149.125 -6.92534 148.989 -7.1971C148.852 -7.46886 148.716 -7.60474 148.443 -7.33298C147.898 -6.92534 147.898 -6.38182 148.58 -6.78946C148.852 -6.92534 148.989 -6.92534 148.852 -6.65358C148.852 -6.24594 148.989 -5.97418 149.125 -6.38182Z" fill="white"/>
<path d="M150.352 -7.33298C150.216 -7.33298 150.08 -7.46886 150.08 -7.33298C150.08 -7.33298 150.08 -7.19709 150.08 -7.06121C150.08 -6.92533 150.216 -6.92534 150.352 -6.92534C150.489 -7.1971 150.352 -7.33298 150.352 -7.33298Z" fill="white"/>
<path d="M149.125 -9.37117C149.125 -9.50705 149.261 -9.64293 149.398 -9.64293C149.534 -9.64293 149.671 -9.77881 149.671 -9.91469C149.671 -10.0506 149.534 -10.0506 149.261 -9.91469C148.989 -9.77881 148.852 -9.50705 148.852 -9.37117C148.989 -8.96353 149.125 -8.96353 149.125 -9.37117Z" fill="white"/>
<path d="M150.898 -11.817C150.761 -11.9529 150.625 -11.9529 150.625 -11.817C150.625 -11.6811 150.489 -11.5452 150.625 -11.4094C150.761 -11.2735 150.761 -11.2735 150.898 -11.4094C151.034 -11.5452 151.034 -11.6811 150.898 -11.817Z" fill="white"/>
<path d="M149.398 -11.2735C149.261 -11.4094 149.125 -11.4094 148.989 -11.4094C148.989 -11.2735 149.125 -11.1376 149.261 -11.1376C149.671 -11.1376 149.671 -11.1376 149.398 -11.2735Z" fill="white"/>
<path d="M115.718 6.93438C115.581 6.39086 115.581 6.39086 115.036 6.7985C114.763 6.93438 114.491 7.20614 114.491 7.34202C114.491 7.4779 114.627 7.4779 114.9 7.20614C115.172 6.93438 115.309 6.93438 115.309 7.20614C115.309 7.34202 115.445 7.47789 115.581 7.47789C115.581 7.34201 115.718 7.07026 115.718 6.93438Z" fill="white"/>
<path d="M113.536 7.20614C113.4 7.20614 113.127 7.47789 112.991 7.47789C112.854 7.61377 113.127 7.61378 113.4 7.34202C113.536 7.20614 113.672 7.20614 113.536 7.20614Z" fill="white"/>
<path d="M112.445 7.47789C112.309 7.47789 112.173 7.34201 112.173 7.47789C112.173 7.47789 112.173 7.61378 112.173 7.74966C112.173 7.88554 112.309 7.88554 112.445 7.74966C112.582 7.74966 112.445 7.61377 112.445 7.47789Z" fill="white"/>
<path d="M111.082 6.93438C110.945 6.7985 110.809 6.7985 110.673 6.7985C110.673 6.7985 110.673 6.93438 110.809 7.07026C110.945 7.20614 111.082 7.34202 111.218 7.20614C111.218 7.20614 111.218 7.07026 111.082 6.93438Z" fill="white"/>
<path d="M110.264 7.07026C110.127 6.93438 109.991 6.7985 109.854 6.7985C109.582 6.7985 109.718 7.07026 110.127 7.20614C110.4 7.34202 110.4 7.34202 110.264 7.07026Z" fill="white"/>
<path d="M108.082 6.7985C107.809 6.66262 107.673 6.66262 107.673 6.7985C107.673 7.07026 108.082 7.20614 108.355 7.07026C108.491 6.93438 108.355 6.7985 108.082 6.7985Z" fill="white"/>
<path d="M105.491 8.02142C105.491 7.88554 105.355 7.74966 105.082 7.74966C104.673 7.61378 104.673 7.88553 105.218 8.15729C105.355 8.15729 105.491 8.1573 105.491 8.02142Z" fill="white"/>
<path d="M107.4 6.52674C107.4 6.39086 107.264 6.39086 107.264 6.39086C107.127 6.39086 107.127 6.66262 107.127 6.7985C107.127 6.93438 107.264 6.93438 107.264 6.93438C107.264 6.93438 107.4 6.66262 107.4 6.52674Z" fill="white"/>
<path d="M147.898 -17.6598C148.034 -17.9316 147.898 -18.2033 147.762 -18.0675C147.625 -18.0675 147.625 -17.7957 147.625 -17.6598C147.625 -17.5239 147.762 -17.3881 147.762 -17.3881C147.762 -17.3881 147.762 -17.5239 147.898 -17.6598Z" fill="white"/>
<path d="M106.173 6.66262C105.627 6.1191 105.491 6.1191 105.491 6.52674C105.491 6.7985 105.491 6.93438 105.9 7.07026C106.446 7.34202 106.718 7.07026 106.173 6.66262Z" fill="white"/>
<path d="M104.673 8.02142C104.673 7.88554 104.4 7.88554 104.264 7.88554C104.128 7.88554 104.128 7.88554 104.264 8.02142C104.4 8.02142 104.4 8.29317 104.264 8.42905C104.128 8.56493 104.264 8.56493 104.4 8.42905C104.673 8.1573 104.673 8.02142 104.673 8.02142Z" fill="white"/>
<path d="M108.764 5.30383C108.764 5.16795 108.627 5.16795 108.491 5.16795C108.355 5.16795 108.355 5.30382 108.355 5.4397C108.355 5.57558 108.491 5.57558 108.627 5.57558C108.764 5.57558 108.764 5.4397 108.764 5.30383Z" fill="white"/>
<path d="M103.718 8.15729C103.582 7.61377 103.582 7.61378 103.309 7.88554C103.173 8.02142 103.037 8.02142 103.037 7.88554C103.037 7.74966 102.9 7.61378 102.764 7.61378C102.628 7.61378 102.628 7.74966 102.764 8.02142C103.173 8.70081 103.718 8.70081 103.718 8.15729Z" fill="white"/>
<path d="M102.219 8.02142C102.082 7.88554 101.946 7.74966 102.082 8.02142C102.082 8.1573 102.219 8.29317 102.355 8.42905C102.355 8.29317 102.355 8.1573 102.219 8.02142Z" fill="white"/>
<path d="M101.809 8.29317C101.673 8.1573 101.537 8.1573 101.537 8.29317C101.4 8.42905 101.264 8.42905 100.991 8.15729C100.855 8.02141 100.446 7.88554 100.31 8.02142C100.037 8.1573 99.9005 8.1573 99.7641 7.74966C99.6277 7.20614 99.2187 7.07026 98.946 7.47789C98.8096 7.61377 98.946 7.74966 99.2187 7.74966C99.4914 7.74966 99.4914 7.88554 99.355 8.02142C99.2187 8.1573 99.2187 8.29317 99.6278 8.29317C99.9005 8.29317 100.173 8.29317 100.173 8.29317C100.31 8.29317 100.446 8.29317 100.582 8.42905C100.719 8.56493 100.991 8.70082 101.264 8.56494C102.082 8.56494 102.082 8.56493 101.809 8.29317Z" fill="white"/>
<path d="M104.673 6.52674C104.673 6.39086 104.537 6.39086 104.264 6.52674C103.991 6.66262 103.991 6.7985 104.128 6.7985C104.264 6.7985 104.4 6.93438 104.537 6.7985C104.537 6.7985 104.673 6.66262 104.673 6.52674Z" fill="white"/>
<path d="M98.4005 7.34202C98.2642 7.20614 97.4461 7.34201 97.4461 7.47789C97.4461 7.61377 97.7188 7.61378 97.9915 7.61378C98.2642 7.61378 98.4005 7.34202 98.4005 7.34202Z" fill="white"/>
<path d="M96.0825 8.70081C96.0825 8.42905 95.6734 8.42905 95.5371 8.70081C95.4007 8.97257 95.5371 8.97257 95.8098 8.97257C95.9461 8.83669 96.0825 8.70081 96.0825 8.70081Z" fill="white"/>
<path d="M96.4916 7.47789C96.4916 7.34201 96.2189 7.34202 95.9461 7.20614C95.5371 7.20614 95.5371 7.20613 95.8098 7.47789C96.0825 7.74965 96.7643 7.74965 96.4916 7.47789Z" fill="white"/>
<path d="M97.3097 6.25498C97.3097 6.1191 97.037 6.1191 96.7643 5.98322C96.4916 5.98322 96.3552 5.98322 96.3552 5.98322C96.3552 5.98322 96.2188 6.1191 95.8098 6.25498C95.4007 6.25498 95.2644 6.39086 95.4007 6.52674C95.4007 6.66262 95.6734 6.66262 95.6734 6.52674C95.8098 6.39086 96.2188 6.39086 96.4916 6.39086C97.037 6.39086 97.3097 6.39086 97.3097 6.25498Z" fill="white"/>
<path d="M81.0833 15.3589C80.9469 15.3589 80.8106 15.223 80.8106 15.223C80.8106 15.223 80.8106 15.3589 80.8106 15.4948C80.8106 15.6307 80.9469 15.6307 81.0833 15.4948C81.2197 15.4948 81.2197 15.4948 81.0833 15.3589Z" fill="white"/>
<path d="M88.5829 9.92373C88.5829 9.78785 88.4465 9.78785 88.3102 9.78785C88.0375 9.78785 88.0375 9.92373 88.1738 10.0596C88.1738 10.4672 88.5829 10.3314 88.5829 9.92373Z" fill="white"/>
<path d="M87.3557 10.0596C87.2193 10.0596 87.083 9.92373 87.083 9.78785C87.083 9.51609 86.9466 9.51609 86.5376 9.78785C86.2648 9.92373 85.7194 10.0596 85.4467 9.92373C85.174 9.78785 84.9013 9.78785 84.9013 9.92373C84.7649 10.1955 87.2193 10.4672 87.6284 10.0596C87.6284 10.0596 87.492 10.0596 87.3557 10.0596Z" fill="white"/>
<path d="M77.2653 14.6795C77.2653 14.5436 76.9926 14.5436 76.9926 14.6795C76.8562 14.8154 76.7199 14.8154 76.5835 14.8154C76.4472 14.6795 76.4472 14.8154 76.4472 15.0872C76.4472 15.3589 76.5835 15.3589 76.9926 15.223C77.2653 14.9513 77.4017 14.8154 77.2653 14.6795Z" fill="white"/>
<path d="M89.5374 5.71146C89.5374 5.57558 89.401 5.57558 89.401 5.57558C89.2647 5.57558 89.2647 5.71146 89.2647 5.84734C89.2647 5.98322 89.401 5.98322 89.401 5.98322C89.401 5.98322 89.5374 5.84734 89.5374 5.71146Z" fill="white"/>
<path d="M88.0375 6.1191C87.9011 5.98322 87.6284 5.98322 87.2193 5.98322H86.6739L87.3557 6.25498C88.1738 6.39086 88.3102 6.39086 88.0375 6.1191Z" fill="white"/>
<path d="M77.538 12.3696C77.4017 12.3696 77.2653 12.3696 77.129 12.3696C76.9926 12.3696 76.9926 12.5054 77.129 12.6413C77.2653 12.6413 77.4017 12.6413 77.538 12.6413C77.6744 12.5054 77.6744 12.3696 77.538 12.3696Z" fill="white"/>
<path d="M63.357 17.9406C63.2206 17.9406 63.0843 18.0765 63.0843 18.2124C63.0843 18.3483 63.2206 18.3483 63.357 18.2124C63.4933 17.9406 63.4933 17.9406 63.357 17.9406Z" fill="white"/>
<path d="M76.1745 6.66262C76.0381 6.52674 76.1745 6.39086 76.3108 6.39086C76.4472 6.39086 76.4472 6.25498 76.4472 6.1191C76.3108 5.98322 76.3108 5.84734 76.4472 5.84734C76.5835 5.84734 76.5835 5.71146 76.5835 5.57558C76.5835 5.16795 76.4472 5.16794 76.1745 5.71146C75.9018 6.25498 75.3563 6.39086 75.0836 5.84734C74.9473 5.57558 74.8109 5.4397 74.6745 5.57558C74.4018 5.57558 74.4018 5.71146 74.5382 5.84734C74.9473 6.1191 73.8564 6.7985 73.311 6.52674C73.0383 6.39086 72.6292 6.39086 72.2201 6.52674C71.6747 6.66262 71.5384 6.93438 71.402 7.34202C71.2656 7.61378 71.1293 7.88554 70.9929 7.88554C70.8566 7.88554 70.7202 8.02142 70.8566 8.02142C70.9929 8.29317 71.402 8.29317 71.402 8.02142C71.402 7.88554 71.5384 7.74966 71.6747 7.61378C71.8111 7.4779 71.8111 7.61378 71.6747 7.74966C71.5384 7.88554 71.6747 8.1573 71.8111 8.29317C72.2201 8.56493 72.4928 8.29317 72.2201 7.88554C72.0838 7.61378 72.0838 7.34202 72.2201 6.93438C72.4928 6.52674 72.6292 6.39086 73.4473 6.66262C73.9928 6.7985 74.5382 6.7985 74.6745 6.66262C74.8109 6.52674 75.3563 6.52674 75.629 6.66262C75.9018 6.7985 76.1745 6.66262 76.1745 6.66262Z" fill="white"/>
<path d="M73.311 7.74966C73.1746 7.74966 73.0383 7.61378 72.9019 7.74966C72.7656 7.74966 72.7656 7.88554 72.9019 8.02142C72.9019 8.1573 73.1746 8.1573 73.311 8.02142C73.4473 7.88554 73.4473 7.88554 73.311 7.74966Z" fill="white"/>
<path d="M75.7654 5.30383C75.629 5.30383 75.4927 5.30383 75.3563 5.30383C75.22 5.30383 75.22 5.4397 75.3563 5.57558C75.4927 5.57558 75.629 5.57558 75.7654 5.57558C75.9018 5.4397 75.9018 5.4397 75.7654 5.30383Z" fill="white"/>
<path d="M57.7664 10.0596C57.7664 9.92373 57.63 9.78785 57.3573 9.78785C57.0846 9.78785 56.9482 9.78785 56.8119 9.78785C56.8119 9.92373 56.9482 10.0596 57.2209 10.0596C57.4937 10.1955 57.63 10.0596 57.7664 10.0596Z" fill="white"/>
<path d="M56.5392 10.1955C56.5392 10.0596 56.4028 10.0596 56.2664 10.1955C56.1301 10.1955 56.1301 10.3314 56.2664 10.4672C56.4028 10.4672 56.5392 10.6031 56.5392 10.6031C56.5392 10.3314 56.5392 10.3314 56.5392 10.1955Z" fill="white"/>
<path d="M55.721 10.3314C55.721 10.1955 55.5847 10.1955 55.312 10.1955C55.0392 10.3314 54.9029 10.3314 55.0392 10.4672C55.0392 10.739 55.721 10.6031 55.721 10.3314Z" fill="white"/>
<path d="M54.4938 11.0108C54.6302 10.739 54.6302 10.739 54.4938 11.0108C54.3575 11.0108 54.0847 11.1466 53.812 11.1466C53.5393 11.1466 53.5393 11.1466 53.812 11.2825C54.2211 11.5543 54.3575 11.5543 54.4938 11.0108Z" fill="white"/>
<path d="M22.8591 29.6263C22.7228 29.6263 22.5864 29.4904 22.5864 29.6263C22.5864 29.6263 22.5864 29.7621 22.5864 29.898C22.5864 30.0339 22.7228 30.0339 22.8591 29.898C22.9955 29.7621 22.9955 29.6263 22.8591 29.6263Z" fill="white"/>
<path d="M51.903 11.5543C51.903 11.5543 51.7667 11.5543 51.494 11.5543C51.3576 11.5543 51.2213 11.6902 51.3576 11.6902C51.6303 11.826 52.0394 11.6902 51.903 11.5543Z" fill="white"/>
<path d="M53.2666 10.4672C53.2666 10.3314 52.9939 10.3314 52.8575 10.3314C52.7212 10.3314 52.7212 10.4672 52.7212 10.4672C52.7212 10.6031 52.9939 10.6031 53.1302 10.6031C53.2666 10.6031 53.2666 10.4672 53.2666 10.4672Z" fill="white"/>
<path d="M50.4031 11.826C50.2668 11.5543 49.8577 11.5543 49.8577 11.826C49.8577 11.9619 49.9941 12.0978 50.1304 11.9619C50.2668 12.0978 50.4031 11.9619 50.4031 11.826Z" fill="white"/>
<path d="M52.0394 10.6031C51.903 10.6031 51.7667 10.6031 51.6303 10.6031C51.494 10.6031 51.494 10.739 51.6303 10.8749C51.7667 10.8749 51.903 10.8749 52.0394 10.8749C52.1758 10.739 52.1758 10.739 52.0394 10.6031Z" fill="white"/>
<path d="M50.9485 11.2825C50.9485 11.1466 50.8122 11.1466 50.6758 11.2825C50.5395 11.2825 50.5395 11.4184 50.6758 11.5543C50.8122 11.5543 50.9485 11.6902 50.9485 11.5543C51.0849 11.4184 51.0849 11.2825 50.9485 11.2825Z" fill="white"/>
<path d="M48.7669 12.0978C48.7669 11.9619 48.7668 11.826 48.9032 11.6902C49.0396 11.5543 49.0396 11.5543 48.6305 11.6902C48.2214 11.826 48.2214 11.9619 48.3578 12.2337C48.7669 12.3696 48.9032 12.3696 48.7669 12.0978Z" fill="white"/>
<path d="M47.5396 12.2337C47.4033 12.2337 47.1306 12.2337 46.9942 12.3696C46.8579 12.5054 46.9942 12.5054 47.2669 12.5054C47.676 12.3696 47.676 12.3696 47.5396 12.2337Z" fill="white"/>
<path d="M45.6307 12.0978C45.3579 11.9619 45.2216 11.9619 45.0852 12.0978C44.9489 12.0978 45.0852 12.2337 45.3579 12.3696C45.6307 12.5054 45.767 12.5054 45.9034 12.3696C45.9034 12.2337 45.9034 12.2337 45.6307 12.0978Z" fill="white"/>
<path d="M19.0412 25.0064C19.1775 24.7346 19.1775 24.7346 18.9048 24.8705C18.7685 25.0064 18.6321 25.1422 18.6321 25.2781C18.7685 25.5499 18.7685 25.5499 19.0412 25.0064Z" fill="white"/>
<path d="M38.4038 13.3207C38.2674 13.3207 38.1311 13.3207 38.1311 13.4566C37.9947 13.7284 38.1311 13.8642 38.4038 13.5925C38.5401 13.4566 38.5401 13.4566 38.4038 13.3207Z" fill="white"/>
<path d="M40.5855 11.1466C40.3128 11.1466 40.1764 11.0108 40.04 11.1466C40.04 11.1466 40.04 11.2825 40.04 11.4184C40.1764 11.5543 40.3128 11.5543 40.5855 11.4184C40.9945 11.2825 40.9945 11.2825 40.5855 11.1466Z" fill="white"/>
<path d="M31.1769 16.5818C31.0405 16.5818 30.7678 16.5818 30.7678 16.7177C30.7678 16.8536 30.9042 16.8536 31.1769 16.8536C31.4496 16.7177 31.4496 16.7177 31.1769 16.5818Z" fill="white"/>
<path d="M29.2679 17.2612C29.2679 17.1253 29.2679 17.1254 29.4043 17.1254C29.5406 17.1254 29.5406 16.9895 29.4043 16.8536C29.2679 16.7177 29.2679 16.5818 29.4043 16.5818C29.9497 16.3101 29.4043 16.3101 28.7225 16.446C27.9043 16.5818 27.4953 17.1254 28.177 17.1254C28.3134 17.1254 28.4498 17.1253 28.177 16.9895C28.0407 16.8536 28.0407 16.8536 28.177 16.7177C28.4498 16.5818 28.9952 16.9895 29.1315 17.2612C29.1315 17.3971 29.2679 17.533 29.2679 17.533C29.4043 17.3971 29.4043 17.3971 29.2679 17.2612Z" fill="white"/>
<path d="M27.6316 16.9895C27.4953 16.7177 27.3589 16.7177 27.3589 16.8536C27.3589 16.9895 27.4953 17.2612 27.6316 17.2612C27.9043 17.3971 27.768 17.2612 27.6316 16.9895Z" fill="white"/>
<path d="M25.859 18.2124C25.7226 18.0765 25.4499 17.9406 25.4499 17.6689C25.3136 17.2612 25.3136 17.2612 25.3136 17.6689C25.3136 18.2124 25.7226 18.62 25.9953 18.3483C26.1317 18.4841 26.1317 18.3483 25.859 18.2124Z" fill="white"/>
<path d="M26.9498 16.9895C26.9498 16.8536 26.8135 16.8536 26.6771 16.9895C26.5408 16.9895 26.5408 17.1253 26.6771 17.2612C26.8135 17.2612 26.9498 17.3971 26.9498 17.2612C27.0862 17.1253 26.9498 17.1253 26.9498 16.9895Z" fill="white"/>
<path d="M23.5409 18.7559C23.6773 18.3483 23.5409 18.0765 23.1319 18.3483C22.9955 18.4841 22.9955 18.62 23.1319 18.8918C23.4046 19.1635 23.4046 19.1635 23.5409 18.7559Z" fill="white"/>
<path d="M25.859 17.1254C25.859 16.9895 25.859 16.7177 25.7226 16.5818C25.4499 16.1742 25.4499 16.3101 25.4499 16.5818C25.5863 17.1253 25.859 17.533 25.859 17.1254Z" fill="white"/>
<path d="M20.9502 19.9788C21.0865 19.7071 21.0865 19.7071 20.9502 19.7071C20.8138 19.8429 20.6774 19.9788 20.6774 20.1147C20.6774 20.5223 20.6774 20.5223 20.9502 19.9788Z" fill="white"/>
<path d="M11.5416 25.6858C11.4052 25.6858 11.2689 25.8216 11.2689 25.9575C11.2689 26.0934 11.4052 26.0934 11.5416 25.9575C11.8143 25.6858 11.8143 25.6858 11.5416 25.6858Z" fill="white"/>
<path d="M10.7234 25.8216C10.7234 25.6858 10.4507 25.6858 10.4507 25.8216C10.3144 25.9575 10.178 25.9575 10.0416 25.9575C9.90529 25.9575 9.90529 25.9575 10.0416 26.0934C10.178 26.3652 10.8598 26.0934 10.7234 25.8216Z" fill="white"/>
<path d="M22.041 18.8918C21.9047 18.7559 21.6319 18.62 21.3592 18.62C21.0865 18.62 20.8138 18.3483 20.8138 18.2124C20.8138 18.0765 20.6774 17.9406 20.5411 18.0765C20.4047 18.2124 20.4047 18.3483 20.5411 18.62C20.6774 18.8918 20.8138 18.8918 20.9502 18.8918C21.0865 18.8918 21.0865 18.8918 21.0865 19.0277C21.0865 19.1635 20.9502 19.2994 20.8138 19.2994C20.6774 19.2994 20.5411 19.4353 20.5411 19.5712C20.5411 19.7071 20.6774 19.7071 20.8138 19.7071C20.9502 19.5712 21.0865 19.4353 21.0865 19.2994C21.0865 19.1635 21.2229 19.0277 21.4956 19.1635C21.9047 19.0277 22.041 19.0277 22.041 18.8918Z" fill="white"/>
<path d="M22.3137 17.9406C22.3137 17.8047 22.1774 17.8047 21.9047 17.8047C21.6319 17.9406 21.4956 17.9406 21.6319 18.0765C21.6319 18.3483 22.3137 18.2124 22.3137 17.9406Z" fill="white"/>
<path d="M19.9957 18.62C19.9957 18.4841 19.8593 18.4841 19.8593 18.4841C19.7229 18.4841 19.723 18.7559 19.723 18.7559C19.723 18.8918 19.8593 18.8918 19.8593 18.8918C19.8593 18.8918 19.9957 18.7559 19.9957 18.62Z" fill="white"/>
<path d="M11.5416 22.6964C11.5416 22.4247 11.1325 22.4247 10.8598 22.6964C10.7234 22.9682 10.9961 23.2399 11.2689 23.104C11.5416 22.9682 11.5416 22.8323 11.5416 22.6964Z" fill="white"/>
<path d="M18.7685 17.3971C18.6321 17.3971 18.4957 17.3971 18.223 17.533C17.9503 17.6689 18.223 17.8047 18.6321 17.6689C18.7685 17.533 18.9048 17.3971 18.7685 17.3971Z" fill="white"/>
<path d="M17.2685 17.3971C17.2685 17.2612 17.1322 17.1254 16.9958 17.1254C16.7231 17.2612 16.7231 17.6689 16.9958 17.6689C17.2685 17.8047 17.2685 17.6689 17.2685 17.3971Z" fill="white"/>
<path d="M4.86011 24.0552C4.72375 23.3758 4.86011 23.2399 5.40553 23.3758C5.8146 23.5117 5.8146 23.3758 5.8146 23.104C5.8146 22.8323 5.54189 22.8323 4.99646 22.8323C4.04197 22.9682 4.04197 22.9682 4.31468 23.3758C4.45104 23.5117 4.58739 23.7834 4.58739 23.9193C4.58739 24.0552 4.72375 24.1911 4.86011 24.327C4.99646 24.5987 4.99646 24.4628 4.86011 24.0552Z" fill="white"/>
<path d="M16.5868 16.7177C16.4504 16.7177 16.314 16.5818 16.1777 16.7177C16.0413 16.8536 16.0413 16.8536 16.1777 16.9895C16.1777 17.1253 16.4504 17.1253 16.5868 16.9895C16.7231 16.8536 16.7231 16.8536 16.5868 16.7177Z" fill="white"/>
<path d="M-4.27577 22.017C-4.27577 21.8811 -4.13941 21.7453 -3.8667 21.6094C-3.59398 21.4735 -3.59398 21.3376 -3.73034 21.3376C-3.8667 21.3376 -4.00305 21.2017 -4.13941 21.0658C-4.54848 20.5223 -4.54848 20.5223 -4.82119 20.7941C-4.95755 20.93 -4.95755 21.0659 -4.82119 21.2017C-4.68484 21.3376 -4.68484 21.3376 -4.95755 21.3376C-5.23026 21.3376 -5.23026 21.2017 -5.23026 20.93C-5.23026 20.5223 -5.23026 20.5223 -5.50297 20.7941C-5.77569 20.93 -5.77569 21.2017 -5.50297 21.3376C-5.36662 21.4735 -5.0939 21.8811 -4.95755 22.017C-4.41212 22.4247 -4.27577 22.4247 -4.27577 22.017Z" fill="white"/>
<path d="M-4.13941 17.1254C-4.13941 16.9895 -4.27577 16.9895 -4.27577 16.9895C-4.41212 16.9895 -4.41212 17.1253 -4.41212 17.2612C-4.41212 17.3971 -4.27577 17.3971 -4.27577 17.3971C-4.27577 17.3971 -4.13941 17.2612 -4.13941 17.1254Z" fill="white"/>
<path d="M-2.77585 12.0978C-3.18492 12.0978 -3.59398 12.2337 -3.73034 12.3696C-3.8667 12.5054 -3.8667 12.6413 -3.45763 12.5054C-3.18492 12.3696 -2.9122 12.3696 -2.9122 12.5054C-2.9122 12.6413 -2.63949 12.5054 -2.36678 12.3696C-2.09406 12.2337 -2.09407 12.0978 -2.77585 12.0978Z" fill="white"/>
<path d="M-4.95755 12.2337C-5.0939 12.2337 -5.23026 12.3696 -5.36662 12.5054C-5.36662 12.6413 -5.23026 12.6413 -5.0939 12.5054C-4.82119 12.3696 -4.82119 12.2337 -4.95755 12.2337Z" fill="white"/>
<path d="M-8.91188 11.826C-8.91188 11.6902 -9.04824 11.6902 -9.18459 11.826C-9.32095 11.826 -9.32095 11.9619 -9.18459 12.0978C-9.04824 12.0978 -8.91188 12.2337 -8.91188 12.0978C-8.91188 12.0978 -8.91188 11.9619 -8.91188 11.826Z" fill="white"/>
<path d="M-11.639 9.38021C-11.639 9.24433 -11.7754 9.24433 -11.9117 9.38021C-11.9117 9.51609 -12.0481 9.65197 -12.0481 9.65197C-12.0481 9.65197 -11.9117 9.65197 -11.7754 9.65197C-11.639 9.51609 -11.639 9.38021 -11.639 9.38021Z" fill="white"/>
<path d="M-14.6388 8.15729C-14.6388 8.02141 -14.7752 8.02142 -15.0479 8.02142C-15.1843 8.02142 -15.1843 8.1573 -15.0479 8.29317C-14.6388 8.42905 -14.5025 8.42905 -14.6388 8.15729Z" fill="white"/>
<path d="M-16.1388 6.39086C-16.4115 5.98322 -16.5478 5.84734 -16.5478 5.98322C-16.5478 6.25498 -16.0024 7.20614 -15.7297 7.07026C-15.7297 7.07026 -15.8661 6.7985 -16.1388 6.39086Z" fill="white"/>
<path d="M-21.0476 2.1786C-21.0476 2.04271 -21.184 2.04271 -21.184 2.04271C-21.3203 2.04271 -21.3203 2.17859 -21.3203 2.31447C-21.3203 2.45035 -21.184 2.45036 -21.184 2.45036C-21.0476 2.45036 -21.0476 2.31448 -21.0476 2.1786Z" fill="white"/>
<path d="M-21.4567 -0.267235C-21.593 -0.403118 -21.593 -0.539001 -21.4567 -0.674881C-21.3203 -0.81076 -21.3203 -1.08252 -21.3203 -1.08252C-21.4567 -1.35427 -21.8657 -0.810757 -21.7294 -0.403118C-21.7294 -0.267239 -21.593 -0.131355 -21.4567 -0.267235C-21.3203 -0.131355 -21.1839 -0.131355 -21.4567 -0.267235Z" fill="white"/>
<path d="M-19.275 -5.43066C-19.4113 -5.56654 -19.5477 -5.56654 -19.5477 -5.43066C-19.5477 -5.29478 -19.5477 -5.15891 -19.4113 -5.15891C-19.1386 -4.88715 -19.0022 -5.02303 -19.275 -5.43066Z" fill="white"/>
<path d="M-7.41196 -13.3117C-7.54832 -13.8552 -7.54832 -13.8552 -7.82103 -13.7193C-8.09374 -13.5834 -8.09374 -13.0399 -7.95739 -12.7682C-7.82103 -12.4964 -7.41196 -13.0399 -7.41196 -13.3117Z" fill="white"/>
<path d="M-4.41212 -16.8445C-4.82119 -17.3881 -5.36662 -17.1163 -5.36662 -16.4369C-5.36662 -15.8934 -5.23026 -15.8934 -4.68484 -16.1651C-4.13941 -16.4369 -4.13941 -16.4369 -4.41212 -16.8445Z" fill="white"/>
<path d="M-8.2301 -14.2628C-8.36646 -14.2628 -8.50281 -14.2628 -8.77552 -14.2628C-8.91188 -14.127 -8.91188 -13.9911 -8.77552 -13.9911C-8.63917 -13.9911 -8.50281 -13.9911 -8.2301 -13.9911C-8.09374 -13.9911 -8.09374 -14.127 -8.2301 -14.2628Z" fill="white"/>
<path d="M-6.59382 -15.3499C-6.45747 -15.4858 -6.45747 -15.6216 -6.59382 -15.6216C-6.86654 -15.7575 -7.13925 -15.6216 -6.86654 -15.3499C-6.73018 -15.214 -6.73018 -15.0781 -6.73018 -15.0781C-6.73018 -15.0781 -6.73018 -15.214 -6.59382 -15.3499Z" fill="white"/>
<path d="M-17.0933 -9.37117C-16.9569 -9.77881 -17.2296 -9.91469 -17.366 -9.64293C-17.366 -9.50705 -17.6387 -9.23529 -17.775 -8.96353C-18.0478 -8.69177 -18.0478 -8.69177 -17.6387 -8.96353C-17.366 -9.09941 -17.0933 -9.23529 -17.0933 -9.37117Z" fill="white"/>
<path d="M-5.63933 -16.7087C-5.77569 -16.8445 -5.77568 -16.9804 -5.91204 -16.7087C-5.91204 -16.5728 -5.91204 -16.301 -6.0484 -16.1651C-6.0484 -16.0293 -6.0484 -16.0293 -5.77568 -16.1651C-5.63933 -16.301 -5.50297 -16.4369 -5.63933 -16.7087Z" fill="white"/>
<path d="M-2.77585 -18.4751C-2.9122 -18.4751 -3.18491 -18.4751 -3.32127 -18.3392C-3.45763 -18.2033 -3.32127 -18.2033 -3.04856 -18.2033C-2.50313 -18.3392 -2.50314 -18.4751 -2.77585 -18.4751Z" fill="white"/>
<path d="M-5.0939 -17.5239C-5.0939 -17.6598 -5.23026 -17.6598 -5.36662 -17.5239C-5.63933 -17.2522 -5.63933 -17.1163 -5.36662 -17.2522C-5.0939 -17.2522 -5.0939 -17.3881 -5.0939 -17.5239Z" fill="white"/>
<path d="M-18.1841 -9.77881C-18.1841 -9.91469 -18.3205 -9.91469 -18.4568 -9.77881C-18.4568 -9.64293 -18.5932 -9.50705 -18.4568 -9.50705C-18.4568 -9.50705 -18.3205 -9.50705 -18.1841 -9.50705C-18.1841 -9.50705 -18.1841 -9.64293 -18.1841 -9.77881Z" fill="white"/>
<path d="M49.0396 4.89619C49.0396 4.76031 48.9032 4.7603 48.9032 4.7603C48.7668 4.7603 48.7669 4.89618 48.7669 5.03206C48.7669 5.16794 48.9032 5.16795 48.9032 5.16795C48.9032 5.16795 49.0396 5.03207 49.0396 4.89619Z" fill="white"/>
<path d="M37.4493 7.74966C37.4493 7.74966 37.1766 7.74966 37.0402 7.74966C36.7675 7.88554 36.6311 7.88554 36.7675 8.02142C36.7675 8.1573 37.0402 8.1573 37.1766 8.02142C37.3129 7.88554 37.4493 7.74966 37.4493 7.74966Z" fill="white"/>
<path d="M19.0412 13.049C19.0412 13.049 18.7685 12.9131 18.4957 13.049C18.0867 13.049 18.0867 13.1848 18.223 13.3207C18.3594 13.4566 18.4957 13.4566 18.7685 13.3207C18.9048 13.1848 19.0412 13.049 19.0412 13.049Z" fill="white"/>
<path d="M16.5868 13.7284C16.314 13.7284 16.1777 13.5925 16.1777 13.7284C16.1777 13.8642 16.5868 14.136 16.8595 14.0001C16.9958 13.8642 16.8595 13.7284 16.5868 13.7284Z" fill="white"/>
<path d="M13.0415 14.0001C13.0415 13.8642 12.9051 13.8642 12.9051 13.8642C12.7688 13.8642 12.7688 14.136 12.7688 14.2719C12.7688 14.4078 12.9051 14.4078 12.9051 14.4078C12.9051 14.2719 13.0415 14.136 13.0415 14.0001Z" fill="white"/>
<path d="M13.996 12.5054C13.7233 12.3696 13.4506 12.5054 13.1778 12.6413C12.7688 12.9131 12.7688 12.9131 13.3142 12.7772C13.5869 12.6413 13.8596 12.6413 13.8596 12.7772C13.8596 12.9131 13.996 12.9131 14.1323 12.7772C14.4051 12.6413 14.2687 12.6413 13.996 12.5054Z" fill="white"/>
</g>
</svg>
