<svg width="102" height="102" viewBox="0 0 102 102" fill="none" xmlns="http://www.w3.org/2000/svg">
<path d="M34.4975 99.1888C29.8954 97.8732 25.7116 95.7536 21.8231 93.0006C16.335 89.1268 11.659 84.4492 8.04126 78.7969C5.18645 74.3628 3.09455 69.5877 1.71637 64.4958C0.3874 59.5501 -0.10481 54.5557 0.0182422 49.4638C0.165905 44.0796 1.15032 38.8659 3.04533 33.8227C6.31853 25.1251 11.4129 17.7431 18.6484 11.7985C22.9306 8.29025 27.705 5.56159 32.8486 3.56382C33.7592 3.19838 34.6944 2.80857 35.6788 2.63803C35.8757 2.54057 36.1218 2.46749 36.2695 2.5893C36.8355 3.02784 36.8109 3.02784 37.4508 2.83293C39.7642 2.1264 42.0776 1.54169 44.514 1.59042C45.2277 1.61478 45.8676 1.34679 46.5567 1.24933C47.7626 1.22497 48.9685 1.20061 50.199 1.15188C51.0358 1.05443 51.8972 1.03007 52.7339 1.15188C67.1557 1.59042 79.1656 7.24265 88.9606 17.6213C89.2067 17.8649 89.6004 18.0111 89.6251 18.4496C89.7235 18.5715 89.7235 18.6689 89.6251 18.7907C88.7883 19.01 88.4437 18.3278 88.0254 17.8893C84.4815 14.1617 80.4207 11.092 75.917 8.58261C72.7176 6.80411 69.3214 5.51287 65.8021 4.53835C61.1261 3.2471 56.3517 2.56494 51.4788 2.73548C47.7134 2.85729 43.9972 3.41764 40.3056 4.22162C35.2605 5.2936 30.6337 7.31573 26.253 9.89822C19.6082 13.8207 14.1447 19.0344 9.96088 25.4906C7.10606 29.9003 5.088 34.6754 3.80826 39.743C3.14377 42.3742 2.84845 45.0785 2.55312 47.7828C2.13474 51.559 2.47929 55.3109 2.87306 59.0628C3.21761 62.2544 4.27586 65.2998 5.33411 68.3452C7.426 74.3141 10.8222 79.5034 14.9076 84.2542C18.107 87.9818 21.9954 91.0028 26.253 93.5122C28.8617 95.0714 31.6427 96.2652 34.4237 97.4347C34.8175 97.727 35.4327 97.8732 35.2359 98.5554C35.1374 98.9208 35.1128 99.4324 34.4975 99.1888Z" fill="#EFF5F2"/>
<path d="M101.413 53.8735C101.389 58.4294 100.823 62.8635 99.3954 67.2245C97.0328 74.4116 93.3659 80.7947 88.173 86.3251C86.7949 87.7869 85.3182 89.1269 83.7678 90.3937C83.3248 90.2963 83.3248 90.2963 83.5955 89.8821C80.593 91.9043 77.8366 94.1944 74.465 95.4613C73.3329 96.1191 72.1024 96.5576 70.9211 97.1179C70.675 97.2154 70.4289 97.2398 70.1828 97.2154C69.9859 97.191 69.8136 97.1423 69.6659 96.9961C69.6413 96.2896 70.2074 96.1678 70.675 95.9729C74.5142 94.2918 78.0335 92.0992 81.3313 89.5654C81.7497 89.2974 82.0204 88.8102 82.5618 88.7127C83.9154 88.0305 84.9737 87.0073 86.0812 86.0328C86.721 85.4724 85.9581 84.7902 86.3765 84.2542C88.0254 82.2808 89.7235 80.3805 91.2001 78.2853C94.3011 73.9487 96.639 69.2466 98.1649 64.1547C98.854 61.889 99.2232 59.5988 99.6661 57.2844C99.863 56.3098 100.404 55.4084 100.454 54.3852C100.724 54.0684 100.946 53.7517 101.413 53.8735Z" fill="#EFF5F2"/>
<path d="M71.9301 97.6539C68.1401 99.3593 64.1532 100.529 60.0679 101.211C54.9735 102.064 49.8299 102.332 44.7109 101.479C43.8741 101.333 42.9882 101.406 42.176 101.089C41.9299 100.919 41.6346 101.016 41.3639 100.967C40.6502 100.845 40.2564 100.529 40.6994 99.7735C41.1916 99.4568 41.7084 99.5542 42.2499 99.6761C45.5723 100.407 48.9193 100.797 52.3155 100.772C55.5887 100.748 58.8127 100.31 62.0121 99.6761C63.0703 99.4812 64.227 99.5786 65.1622 98.8477C65.4083 98.7015 65.679 98.6284 65.9498 98.6041C66.7373 98.7259 67.4018 98.2386 68.1401 98.1168C69.1983 97.8732 70.1335 97.3128 71.1672 97.0205C71.561 96.8012 71.9547 96.6794 72.3977 96.7768C73.136 97.5077 72.0285 97.3372 71.9301 97.6539Z" fill="#EFF5F2"/>
<path d="M46.6059 1.24933C45.6953 1.88277 44.6371 1.63914 43.6527 1.80968C41.3885 2.17513 39.1243 2.63803 36.934 3.34456C36.6387 3.44201 36.2941 3.39328 35.9003 3.44201C36.0234 3.10093 36.8848 2.5893 35.7527 2.66239C37.1555 1.85841 38.7306 1.61478 40.2564 1.24933C45.0555 0.128634 49.9283 -0.163722 54.8504 0.0799083C57.213 0.17736 59.5756 0.469717 61.889 1.20061C55.638 0.25045 49.4115 0.177361 43.2835 1.41988C44.3417 1.78532 45.4492 1.0057 46.6059 1.24933Z" fill="#EFF5F2"/>
<path d="M101.537 43.0807C101.635 44.3963 102.103 45.6632 101.98 47.0275C101.93 47.466 102.004 47.9046 101.463 48.3431C101.635 46.2723 101.167 44.445 100.774 42.5691C100.232 41.8138 100.183 40.888 99.9861 40.0597C98.6325 34.31 96.3437 28.9989 93.0213 24.1019C92.6768 23.6146 92.2584 23.1274 92.283 22.4696C92.3568 22.2746 92.4799 22.1285 92.6768 22.1041C94.1534 23.7121 95.2116 25.6124 96.2207 27.5127C98.0911 30.9723 99.5923 34.578 100.528 38.3786C100.921 39.9379 101.217 41.5215 101.537 43.0807Z" fill="#EFF5F2"/>
<path d="M71.9301 97.6539C71.8317 97.2398 72.7177 97.4347 72.3977 96.8987C72.8161 95.8998 73.8743 95.9242 74.6373 95.51C74.8834 95.3882 75.2033 95.4613 75.4002 95.2907C75.0803 95.4125 74.7603 95.5343 74.4158 95.2907C76.5077 94.4137 78.3535 93.1224 80.2485 91.8799C81.3313 91.1734 82.3896 90.4425 83.4478 89.7116C83.817 89.8334 83.0294 90.4912 83.7678 90.4181C80.2238 93.4391 76.2369 95.8267 71.9301 97.6539Z" fill="#EFF5F2"/>
<path d="M34.4975 99.1888C35.6542 98.7015 35.0144 98.2143 34.4975 97.727C34.6452 97.5565 34.8421 97.4834 35.039 97.5565C35.9988 97.9463 37.0324 98.1412 38.0415 98.4579C38.2876 98.531 38.4352 98.7015 38.5337 98.9452C38.5337 98.9939 38.5583 99.0426 38.5337 99.067C37.9676 99.4812 37.9184 99.5299 37.9184 100.188C36.7863 99.7735 35.482 99.9928 34.4975 99.1888Z" fill="#EFF5F2"/>
<path d="M92.6768 22.1285C92.6275 22.299 92.5291 22.4208 92.3322 22.4452C91.0525 21.9336 90.7325 20.5449 89.7973 19.7165C89.5512 19.4973 89.4036 19.2049 89.6251 18.8638C89.6497 18.7176 89.6743 18.5958 89.6989 18.4497C90.9048 19.4973 91.7662 20.8129 92.6768 22.1285Z" fill="#EFF5F2"/>
<path d="M37.8938 100.163C37.6477 99.7735 37.4016 99.3837 37.1309 98.9208C37.6231 98.9939 38.0661 99.0426 38.4844 99.0913C38.9274 98.799 39.2474 98.9695 39.5427 99.3106C39.7888 99.8222 39.5919 100.212 39.1735 100.553C38.6813 100.675 38.2876 100.431 37.8938 100.163Z" fill="#EFF5F2"/>
<path d="M101.413 53.8735C101.192 54.0441 100.97 54.1902 100.749 54.3608C100.355 53.971 100.38 53.5568 100.675 53.1426C100.872 52.6797 100.38 51.7539 101.094 51.7539C101.807 51.7539 101.315 52.6797 101.487 53.1426C101.463 53.3619 101.438 53.6055 101.413 53.8735Z" fill="#EFF5F2"/>
<path d="M39.1735 100.577C39.2474 100.212 39.3212 99.8222 39.4196 99.4568C39.6904 99.1888 39.9611 99.3837 40.2318 99.4568C40.4533 99.5542 40.6502 99.6761 40.724 99.9197C40.5025 101.162 41.7576 100.602 42.1514 101.065C41.0932 101.333 40.2318 100.456 39.1735 100.577Z" fill="#EFF5F2"/>
<path d="M52.7831 1.17624C51.9464 1.17624 51.085 1.17624 50.2483 1.17624C51.085 0.810798 51.9218 0.835161 52.7831 1.17624Z" fill="#EFF5F2"/>
<path d="M59.8956 99.4324C63.2426 98.9208 66.3928 97.6296 69.7152 96.9718C69.8874 96.9718 70.0597 96.9961 70.232 96.9961C70.2566 97.6783 69.5921 97.5808 69.223 97.8001C68.8538 98.0194 68.4108 98.0925 68.017 98.263C67.3526 98.4335 66.7127 98.6772 66.0482 98.8964C65.7775 98.9208 65.5068 98.9208 65.2607 98.9452C65.0884 99.2863 64.7438 99.335 64.4485 99.3837C62.9473 99.5786 61.5199 100.017 60.0186 100.188C59.5018 100.236 58.985 100.31 58.5912 99.7979C59.0096 99.335 59.5018 99.6517 59.8956 99.4324Z" fill="#EFF5F2"/>
<path d="M85.2198 86.0084C85.6382 85.448 86.0812 84.912 86.6718 84.4979C86.6226 84.6197 86.5241 84.7902 86.5488 84.839C87.4101 85.984 86.1796 86.3007 85.6874 86.8124C84.8506 87.6407 83.9893 88.5421 82.7587 88.8832C82.5865 88.3472 82.9556 88.0792 83.3248 87.8112C84.0139 87.2753 84.6784 86.6906 85.2198 86.0084Z" fill="#EFF5F2"/>
<path d="M85.2198 86.0084C85.2198 86.8124 84.4815 87.056 84.0631 87.5433C83.6447 88.0062 82.9556 88.2254 82.7587 88.8832C82.1927 88.8832 82.2419 89.7116 81.6759 89.6628C81.4298 89.6385 81.2083 89.6141 80.7407 89.5898C82.3157 88.2742 83.6447 86.9829 85.2198 86.0084Z" fill="#EFF5F2"/>
<path d="M74.4158 95.2663C74.7357 95.2663 75.0556 95.2663 75.4248 95.2663C74.4404 95.9729 73.2591 96.1191 72.3977 96.8987C72.004 96.9961 71.6102 97.1179 71.2164 97.2154C71.0934 97.1179 70.9211 97.0936 70.9211 96.8987C71.9547 96.1191 73.2837 95.8998 74.4158 95.2663Z" fill="#EFF5F2"/>
<path d="M70.8965 96.8987C70.9949 96.9961 71.0934 97.118 71.1918 97.2154C70.2074 97.6052 69.1983 97.995 68.2139 98.3605C68.0909 98.3117 67.9432 98.2874 67.9186 98.1412C68.5339 97.459 69.6413 97.7757 70.2074 96.9961C70.4535 96.9474 70.675 96.923 70.8965 96.8987Z" fill="#EFF5F2"/>
<path d="M59.8956 99.4324C59.551 99.5299 59.2311 99.6273 58.542 99.8222C61.0769 100.066 63.1196 99.1401 65.2607 98.8964C65.0638 99.8953 64.104 99.7004 63.5133 99.7979C59.108 100.626 54.6782 101.26 50.1498 101.016C47.4181 100.87 44.7109 100.699 42.053 100.017C41.6346 99.9197 41.167 99.9441 40.724 99.9197C40.5025 99.8953 40.281 99.871 40.1826 99.6273C41.8561 98.3117 43.6034 99.4081 45.3016 99.5299C46.2121 99.5786 47.1473 99.7735 48.0579 99.8222C51.0112 99.9441 53.9645 100.066 56.9177 99.8222C57.9267 99.7735 58.8373 99.1157 59.8956 99.4324Z" fill="#EFF5F2"/>
<path d="M67.9186 98.1412C68.017 98.2143 68.1155 98.2874 68.2139 98.3605C67.4756 98.4823 66.8603 99.1401 66.0482 98.8721C66.4666 98.1168 67.3033 98.4092 67.9186 98.1412Z" fill="#EFF5F2"/>
<path d="M53.9152 100.577C54.2352 100.626 54.5551 100.651 54.875 100.699C54.875 100.748 54.875 100.772 54.875 100.821C52.9308 100.821 50.9866 100.821 49.0424 100.821C48.9931 100.821 48.9439 100.821 48.9193 100.821C48.747 100.626 49.0177 100.699 49.0424 100.626C50.6666 100.407 52.2909 100.456 53.9152 100.577Z" fill="#EFF5F2"/>
<path d="M53.9152 100.577C52.2909 100.577 50.6666 100.602 49.0424 100.602C50.6666 100.139 52.2909 100.261 53.9152 100.577Z" fill="#EFF5F2"/>
</svg>
