<svg width="68" height="68" viewBox="0 0 68 68" fill="none" xmlns="http://www.w3.org/2000/svg">
<path d="M22.9984 66.1259C19.9303 65.2488 17.1411 63.8357 14.5488 62.0004C10.89 59.4179 7.77267 56.2994 5.36084 52.5313C3.45763 49.5752 2.06304 46.3918 1.14424 42.9972C0.258266 39.7001 -0.0698735 36.3705 0.0121614 32.9759C0.110603 29.3864 0.766883 25.9106 2.03022 22.5485C4.21235 16.7501 7.6086 11.8287 12.4323 7.86569C15.2871 5.52684 18.47 3.70773 21.8991 2.37588C22.5062 2.13225 23.1296 1.87238 23.7859 1.75868C23.9172 1.69372 24.0812 1.64499 24.1797 1.7262C24.557 2.01856 24.5406 2.01856 24.9672 1.88862C26.5095 1.4176 28.0517 1.02779 29.676 1.06028C30.1518 1.07652 30.5784 0.897857 31.0378 0.832889C31.8417 0.816647 32.6457 0.800405 33.466 0.767921C34.0239 0.702953 34.5981 0.686711 35.156 0.767921C44.7705 1.06028 52.7771 4.82843 59.307 11.7475C59.4711 11.91 59.7336 12.0074 59.75 12.2998C59.8157 12.381 59.8157 12.4459 59.75 12.5272C59.1922 12.6733 58.9625 12.2186 58.6836 11.9262C56.321 9.44117 53.6138 7.39467 50.6113 5.72174C48.4784 4.53607 46.2143 3.67524 43.8681 3.02556C40.7507 2.16474 37.5678 1.70996 34.3192 1.82365C31.8089 1.90486 29.3315 2.27843 26.8704 2.81442C23.507 3.52907 20.4225 4.87715 17.502 6.59881C13.0721 9.21378 9.42978 12.6896 6.64059 16.9937C4.73738 19.9335 3.392 23.117 2.53884 26.4953C2.09585 28.2494 1.89897 30.0523 1.70208 31.8552C1.42316 34.3727 1.65286 36.874 1.91537 39.3752C2.14507 41.5029 2.85057 43.5332 3.55607 45.5634C4.95067 49.5427 7.21483 53.0023 9.9384 56.1695C12.0713 58.6545 14.6636 60.6685 17.502 62.3415C19.2412 63.381 21.0952 64.1768 22.9491 64.9564C23.2117 65.1513 23.6218 65.2488 23.4906 65.7036C23.4249 65.9472 23.4085 66.2883 22.9984 66.1259Z" fill="#EFF5F2"/>
<path d="M67.609 35.9157C67.5926 38.9529 67.2152 41.909 66.2636 44.8163C64.6886 49.6077 62.2439 53.8631 58.782 57.5501C57.8632 58.5246 56.8788 59.4179 55.8452 60.2625C55.5499 60.1975 55.5499 60.1975 55.7303 59.9214C53.7287 61.2695 51.8911 62.7962 49.6433 63.6408C48.8886 64.0794 48.0683 64.3717 47.2807 64.7453C47.1167 64.8103 46.9526 64.8265 46.7885 64.8103C46.6573 64.794 46.5424 64.7615 46.444 64.6641C46.4276 64.1931 46.8049 64.1119 47.1167 63.9819C49.6761 62.8612 52.0223 61.3994 54.2209 59.7103C54.4998 59.5316 54.6803 59.2068 55.0412 59.1418C55.9436 58.687 56.6491 58.0049 57.3874 57.3552C57.814 56.9816 57.3054 56.5268 57.5843 56.1695C58.6836 54.8539 59.8157 53.587 60.8001 52.1902C62.8674 49.2991 64.426 46.1644 65.4433 42.7698C65.9027 41.2593 66.1488 39.7326 66.4441 38.1896C66.5754 37.5399 66.9363 36.9389 66.9691 36.2568C67.1496 36.0456 67.2973 35.8345 67.609 35.9157Z" fill="#EFF5F2"/>
<path d="M47.9534 65.1026C45.4267 66.2396 42.7688 67.0192 40.0452 67.474C36.649 68.0424 33.2199 68.2211 29.8073 67.6526C29.2494 67.5552 28.6588 67.6039 28.1173 67.3927C27.9533 67.2791 27.7564 67.344 27.5759 67.3115C27.1001 67.2303 26.8376 67.0192 27.1329 66.5157C27.4611 66.3045 27.8056 66.3695 28.1666 66.4507C30.3815 66.938 32.6129 67.1978 34.877 67.1816C37.0592 67.1654 39.2085 66.873 41.3414 66.4507C42.0469 66.3208 42.818 66.3857 43.4415 65.8985C43.6056 65.801 43.786 65.7523 43.9665 65.7361C44.4915 65.8173 44.9345 65.4924 45.4267 65.4112C46.1322 65.2488 46.7557 64.8752 47.4448 64.6803C47.7073 64.5341 47.9698 64.4529 48.2651 64.5179C48.7574 65.0052 48.019 64.8915 47.9534 65.1026Z" fill="#EFF5F2"/>
<path d="M31.0706 0.83289C30.4636 1.25518 29.7581 1.09276 29.1018 1.20646C27.5923 1.45009 26.0829 1.75869 24.6227 2.2297C24.4258 2.29467 24.1961 2.26219 23.9336 2.29467C24.0156 2.06728 24.5898 1.7262 23.8351 1.77493C24.7703 1.23894 25.8204 1.07652 26.8376 0.83289C30.037 0.0857562 33.2856 -0.109148 36.567 0.0532722C38.142 0.11824 39.7171 0.313145 41.2594 0.800406C37.092 0.166966 32.941 0.11824 28.8557 0.946584C29.5612 1.19021 30.2995 0.670469 31.0706 0.83289Z" fill="#EFF5F2"/>
<path d="M67.691 28.7205C67.7567 29.5975 68.0684 30.4421 67.9864 31.3517C67.9535 31.644 68.0028 31.9364 67.6418 32.2287C67.7567 30.8482 67.4449 29.63 67.1824 28.3794C66.8215 27.8759 66.7886 27.2587 66.6574 26.7065C65.755 22.8733 64.2291 19.3326 62.0142 16.0679C61.7845 15.7431 61.5056 15.4182 61.522 14.9797C61.5712 14.8498 61.6533 14.7523 61.7845 14.7361C62.7689 15.808 63.4744 17.0749 64.1471 18.3418C65.3941 20.6482 66.3949 23.052 67.0183 25.5858C67.2809 26.6252 67.4777 27.681 67.691 28.7205Z" fill="#EFF5F2"/>
<path d="M47.9534 65.1026C47.8878 64.8265 48.4784 64.9564 48.2651 64.5991C48.5441 63.9332 49.2496 63.9494 49.7582 63.6733C49.9223 63.5921 50.1355 63.6408 50.2668 63.5271C50.0535 63.6084 49.8402 63.6896 49.6105 63.5271C51.0051 62.9424 52.2356 62.0816 53.499 61.2533C54.2209 60.7822 54.9264 60.295 55.6319 59.8077C55.878 59.8889 55.353 60.3275 55.8452 60.2787C53.4826 62.2928 50.8246 63.8845 47.9534 65.1026Z" fill="#EFF5F2"/>
<path d="M22.9984 66.1259C23.7695 65.801 23.3429 65.4762 22.9984 65.1513C23.0968 65.0377 23.2281 64.9889 23.3593 65.0377C23.9992 65.2975 24.6883 65.4275 25.361 65.6386C25.525 65.6873 25.6235 65.801 25.6891 65.9634C25.6891 65.9959 25.7055 66.0284 25.6891 66.0447C25.3118 66.3208 25.2789 66.3532 25.2789 66.7918C24.5242 66.5157 23.6546 66.6618 22.9984 66.1259Z" fill="#EFF5F2"/>
<path d="M61.7845 14.7523C61.7517 14.866 61.6861 14.9472 61.5548 14.9635C60.7016 14.6224 60.4884 13.6966 59.8649 13.1444C59.7008 12.9982 59.6024 12.8033 59.75 12.5759C59.7664 12.4784 59.7829 12.3972 59.7993 12.2998C60.6032 12.9982 61.1774 13.8752 61.7845 14.7523Z" fill="#EFF5F2"/>
<path d="M25.2625 66.7756C25.0985 66.5157 24.9344 66.2558 24.7539 65.9472C25.0821 65.9959 25.3774 66.0284 25.6563 66.0609C25.9516 65.866 26.1649 65.9797 26.3618 66.2071C26.5259 66.5482 26.3946 66.808 26.1157 67.0354C25.7876 67.1166 25.525 66.9542 25.2625 66.7756Z" fill="#EFF5F2"/>
<path d="M67.609 35.9157C67.4613 36.0294 67.3137 36.1268 67.166 36.2405C66.9035 35.9807 66.9199 35.7045 67.1168 35.4284C67.248 35.1198 66.9199 34.5026 67.3957 34.5026C67.8715 34.5026 67.5434 35.1198 67.6582 35.4284C67.6418 35.5746 67.6254 35.737 67.609 35.9157Z" fill="#EFF5F2"/>
<path d="M26.1157 67.0517C26.1649 66.808 26.2141 66.5482 26.2798 66.3045C26.4602 66.1259 26.6407 66.2558 26.8212 66.3045C26.9689 66.3695 27.1001 66.4507 27.1493 66.6131C27.0017 67.4415 27.8384 67.0679 28.1009 67.3765C27.3954 67.5552 26.8212 66.9705 26.1157 67.0517Z" fill="#EFF5F2"/>
<path d="M35.1888 0.784163C34.6309 0.784163 34.0567 0.784163 33.4988 0.784163C34.0567 0.540532 34.6145 0.556774 35.1888 0.784163Z" fill="#EFF5F2"/>
<path d="M39.9304 66.2883C42.1617 65.9472 44.2618 65.0864 46.4768 64.6478C46.5916 64.6478 46.7065 64.6641 46.8213 64.6641C46.8377 65.1189 46.3947 65.0539 46.1486 65.2001C45.9025 65.3463 45.6072 65.395 45.3447 65.5087C44.9017 65.6224 44.4751 65.7848 44.0321 65.931C43.8517 65.9472 43.6712 65.9472 43.5071 65.9634C43.3923 66.1908 43.1626 66.2233 42.9657 66.2558C41.9649 66.3857 41.0132 66.6781 40.0124 66.7918C39.6679 66.8243 39.3233 66.873 39.0608 66.5319C39.3397 66.2233 39.6679 66.4345 39.9304 66.2883Z" fill="#EFF5F2"/>
<path d="M56.8132 57.3389C57.0921 56.9654 57.3874 56.608 57.7812 56.3319C57.7484 56.4131 57.6828 56.5268 57.6992 56.5593C58.2734 57.3227 57.4531 57.5338 57.1249 57.8749C56.5671 58.4271 55.9928 59.0281 55.1725 59.2555C55.0576 58.8982 55.3037 58.7195 55.5499 58.5408C56.0092 58.1835 56.4522 57.7937 56.8132 57.3389Z" fill="#EFF5F2"/>
<path d="M56.8132 57.3389C56.8132 57.8749 56.321 58.0373 56.0421 58.3622C55.7631 58.6708 55.3037 58.8169 55.1725 59.2555C54.7951 59.2555 54.8279 59.8077 54.4506 59.7752C54.2865 59.759 54.1388 59.7427 53.8271 59.7265C54.8772 58.8494 55.7631 57.9886 56.8132 57.3389Z" fill="#EFF5F2"/>
<path d="M49.6105 63.5109C49.8238 63.5109 50.0371 63.5109 50.2832 63.5109C49.6269 63.9819 48.8394 64.0794 48.2651 64.5991C48.0026 64.6641 47.7401 64.7453 47.4776 64.8103C47.3956 64.7453 47.2807 64.729 47.2807 64.5991C47.9698 64.0794 48.8558 63.9332 49.6105 63.5109Z" fill="#EFF5F2"/>
<path d="M47.2643 64.5991C47.3299 64.6641 47.3956 64.7453 47.4612 64.8103C46.8049 65.0701 46.1322 65.33 45.476 65.5736C45.3939 65.5412 45.2955 65.5249 45.2791 65.4275C45.6892 64.9727 46.4276 65.1838 46.8049 64.6641C46.969 64.6316 47.1167 64.6154 47.2643 64.5991Z" fill="#EFF5F2"/>
<path d="M39.9304 66.2883C39.7007 66.3533 39.4874 66.4182 39.028 66.5482C40.7179 66.7106 42.0797 66.0934 43.5071 65.931C43.3759 66.5969 42.736 66.467 42.3422 66.5319C39.4054 67.0842 36.4521 67.5064 33.4332 67.344C31.612 67.2466 29.8073 67.1329 28.0353 66.6781C27.7564 66.6131 27.4447 66.6294 27.1493 66.6131C27.0017 66.5969 26.854 66.5806 26.7884 66.4182C27.9041 65.5412 29.069 66.272 30.201 66.3533C30.8081 66.3857 31.4316 66.5157 32.0386 66.5482C34.0075 66.6294 35.9763 66.7106 37.9451 66.5482C38.6178 66.5157 39.2249 66.0771 39.9304 66.2883Z" fill="#EFF5F2"/>
<path d="M45.2791 65.4275C45.3447 65.4762 45.4103 65.5249 45.476 65.5736C44.9837 65.6548 44.5736 66.0934 44.0321 65.9147C44.3111 65.4112 44.8689 65.6061 45.2791 65.4275Z" fill="#EFF5F2"/>
<path d="M35.9435 67.0517C36.1568 67.0841 36.3701 67.1004 36.5834 67.1329C36.5834 67.1654 36.5834 67.1816 36.5834 67.2141C35.2872 67.2141 33.9911 67.2141 32.6949 67.2141C32.6621 67.2141 32.6293 67.2141 32.6129 67.2141C32.498 67.0841 32.6785 67.1329 32.6949 67.0841C33.7778 66.938 34.8606 66.9705 35.9435 67.0517Z" fill="#EFF5F2"/>
<path d="M35.9435 67.0517C34.8606 67.0517 33.7778 67.0679 32.6949 67.0679C33.7778 66.7593 34.8606 66.8405 35.9435 67.0517Z" fill="#EFF5F2"/>
</svg>
