<svg width="69" height="56" viewBox="0 0 69 56" fill="none" xmlns="http://www.w3.org/2000/svg">
<g opacity="0.25">
<path d="M157.754 23.2939C157.489 23.152 157.401 23.1048 157.625 23.1112C158.119 23.036 154.85 20.0334 151.962 17.8024C147.846 14.6859 146.355 13.6585 135.543 6.94823C130.798 3.94773 126.446 1.27177 125.876 0.852648C125.042 0.291668 124.731 0.237924 124.772 0.373323C124.812 0.508723 124.677 0.549546 124.501 0.454975C124.325 0.360403 124.284 0.225004 124.466 0.0960626C124.561 -0.0801643 124.473 -0.12745 124.12 -0.316597C123.856 -0.458459 122.534 -1.16776 121.26 -1.96517C119.986 -2.76258 118.576 -3.51917 118.223 -3.70832C117.824 -3.80935 117.471 -3.9985 117.383 -4.04578C117.295 -4.09307 117.112 -3.96413 116.97 -3.69979C116.828 -3.43545 116.646 -3.30651 116.605 -3.4419C116.564 -3.5773 116.523 -3.71271 116.611 -3.66542C116.747 -3.70625 116.747 -3.70625 116.618 -3.88893C116.442 -3.98351 116.624 -4.11245 116.983 -4.14681L117.613 -4.26283L116.644 -4.78299C115.451 -5.3096 115.275 -5.40417 115.268 -5.18066C115.309 -5.04526 115.174 -5.00443 115.133 -5.13983C115.045 -5.18712 114.78 -5.32898 114.651 -5.51167C114.387 -5.65353 114.387 -5.65352 114.516 -5.47084C114.645 -5.28815 114.028 -5.61916 113.194 -6.18014C111.615 -7.25481 110.774 -7.59228 110.727 -7.50416C110.68 -7.41605 111.161 -7.04422 111.866 -6.66592C112.524 -6.19952 113.974 -5.30753 115.025 -4.51658C116.693 -3.39462 117.046 -3.20547 117.228 -3.33441C117.364 -3.37524 117.675 -3.32149 117.851 -3.22692C118.116 -3.08506 118.251 -3.12589 118.21 -3.26129C118.223 -3.70831 118.528 -3.43105 118.692 -2.88945C118.726 -2.53054 118.726 -2.53054 118.509 -2.76051C118.38 -2.9432 118.157 -2.94966 118.109 -2.86155C117.879 -2.64449 118.144 -2.50263 118.72 -2.30703C118.943 -2.30057 119.126 -2.42951 119.22 -2.60573C119.274 -2.91736 119.498 -2.9109 119.986 -2.76258C120.562 -2.56698 120.562 -2.56697 120.115 -2.57989C119.444 -2.59927 119.519 -2.10496 120.353 -1.54398C120.441 -1.4967 120.306 -1.45587 120.13 -1.55044C119.73 -1.65147 119.818 -1.60419 120.211 -1.27964C120.781 -0.860523 120.733 -0.77241 120.016 -0.703675C119.521 -0.628482 119.433 -0.675768 119.399 -1.03468C119.317 -1.30548 119.317 -1.30548 119.134 -1.17654C119.04 -1.00031 118.904 -0.959487 118.776 -1.14217C118.687 -1.18946 118.43 -1.55483 118.172 -1.92021C117.826 -2.33287 117.561 -2.47473 117.426 -2.4339C117.29 -2.39307 115.752 -3.33235 113.643 -4.69074C109.515 -7.36024 108.281 -8.02225 108.316 -7.66333C107.768 -7.27651 107.592 -7.37109 107.334 -7.73646C107.076 -8.10183 106.859 -8.33181 106.811 -8.24369C106.717 -8.06747 105.178 -9.00674 101.836 -11.0271C100.65 -11.7773 99.6807 -12.2974 99.6334 -12.2093C99.5862 -12.1212 99.4099 -12.2158 99.1456 -12.3576C97.8712 -13.155 96.1089 -14.1008 95.8854 -14.1072C95.6146 -14.0256 92.8014 -15.7623 92.7198 -16.0331C92.55 -16.3512 91.6689 -16.824 91.2218 -16.8369C90.9983 -16.8434 90.4224 -17.039 89.941 -17.4108C87.6092 -18.7757 84.9658 -20.1943 84.6542 -20.248C84.4306 -20.2545 83.1089 -20.9638 81.7464 -21.8085C79.2384 -23.2679 77.8759 -24.1126 75.6258 -25.2067C75.009 -25.5377 74.216 -25.9633 73.7754 -26.1997C73.3348 -26.4361 71.925 -27.1927 70.5625 -28.0374C69.1999 -28.8821 67.485 -29.9159 66.6038 -30.3888C64.6653 -31.4291 64.2721 -31.7537 64.0615 -32.2072C63.9798 -32.478 63.6274 -32.6671 62.6581 -33.1873C61.5126 -33.802 61.3364 -33.8966 61.6545 -34.0663C61.7899 -34.1071 61.8845 -34.2834 61.7082 -34.3779C61.6201 -34.4252 61.3966 -34.4317 61.302 -34.2555C61.0248 -33.9503 59.8793 -34.565 59.6279 -35.1539C59.4581 -35.472 59.4581 -35.472 59.5398 -35.2012C59.5333 -34.9777 59.5333 -34.9777 59.2754 -35.3431C59.1057 -35.6611 59.0175 -35.7084 58.8821 -35.6676C58.8349 -35.5795 58.4351 -35.6805 58.0418 -36.0051C57.6013 -36.2415 57.0726 -36.5252 56.8491 -36.5317C56.5375 -36.5854 56.4493 -36.6327 56.5847 -36.6735C56.6793 -36.8498 56.5912 -36.8971 55.9679 -37.0045C55.5682 -37.1056 55.0803 -37.2539 54.9922 -37.3012C54.816 -37.3958 54.5044 -37.4495 54.1928 -37.5033C53.7457 -37.5162 53.7457 -37.5162 54.0165 -37.5978C54.2873 -37.6795 54.2465 -37.8149 54.023 -37.8213C53.447 -38.0169 53.217 -37.7999 53.5158 -37.2991C53.6855 -36.981 53.6382 -36.8929 53.2793 -36.8586C52.8323 -36.8715 52.8323 -36.8715 52.7979 -37.2304C52.7636 -37.5893 52.2757 -37.7376 52.0457 -37.5206C51.9984 -37.4325 52.0328 -37.0735 52.2026 -36.7555C52.3723 -36.4374 52.3659 -36.2139 52.1897 -36.3084C52.0134 -36.403 51.878 -36.3622 51.9189 -36.2268C51.9597 -36.0914 51.547 -35.7454 51.0935 -35.5348C50.5047 -35.2834 50.2747 -35.0663 50.3563 -34.7955C50.4788 -34.3893 49.7889 -33.7381 49.4837 -34.0154C49.2667 -34.2454 49.084 -34.1164 48.8067 -33.8113C48.7594 -33.7232 48.9357 -33.6286 49.2881 -33.4394C49.7287 -33.203 49.8168 -33.1557 49.3698 -33.1686C48.9227 -33.1816 48.8755 -33.0934 49.2687 -32.7689C49.4858 -32.5389 49.6147 -32.3562 49.4793 -32.3154C49.3439 -32.2746 49.0323 -32.3283 48.9034 -32.511C48.5982 -32.7883 48.6863 -32.741 48.7615 -32.2467C48.884 -31.8405 48.9248 -31.7051 48.6132 -31.7588C48.3897 -31.7653 48.1189 -31.6836 47.977 -31.4193C47.6525 -31.026 47.6525 -31.026 48.1941 -31.1893C48.4649 -31.271 48.6884 -31.2645 48.8646 -31.1699C49.0408 -31.0754 48.5401 -30.7767 48.093 -30.7896C47.8695 -30.796 47.9104 -30.6606 48.2155 -30.3834C48.4326 -30.1534 48.5615 -29.9707 48.5142 -29.8826C48.4669 -29.7945 48.5551 -29.7472 48.8667 -29.6935C49.4899 -29.586 49.5716 -29.3152 49.03 -29.1519C48.6238 -29.0294 48.5292 -28.8532 48.699 -28.5351C48.7806 -28.2643 48.7742 -28.0408 48.4153 -28.0064C48.1917 -28.0128 48.0091 -27.8839 48.0499 -27.7485C48.0907 -27.6131 47.9553 -27.5723 47.7791 -27.6669C47.1558 -27.7743 47.3256 -27.4563 48.0778 -27.1661C48.5184 -26.9296 48.7827 -26.7878 48.7354 -26.6997C48.5054 -26.4826 49.0147 -25.5284 49.4553 -25.2919C49.6315 -25.1973 50.0313 -25.0963 50.3429 -25.0426C50.7899 -25.0296 50.9662 -24.9351 51.224 -24.5697C51.4819 -24.2043 51.6581 -24.1098 51.7935 -24.1506C52.1116 -24.3204 52.6339 -23.8131 52.3158 -23.6434C52.1331 -23.5144 52.0858 -23.4263 52.3501 -23.2844C52.5264 -23.1899 52.6553 -23.0072 52.608 -22.9191C52.5134 -22.7428 52.6016 -22.6956 55.245 -21.277C56.038 -20.8514 57.0072 -20.3312 57.3124 -20.054C57.7938 -19.6821 57.8819 -19.6348 58.1527 -19.7165C58.6062 -19.9271 59.0876 -19.5553 59.5561 -18.7364C59.9364 -17.9648 59.8891 -17.8767 59.4486 -18.1131C58.8318 -18.4441 58.3847 -18.4571 57.9721 -18.1111C57.6475 -17.7178 57.6475 -17.7178 58.3116 -17.4749C58.7114 -17.3739 59.1111 -17.2728 59.1584 -17.3609C59.2057 -17.4491 59.5581 -17.2599 59.9106 -17.0708C60.392 -16.6989 60.6155 -16.6925 60.7982 -16.8214C61.2108 -17.1674 61.6514 -16.931 62.1263 -16.3356C62.3842 -15.9703 62.6486 -15.8284 62.8248 -15.7338C63.448 -15.6263 64.7697 -14.917 64.8514 -14.6462C64.8922 -14.5108 65.1093 -14.2809 65.4209 -14.2271C65.6852 -14.0853 66.2612 -13.8896 66.5255 -13.7478C66.7899 -13.6059 68.247 -12.9375 69.7449 -12.1336C71.2428 -11.3297 72.7881 -10.6139 73.1405 -10.4248C73.6692 -10.1411 73.8454 -10.0465 73.6627 -9.91757C73.5682 -9.74134 73.1684 -9.84238 72.7279 -10.0788C71.3589 -10.7 70.4713 -10.9493 70.4648 -10.7258C70.4175 -10.6377 70.1467 -10.5561 69.8351 -10.6098C69.3472 -10.7581 69.2591 -10.8054 69.4418 -10.9344C69.5837 -11.1987 69.5837 -11.1987 69.0894 -11.1235C68.8658 -11.13 68.5069 -11.0956 68.378 -11.2783C68.2018 -11.3729 68.0664 -11.332 68.0126 -11.0204C67.8708 -10.7561 67.8708 -10.7561 67.7891 -11.0269C67.6666 -11.4331 66.1214 -12.1488 66.1558 -11.7899C66.1493 -11.5664 65.3498 -11.7685 64.4279 -12.3767C64.1635 -12.5186 63.5876 -12.7142 63.1878 -12.8152C62.7881 -12.9163 61.7243 -13.2602 60.7958 -13.6449C59.8674 -14.0297 59.1152 -14.3199 59.0679 -14.2318C58.9734 -14.0555 59.3258 -13.8664 59.6847 -13.9008C59.8201 -13.9416 60.0845 -13.7997 60.3015 -13.5697C60.5186 -13.3398 60.7829 -13.1979 60.9183 -13.2387C61.1891 -13.3204 62.3281 -12.4822 62.1455 -12.3532C62.0509 -12.177 59.0636 -12.5318 58.4468 -12.8628C57.3421 -13.3421 56.8951 -13.355 57.1938 -12.8542C57.3227 -12.6716 57.3636 -12.5362 57.1873 -12.6307C57.0111 -12.7253 56.8413 -13.0434 56.7124 -13.2261C56.5899 -13.6323 56.5018 -13.6796 56.1837 -13.5098C55.9129 -13.4281 55.8248 -13.4754 55.7432 -13.7462C55.4315 -13.8 55.0791 -13.9891 54.1034 -14.2858C53.4393 -14.5287 52.6398 -14.7307 52.5109 -14.9134C52.3346 -15.008 52.0703 -15.1498 51.9349 -15.109C51.7995 -15.0682 51.5352 -15.21 51.2708 -15.3519C51.0065 -15.4938 50.8303 -15.5883 50.8238 -15.3648C50.8646 -15.2294 50.7765 -15.2767 50.6884 -15.324C50.3424 -15.7367 49.5429 -15.9387 48.8659 -15.7346C48.4597 -15.6121 48.2362 -15.6186 48.1954 -15.754C48.2427 -15.8421 48.4253 -15.971 48.6016 -15.8765C49.3129 -15.7217 47.4153 -16.6266 46.1279 -16.977C45.3285 -17.179 44.9287 -17.2801 44.9223 -17.0565C44.9631 -16.9211 44.7396 -16.9276 44.4752 -17.0695C44.2109 -17.2113 44.1701 -17.3467 44.3055 -17.3876C44.4409 -17.4284 44.4881 -17.5165 44.4881 -17.5165C44.3119 -17.6111 42.4959 -18.2452 40.321 -18.8449C38.5458 -19.3436 34.1337 -21.4844 30.968 -23.4103C28.3719 -24.917 27.667 -25.2953 27.22 -25.3082C26.6848 -25.3684 26.4205 -25.5103 26.7386 -25.68C26.9213 -25.809 26.7451 -25.9035 25.8231 -26.5118C25.1182 -26.8901 24.7249 -27.2146 24.9484 -27.2082C25.1719 -27.2017 25.26 -27.1544 25.1311 -27.3371C24.914 -27.5671 24.467 -27.58 24.5014 -27.2211C24.5422 -27.0857 24.9355 -26.7612 25.3761 -26.5247C25.8166 -26.2883 26.1218 -26.011 26.0745 -25.9229C26.0272 -25.8348 25.9391 -25.8821 25.7629 -25.9767C25.7221 -26.1121 25.4985 -26.1185 25.3631 -26.0777C24.9569 -25.9552 25.3846 -25.2718 26.3474 -24.5281C27.005 -24.0617 26.9577 -23.9736 26.558 -24.0746C26.2463 -24.1283 26.1109 -24.0875 26.1518 -23.9521C26.1926 -23.8167 25.9347 -24.1821 25.636 -24.6829C24.9913 -25.5963 24.9913 -25.5963 24.9376 -25.2847C24.9311 -25.0612 24.7957 -25.0203 24.7076 -25.0676C24.4905 -25.2976 24.2541 -24.857 24.3766 -24.4508C24.4174 -24.3154 24.2347 -24.1865 23.8758 -24.1521C23.5169 -24.1178 23.3342 -23.9888 23.4632 -23.8061C23.5448 -23.5353 23.5448 -23.5353 23.2805 -23.6772C23.1042 -23.7718 22.9688 -23.7309 22.9216 -23.6428C22.8743 -23.5547 22.7797 -23.3785 22.6443 -23.3377C22.4616 -23.2087 22.4616 -23.2087 22.38 -23.4795C22.2983 -23.7503 22.1629 -23.7095 21.6213 -23.5462C21.2151 -23.4237 20.7208 -23.3485 20.4564 -23.4904C19.9686 -23.6387 19.5559 -23.2927 19.9084 -23.1035C20.0846 -23.009 20.1254 -22.8736 20.0782 -22.7855C20.0309 -22.6973 19.7665 -22.8392 19.4614 -23.1165C18.8037 -23.5829 18.6683 -23.542 18.8725 -22.865C18.9949 -22.4588 18.9949 -22.4588 19.0014 -22.6824C19.0079 -22.9059 19.1433 -22.9467 19.3195 -22.8521C19.4076 -22.8048 19.4893 -22.534 19.3474 -22.2697C19.1583 -21.9172 19.2872 -21.7346 19.5988 -21.6808C19.9986 -21.5798 19.9513 -21.4917 19.6332 -21.3219C19.3151 -21.1521 19.3559 -21.0167 19.919 -20.3741C20.482 -19.7315 20.5229 -19.5961 20.1639 -19.5617C19.7577 -19.4392 19.7577 -19.4392 20.4218 -19.1963C21.2621 -18.8589 21.5673 -18.5816 20.7678 -18.7837C20.4562 -18.8374 20.2327 -18.8439 20.1789 -18.5322C20.0779 -18.1325 19.8136 -18.2744 19.5621 -18.8632C19.3515 -19.3167 19.3515 -19.3167 19.0743 -19.0116C18.9797 -18.8353 18.8378 -18.571 19.0141 -18.4764C19.0549 -18.341 19.0957 -18.2056 18.9603 -18.1648C18.8249 -18.124 18.6487 -18.2185 18.567 -18.4893C18.2683 -18.9901 17.9094 -18.9557 18.12 -18.5023C18.2017 -18.2315 18.5068 -17.9542 18.7304 -17.9477C19.1709 -17.7113 19.2526 -17.4405 18.8528 -17.5415C18.7647 -17.5888 18.8528 -17.5415 19.0291 -17.447C19.2053 -17.3524 19.5986 -17.0278 19.9037 -16.7506C20.3378 -16.2906 20.3787 -16.1552 19.9252 -15.9446C19.4717 -15.7341 18.4487 -15.9426 16.5446 -16.624C16.0567 -16.7723 15.8332 -16.7788 16.0094 -16.6842C16.1857 -16.5896 16.2265 -16.4542 16.0911 -16.4134C15.9557 -16.3726 15.9965 -16.2372 16.0846 -16.1899C16.2609 -16.0953 16.1255 -16.0545 15.6784 -16.0674C14.8252 -15.9578 14.5071 -15.7881 14.4125 -15.6118C14.318 -15.4356 14.1826 -15.3948 13.8774 -15.672C13.5722 -15.9493 13.2606 -16.003 12.949 -16.0568C12.5901 -16.0224 12.4138 -16.117 12.2849 -16.2997C12.2032 -16.5705 12.027 -16.6651 11.6273 -16.7661C11.3157 -16.8198 10.8751 -17.0563 10.7461 -17.239C10.441 -17.5162 10.3937 -17.4281 10.3464 -17.34C10.3399 -17.1165 10.2518 -17.1638 10.1229 -17.3464C9.99395 -17.5291 9.85855 -17.4883 9.67586 -17.3594C9.58129 -17.1831 9.62212 -17.0477 9.71023 -17.0005C9.88646 -16.9059 10.0627 -16.8113 10.2389 -16.7167C10.3206 -16.4459 10.2733 -16.3578 10.0971 -16.4524C9.87354 -16.4589 9.77896 -16.2826 9.85416 -15.7883C9.97018 -15.1586 9.92289 -15.0705 9.52315 -15.1715C8.94718 -15.3671 8.80532 -15.1028 9.38129 -14.9072C9.64563 -14.7653 9.90997 -14.6235 9.9508 -14.4881C9.99162 -14.3527 9.85623 -14.3118 9.59189 -14.4537C9.41566 -14.5483 9.23943 -14.6428 9.28026 -14.5074C9.32108 -14.372 9.18568 -14.3312 9.00946 -14.4258C8.83323 -14.5204 8.74512 -14.5676 8.9278 -14.6966C8.97509 -14.7847 8.93426 -14.9201 8.75804 -15.0147C8.58181 -15.1092 8.44641 -15.0684 8.48724 -14.933C8.52806 -14.7976 8.30455 -14.8041 7.99292 -14.8578C7.58672 -14.7353 7.58672 -14.7353 8.02083 -14.2754C8.71928 -13.6736 8.57742 -13.4093 7.87897 -14.0111C7.26864 -14.5656 6.55727 -14.7204 6.90326 -14.3077C7.0322 -14.125 7.07303 -13.9896 6.84952 -13.9961C6.71412 -13.9552 6.49706 -14.1852 6.41541 -14.456C6.28647 -14.6387 6.28001 -14.4152 6.40249 -14.009C6.64099 -12.9731 6.3981 -12.309 5.97045 -12.9925C5.80068 -13.3105 5.71257 -13.3578 5.618 -13.1816C5.57071 -13.0935 5.61154 -12.9581 5.82859 -12.7281C6.17458 -12.3155 5.80275 -11.8341 5.32136 -12.2059C5.14513 -12.3005 4.88079 -12.4423 4.74539 -12.4015C4.60999 -12.3607 4.82704 -12.1307 5.35572 -11.847C6.14874 -11.4214 6.23686 -11.3741 5.73608 -11.0754C5.32342 -10.7294 5.49319 -10.4113 5.98751 -10.4865C6.12291 -10.5273 6.29913 -10.4328 6.4689 -10.1147C6.55055 -9.84389 6.81489 -9.70203 6.90301 -9.65474C7.03841 -9.69557 7.07923 -9.56017 7.03195 -9.47205C6.98466 -9.38394 6.76115 -9.3904 6.67303 -9.43769C6.58492 -9.48497 6.36141 -9.49143 6.31412 -9.40332C6.21955 -9.2271 7.32419 -8.74777 7.50688 -8.87671C7.64228 -8.91753 7.81851 -8.82296 7.99473 -8.72839C8.65236 -8.26198 7.8937 -8.32865 6.74177 -8.71986C5.41361 -9.20565 4.91929 -9.13045 5.52963 -8.57593C5.8348 -8.29867 5.87562 -8.16327 5.56399 -8.21702C5.34048 -8.22348 5.15779 -8.09454 5.19862 -7.95914C5.23945 -7.82374 5.41568 -7.72917 5.63919 -7.72271C5.8627 -7.71624 6.35056 -7.56793 6.79112 -7.33149C8.02471 -6.66948 8.06554 -6.53408 7.74745 -6.36432C7.47665 -6.28266 7.47019 -6.05915 7.68079 -5.60566C7.97303 -4.88137 8.23737 -4.73951 8.69086 -4.95011C8.87355 -5.07905 8.82626 -4.99094 8.73169 -4.81471C8.50171 -4.59765 8.2782 -4.60411 8.01386 -4.74597C7.74952 -4.88783 7.57329 -4.98241 7.52601 -4.89429C7.38415 -4.62995 7.11335 -4.5483 6.76089 -4.73745C6.49655 -4.87931 6.36115 -4.83848 6.40198 -4.70308C6.39552 -4.47956 6.30094 -4.30334 6.25366 -4.21522C6.15908 -4.039 6.15908 -4.039 6.518 -4.07336C6.87691 -4.10773 6.87691 -4.10773 7.04668 -3.78964C7.12833 -3.51884 7.12833 -3.51885 7.27019 -3.78319C7.36477 -3.95941 7.45934 -4.13564 7.63557 -4.04107C7.81179 -3.94649 7.89991 -3.89921 7.80533 -3.72298C7.71076 -3.54675 7.79887 -3.49947 8.23944 -3.26303C8.72729 -3.11471 8.76812 -2.97931 8.45649 -3.03306C8.09758 -2.99869 8.27381 -2.90412 9.10766 -2.34314C10.0769 -1.82299 10.0769 -1.82299 10.3133 -2.26355C10.5025 -2.61601 10.6379 -2.65683 10.8549 -2.42686C11.1193 -2.285 11.1128 -2.06149 10.8828 -1.84444C10.7002 -1.7155 10.6937 -1.49198 10.6937 -1.49198C11.2224 -1.20826 11.3513 -1.02557 11.0332 -0.855806C10.7624 -0.774152 10.8505 -0.726868 11.0741 -0.720407C11.2976 -0.713946 11.5211 -0.707485 11.65 -0.5248C11.9079 -0.159426 12.3141 -0.281909 12.2797 -0.640822C12.2389 -0.776221 12.2454 -0.999734 12.2454 -0.999734C12.2927 -1.08785 12.2045 -1.13514 12.1164 -1.18242C11.8521 -1.32428 11.5598 -2.04857 11.6544 -2.22479C11.749 -2.40102 11.8371 -2.35373 12.0069 -2.03565C12.1358 -1.85296 12.441 -1.5757 12.7053 -1.43384C13.1932 -1.28552 13.1459 -1.19741 12.8686 -0.892242C12.4495 -0.322734 12.6601 0.130752 13.6293 0.650904C14.0699 0.887338 14.4224 1.07648 14.3751 1.1646C14.3278 1.25271 14.2805 1.34082 14.274 1.56434C14.2676 1.78785 14.4438 1.88243 15.426 1.95555C16.7198 2.08242 17.1195 2.18345 16.8423 2.48862C16.7477 2.66485 16.7477 2.66485 17.0593 2.7186C17.2828 2.72506 17.5063 2.73151 17.5945 2.7788C18.3875 3.20438 19.0107 3.31187 19.3288 3.14211C19.7823 2.93151 20.1283 3.34417 19.98 3.83203C19.8789 4.23177 19.8789 4.23177 20.1497 4.15011C20.2851 4.10929 20.6441 4.07492 20.773 4.25761C20.9492 4.35218 21.1727 4.35864 21.2673 4.18241C21.3619 4.00618 21.4092 3.91807 21.0503 3.95244C20.7795 4.03409 20.6913 3.98681 20.7859 3.81058C21.0159 3.59353 21.7681 3.8837 21.8024 4.24262C21.8433 4.37802 21.7487 4.55424 21.566 4.68318C21.4306 4.72401 21.3833 4.81213 21.4714 4.85941C21.6068 4.81859 21.8304 4.82505 21.8776 4.73693C22.1076 4.51988 23.049 4.4576 22.8663 4.58654C22.819 4.67466 22.8598 4.81006 22.9952 4.76923C23.0833 4.81652 23.2595 4.91109 23.2123 4.9992C23.165 5.08732 23.5583 5.41186 23.9515 5.73641C24.3448 6.06095 24.8262 6.43279 24.867 6.56819C24.996 6.75088 25.1722 6.84545 25.3076 6.80463C25.443 6.7638 25.5376 6.58757 25.3205 6.3576C25.0626 5.99222 25.0626 5.99222 25.4624 6.09326C25.6386 6.18783 25.903 6.32969 25.9438 6.46509C25.9781 6.824 26.5949 7.15501 26.8249 6.93795C26.8722 6.84984 27.0957 6.8563 27.2247 7.03899C27.3536 7.22167 27.5771 7.22813 27.6244 7.14002C27.6717 7.05191 27.8479 7.14648 28.065 7.37645C28.411 7.78911 28.411 7.78911 28.7355 7.39583C29.0128 7.09066 29.1482 7.04984 29.2298 7.32064C29.3588 7.50333 29.3523 7.72684 29.305 7.81496C28.9332 8.29635 28.974 8.43175 29.3265 8.62089C29.5027 8.71547 29.7735 8.63381 29.8208 8.5457C29.7799 8.4103 30.0035 8.41676 30.1797 8.51133C30.3559 8.60591 30.5794 8.61237 30.7621 8.48343C30.8567 8.3072 30.9448 8.35449 30.9856 8.48989C31.1081 8.89609 33.0466 9.93639 33.9407 9.96223C34.8347 9.98807 35.445 10.5426 34.768 10.7467C34.1383 10.8627 34.091 10.9509 34.8841 11.3764C35.3246 11.6129 35.5417 11.8428 35.359 11.9718C35.3117 12.0599 35.1763 12.1007 35.1355 11.9653C35.0947 11.8299 34.9593 11.8708 34.912 11.9589C34.8647 12.047 34.9936 12.2297 35.3461 12.4188C35.6985 12.608 35.922 12.6144 36.1047 12.4855C36.1993 12.3093 36.5109 12.363 36.9515 12.5994C37.304 12.7886 37.7037 12.8896 37.7037 12.8896C37.751 12.8015 37.9272 12.8961 38.1915 13.0379C38.4559 13.1798 38.8965 13.4162 39.1608 13.5581C39.6486 13.7064 39.6895 13.8418 39.5949 14.018C39.3649 14.2351 39.6293 14.3769 40.5577 14.7617C41.3572 14.9638 42.0621 15.3421 42.5026 15.5785C43.3838 16.0514 44.007 16.1588 44.0672 15.6237C44.121 15.3121 44.9678 15.426 45.4964 15.7098C45.6727 15.8043 45.6662 16.0278 45.5716 16.2041C45.2471 16.5973 45.9993 16.8875 47.076 16.7844C47.5703 16.7092 47.882 16.763 47.9701 16.8103C48.0582 16.8575 48.4106 17.0467 48.7631 17.2358C49.2509 17.3842 49.4272 17.4787 49.3799 17.5668C49.3326 17.655 49.1564 17.5604 48.892 17.4185C48.6277 17.2767 48.5396 17.2294 48.5804 17.3648C48.6212 17.5002 48.9737 17.6893 49.4615 17.8376C50.39 18.2224 51.3936 19.1015 50.9401 19.3121C50.8047 19.3529 50.7574 19.441 50.9809 19.4475C51.1571 19.542 51.2453 19.5893 51.0626 19.7183C51.0153 19.8064 51.0561 19.9418 51.1442 19.9891C51.3204 20.0836 51.415 19.9074 51.415 19.9074C51.3807 19.5485 52.3628 19.6216 52.9323 20.0407C53.3729 20.2772 53.5491 20.3717 53.7383 20.0193L53.9274 19.6668L53.9145 20.1139C53.9016 20.5609 54.6 21.1627 54.6129 20.7157C54.6194 20.4922 54.7075 20.5394 55.06 20.7286C55.3243 20.8704 55.5887 21.0123 55.8122 21.0188C56.2592 21.0317 56.5579 21.5325 56.3279 21.7495C56.1925 21.7903 56.2334 21.9257 56.3623 22.1084C56.4504 22.1557 56.762 22.2095 56.992 21.9924C57.4928 21.6937 57.4455 21.7818 57.3315 22.6286C57.2305 23.0283 57.7184 23.1766 57.9956 22.8715C58.2729 22.5663 58.361 22.6136 58.8424 22.9854C59.2357 23.31 59.7235 23.4583 60.2587 23.5185C60.7938 23.5787 61.2344 23.8151 61.4987 23.957C61.8039 24.2343 61.9801 24.3288 62.2509 24.2472C62.3863 24.2064 62.6979 24.2601 63.0504 24.4492C63.3147 24.5911 63.5791 24.733 63.6264 24.6449C63.6736 24.5567 63.8499 24.6513 64.0261 24.7459C64.155 24.9286 64.5956 25.165 64.9953 25.266C65.3951 25.3671 65.7002 25.6443 65.653 25.7324C65.7346 26.0032 66.5685 26.5642 66.663 26.388C66.7103 26.2999 66.8866 26.3945 66.9682 26.6653C67.138 26.9833 67.2261 27.0306 67.2325 26.8071C67.239 26.5836 67.4625 26.5901 68.032 27.0092C68.7369 27.3875 68.7369 27.3875 68.4318 27.1102C68.1266 26.833 68.1739 26.7448 68.5263 26.934C68.7907 27.0759 68.9196 27.2585 68.9132 27.482C68.9067 27.7056 69.171 27.8474 69.7878 28.1784C70.4927 28.5567 70.669 28.6513 70.656 29.0983C70.6904 29.4572 70.7312 29.5926 70.8731 29.3283C71.0622 28.9758 72.255 29.5024 72.4183 30.0441C72.5408 30.4503 73.3338 30.8758 73.2994 30.5169C73.2586 30.3815 73.4348 30.4761 73.74 30.7534C74.0452 31.0306 74.3976 31.2198 74.6684 31.1381C74.8919 31.1446 75.2036 31.1983 75.3798 31.2929C75.556 31.3875 75.5088 31.4756 75.2444 31.3337C75.0209 31.3273 74.8855 31.3681 75.0617 31.4626C75.1025 31.598 75.4142 31.6518 75.5023 31.6991C75.6377 31.6583 75.8139 31.7528 75.9429 31.9355C76.1126 32.2536 76.3426 32.0366 76.6736 31.4198C76.7209 31.3316 76.1514 30.9125 75.4465 30.5342C74.7888 30.0678 74.1721 29.7368 74.1312 29.6014C74.0217 28.7482 74.0281 28.5247 74.1635 28.4839C74.2516 28.5311 74.3398 28.5784 74.3333 28.8019C74.3204 29.249 75.1134 29.6745 75.6958 29.6466C76.0547 29.6123 76.1428 29.6596 76.3126 29.9776C76.3943 30.2484 76.3943 30.2484 76.2653 30.0658C76.1364 29.8831 76.0483 29.8358 76.001 29.9239C75.9537 30.012 76.0826 30.1947 76.347 30.3366C76.8757 30.6203 77.0111 30.5794 76.8005 30.126C76.6307 29.8079 76.7188 29.8552 77.8235 30.3345C78.264 30.5709 78.5627 31.0717 78.4209 31.336C78.3736 31.4241 78.1501 31.4177 78.062 31.3704C77.8857 31.2758 77.8449 31.1404 77.9803 31.0996C78.0276 31.0115 77.8514 30.9169 77.6751 30.8223C77.2819 30.4978 76.9638 30.6676 77.3162 30.8567C77.8449 31.1404 77.8857 31.2758 77.486 31.1748C77.1744 31.121 77.039 31.1619 77.1679 31.3446C77.2087 31.48 77.4323 31.4864 77.6558 31.4929C78.1974 31.3296 79.1129 32.1614 79.1408 32.7438C79.1343 32.9673 79.0333 33.367 78.9387 33.5433C78.7023 33.9838 79.2245 34.4911 80.1121 34.7404L80.9116 34.9425L80.3012 34.388C79.908 34.0634 79.6909 33.8334 79.7382 33.7453C79.8328 33.5691 80.8901 34.1365 81.5477 34.6029C82.1173 35.0221 82.2054 35.0694 82.0829 34.6632C82.0958 34.2161 82.5901 34.1409 82.6653 34.6352C82.6997 34.9942 83.0521 35.1833 83.2821 34.9663C83.3294 34.8781 83.5529 34.8846 83.7291 34.9792C83.9054 35.0737 84.1289 35.0802 84.2643 35.0394C84.3588 34.8632 84.5351 34.9577 84.5759 35.0931C84.7048 35.2758 84.5694 35.3166 84.0343 35.2564L83.2756 35.1898L83.9397 35.4327C84.5157 35.6283 84.4684 35.7164 84.1976 35.798C84.0149 35.927 83.9204 36.1032 84.0085 36.1505C84.1374 36.3332 84.2728 36.2923 84.3201 36.2042C84.3674 36.1161 84.6317 36.258 85.1131 36.6298C85.7707 37.0962 85.7707 37.0962 85.3366 36.6363C84.5973 35.8991 85.0917 35.8239 86.1017 36.4794C86.6712 36.8985 86.8475 36.9931 87.0302 36.8642C87.0774 36.7761 87.0839 36.5525 87.0431 36.4171C86.7852 36.0518 87.3203 36.112 87.6255 36.3892C87.7544 36.5719 87.7953 36.7073 87.5718 36.7009C87.3482 36.6944 87.4364 36.7417 87.748 36.7954C87.9715 36.8019 88.5475 36.9975 88.8118 37.1394C89.1643 37.3285 89.564 37.4296 89.6521 37.4768C90.011 37.4425 90.5741 38.0851 90.256 38.2549C90.1206 38.2957 90.1141 38.5192 90.3785 38.6611C90.5955 38.891 90.6428 38.8029 90.7374 38.6267C90.6966 38.4913 90.8792 38.3624 90.9674 38.4096C91.0555 38.4569 91.1844 38.6396 91.1371 38.7277C91.0898 38.8158 91.3069 39.0458 91.5712 39.1877C91.7883 39.4177 92.0053 39.6476 92.0462 39.783C92.087 39.9184 92.2224 39.8776 92.4524 39.6605C92.7296 39.3554 92.865 39.3146 93.4345 39.7337C93.8751 39.9701 94.004 40.1528 93.8214 40.2817C93.686 40.3226 93.7268 40.458 93.8149 40.5052C93.9911 40.5998 94.0792 40.6471 94.1265 40.559C94.1738 40.4709 94.6208 40.4838 95.0206 40.5848C95.4203 40.6859 95.7319 40.7396 95.5084 40.7331C95.1022 40.8556 96.1596 41.4231 96.742 41.3952C96.9655 41.4016 97.4534 41.5499 97.7177 41.6918C97.9821 41.8337 98.2937 41.8874 98.5172 41.8939C98.8288 41.9476 98.4356 41.6231 96.8968 40.6838C95.4462 39.7918 94.9648 39.42 95.1474 39.291C95.242 39.1148 95.4182 39.2094 95.8588 39.4458C95.9469 39.4931 96.1704 39.4996 96.3058 39.4587C96.5766 39.3771 96.6175 39.5125 96.8753 39.8779C97.0043 40.0605 97.2213 40.2905 97.3567 40.2497C97.4921 40.2089 97.9327 40.4453 98.2852 40.6344C98.6376 40.8236 99.1255 40.9719 99.349 40.9784C99.8433 40.9032 99.6262 40.6732 98.6914 40.512C97.8919 40.3099 97.8038 40.2626 97.7694 39.9037C97.735 39.5448 97.735 39.5448 97.6813 39.8564C97.6275 40.168 97.4513 40.0735 96.5831 39.1536C96.2779 38.8763 96.2779 38.8763 96.2715 39.0998C96.3123 39.2352 96.265 39.3233 96.1361 39.1407C96.0952 39.0053 96.1017 38.7817 96.3725 38.7001C96.6906 38.5303 96.6025 38.483 96.1619 38.2466C95.4978 38.0037 95.2872 37.5502 95.9513 37.7931C96.6154 38.036 97.5374 38.6443 97.2666 38.7259C97.1312 38.7667 97.2601 38.9494 97.389 39.1321C97.6061 39.3621 97.8704 39.504 98.0058 39.4631C98.2293 39.4696 100.073 40.6861 100.331 41.0515C100.46 41.2342 100.731 41.1525 100.873 40.8882C100.967 40.712 101.361 41.0365 101.354 41.26C101.348 41.4835 101.348 41.4835 101.53 41.3546C101.76 41.1375 102.154 41.4621 102.012 41.7264C101.782 41.9435 102.175 42.268 102.581 42.1455C102.717 42.1047 103.069 42.2939 103.333 42.4357C103.598 42.5776 103.774 42.6722 103.645 42.4895C103.475 42.1714 103.712 41.7308 104.017 42.0081C104.058 42.1435 104.01 42.2316 103.875 42.2724C103.74 42.3132 103.828 42.3605 104.18 42.5497C104.533 42.7388 104.709 42.8334 104.485 42.8269C104.35 42.8678 104.391 43.0032 104.52 43.1859C104.737 43.4158 104.778 43.5512 104.425 43.3621C104.202 43.3556 104.066 43.3964 104.154 43.4437C104.324 43.7618 105.218 43.7877 105.272 43.476C105.231 43.3406 105.367 43.2998 105.543 43.3944C105.719 43.4889 105.766 43.4008 105.725 43.2654C105.685 43.13 105.996 43.1838 106.396 43.2848C107.06 43.5277 107.148 43.575 107.359 44.0285C107.44 44.2993 107.698 44.6647 107.963 44.8065C108.315 44.9957 108.315 44.9957 108.057 44.6303C107.759 44.1295 107.847 44.1768 108.592 44.6905C109.426 45.2515 110.905 46.7259 110.458 46.713C110.322 46.7538 110.322 46.7538 110.499 46.8484C110.675 46.9429 110.763 46.9902 110.898 46.9494C110.946 46.8613 111.169 46.8678 111.298 47.0504C111.474 47.145 111.603 47.3277 111.509 47.5039C111.461 47.592 111.502 47.7274 111.59 47.7747C111.678 47.822 111.855 47.9166 111.895 48.052C111.936 48.1874 111.889 48.2755 111.76 48.0928C111.631 47.9101 111.543 47.8628 111.496 47.9509C111.401 48.1272 111.923 48.6344 112.587 48.8773C113.34 49.1675 114.214 49.8639 114.032 49.9928C113.984 50.0809 113.625 50.1153 113.314 50.0615C112.779 50.0013 112.779 50.0013 113.131 50.1905C113.307 50.285 113.795 50.4334 114.154 50.399C114.513 50.3646 114.648 50.3238 114.466 50.4527C114.283 50.5817 114.236 50.6698 114.5 50.8117C115.598 51.5145 116.778 52.4881 116.948 52.8062C117.118 53.1243 117.165 53.0362 117.219 52.7246C117.32 52.3248 117.32 52.3248 117.801 52.6967C118.018 52.9266 118.459 53.1631 118.682 53.1695C118.994 53.2233 119.082 53.2706 118.947 53.3114C118.717 53.5284 119.204 53.6768 119.963 53.7434C120.546 53.7155 120.722 53.8101 120.715 54.0336C120.797 54.3044 120.797 54.3044 121.156 54.27C121.515 54.2357 121.603 54.283 121.773 54.6011C122.071 55.1018 123.176 55.5811 123.541 55.3233C123.724 55.1943 123.771 55.1062 123.419 54.9171C122.843 54.7215 122.938 54.5452 123.608 54.5646C124.055 54.5775 124.143 54.6248 124.225 54.8956C124.347 55.3018 125.486 56.1401 125.669 56.0111C125.716 55.923 125.946 55.706 126.176 55.4889C126.866 54.8377 127.272 54.7153 127.483 55.1687C127.612 55.3514 127.741 55.5341 127.788 55.446C127.835 55.3579 127.971 55.3171 128.018 55.229C128.154 55.1881 128.248 55.0119 128.384 54.9711C128.431 54.883 128.966 54.9432 129.454 55.0915L130.341 55.3408L129.596 54.8271C129.155 54.5907 128.715 54.3543 128.579 54.3951C128.444 54.4359 128.179 54.2941 128.01 53.976C127.623 53.4279 127.717 53.2517 128.246 53.5354C128.775 53.8191 130.028 53.8106 130.041 53.3636C130.047 53.1401 130.135 53.1874 130.264 53.37C130.434 53.6881 130.834 53.7892 131.016 53.6602C131.064 53.5721 130.975 53.5248 130.799 53.4302C130.623 53.3357 130.535 53.2884 130.718 53.1594C130.765 53.0713 130.771 52.8478 130.554 52.6178C130.425 52.4352 130.202 52.4287 130.155 52.5168C130.107 52.6049 130.019 52.5576 129.938 52.2868C129.944 52.0633 129.991 51.9752 130.167 52.0698C130.391 52.0762 130.391 52.0762 130.174 51.8463C130.045 51.6636 129.733 51.6098 129.598 51.6507C129.463 51.6915 129.239 51.685 129.063 51.5905C128.887 51.4959 128.934 51.4078 129.069 51.3669C129.205 51.3261 129.299 51.1499 129.211 51.1026C129.041 50.7845 129.461 50.215 129.725 50.3569C129.901 50.4514 129.86 50.316 129.69 49.998C129.521 49.6799 129.486 49.321 129.669 49.192C129.764 49.0158 129.811 48.9277 129.635 48.8331C129.547 48.7858 129.112 48.3259 128.814 47.8251C128.515 47.3243 128.122 46.9998 127.946 46.9052C127.857 46.8579 127.464 46.5334 127.159 46.2561C126.684 45.6608 126.684 45.6608 127.26 45.8564C127.524 45.9982 127.883 45.9639 128.019 45.923C128.066 45.8349 128.195 46.0176 128.277 46.2884C128.487 46.7419 128.487 46.7419 128.588 46.3422C128.642 46.0305 128.825 45.9016 129.042 46.1316C129.218 46.2261 129.618 46.3272 129.841 46.3336C130.2 46.2993 130.335 46.2584 130.03 45.9812C129.813 45.7512 129.949 45.7104 130.436 45.8587C130.836 45.9597 131.012 46.0543 130.836 45.9597C130.66 45.8652 130.619 45.7298 130.714 45.5535C130.856 45.2892 130.51 44.8765 129.717 44.4509C129.364 44.2618 129.323 44.1264 129.635 44.1802C129.858 44.1866 130.129 44.105 130.224 43.9287C130.318 43.7525 130.63 43.8062 131.023 44.1308C131.376 44.3199 131.552 44.4145 131.511 44.2791C131.47 44.1437 131.477 43.9202 131.571 43.744C131.713 43.4796 131.889 43.5742 132.106 43.8042C132.324 44.0342 132.452 44.2168 132.405 44.305C132.358 44.3931 132.493 44.3522 132.764 44.2706C133.218 44.06 133.501 43.5313 133.243 43.1659C133.203 43.0305 133.209 42.807 133.216 42.5835C133.222 42.36 133.357 42.3192 133.398 42.4546C133.521 42.8608 134.131 43.4153 134.361 43.1982C134.408 43.1101 134.415 42.8866 134.374 42.7512C134.333 42.6158 134.292 42.4804 134.38 42.5277C134.604 42.5342 135.309 42.9125 135.567 43.2778C135.696 43.4605 135.872 43.5551 135.96 43.6024C136.095 43.5615 136.007 43.5143 135.919 43.467C135.743 43.3724 135.661 43.1016 135.715 42.79C135.728 42.3429 135.64 42.2957 135.281 42.33C134.698 42.3579 134.352 41.9453 134.677 41.552C135.002 41.1587 134.69 41.105 134.325 41.3628C134.142 41.4918 133.918 41.4853 133.701 41.2553C133.525 41.1608 133.349 41.0662 133.213 41.107C133.166 41.1951 132.99 41.1006 132.908 40.8298C132.698 40.3763 132.704 40.1528 133.009 40.43C133.226 40.66 133.768 40.4967 133.686 40.2259C133.646 40.0905 133.686 40.2259 133.768 40.4967C134.019 41.0856 134.284 41.2274 134.337 40.9158C134.297 40.7804 134.479 40.6515 134.656 40.7461C135.143 40.8944 134.417 39.7101 133.766 39.0202C133.027 38.283 132.728 37.7822 133.04 37.836C133.175 37.7952 133.087 37.7479 132.999 37.7006C132.823 37.606 132.687 37.6468 132.687 37.6468C132.64 37.7349 132.464 37.6404 132.287 37.5458C131.982 37.2685 132.219 36.828 132.666 36.8409C132.889 36.8474 132.889 36.8474 132.625 36.7055C132.36 36.5636 132.184 36.4691 132.232 36.3809C132.279 36.2928 132.191 36.2455 132.103 36.1983C132.014 36.151 131.933 35.8802 131.851 35.6094C131.864 35.1623 131.911 35.0742 132.081 35.3923C132.163 35.6631 132.339 35.7577 132.434 35.5815C132.481 35.4934 132.399 35.2226 132.182 34.9926C131.965 34.7626 131.883 34.4918 131.931 34.4037C131.978 34.3156 132.066 34.3629 132.148 34.6337C132.189 34.7691 132.318 34.9517 132.406 34.999C132.494 35.0463 132.412 34.7755 132.154 34.4102C131.896 34.0448 131.51 33.4967 131.299 33.0432C130.831 32.2244 130.654 32.1298 130.472 32.2587C130.424 32.3469 130.553 32.5295 130.682 32.7122C130.899 32.9422 131.157 33.3076 131.327 33.6257C131.578 34.2145 131.578 34.2146 131.185 33.89C130.921 33.7481 130.792 33.5655 130.839 33.4773C130.886 33.3892 130.798 33.3419 130.622 33.2474C130.446 33.1528 130.446 33.1528 130.628 33.0239C130.764 32.983 130.723 32.8476 130.594 32.6649C130.418 32.5704 130.248 32.2523 130.207 32.1169C130.173 31.758 130.085 31.7107 129.502 31.7386C129.143 31.773 128.744 31.6719 128.527 31.4419C128.31 31.212 128.35 31.3474 128.52 31.6655C128.731 32.1189 128.731 32.1189 128.331 32.0179C128.067 31.8761 127.233 31.3151 126.575 30.8487C125.877 30.2469 125.002 29.5505 124.562 29.3141C124.08 28.9422 123.904 28.8476 123.945 28.983C123.979 29.342 123.498 28.9701 123.246 28.3812C123.165 28.1104 123.124 27.975 123.124 27.975C123.212 28.0223 123.612 28.1234 124.147 28.1836C125.346 28.4867 125.522 28.5812 125.815 29.3055C126.066 29.8944 126.066 29.8944 126.167 29.4947C126.173 29.2712 126.004 28.9531 125.57 28.4931C125.176 28.1686 125.047 27.9859 125.224 28.0805C125.488 28.2223 125.623 28.1815 125.671 28.0934C125.63 27.958 125.365 27.8161 125.013 27.627C124.525 27.4787 124.437 27.4314 124.579 27.167C124.673 26.9908 124.633 26.8554 124.28 26.6663C123.799 26.2944 123.799 26.2944 124.233 26.7544C124.626 27.0789 124.626 27.0789 123.915 26.9241C123.115 26.7221 122.146 26.2019 122.769 26.3094C122.993 26.3159 123.264 26.2342 123.405 25.9699C123.683 25.6647 123.73 25.5766 123.337 25.2521C123.072 25.1102 122.991 24.8394 122.95 24.704C123.044 24.5278 122.868 24.4332 122.245 24.3257C121.31 24.1645 121.175 24.2053 120.964 23.7518C120.754 23.2983 120.936 23.1694 121.418 23.5412C121.682 23.6831 121.811 23.8658 121.764 23.9539C121.716 24.042 121.669 24.1301 122.028 24.0957C122.34 24.1495 122.387 24.0614 122.17 23.8314C122.041 23.6487 122.047 23.4252 122.271 23.4316C122.406 23.3908 122.501 23.2146 122.413 23.1673C122.325 23.12 122.101 23.1136 122.007 23.2898C121.682 23.6831 121.465 23.4531 121.355 22.5999L121.287 21.882L122.133 21.996C122.669 22.0562 122.939 21.9745 122.899 21.8391C122.864 21.4802 122.335 21.1965 121.929 21.319C121.523 21.4415 120.784 20.7043 121.014 20.4872C121.244 20.2702 121.643 20.3712 121.59 20.6828C121.542 20.7709 121.719 20.8655 122.207 21.0138C122.694 21.1621 122.871 21.2567 123.04 21.5748C123.169 21.7575 123.298 21.9402 123.346 21.8521C123.393 21.7639 123.264 21.5813 123.182 21.3105C122.965 21.0805 123.06 20.9043 123.242 20.7753C123.513 20.6937 123.601 20.741 123.771 21.059C123.9 21.2417 123.887 21.6888 123.793 21.865C123.739 22.1766 123.78 22.312 124.044 22.4539C124.22 22.5484 124.444 22.5549 124.491 22.4668C124.538 22.3787 124.45 22.3314 124.274 22.2368C123.786 22.0885 124.97 21.3621 125.505 21.4223C125.953 21.4353 125.953 21.4353 125.6 21.2461C125.071 20.9624 125.037 20.6035 125.443 20.481C125.802 20.4466 126.032 20.2296 126.445 19.8836C126.675 19.6665 126.763 19.7138 126.933 20.0319C127.102 20.35 127.102 20.35 127.292 19.9975C127.386 19.8213 127.616 19.6043 127.751 19.5634C127.975 19.5699 128.205 19.3528 128.171 18.9939C128.224 18.6823 128.325 18.2826 128.508 18.1536C128.738 17.9366 128.738 17.9366 128.684 18.2482C128.624 18.7833 128.901 18.4782 129.009 17.8549C129.022 17.4079 129.11 17.4552 129.598 17.6035C129.862 17.7454 130.221 17.711 130.268 17.6229C130.363 17.4466 130.363 17.4466 130.139 17.4402C129.869 17.5218 129.78 17.4746 129.787 17.251C129.793 17.0275 129.705 16.9802 129.57 17.0211C129.075 17.0963 128.689 16.5482 129.189 16.2495C129.372 16.1206 129.737 15.8627 129.92 15.7337C130.333 15.3877 131.315 15.4609 131.261 15.7725C131.302 15.9079 131.302 15.9079 131.437 15.8671C131.667 15.65 132.467 15.8521 134.1 16.6151C134.941 16.9526 135.605 17.1955 135.605 17.1955C135.652 17.1074 135.916 17.2492 136.045 17.4319C136.35 17.7092 136.486 17.6683 136.716 17.4513C136.898 17.3224 137.217 17.1526 137.44 17.159C137.664 17.1655 137.664 17.1655 137.481 17.2944C137.027 17.505 137.115 17.5523 138.714 17.9565C139.426 18.1112 140.53 18.5906 141.059 18.8743C142.733 19.7727 143.75 20.2048 143.844 20.0285C143.892 19.9404 144.38 20.0887 144.82 20.3252C145.261 20.5616 145.749 20.7099 145.796 20.6218C145.843 20.5337 145.931 20.581 146.06 20.7637C146.101 20.8991 146.325 20.9055 146.419 20.7293C146.514 20.5531 146.873 20.5187 147.272 20.6198C147.584 20.6735 147.76 20.7681 147.625 20.8089C147.489 20.8497 147.706 21.0797 148.059 21.2688C148.717 21.7353 149.075 21.7009 148.641 21.2409C148.424 21.011 148.512 21.0583 148.871 21.0239C149.183 21.0776 149.271 21.1249 149.136 21.1657C149.088 21.2539 149.129 21.3893 149.217 21.4365C149.305 21.4838 149.529 21.4903 149.576 21.4022C149.671 21.226 151.446 21.7247 152.198 22.0148C152.639 22.2513 153.133 22.1761 153.228 21.9999C153.322 21.8236 153.546 21.8301 153.898 22.0192C154.556 22.4856 155.809 22.4771 155.91 22.0774C155.964 21.7657 156.052 21.813 156.533 22.1849C156.838 22.4621 157.103 22.604 157.15 22.5159C157.197 22.4278 157.285 22.475 157.461 22.5696C157.502 22.705 157.726 22.7115 157.82 22.5352C158.194 23.5303 158.153 23.3949 157.754 23.2939ZM115.331 -4.23932C115.242 -4.2866 115.066 -4.38118 115.025 -4.51658C114.896 -4.69926 114.944 -4.78738 115.12 -4.6928C115.384 -4.55094 115.554 -4.23286 115.331 -4.23932ZM51.1214 -34.9524C51.2977 -34.8578 51.3385 -34.7224 51.2912 -34.6343C51.2439 -34.5462 51.1085 -34.5053 51.1085 -34.5053C51.0204 -34.5526 50.9796 -34.688 50.9388 -34.8234C50.9452 -35.0469 50.9452 -35.0469 51.1214 -34.9524ZM48.9613 -29.8697C48.5615 -29.9707 48.1274 -30.4307 48.222 -30.6069C48.2693 -30.695 48.5336 -30.5531 48.9333 -30.4521C49.6383 -30.0738 49.6253 -29.6268 48.9613 -29.8697ZM50.5 -28.9304C50.3646 -28.8896 50.1884 -28.9842 50.1003 -29.0314C50.0122 -29.0787 49.9713 -29.2141 49.9713 -29.2141C50.0186 -29.3022 50.1948 -29.2077 50.3711 -29.1131C50.5473 -29.0185 50.6354 -28.9712 50.5 -28.9304ZM50.8889 -26.9059C50.7943 -26.7296 50.6589 -26.6888 50.6181 -26.8242C50.5773 -26.9596 50.6246 -27.0477 50.76 -27.0886C50.8954 -27.1294 50.9835 -27.0821 50.8889 -26.9059ZM50.6331 -25.7948C50.545 -25.8421 50.416 -26.0247 50.5514 -26.0656C50.6868 -26.1064 50.7749 -26.0591 50.8631 -26.0118C50.9039 -25.8764 50.9447 -25.741 50.9447 -25.741C50.8974 -25.6529 50.762 -25.6121 50.6331 -25.7948ZM51.0457 -26.1408C50.9168 -26.3234 50.9233 -26.547 51.0114 -26.4997C51.3703 -26.534 51.5401 -26.216 51.3101 -25.9989C51.2155 -25.8227 51.2155 -25.8227 51.0457 -26.1408ZM55.9499 -20.8987C55.8145 -20.8578 55.5501 -20.9997 55.3739 -21.0943C55.1977 -21.1888 55.0687 -21.3715 55.116 -21.4596C55.1633 -21.5478 55.4276 -21.4059 55.692 -21.264C55.909 -21.0341 56.0853 -20.9395 55.9499 -20.8987ZM59.9987 -17.0235C59.9106 -17.0708 59.8698 -17.2062 59.9643 -17.3824C60.0589 -17.5586 60.4586 -17.4576 60.5403 -17.1868C60.6219 -16.916 60.2157 -16.7935 59.9987 -17.0235ZM8.95081 -3.10825C8.95727 -3.33177 8.74021 -3.56174 8.60481 -3.52091C8.3813 -3.52737 8.42859 -3.61549 8.7875 -3.64985C9.0583 -3.73151 9.28181 -3.72505 9.36993 -3.67776C9.45804 -3.63047 9.41076 -3.54236 9.32264 -3.58965C9.18724 -3.54882 9.13995 -3.46071 9.13349 -3.23719C9.17432 -3.10179 9.16786 -2.87828 9.12058 -2.79017C9.12058 -2.79017 8.99164 -2.97285 8.95081 -3.10825ZM9.98026 -3.12324C9.93298 -3.03513 9.75675 -3.1297 9.66864 -3.17699C9.45158 -3.40696 9.5999 -3.89481 9.95235 -3.70567C10.1759 -3.69921 10.2102 -3.34029 9.98026 -3.12324ZM16.2694 -14.8423C16.1813 -14.8896 16.1404 -15.025 16.0588 -15.2958C15.9771 -15.5666 15.9771 -15.5666 16.1942 -15.3366C16.4994 -15.0594 16.5337 -14.7005 16.2694 -14.8423ZM12.0929 -3.46484C11.9167 -3.55942 11.8759 -3.69482 12.0113 -3.73564C12.0585 -3.82375 12.1939 -3.86458 12.3229 -3.6819C12.4991 -3.58732 12.5399 -3.45192 12.4045 -3.4111C12.3573 -3.32298 12.2691 -3.37027 12.0929 -3.46484ZM13.7004 -1.80774C13.4834 -2.03772 13.449 -2.39663 13.7133 -2.25477C14.0658 -2.06562 14.3645 -1.56485 14.2291 -1.52402C14.0056 -1.53049 13.8293 -1.62506 13.7004 -1.80774ZM21.3415 -15.4116C21.1652 -15.5062 21.0771 -15.5534 21.0363 -15.6888C20.9955 -15.8242 21.219 -15.8178 21.3952 -15.7232C21.8831 -15.5749 21.8766 -15.3514 21.3415 -15.4116ZM14.0485 0.0813966C13.9604 0.0341098 13.8314 -0.148579 13.9668 -0.189404C14.0141 -0.277517 14.1022 -0.23023 14.2784 -0.135657C14.3193 -0.000257777 14.4074 0.0470319 14.3601 0.135144C14.3128 0.223256 14.2247 0.17597 14.0485 0.0813966ZM28.1355 -24.4764C27.7357 -24.5774 27.783 -24.6656 28.1419 -24.6999C28.7244 -24.7278 28.8125 -24.6805 28.7179 -24.5043C28.6233 -24.3281 28.3998 -24.3346 28.1355 -24.4764ZM16.9735 -0.505165C16.8789 -0.328938 16.7436 -0.288115 16.7027 -0.423514C16.6619 -0.558913 16.7092 -0.647028 16.8446 -0.687853C17.0681 -0.681392 17.0681 -0.681393 16.9735 -0.505165ZM18.9743 1.47648C18.7981 1.38191 18.8518 1.07028 19.0753 1.07674C19.1634 1.12403 19.2516 1.17131 19.157 1.34754C19.1097 1.43565 19.0624 1.52377 18.9743 1.47648ZM22.5999 2.9682C22.4236 2.87363 22.3828 2.73823 22.5182 2.6974C22.5655 2.60929 22.789 2.61575 22.8771 2.66304C23.0533 2.75761 23.1415 2.80489 22.9588 2.93383C22.9115 3.02195 22.688 3.01549 22.5999 2.9682ZM24.1988 3.37234C23.7991 3.2713 23.4875 3.21755 23.5347 3.12944C23.582 3.04133 23.8937 3.09508 24.2934 3.19611C24.6931 3.29714 24.9575 3.439 24.9575 3.439C24.9102 3.52711 24.5986 3.47337 24.1988 3.37234ZM25.5763 5.24649C25.4001 5.15192 25.3593 5.01651 25.3593 5.01651C25.3593 5.01651 25.4947 4.97569 25.7182 4.98215C25.8944 5.07672 25.9825 5.12401 25.9353 5.21212C25.888 5.30023 25.7526 5.34106 25.5763 5.24649ZM54.6664 -13.6431C54.531 -13.6023 54.3548 -13.6969 54.1786 -13.7914C54.0023 -13.886 54.0496 -13.9741 54.185 -14.015C54.3204 -14.0558 54.4966 -13.9612 54.6729 -13.8666C54.8491 -13.7721 54.8018 -13.684 54.6664 -13.6431ZM41.0112 14.5511C40.605 14.6736 40.5169 14.6263 40.3536 14.0847C40.1494 13.4077 40.6437 13.3325 41.0714 14.016C41.3293 14.3813 41.3701 14.5167 41.0112 14.5511ZM57.9739 -11.9816C57.7977 -12.0762 57.7568 -12.2116 57.8922 -12.2524C57.9395 -12.3405 58.0749 -12.3814 58.2039 -12.1987C58.3801 -12.1041 58.4209 -11.9687 58.2855 -11.9279C58.2855 -11.9279 58.1501 -11.8871 57.9739 -11.9816ZM46.0724 15.9054C45.7672 15.6281 45.2858 15.2563 44.9807 14.979L44.4112 14.5599L45.2988 14.8092C45.9628 15.0521 46.1391 15.1467 46.0445 15.3229C45.9972 15.411 46.1261 15.5937 46.3024 15.6883C46.7021 15.7893 46.8719 16.1074 46.7773 16.2836C46.5946 16.4126 46.3776 16.1826 46.0724 15.9054ZM52.1029 17.7798C51.8385 17.6379 51.615 17.6314 51.5677 17.7196C51.5204 17.8077 51.2088 17.7539 50.8564 17.5648C50.0633 17.1392 50.1579 16.963 51.0047 17.0769C51.8515 17.1909 52.9561 17.6702 52.8142 17.9345C52.5907 17.9281 52.3672 17.9216 52.1029 17.7798ZM55.722 19.495C55.3695 19.3059 54.9698 19.2048 55.0106 19.3402C55.0514 19.4756 54.5636 19.3273 54.0822 18.9555C53.2011 18.4826 53.2483 18.3945 53.8651 18.7255C54.353 18.8738 54.8408 19.0221 55.1998 18.9878C55.5587 18.9534 56.0465 19.1017 56.3109 19.2436C57.1039 19.6692 56.6504 19.8798 55.722 19.495ZM56.6181 20.9973C56.4827 21.0381 56.3065 20.9436 56.1303 20.849C56.0421 20.8017 56.0013 20.6663 56.0486 20.5782C56.0959 20.4901 56.2721 20.5847 56.5365 20.7265C56.7127 20.8211 56.7535 20.9565 56.6181 20.9973ZM59.268 22.1924C59.0917 22.0978 59.0509 21.9624 59.1863 21.9216C59.2336 21.8335 59.369 21.7927 59.4979 21.9754C59.6742 22.0699 59.715 22.2053 59.5796 22.2462C59.5323 22.3343 59.3088 22.3278 59.268 22.1924ZM61.0367 22.9146C60.9486 22.8673 60.7724 22.7728 60.5961 22.6782C60.4672 22.4955 60.5553 22.5428 60.8196 22.6847C60.9959 22.7792 61.1721 22.8738 61.0367 22.9146ZM68.3416 25.5864C68.2062 25.6273 67.8064 25.5262 67.1897 25.1952C66.0442 24.5805 66.4095 24.3226 67.6431 24.9846C68.3953 25.2748 68.5243 25.4575 68.3416 25.5864ZM69.1196 24.9826C69.025 25.1588 68.8896 25.1996 68.8488 25.0642C68.808 24.9288 68.9907 24.7999 69.1261 24.7591C69.3088 24.6301 69.3496 24.7655 69.1196 24.9826ZM69.27 25.9712C69.1346 26.012 68.9584 25.9175 68.9175 25.7821C68.8767 25.6467 68.8359 25.5113 68.9713 25.4704C69.1067 25.4296 69.2829 25.5242 69.3238 25.6596C69.4527 25.8423 69.4054 25.9304 69.27 25.9712ZM71.6963 27.1598C71.6555 27.0244 71.1677 26.8761 70.856 26.8224C70.0093 26.7084 69.6568 26.5193 70.063 26.3968C70.1984 26.356 70.2457 26.2678 70.0287 26.0379C69.8524 25.9433 69.7235 25.7606 69.7708 25.6725C69.8654 25.4963 70.3059 25.7327 70.6992 26.0572C70.7873 26.1045 71.0044 26.3345 71.2687 26.4764C71.7974 26.7601 72.1434 27.1727 71.9607 27.3017C71.8253 27.3425 71.7372 27.2952 71.6963 27.1598ZM73.4801 28.9115C73.3038 28.8169 73.0395 28.6751 72.8633 28.5805C72.7343 28.3978 72.9106 28.4924 73.263 28.6815C73.4801 28.9115 73.5682 28.9588 73.4801 28.9115ZM77.2906 27.0978C77.2025 27.0505 77.0736 26.8678 77.209 26.827C77.2563 26.7389 77.4325 26.8335 77.5206 26.8808C77.5614 27.0162 77.6023 27.1516 77.6023 27.1516C77.555 27.2397 77.3788 27.1451 77.2906 27.0978ZM93.858 37.4642C93.5872 37.5458 93.2283 37.5802 93.1402 37.5329C93.0521 37.4856 93.0113 37.3502 93.194 37.2213C93.2412 37.1332 93.2004 36.9978 93.1123 36.9505C92.9361 36.8559 92.848 36.8086 93.0307 36.6797C93.2606 36.4626 93.6604 36.5637 94.1826 37.0709C94.3115 37.2536 94.2642 37.3417 93.858 37.4642ZM89.6997 32.7358C90.0113 32.7895 93.9893 34.4704 94.6469 34.9368C94.9994 35.1259 94.634 35.3838 94.2816 35.1947C93.6648 34.8637 92.6482 34.4316 92.5537 34.6078C92.5064 34.696 92.242 34.5541 92.025 34.3241C91.7198 34.0469 91.6317 33.9996 91.4017 34.2166C91.1717 34.4337 91.1717 34.4337 90.7376 33.9737C90.4325 33.6965 90.1273 33.4192 89.8157 33.3655C89.3278 33.2172 89.2526 32.7228 89.6997 32.7358ZM79.8824 30.3045C80.2348 30.4937 80.2756 30.6291 80.0994 30.5345C79.9232 30.4399 79.6589 30.2981 79.4826 30.2035C79.4418 30.0681 79.5299 30.1154 79.8824 30.3045ZM87.2451 35.6177C87.1162 35.435 86.9873 35.2523 87.0345 35.1642C87.0818 35.0761 87.2581 35.1706 87.387 35.3533C87.5159 35.536 87.6449 35.7187 87.5976 35.8068C87.5976 35.8068 87.3741 35.8004 87.2451 35.6177ZM87.488 34.9536C86.478 34.298 85.8139 34.0551 85.6785 34.096C85.5431 34.1368 85.672 34.3195 86.0653 34.644C86.4178 34.8332 86.6348 35.0632 86.4994 35.104C86.364 35.1448 85.8353 34.8611 85.3539 34.4893C84.6963 34.0228 84.2966 33.9218 83.9377 33.9562C83.4433 34.0314 83.0028 33.7949 83.3617 33.7606C83.4971 33.7197 83.4563 33.5843 83.28 33.4898C83.1511 33.3071 82.8395 33.2533 82.7041 33.2942C82.5214 33.4231 82.257 33.2812 81.8638 32.9567C81.3824 32.5849 81.2943 32.5376 81.3759 32.8084C81.4919 33.4381 81.3092 33.567 80.787 33.0598C80.2175 32.6407 79.8586 32.675 80.2927 33.135C80.4216 33.3177 80.3335 33.2704 79.9338 33.1694C79.3578 32.9738 79.3578 32.9738 79.4116 32.6621C79.418 32.4386 79.3364 32.1678 78.9839 31.9787C78.7669 31.7487 78.6379 31.566 78.8614 31.5725C78.9968 31.5316 79.2612 31.6735 79.4374 31.7681C79.5664 31.9508 79.878 32.0045 80.0542 32.0991C80.3658 32.1528 80.1896 32.0583 79.6201 31.6391C78.8744 31.1254 78.7862 31.0782 79.1452 31.0438C79.3687 31.0502 80.0328 31.2931 80.5614 31.5769C81.0901 31.8606 81.578 32.0089 81.6253 31.9208C81.6725 31.8327 82.1131 32.0691 82.5064 32.3937C83.2521 32.9073 83.3402 32.9546 83.5294 32.6022C83.7594 32.3851 83.8948 32.3443 84.1591 32.4862C84.5116 32.6753 84.4643 32.7634 84.0645 32.6624C83.5294 32.6022 83.4692 33.1373 83.9979 33.421C84.2622 33.5629 84.3503 33.6102 84.2214 33.4275C83.8754 33.0148 84.0989 33.0213 84.6276 33.305C84.8919 33.4469 85.2917 33.5479 85.4271 33.5071C85.5625 33.4663 85.786 33.4727 85.9149 33.6554C86.0911 33.75 86.3147 33.7564 86.4501 33.7156C86.5446 33.5394 86.6327 33.5867 86.6263 33.8102C86.579 33.8983 86.7079 34.081 86.8842 34.1756C87.0604 34.2701 87.1077 34.182 87.0668 34.0466C87.026 33.9112 87.1614 33.8704 87.2495 33.9177C87.3376 33.965 87.4666 34.1477 87.5074 34.283C87.5482 34.4184 87.5482 34.4184 87.7309 34.2895C87.9609 34.0725 88.4488 34.2208 88.2596 34.5732C88.2123 34.6613 88.3004 34.7086 88.5239 34.7151C88.8829 34.6807 88.8829 34.6807 88.5648 34.8505C88.2467 35.0203 88.3348 35.0675 89.2159 35.5404C89.7446 35.8241 90.3614 36.1551 90.5376 36.2497C90.8836 36.6624 91.0728 36.3099 90.686 35.7619C90.3464 35.1257 90.441 34.9495 90.8343 35.274C91.0986 35.4159 91.2361 36.8515 90.9653 36.9332C90.9653 36.9332 90.3893 36.7376 89.8606 36.4538C89.4674 36.1293 88.3219 35.5146 87.488 34.9536ZM93.4195 38.7042C93.2025 38.4742 92.979 38.4678 92.7963 38.5967C92.4782 38.7665 92.302 38.6719 91.8206 38.3001C91.4273 37.9755 91.163 37.8337 91.1157 37.9218C91.0684 38.0099 90.8449 38.0034 90.7568 37.9562C90.5805 37.8616 90.6278 37.7735 90.7632 37.7326C90.9867 37.7391 90.8578 37.5564 90.2818 37.3608C88.8247 36.6923 88.2079 36.3613 88.3025 36.1851C88.3971 36.0089 89.549 36.4001 90.9997 37.2921C91.264 37.4339 91.4875 37.4404 91.5821 37.2642C91.6767 37.0879 91.9002 37.0944 91.941 37.2298C91.9818 37.3652 92.0226 37.5006 91.8872 37.5414C91.7519 37.5823 91.7927 37.7177 92.1451 37.9068C92.4095 38.0487 92.6738 38.1905 92.8092 38.1497C92.9446 38.1089 92.9919 38.0208 92.8157 37.9262C92.3751 37.6898 92.6932 37.52 93.1338 37.7564C93.3981 37.8983 93.6152 38.1283 93.6087 38.3518C93.8601 38.9407 93.8128 39.0288 93.4195 38.7042ZM121.045 3.93429C121.139 3.75807 121.275 3.71724 121.268 3.94075C121.262 4.16427 121.35 4.21155 121.662 4.2653C121.973 4.31905 122.061 4.36633 121.831 4.58339C121.737 4.75961 121.425 4.70587 121.113 4.65212C120.849 4.51026 120.626 4.5038 120.578 4.59191C120.619 4.72731 120.396 4.72085 120.219 4.62628C120.043 4.53171 119.779 4.38985 119.738 4.25445C119.697 4.11905 119.785 4.16634 119.873 4.21362C120.179 4.49088 120.673 4.41569 121.045 3.93429ZM122.393 -0.903417C122.657 -0.761556 122.874 -0.531585 122.827 -0.443472C122.779 -0.355358 122.644 -0.314531 122.603 -0.44993C122.515 -0.497216 122.298 -0.727191 122.169 -0.909876C121.952 -1.13985 121.999 -1.22796 122.393 -0.903417ZM97.2666 38.7259C97.1376 38.5432 97.0087 38.3605 97.1441 38.3197C97.2387 38.1435 97.8555 38.4745 97.9371 38.7453C97.9715 39.1042 97.5244 39.0913 97.2666 38.7259ZM97.9092 38.1629C97.5095 38.0618 97.5095 38.0618 98.0038 37.9866C98.6808 37.7825 99.0053 37.3892 98.4229 37.4171C97.9759 37.4042 96.2609 36.3704 96.3554 36.1941C96.4027 36.106 96.5381 36.0652 96.6263 36.1125C98.9172 37.3419 99.0934 37.4365 98.9043 37.789C98.7624 38.0533 98.8505 38.1006 99.2911 38.337C100.26 38.8572 100.654 39.1817 100.383 39.2634C100.247 39.3042 99.7596 39.1559 99.2782 38.7841C98.7495 38.5003 98.2208 38.2166 97.9092 38.1629ZM100.08 40.4626C99.9916 40.4153 99.8154 40.3207 99.7337 40.0499C99.6048 39.8673 99.3877 39.6373 99.0761 39.5835C98.7645 39.5298 98.7645 39.5298 99.1234 39.4954C99.435 39.5492 99.6113 39.6437 99.8691 40.0091C100.086 40.2391 100.215 40.4218 100.08 40.4626ZM102.437 40.9334C102.343 41.1096 102.119 41.1032 102.031 41.0559C101.943 41.0086 101.902 40.8732 101.997 40.697C102.044 40.6089 102.227 40.4799 102.403 40.5745C102.532 40.7572 102.573 40.8926 102.437 40.9334ZM102.775 40.0931C102.592 40.222 102.233 40.2564 102.098 40.2972C101.874 40.2908 101.874 40.2908 101.969 40.1145C102.016 40.0264 101.975 39.891 101.711 39.7492C101.535 39.6546 101.311 39.6481 101.176 39.689C101.081 39.8652 100.993 39.8179 100.783 39.3644C100.449 38.5047 100.808 38.4704 102.083 39.2678C103.14 39.8352 103.228 39.8825 102.775 40.0931ZM124.2 3.13068C124.247 3.04256 124.382 3.00174 124.511 3.18442C124.688 3.279 124.728 3.4144 124.593 3.45522C124.546 3.54334 124.41 3.58416 124.281 3.40148C124.152 3.21879 124.064 3.1715 124.2 3.13068ZM123.026 6.58648C122.755 6.66813 122.532 6.66167 122.491 6.52627C122.362 6.34359 123.039 6.13945 123.303 6.28131C123.432 6.464 123.25 6.59294 123.026 6.58648ZM118.856 22.3934C118.727 22.2107 118.686 22.0753 118.686 22.0753C118.774 22.1226 118.95 22.2172 118.991 22.3526C119.385 22.6771 119.249 22.718 118.856 22.3934ZM119.823 21.4371C119.647 21.3425 119.647 21.3425 119.83 21.2136C120.148 21.0438 120.324 21.1384 120.229 21.3146C120.135 21.4908 119.911 21.4844 119.823 21.4371ZM128.347 53.1357C128.523 53.2302 128.564 53.3657 128.429 53.4065C128.381 53.4946 128.246 53.5354 128.117 53.3527C127.941 53.2582 127.9 53.1228 128.035 53.0819C128.035 53.0819 128.171 53.0411 128.347 53.1357ZM127.585 45.4631C127.408 45.3685 127.367 45.2331 127.55 45.1042C127.597 45.0161 127.821 45.0225 127.909 45.0698C128.085 45.1644 128.126 45.2998 127.943 45.4287C127.896 45.5168 127.673 45.5104 127.585 45.4631ZM129.637 45.6566C130.078 45.8931 130.118 46.0285 129.929 46.3809C129.787 46.6453 129.517 46.7269 129.428 46.6796C129.252 46.5851 128.878 45.59 129.061 45.461C129.02 45.3256 129.373 45.5148 129.637 45.6566ZM130.204 44.5993L129.54 44.3564C129.188 44.1672 128.924 44.0254 128.883 43.89C128.936 43.5783 129.201 43.7202 129.723 44.2274L130.204 44.5993ZM132.038 38.4334C132.262 38.4399 132.872 38.9944 132.825 39.0825C132.825 39.0825 132.56 38.9406 132.296 38.7988C132.079 38.5688 131.95 38.3861 132.038 38.4334ZM128.692 42.7659C128.915 42.7724 129.227 42.8261 129.403 42.9207C129.579 43.0153 129.579 43.0153 129.356 43.0088C129.179 42.9143 128.997 43.0432 128.855 43.3075C128.666 43.66 128.666 43.66 128.455 43.2065C128.285 42.8884 128.245 42.753 128.692 42.7659ZM122.417 26.1203C122.593 26.2148 122.722 26.3975 122.675 26.4856C122.627 26.5738 122.404 26.5673 122.275 26.3846C122.099 26.29 121.97 26.1073 122.017 26.0192C122.064 25.9311 122.241 26.0257 122.417 26.1203ZM122.696 22.6386C122.737 22.774 122.778 22.9094 122.778 22.9094C122.778 22.9094 122.643 22.9502 122.466 22.8557C122.378 22.8084 122.249 22.6257 122.385 22.5849C122.432 22.4968 122.568 22.4559 122.696 22.6386ZM120.801 23.2102C120.842 23.3456 120.93 23.3929 120.882 23.481C120.882 23.481 120.747 23.5218 120.571 23.4273C120.483 23.38 120.354 23.1973 120.489 23.1565C120.537 23.0683 120.76 23.0748 120.801 23.2102ZM119.447 23.6185C119.094 23.4293 119.148 23.1177 119.548 23.2187C119.812 23.3606 119.9 23.4079 119.806 23.5841C119.758 23.6722 119.535 23.6658 119.447 23.6185ZM122.228 21.8198C122.052 21.7252 121.964 21.6779 122.146 21.549C122.194 21.4608 122.417 21.4673 122.505 21.5146C122.681 21.6092 122.722 21.7446 122.587 21.7854C122.587 21.7854 122.451 21.8262 122.228 21.8198ZM126.256 20.236C125.592 19.9932 125.463 19.8105 125.869 19.688C126.275 19.5655 127.156 20.0384 126.967 20.3908C126.967 20.3908 126.655 20.3371 126.256 20.236ZM127.487 19.4216C126.911 19.226 126.741 18.9079 127.365 19.0154C127.676 19.0691 127.812 19.0283 127.595 18.7983C127.466 18.6156 127.56 18.4394 127.79 18.2224L128.244 18.0118L128.319 18.5061C128.388 19.2239 127.975 19.5699 127.487 19.4216ZM129.09 18.1257C129.267 18.2203 129.355 18.2676 129.26 18.4438C129.213 18.5319 129.03 18.6609 128.989 18.5255C128.725 18.3836 128.779 18.072 129.09 18.1257Z" fill="white"/>
<path d="M129.95 56.4928C129.774 56.3982 129.51 56.2563 129.374 56.2972C129.239 56.338 129.415 56.4326 129.679 56.5744C130.343 56.8173 130.479 56.7765 129.95 56.4928Z" fill="white"/>
<path d="M128.59 57.1246C128.237 56.9354 128.102 56.9762 128.231 57.1589C128.407 57.2535 128.671 57.3953 128.895 57.4018C129.118 57.4083 129.03 57.361 128.59 57.1246Z" fill="white"/>
<path d="M127.133 56.4561C126.875 56.0907 126.875 56.0907 127.139 56.2326C127.492 56.4217 127.492 56.4217 127.234 56.0563C126.847 55.5083 126.671 55.4137 126.658 55.8607C126.733 56.355 126.415 56.5248 125.968 56.5119C125.744 56.5054 125.744 56.5054 126.009 56.6473C126.185 56.7419 126.408 56.7483 126.456 56.6602C126.503 56.5721 126.726 56.5786 126.991 56.7204C127.431 56.9568 127.479 56.8687 127.133 56.4561Z" fill="white"/>
<path d="M133.14 46.7422C133.093 46.8303 133.134 46.9657 133.222 47.013C133.398 47.1075 133.486 47.1548 133.533 47.0667C133.533 47.0667 133.493 46.9313 133.452 46.7959C133.275 46.7013 133.14 46.7422 133.14 46.7422Z" fill="white"/>
<path d="M132.252 46.4928C132.917 46.7357 132.917 46.7357 132.571 46.323C132.442 46.1403 132.401 46.0049 132.401 46.0049C132.536 45.9641 132.231 45.6869 131.79 45.4504L130.957 44.8894L131.608 45.5794C131.954 45.992 132.124 46.3101 132.035 46.2628C131.812 46.2564 131.988 46.3509 132.252 46.4928Z" fill="white"/>
<path d="M133.598 44.8316C133.422 44.737 133.239 44.8659 133.28 45.0013C133.321 45.1367 132.962 45.1711 132.697 45.0292C132.298 44.9282 132.21 44.8809 132.386 44.9755C132.955 45.3946 133.49 45.4548 133.768 45.1497C133.815 45.0615 133.774 44.9261 133.598 44.8316Z" fill="white"/>
<path d="M124.016 55.9186C123.664 55.7295 123.346 55.8992 123.651 56.1765C123.78 56.3592 124.003 56.3656 124.051 56.2775C124.145 56.1013 124.104 55.9659 124.016 55.9186Z" fill="white"/>
<path d="M120.182 60.1028C119.511 60.0835 119.511 60.0835 119.918 59.961C120.412 59.8858 120.324 59.8385 119.226 59.1357C118.48 58.622 118.08 58.5209 118.033 58.609C118.074 58.7444 118.203 58.9271 118.379 59.0217C118.996 59.3527 119.213 59.5827 119.03 59.7116C118.8 59.9287 119.546 60.4424 120.081 60.5026C120.304 60.509 120.575 60.4274 120.711 60.3866C120.941 60.1695 120.717 60.163 120.182 60.1028Z" fill="white"/>
<path d="M120.085 58.8026C120.173 58.8499 120.397 58.8563 120.62 58.8628C120.891 58.7811 120.939 58.693 120.85 58.6457C120.633 58.4158 119.956 58.6199 120.085 58.8026Z" fill="white"/>
<path d="M128.962 47.3372C129.003 47.4726 129.044 47.608 129.132 47.6553C129.22 47.7026 129.267 47.6145 129.403 47.5737C129.45 47.4856 129.409 47.3502 129.233 47.2556C129.057 47.161 129.009 47.2491 128.962 47.3372Z" fill="white"/>
<path d="M120.659 57.5217C120.395 57.3798 120.042 57.1907 119.819 57.1842C119.595 57.1778 119.684 57.2251 120.165 57.5969C120.606 57.8333 120.87 57.9752 121.005 57.9344C121.1 57.7581 120.924 57.6636 120.659 57.5217Z" fill="white"/>
<path d="M120.285 56.5266C120.373 56.5739 120.333 56.4385 120.156 56.3439C119.804 56.1548 120.04 55.7142 120.528 55.8625C120.704 55.9571 120.576 55.7744 120.135 55.538C119.694 55.3016 119.254 55.0651 119.03 55.0587C118.719 55.0049 118.76 55.1403 119.37 55.6948C119.804 56.1548 120.15 56.5674 120.285 56.5266Z" fill="white"/>
<path d="M118.897 56.576C118.721 56.4814 118.633 56.4341 118.585 56.5222C118.538 56.6103 118.579 56.7457 118.62 56.8812C118.661 57.0166 118.884 57.023 118.931 56.9349C119.114 56.806 119.073 56.6705 118.897 56.576Z" fill="white"/>
<path d="M116.845 56.3824C116.709 56.4233 116.662 56.5114 116.838 56.606C117.014 56.7005 117.191 56.7951 117.326 56.7543C117.461 56.7134 117.509 56.6253 117.332 56.5308C117.156 56.4362 116.933 56.4297 116.845 56.3824Z" fill="white"/>
<path d="M117.913 55.0264C118.366 54.8158 118.366 54.8158 117.878 54.6675C117.391 54.5191 117.208 54.6481 117.513 54.9253C117.554 55.0607 117.689 55.0199 117.913 55.0264Z" fill="white"/>
<path d="M117.885 54.4439C117.885 54.4439 117.844 54.3086 117.803 54.1731C117.762 54.0377 117.539 54.0313 117.492 54.1194C117.444 54.2075 117.485 54.3429 117.573 54.3902C117.661 54.4375 117.838 54.5321 117.885 54.4439Z" fill="white"/>
<path d="M116.619 54.8995C116.084 54.8393 115.901 54.9682 116.206 55.2455C116.294 55.2928 116.518 55.2992 116.701 55.1703C117.019 55.0005 116.931 54.9532 116.619 54.8995Z" fill="white"/>
<path d="M113.716 51.639C113.58 51.6799 113.621 51.8153 113.75 51.998C113.926 52.0925 114.055 52.2752 113.961 52.4514C113.913 52.5396 114.042 52.7222 114.307 52.8641C114.571 53.006 114.835 53.1478 114.835 53.1478C114.835 53.1478 114.665 52.8297 114.455 52.3763C114.115 51.7401 113.986 51.5574 113.716 51.639Z" fill="white"/>
<path d="M130.384 32.2115C130.248 32.2523 130.289 32.3877 130.465 32.4823C130.641 32.5768 130.818 32.6714 130.953 32.6306C131 32.5425 130.959 32.4071 130.871 32.3598C130.695 32.2652 130.472 32.2587 130.384 32.2115Z" fill="white"/>
<path d="M111.584 52.6512C111.367 52.4212 111.19 52.3266 111.055 52.3675C111.008 52.4556 111.137 52.6383 111.401 52.7801C111.665 52.922 111.93 53.0639 111.93 53.0639C112.018 53.1111 111.801 52.8812 111.584 52.6512Z" fill="white"/>
<path d="M127.658 30.5221C127.74 30.7929 127.828 30.8401 128.146 30.6704C128.282 30.6296 128.329 30.5414 128.065 30.3996C127.753 30.3458 127.618 30.3867 127.658 30.5221Z" fill="white"/>
<path d="M111.493 51.1274C111.405 51.0801 111.182 51.0737 111.134 51.1618C111.087 51.2499 111.175 51.2972 111.352 51.3918C111.528 51.4863 111.663 51.4455 111.71 51.3574C111.758 51.2693 111.67 51.222 111.493 51.1274Z" fill="white"/>
<path d="M110.756 51.8667C110.58 51.7721 110.404 51.6776 110.404 51.6776C110.404 51.6776 110.533 51.8602 110.662 52.0429C110.791 52.2256 110.967 52.3202 111.014 52.2321C111.061 52.144 110.932 51.9613 110.756 51.8667Z" fill="white"/>
<path d="M109.839 49.5584C109.879 49.6938 110.008 49.8765 110.185 49.9711C110.672 50.1194 110.672 50.1194 110.238 49.6595C109.933 49.3822 109.798 49.423 109.839 49.5584Z" fill="white"/>
<path d="M109.953 48.7117C109.824 48.529 109.647 48.4344 109.559 48.3871C109.248 48.3334 109.506 48.6987 109.858 48.8879C110.122 49.0298 110.17 48.9416 109.953 48.7117Z" fill="white"/>
<path d="M107.937 50.3535C107.672 50.2117 107.361 50.1579 107.361 50.1579C107.361 50.1579 107.49 50.3406 107.754 50.4825C108.018 50.6243 108.283 50.7662 108.33 50.6781C108.377 50.59 108.201 50.4954 107.937 50.3535Z" fill="white"/>
<path d="M110.344 47.5597C110.479 47.5189 110.526 47.4308 110.398 47.2481C110.309 47.2008 110.086 47.1944 110.039 47.2825C109.991 47.3706 109.897 47.5468 109.985 47.5941C109.938 47.6822 110.161 47.6887 110.344 47.5597Z" fill="white"/>
<path d="M108.407 47.9959C108.624 48.2259 108.577 48.314 108.137 48.0776C107.784 47.8884 107.696 47.8411 107.866 48.1592C107.995 48.3419 108.124 48.5246 108.3 48.6192C108.564 48.761 109.018 48.5504 108.889 48.3677C108.848 48.2323 108.672 48.1378 108.407 47.9959C108.238 47.6778 108.19 47.7659 108.407 47.9959Z" fill="white"/>
<path d="M109.91 47.0998C109.91 47.0998 109.869 46.9644 109.693 46.8698C109.605 46.8225 109.381 46.8161 109.334 46.9042C109.286 46.9923 109.375 47.0396 109.551 47.1342C109.686 47.0933 109.91 47.0998 109.91 47.0998Z" fill="white"/>
<path d="M106.845 49.4272C106.492 49.238 106.052 49.0016 105.876 48.907C105.388 48.7587 105.022 49.0166 105.375 49.2057C105.551 49.3003 105.686 49.2595 105.734 49.1714C105.828 48.9951 106.005 49.0897 106.486 49.4615C106.879 49.7861 107.144 49.9279 107.191 49.8398C107.326 49.799 107.109 49.569 106.845 49.4272Z" fill="white"/>
<path d="M129.582 21.227C129.718 21.1862 129.765 21.0981 129.589 21.0035C129.413 20.9089 129.236 20.8143 129.101 20.8552C128.966 20.896 128.918 20.9841 129.095 21.0787C129.224 21.2614 129.447 21.2678 129.582 21.227Z" fill="white"/>
<path d="M106.701 48.215C106.389 48.1613 106.254 48.2021 106.342 48.2494C106.43 48.2967 106.83 48.3977 107.141 48.4515C107.453 48.5052 107.588 48.4644 107.5 48.4171C107.412 48.3698 107.013 48.2688 106.701 48.215Z" fill="white"/>
<path d="M131.725 18.2913C131.908 18.1624 131.874 17.8035 131.792 17.5327C131.493 17.0319 131.446 17.12 131.467 17.926C131.448 18.5965 131.448 18.5965 131.725 18.2913Z" fill="white"/>
<path d="M107.89 45.7887C107.578 45.7349 107.836 46.1003 108.364 46.384L108.981 46.715L108.547 46.2551C108.242 45.9778 107.978 45.836 107.89 45.7887Z" fill="white"/>
<path d="M106.699 46.7386C106.583 46.1088 105.906 46.313 106.022 46.9427C106.056 47.3016 106.097 47.437 106.28 47.3081C106.374 47.1318 106.598 47.1383 106.862 47.2802C107.126 47.422 107.079 47.5101 106.849 47.7272C106.619 47.9442 106.619 47.9442 106.931 47.998C107.466 48.0582 107.696 47.8411 107.662 47.4822C107.58 47.2114 107.492 47.1641 107.221 47.2458C106.869 47.0566 106.78 47.0094 106.699 46.7386Z" fill="white"/>
<path d="M129.303 20.0557C129.127 19.9611 128.992 20.0019 128.944 20.0901C128.897 20.1782 128.938 20.3136 129.026 20.3608C129.202 20.4554 129.338 20.4146 129.385 20.3265C129.432 20.2384 129.391 20.103 129.303 20.0557Z" fill="white"/>
<path d="M130.999 17.1071C130.911 17.0598 130.687 17.0534 130.64 17.1415C130.593 17.2296 130.681 17.2769 130.857 17.3715C131.033 17.466 131.169 17.4252 131.216 17.3371C131.175 17.2017 131.087 17.1544 130.999 17.1071Z" fill="white"/>
<path d="M105.833 47.2951C105.622 46.8417 105.534 46.7944 105.175 46.8287C104.952 46.8223 104.904 46.9104 105.033 47.0931C105.162 47.2758 104.851 47.222 104.41 46.9856C103.834 46.79 103.61 46.7835 103.651 46.9189C103.78 47.1016 106.037 47.9721 106.131 47.7959C106.084 47.884 106.002 47.6132 105.833 47.2951Z" fill="white"/>
<path d="M106.46 45.7026C106.46 45.7026 106.42 45.5672 106.379 45.4318C106.338 45.2964 106.202 45.3373 106.067 45.3781C106.02 45.4662 106.061 45.6016 106.149 45.6489C106.325 45.7435 106.413 45.7907 106.46 45.7026Z" fill="white"/>
<path d="M105.945 44.9719C106.256 45.0256 106.303 44.9375 106.222 44.6667C106.011 44.2132 105.571 43.9768 105.205 44.2347C104.752 44.4453 105.274 44.9525 105.945 44.9719Z" fill="white"/>
<path d="M103.798 44.9546C103.621 44.86 103.574 44.9481 103.703 45.1308C103.832 45.3135 103.961 45.4962 104.008 45.4081C104.096 45.4554 104.144 45.3672 104.103 45.2318C104.103 45.2318 103.974 45.0492 103.798 44.9546Z" fill="white"/>
<path d="M102.437 45.5864C102.654 45.8163 102.918 45.9582 103.095 46.0528C103.271 46.1473 103.142 45.9647 102.701 45.7282C102.396 45.451 102.308 45.4037 102.437 45.5864Z" fill="white"/>
<path d="M98.4438 47.529C98.4846 47.6644 98.9725 47.8127 99.4604 47.961L100.436 48.2577L99.5549 47.7848C98.5384 47.3528 98.3622 47.2582 98.4438 47.529Z" fill="white"/>
<path d="M101.792 44.6729C101.84 44.5848 101.711 44.4021 101.535 44.3076C101.358 44.213 101.229 44.0303 101.277 43.9422C101.324 43.8541 101.547 43.8605 101.812 44.0024C102.476 44.2453 102.441 43.8864 101.689 43.5962C101.113 43.4006 101.072 43.2652 101.391 43.0954C101.709 42.9256 101.709 42.9256 101.045 42.6828C100.645 42.5817 100.421 42.5753 100.55 42.7579C100.679 42.9406 100.544 42.9815 100.368 42.8869C99.9678 42.7859 99.9076 43.321 100.395 43.4693C100.572 43.5639 100.877 43.8412 101.006 44.0238C101.345 44.66 101.61 44.8019 101.792 44.6729Z" fill="white"/>
<path d="M102.366 43.3921C102.414 43.3039 102.508 43.1277 102.332 43.0331C102.244 42.9859 102.108 43.0267 101.973 43.0675C101.926 43.1556 101.831 43.3318 102.007 43.4264C102.184 43.521 102.319 43.4802 102.366 43.3921Z" fill="white"/>
<path d="M100.37 44.3634C100.282 44.3161 100.275 44.5396 100.404 44.7223C100.615 45.1758 100.75 45.1349 100.628 44.7287C100.634 44.5052 100.458 44.4107 100.37 44.3634Z" fill="white"/>
<path d="M99.8991 42.068C100.028 42.2507 100.157 42.4334 100.204 42.3453C100.252 42.2572 100.211 42.1218 100.17 41.9864C99.8239 41.5737 99.6885 41.6145 99.8991 42.068Z" fill="white"/>
<path d="M99.1942 41.6897C99.018 41.5952 98.9707 41.6833 99.0115 41.8187C99.0523 41.9541 99.0932 42.0895 99.1813 42.1368C99.2694 42.184 99.3167 42.0959 99.364 42.0078C99.4113 41.9197 99.3704 41.7843 99.1942 41.6897Z" fill="white"/>
<path d="M98.1668 43.1812C98.0314 43.222 97.8144 42.9921 97.6854 42.8094C97.4684 42.5794 97.1159 42.3903 96.7162 42.2892C96.0929 42.1817 96.0929 42.1817 97.103 42.8373C97.7198 43.1683 98.2485 43.452 98.2958 43.3639C98.343 43.2758 98.2549 43.2285 98.1668 43.1812Z" fill="white"/>
<path d="M93.735 46.3639C93.5588 46.2693 93.4234 46.3101 93.3761 46.3982C93.3761 46.3982 93.417 46.5337 93.5932 46.6282C93.6813 46.6755 93.9048 46.682 93.9521 46.5939C94.0467 46.4176 93.9586 46.3703 93.735 46.3639Z" fill="white"/>
<path d="M95.4309 43.4153C94.726 43.037 93.7976 42.6523 93.9265 42.835C93.9673 42.9704 94.5433 43.166 94.8958 43.3551C95.3836 43.5034 95.6071 43.5099 95.4309 43.4153Z" fill="white"/>
<path d="M95.6051 42.0334C95.7813 42.128 95.6524 41.9453 95.388 41.8034C95.0356 41.6143 94.9474 41.567 94.9883 41.7024C95.1645 41.797 95.3816 42.0269 95.6051 42.0334Z" fill="white"/>
<path d="M93.3635 42.1923C93.2345 42.0096 92.9294 41.7324 92.8004 41.5497C92.6715 41.367 92.5361 41.4078 92.5361 41.4078C92.4888 41.4959 92.7058 41.7259 93.011 42.0032C93.4859 42.5985 93.8857 42.6996 93.3635 42.1923Z" fill="white"/>
<path d="M91.8312 41.0295C91.5668 40.8877 91.3906 40.7931 91.4314 40.9285C91.4723 41.0639 91.296 40.9693 91.079 40.7394C90.8619 40.5094 90.6384 40.5029 90.503 40.5437C90.4557 40.6319 90.6728 40.8618 91.1134 41.0983C92.0418 41.483 92.4888 41.4959 91.8312 41.0295Z" fill="white"/>
<path d="M88.8891 39.1102C88.1842 38.7319 87.7028 38.36 87.7501 38.2719C87.98 38.0549 87.3568 37.9474 87.0387 38.1171C86.856 38.2461 86.5444 38.1923 86.3681 38.0978C86.1919 38.0032 86.2392 37.9151 86.4154 38.0097C86.6389 38.0161 86.7743 37.9753 86.9097 37.9345C87.2278 37.7647 85.9942 37.1027 85.6762 37.2724C85.4935 37.4014 85.0529 37.165 84.4361 36.8339C83.9074 36.5502 83.4669 36.3138 83.555 36.3611C83.6366 36.6319 85.4805 37.8484 85.3989 37.5776C85.3581 37.4422 85.6697 37.496 85.9813 37.5497C86.4692 37.698 86.5573 37.7453 86.2392 37.9151C85.9211 38.0848 85.9211 38.0848 86.4498 38.3686C86.8023 38.5577 87.3782 38.7533 87.8188 38.9898C88.1712 39.1789 88.9234 39.4691 89.364 39.7055C89.9873 39.813 89.9873 39.813 88.8891 39.1102Z" fill="white"/>
<path d="M88.4808 37.7562C88.7924 37.8099 88.8805 37.8572 88.9214 37.9926C88.8676 38.3042 89.4844 38.6352 89.6671 38.5063C89.7144 38.4182 89.6736 38.2828 89.4565 38.0528C89.3276 37.8701 89.0632 37.7283 88.8462 37.4983C88.7172 37.3156 88.4056 37.2619 88.094 37.2081C87.8705 37.2016 87.5588 37.1479 87.4299 36.9652C87.301 36.7825 87.0774 36.7761 87.0774 36.7761C86.8883 37.1285 87.9457 37.696 88.4808 37.7562Z" fill="white"/>
<path d="M82.9725 36.389C82.532 36.1526 82.0914 35.9161 81.956 35.9569C81.8679 35.9097 82.085 36.1396 82.5255 36.3761C82.9661 36.6125 83.4067 36.8489 83.5421 36.8081C83.6302 36.8554 83.4131 36.6254 82.9725 36.389Z" fill="white"/>
<path d="M83.5744 35.6905C83.6216 35.6024 83.5335 35.5551 83.3573 35.4606C83.1811 35.366 83.0457 35.4068 82.9984 35.4949C82.9984 35.4949 83.0392 35.6303 83.2154 35.7249C83.3036 35.7722 83.5271 35.7786 83.5744 35.6905Z" fill="white"/>
<path d="M81.61 35.5443C81.5627 35.6324 81.4746 35.5851 81.2576 35.3551C81.0878 35.0371 80.9997 34.9898 80.817 35.1187C80.6343 35.2476 80.7224 35.2949 81.0276 35.5722C81.2919 35.7141 81.6917 35.8151 81.8271 35.7743C81.9625 35.7334 82.0098 35.6453 81.8335 35.5507C81.7927 35.4153 81.6573 35.4562 81.61 35.5443Z" fill="white"/>
<path d="M79.7229 37.3688C79.3705 37.1797 79.2351 37.2205 79.364 37.4032C79.5403 37.4978 79.8046 37.6396 80.0281 37.6461C80.2516 37.6526 80.1635 37.6053 79.7229 37.3688Z" fill="white"/>
<path d="M113.77 -5.98453C113.858 -5.93725 114.035 -5.84267 114.17 -5.8835C114.305 -5.92433 114.265 -6.05973 114.088 -6.1543C113.912 -6.24887 113.736 -6.34344 113.689 -6.25533C113.553 -6.2145 113.594 -6.0791 113.77 -5.98453Z" fill="white"/>
<path d="M112.543 -6.87006C112.672 -6.68737 112.984 -6.63363 113.072 -6.58634C113.207 -6.62717 113.078 -6.80985 112.814 -6.95171C112.245 -7.37083 112.109 -7.33 112.543 -6.87006Z" fill="white"/>
<path d="M111.398 -7.48478C111.926 -7.20106 112.015 -7.15378 111.669 -7.56644C111.54 -7.74912 111.275 -7.89098 111.14 -7.85016C111.093 -7.76204 111.133 -7.62664 111.398 -7.48478Z" fill="white"/>
<path d="M78.4294 32.589C78.395 32.2301 78.395 32.2301 78.1651 32.4471C78.0705 32.6234 78.1113 32.7588 78.1994 32.8061C78.2875 32.8533 78.4165 33.036 78.2811 33.0769C78.2338 33.165 78.0576 33.0704 78.0167 32.935C77.7589 32.5696 77.6578 32.9694 77.9157 33.3347C78.0855 33.6528 78.1736 33.7001 78.1801 33.4766C78.1392 33.3412 78.3692 33.1241 78.5927 33.1306C78.8635 33.0489 78.9989 33.0081 78.7754 33.0017C78.64 33.0425 78.4229 32.8125 78.4294 32.589Z" fill="white"/>
<path d="M110.097 -7.38814C110.186 -7.34086 110.409 -7.3344 110.409 -7.3344C110.409 -7.3344 110.368 -7.4698 110.327 -7.60519C110.287 -7.74059 110.151 -7.69977 110.016 -7.65894C109.88 -7.61811 109.921 -7.48272 110.097 -7.38814Z" fill="white"/>
<path d="M110.076 -8.19408C110.164 -8.1468 110.211 -8.23491 110.171 -8.37031C110.13 -8.50571 109.954 -8.60028 109.865 -8.64757C109.689 -8.74214 109.642 -8.65403 109.771 -8.47134C109.812 -8.33594 109.941 -8.15325 110.076 -8.19408Z" fill="white"/>
<path d="M102.952 -12.4713C104.802 -11.4783 106.388 -10.6271 107.568 -9.65351C107.656 -9.60622 107.521 -9.5654 107.297 -9.57186C107.121 -9.66643 105.271 -10.6594 100.607 -13.3892C99.6378 -13.9093 98.804 -14.4703 98.7159 -14.5176C98.6278 -14.5649 98.0991 -14.8486 97.6177 -15.2204C97.1363 -15.5922 96.5603 -15.7879 96.4249 -15.747C96.2014 -15.7535 96.0252 -15.8481 95.8081 -16.078C95.4621 -16.4907 94.7981 -16.7336 94.8797 -16.4628C94.9205 -16.3274 95.4019 -15.9555 96.0187 -15.6245C96.6355 -15.2935 98.2624 -14.307 99.7603 -13.5031C101.211 -12.6111 102.973 -11.6654 103.678 -11.2871C104.383 -10.9088 105.922 -9.96953 107.108 -9.2194C109.087 -8.0437 109.704 -7.71269 109.277 -8.39615C109.236 -8.53155 109.06 -8.62612 109.012 -8.53801C108.782 -8.32096 107.779 -9.20002 107.792 -9.64705C107.716 -10.1414 107.716 -10.1414 105.385 -11.5062C104.063 -12.2155 102.348 -13.2494 101.514 -13.8103C100.504 -14.4659 100.063 -14.7023 100.057 -14.4788C100.098 -14.3434 100.01 -14.3907 99.7045 -14.668C99.5756 -14.8506 99.2231 -15.0398 99.2231 -15.0398C99.0877 -14.999 98.4709 -15.33 97.8133 -15.7964C97.1557 -16.2628 96.5389 -16.5938 96.4916 -16.5057C96.3089 -16.3767 100.437 -13.7072 102.952 -12.4713Z" fill="white"/>
<path d="M76.9315 31.7851C76.7553 31.6906 76.6199 31.7314 76.6199 31.7314C76.5726 31.8195 76.6134 31.9549 76.7015 32.0022C76.8777 32.0968 77.0131 32.0559 77.0131 32.0559C77.1485 32.0151 77.1077 31.8797 76.9315 31.7851Z" fill="white"/>
<path d="M108.666 -8.95067C108.802 -8.9915 108.978 -8.89692 109.066 -8.84964C109.107 -8.71424 109.33 -8.70778 109.378 -8.79589C109.425 -8.884 109.208 -9.11398 108.855 -9.30312C108.503 -9.49227 108.239 -9.63413 108.191 -9.54602C108.049 -9.28167 108.443 -8.95713 108.666 -8.95067Z" fill="white"/>
<path d="M75.008 31.7743C74.2493 31.7076 74.4664 31.9376 75.4894 32.1461C75.9772 32.2944 76.1126 32.2536 75.8956 32.0236C75.8075 31.9763 75.455 31.7872 75.008 31.7743Z" fill="white"/>
<path d="M74.0387 31.2541C73.8625 31.1596 73.639 31.1531 73.639 31.1531C73.639 31.1531 73.7679 31.3358 73.9441 31.4304C74.1204 31.5249 74.2966 31.6195 74.3439 31.5314C74.3912 31.4433 74.3031 31.396 74.0387 31.2541Z" fill="white"/>
<path d="M72.7922 31.0391C72.6633 30.8565 72.3108 30.6673 72.0873 30.6608C71.8638 30.6544 71.9046 30.7898 72.3452 31.0262C73.0909 31.5399 73.2263 31.4991 72.7922 31.0391Z" fill="white"/>
<path d="M72.2421 29.9495C72.0659 29.8549 71.9305 29.8957 71.8832 29.9838C71.8832 29.9838 71.924 30.1193 72.1002 30.2138C72.1883 30.2611 72.4119 30.2676 72.4591 30.1795C72.4183 30.0441 72.3775 29.9087 72.2421 29.9495Z" fill="white"/>
<path d="M71.0364 29.8699C70.8537 29.9988 70.5421 29.9451 70.1015 29.7087C69.5728 29.4249 69.532 29.2895 69.979 29.3025C70.5615 29.2745 70.5744 28.8275 70.093 28.4557C69.8287 28.3138 69.6933 28.3547 69.7341 28.4901C69.7749 28.6255 69.6868 28.5782 69.6051 28.3074C69.3946 27.8539 69.171 27.8474 69.07 28.2472C69.0227 28.3353 68.8465 28.2407 68.5822 28.0988C68.0535 27.8151 66.9832 27.6947 67.0648 27.9655C67.0992 28.3244 67.9395 28.6619 68.6101 28.6813C69.416 28.6598 69.6331 28.8898 69.1796 29.1004C68.8615 29.2702 68.9496 29.3174 69.302 29.5066C69.5664 29.6484 70.1424 29.8441 70.5829 30.0805C71.5113 30.4652 71.5995 30.5125 71.5243 30.0182C71.4426 29.7474 71.3545 29.7001 71.0364 29.8699Z" fill="white"/>
<path d="M68.4188 27.5572C68.6832 27.6991 68.8186 27.6583 68.6424 27.5637C68.4661 27.4691 68.2491 27.2392 68.032 27.0092C67.7269 26.7319 67.7269 26.7319 67.8085 27.0027C67.9374 27.1854 68.1545 27.4154 68.4188 27.5572Z" fill="white"/>
<path d="M66.8199 27.1531C66.5555 27.0113 66.2439 26.9575 66.1966 27.0456C66.1493 27.1337 65.9731 27.0392 65.885 26.9919C65.7088 26.8973 65.7561 26.8092 65.8915 26.7684C66.0269 26.7275 66.0269 26.7275 65.8506 26.633C65.3628 26.4846 65.3907 27.0671 65.8785 27.2154C66.0548 27.31 66.3664 27.3637 66.4953 27.5464C66.6716 27.641 66.6716 27.641 66.6307 27.5056C66.5899 27.3702 66.7253 27.3293 66.9488 27.3358C67.2605 27.3895 67.2196 27.2541 66.8199 27.1531Z" fill="white"/>
<path d="M64.0411 25.7753C63.9938 25.8635 64.9501 26.8306 65.1736 26.8371C65.1736 26.8371 65.2209 26.749 65.1801 26.6136C65.0984 26.3428 64.1357 25.5991 64.0411 25.7753Z" fill="white"/>
<path d="M65.4165 26.173C65.4165 26.173 65.3757 26.0376 65.3349 25.9022C65.294 25.7668 65.1178 25.6722 64.7181 25.5712C64.1829 25.511 64.1829 25.511 64.7997 25.842C65.1522 26.0312 65.4165 26.173 65.4165 26.173Z" fill="white"/>
<path d="M63.7553 24.8275C63.6672 24.7803 63.2202 24.7673 62.814 24.8898C62.137 25.0939 62.137 25.0939 62.6656 25.3777C62.93 25.5195 63.2416 25.5733 63.377 25.5324C63.5124 25.4916 63.4243 25.4443 63.2889 25.4852C62.8827 25.6076 62.7129 25.2896 63.031 25.1198C63.2137 24.9908 63.4372 24.9973 63.478 25.1327C63.5189 25.2681 63.6543 25.2273 63.7897 25.1865C63.9723 25.0575 63.8842 25.0102 63.7553 24.8275Z" fill="white"/>
<path d="M96.051 -16.7421C95.834 -16.9721 94.336 -17.776 94.2415 -17.5997C94.1942 -17.5116 94.6348 -17.2752 95.1634 -16.9915C96.1327 -16.4713 96.3562 -16.4648 96.051 -16.7421Z" fill="white"/>
<path d="M61.7501 24.5459C61.4041 24.1332 61.0044 24.0322 60.7744 24.2492C60.7271 24.3374 60.7271 24.3374 60.9507 24.3438C61.0861 24.303 61.4385 24.4921 61.6147 24.5867C61.791 24.6813 62.008 24.9113 62.008 24.9113C62.0553 24.8231 61.9264 24.6405 61.7501 24.5459Z" fill="white"/>
<path d="M60.8302 25.4141C60.7421 25.3668 60.6132 25.1841 60.4778 25.225C60.3897 25.1777 60.4305 25.3131 60.6475 25.543C60.9527 25.8203 61.0881 25.7795 60.8302 25.4141Z" fill="white"/>
<path d="M94.0394 -16.8002C94.2156 -16.7057 94.3919 -16.6111 94.4391 -16.6992C94.4864 -16.7873 94.4456 -16.9227 94.1813 -17.0646C94.005 -17.1592 93.8288 -17.2537 93.7815 -17.1656C93.7342 -17.0775 93.8632 -16.8948 94.0394 -16.8002Z" fill="white"/>
<path d="M93.6655 -17.7953C93.8417 -17.7008 93.9771 -17.7416 93.9771 -17.7416C94.0244 -17.8297 93.9836 -17.9651 93.8955 -18.0124C93.7193 -18.107 93.5838 -18.0661 93.5838 -18.0661C93.4485 -18.0253 93.4893 -17.8899 93.6655 -17.7953Z" fill="white"/>
<path d="M93.341 -17.4021C93.3882 -17.4902 93.1712 -17.7201 92.9068 -17.862C92.5544 -18.0511 92.2019 -18.2403 92.0665 -18.1995C91.9311 -18.1586 92.1482 -17.9287 92.5007 -17.7395C92.9412 -17.5031 93.2937 -17.3139 93.341 -17.4021Z" fill="white"/>
<path d="M90.2978 -18.9217C90.6976 -18.8206 90.4805 -19.0506 89.3823 -19.7535C88.5485 -20.3144 87.9317 -20.6454 87.9725 -20.51C88.1423 -20.192 89.81 -19.07 90.2978 -18.9217Z" fill="white"/>
<path d="M54.7633 21.7043C54.6752 21.657 54.4517 21.6506 54.4044 21.7387C54.3571 21.8268 54.4452 21.8741 54.6215 21.9686C54.7977 22.0632 54.9331 22.0224 54.9804 21.9343C54.9804 21.9343 54.8923 21.887 54.7633 21.7043Z" fill="white"/>
<path d="M53.1365 20.7177C53.0484 20.6705 52.8721 20.5759 52.8248 20.664C52.7303 20.8402 53.6587 21.225 54.0176 21.1906C54.153 21.1498 54.0649 21.1025 53.8005 20.9606C53.577 20.9542 53.2246 20.765 53.1365 20.7177Z" fill="white"/>
<path d="M87.1322 -20.8475C87.1795 -20.9356 86.9151 -21.0775 86.6508 -21.2193C86.3865 -21.3612 85.9459 -21.5976 85.7697 -21.6922C85.5053 -21.8341 85.5934 -21.7868 85.7632 -21.4687C86.1092 -21.056 86.9022 -20.6305 87.1322 -20.8475Z" fill="white"/>
<path d="M86.711 -21.7545C86.9753 -21.6126 87.287 -21.5589 87.287 -21.5589C87.287 -21.5589 87.158 -21.7416 86.8937 -21.8834C86.6293 -22.0253 86.365 -22.1671 86.3177 -22.079C86.2704 -21.9909 86.4467 -21.8963 86.711 -21.7545Z" fill="white"/>
<path d="M84.5296 -22.1307C84.6177 -22.0834 84.5769 -22.2188 84.3126 -22.3607C84.0482 -22.5025 83.9601 -22.5498 84.089 -22.3671C84.1299 -22.2317 84.3942 -22.0899 84.5296 -22.1307Z" fill="white"/>
<path d="M49.6528 18.9617C49.6055 19.0498 49.382 19.0433 49.1176 18.9015C48.8533 18.7596 48.7652 18.7123 48.8468 18.9831C48.8876 19.1185 49.1928 19.3958 49.4571 19.5376C49.8977 19.7741 49.945 19.686 49.8225 19.2798C49.8763 18.9681 49.8354 18.8327 49.6528 18.9617Z" fill="white"/>
<path d="M83.0252 -22.7111C83.2014 -22.6165 83.3369 -22.6573 83.3369 -22.6573C83.3369 -22.6573 83.3433 -22.8808 83.2552 -22.9281C83.079 -23.0227 82.9436 -22.9819 82.9436 -22.9819C82.8082 -22.941 82.849 -22.8056 83.0252 -22.7111Z" fill="white"/>
<path d="M49.0489 18.1836C48.8727 18.0891 48.561 18.0353 48.3783 18.1643C48.0603 18.334 47.9721 18.2867 47.9786 18.0632C47.9915 17.6162 47.7272 17.4743 46.8739 17.5839C46.3796 17.6591 46.2442 17.6999 46.6913 17.7128C47.0029 17.7666 47.4435 18.003 47.8367 18.3276C48.4062 18.7467 48.5825 18.8413 48.5889 18.6177C48.5481 18.4824 48.7308 18.3534 48.9543 18.3599C49.2251 18.2782 49.2251 18.2782 49.0489 18.1836Z" fill="white"/>
<path d="M81.71 -23.6439C81.8862 -23.5493 81.7573 -23.732 81.4929 -23.8739C81.1405 -24.063 81.0524 -24.1103 81.0932 -23.9749C81.2694 -23.8803 81.5338 -23.7385 81.71 -23.6439Z" fill="white"/>
<path d="M81.1534 -24.51C81.2415 -24.4627 81.2888 -24.5509 81.3361 -24.639C81.3834 -24.7271 81.3425 -24.8625 81.1663 -24.9571C80.9901 -25.0516 80.9428 -24.9635 80.9836 -24.8281C81.0245 -24.6927 81.0653 -24.5573 81.1534 -24.51Z" fill="white"/>
<path d="M80.2529 -24.3124C80.4291 -24.2178 80.6053 -24.1232 80.6053 -24.1232C80.6053 -24.1232 80.4764 -24.3059 80.3475 -24.4886C80.2185 -24.6713 79.995 -24.6777 79.995 -24.6777C79.9477 -24.5896 80.0767 -24.4069 80.2529 -24.3124Z" fill="white"/>
<path d="M79.548 -24.6907C79.6834 -24.7315 79.7307 -24.8196 79.5544 -24.9142C79.3782 -25.0087 79.202 -25.1033 79.0666 -25.0625C78.9312 -25.0217 78.8839 -24.9335 79.0601 -24.839C79.2363 -24.7444 79.4126 -24.6498 79.548 -24.6907Z" fill="white"/>
<path d="M78.3144 -25.3527C78.4906 -25.2581 78.6668 -25.1635 78.7141 -25.2516C78.7614 -25.3397 78.7206 -25.4751 78.5444 -25.5697C78.3681 -25.6643 78.1919 -25.7589 78.1446 -25.6707C78.0092 -25.6299 78.1382 -25.4472 78.3144 -25.3527Z" fill="white"/>
<path d="M45.0365 16.1439C44.9957 16.0085 44.7721 16.002 44.7249 16.0901C44.6776 16.1782 44.7184 16.3136 44.8065 16.3609C44.9827 16.4555 45.0709 16.5028 45.1181 16.4147C45.1654 16.3265 45.0773 16.2793 45.0365 16.1439Z" fill="white"/>
<path d="M77.2097 -25.832C77.2979 -25.7847 77.5214 -25.7782 77.5687 -25.8664C77.6159 -25.9545 77.5278 -26.0018 77.3516 -26.0963C77.1754 -26.1909 77.04 -26.1501 76.9927 -26.062C76.9454 -25.9738 77.0335 -25.9266 77.2097 -25.832Z" fill="white"/>
<path d="M76.1524 -26.3994C76.2405 -26.3521 76.1997 -26.4875 75.9353 -26.6294C75.671 -26.7713 75.5829 -26.8185 75.7118 -26.6359C75.7526 -26.5005 76.017 -26.3586 76.1524 -26.3994Z" fill="white"/>
<path d="M73.3263 -27.6891C73.4144 -27.6418 73.2855 -27.8245 73.1092 -27.9191C72.8449 -28.0609 72.7568 -28.1082 72.8857 -27.9255C73.062 -27.8309 73.2382 -27.7364 73.3263 -27.6891Z" fill="white"/>
<path d="M57.9568 -14.4876C57.9568 -14.4876 57.916 -14.623 57.7398 -14.7175C57.6517 -14.7648 57.4282 -14.7713 57.3809 -14.6832C57.3336 -14.5951 57.4217 -14.5478 57.5979 -14.4532C57.7333 -14.494 57.8214 -14.4467 57.9568 -14.4876Z" fill="white"/>
<path d="M34.1319 11.0863C34.0373 11.2625 33.773 11.1206 33.0272 10.6069C32.1053 9.99867 32.0171 9.95138 32.0515 10.3103C32.1332 10.5811 32.174 10.7165 32.4448 10.6348C32.6683 10.6413 32.7564 10.6886 32.7972 10.824C32.8381 10.9594 32.6146 10.9529 32.391 10.9465C32.1267 10.8046 31.6389 10.6563 31.4153 10.6498C31.1037 10.5961 30.575 10.3124 30.2226 10.1232C29.782 9.88678 29.5177 9.74492 29.5585 9.88032C29.6402 10.1511 31.0027 10.9958 31.497 10.9206C32.0794 10.8927 34.8174 12.1351 34.8109 12.3586C34.8518 12.494 34.8518 12.494 34.9463 12.3178C34.9936 12.2297 34.9593 11.8708 34.7895 11.5527C34.4027 11.0046 34.2264 10.91 34.1319 11.0863Z" fill="white"/>
<path d="M58.1139 -18.3754C58.2021 -18.3281 58.7028 -18.6268 58.7028 -18.6268C58.3095 -18.9514 57.9163 -19.2759 57.9098 -19.0524C57.9506 -18.917 57.6863 -19.0589 57.422 -19.2007C57.0695 -19.3899 56.717 -19.579 56.5816 -19.5382C56.4462 -19.4974 56.1819 -19.6392 56.053 -19.8219C55.924 -20.0046 55.7005 -20.0111 55.6532 -19.923C55.5587 -19.7467 56.745 -18.9966 58.1139 -18.3754Z" fill="white"/>
<path d="M55.3951 -15.6354C55.307 -15.6827 55.1307 -15.7772 54.9072 -15.7837C54.7718 -15.7429 54.8127 -15.6075 54.9889 -15.5129C55.1651 -15.4183 55.3413 -15.3237 55.4767 -15.3646C55.524 -15.4527 55.4359 -15.5 55.3951 -15.6354Z" fill="white"/>
<path d="M54.0628 -19.0741C53.9682 -18.8979 53.8801 -18.9452 54.0628 -19.0741C54.2863 -19.0677 54.5098 -19.0612 54.5979 -19.0139C54.7742 -18.9193 54.7269 -18.8312 54.5915 -18.7904C54.2326 -18.756 54.585 -18.5669 55.3437 -18.5002C55.7907 -18.4873 55.8788 -18.44 55.608 -18.3584C55.3372 -18.2767 55.3372 -18.2767 55.7369 -18.1757C56.0013 -18.0338 56.3129 -17.9801 56.401 -17.9328C56.4891 -17.8855 56.7127 -17.879 56.7599 -17.9671C56.8072 -18.0553 56.7664 -18.1907 56.631 -18.1498C56.4956 -18.109 56.1904 -18.3863 56.0207 -18.7044C55.722 -19.2051 55.6338 -19.2524 55.4039 -19.0354C55.2685 -18.9945 54.9096 -18.9602 54.6925 -19.1901C54.469 -19.1966 54.2455 -19.2031 54.0628 -19.0741Z" fill="white"/>
<path d="M53.4437 -16.2286C53.3964 -16.1405 53.4372 -16.0051 53.5253 -15.9578C53.7016 -15.8633 53.837 -15.9041 53.837 -15.9041C53.8842 -15.9922 53.8434 -16.1276 53.7553 -16.1749C53.5791 -16.2695 53.491 -16.3168 53.4437 -16.2286Z" fill="white"/>
<path d="M65.9183 -31.4376C66.0064 -31.3904 65.8775 -31.573 65.7012 -31.6676C65.4369 -31.8095 65.3488 -31.8568 65.4777 -31.6741C65.6067 -31.4914 65.7829 -31.3968 65.9183 -31.4376Z" fill="white"/>
<path d="M65.3682 -32.5273C65.4563 -32.48 65.3273 -32.6627 65.1511 -32.7573C64.8868 -32.8991 64.7987 -32.9464 64.9276 -32.7637C65.1038 -32.6692 65.2801 -32.5746 65.3682 -32.5273Z" fill="white"/>
<path d="M54.5292 -19.7317C54.3121 -19.9617 53.56 -20.2519 53.3773 -20.123C53.33 -20.0348 53.4181 -19.9875 53.4589 -19.8521C53.547 -19.8049 53.7705 -19.7984 53.8178 -19.8865C53.8651 -19.9746 54.0413 -19.8801 54.2176 -19.7855C54.5636 -19.3728 54.699 -19.4136 54.5292 -19.7317Z" fill="white"/>
<path d="M25.9738 8.524C26.1027 8.70668 26.2789 8.80125 26.4143 8.76043C26.5024 8.80772 26.3735 8.62503 26.1973 8.53046C25.9329 8.3886 25.8448 8.34131 25.9738 8.524Z" fill="white"/>
<path d="M51.5034 -23.3984C51.5571 -23.71 51.469 -23.7573 51.3744 -23.5811C51.2799 -23.4049 51.1036 -23.4994 50.8393 -23.6413C50.5341 -23.9185 50.5341 -23.9185 50.792 -23.5532C51.0907 -23.0524 51.4904 -22.9514 51.5034 -23.3984Z" fill="white"/>
<path d="M49.9452 -23.6671C50.1623 -23.4371 50.7168 -24.0475 50.547 -24.3656C50.5062 -24.501 50.3708 -24.4601 50.1881 -24.3312C50.0936 -24.155 49.9109 -24.026 49.9109 -24.026C49.8636 -23.9379 49.8163 -23.8498 49.9452 -23.6671Z" fill="white"/>
<path d="M49.5176 -24.3506C49.5649 -24.4387 49.4768 -24.486 49.4359 -24.6214C49.3478 -24.6687 49.1308 -24.8986 48.8664 -25.0405C48.7375 -25.2232 48.5613 -25.3178 48.514 -25.2296C48.4667 -25.1415 48.6837 -24.9116 48.9008 -24.6816C49.206 -24.4043 49.4703 -24.2625 49.5176 -24.3506Z" fill="white"/>
<path d="M22.8942 5.16897C22.7179 5.0744 22.5825 5.11523 22.5353 5.20334C22.5353 5.20334 22.5761 5.33874 22.7523 5.43331C22.8404 5.4806 23.0639 5.48706 23.1112 5.39895C23.1585 5.31083 22.9823 5.21626 22.8942 5.16897Z" fill="white"/>
<path d="M48.0414 -29.0015C48.0414 -29.0015 48.0005 -29.1369 47.9597 -29.2723C47.9189 -29.4077 47.6954 -29.4141 47.6481 -29.326C47.6008 -29.2379 47.6416 -29.1025 47.7297 -29.0552C47.906 -28.9606 48.0414 -29.0015 48.0414 -29.0015Z" fill="white"/>
<path d="M18.1908 -16.308C18.2789 -16.2607 18.3262 -16.3488 18.3735 -16.4369C18.4208 -16.525 18.38 -16.6604 18.2037 -16.755C18.0275 -16.8496 17.9802 -16.7614 18.0211 -16.626C18.0619 -16.4906 18.1027 -16.3552 18.1908 -16.308Z" fill="white"/>
<path d="M26.066 -27.1759C26.1541 -27.1286 26.3776 -27.1221 26.4249 -27.2103C26.4722 -27.2984 26.3841 -27.3457 26.2078 -27.4402C26.0316 -27.5348 25.8962 -27.494 25.8489 -27.4059C25.8016 -27.3177 25.8898 -27.2705 26.066 -27.1759Z" fill="white"/>
<path d="M23.9081 -25.2697C24.2197 -25.2159 24.4905 -25.2976 24.5378 -25.3857C24.5851 -25.4738 24.497 -25.5211 24.1854 -25.5749C23.8737 -25.6286 23.6029 -25.5469 23.5557 -25.4588C23.5084 -25.3707 23.5965 -25.3234 23.9081 -25.2697Z" fill="white"/>
<path d="M19.4934 -19.5811C19.5407 -19.6692 19.4999 -19.8046 19.4117 -19.8519C19.3236 -19.8992 19.1001 -19.9056 19.0528 -19.8175C19.0055 -19.7294 19.0464 -19.594 19.1345 -19.5467C19.358 -19.5402 19.4934 -19.5811 19.4934 -19.5811Z" fill="white"/>
<path d="M24.927 -28.0141C24.9743 -28.1022 25.1978 -28.0958 25.2386 -27.9604C25.2794 -27.825 25.5029 -27.8185 25.5502 -27.9066C25.5975 -27.9947 25.5567 -28.1301 25.4686 -28.1774C25.3805 -28.2247 25.0688 -28.2785 24.798 -28.1968C24.5272 -28.1152 24.3918 -28.0743 24.5681 -27.9798C24.6089 -27.8444 24.8324 -27.8379 24.927 -28.0141Z" fill="white"/>
<path d="M23.7019 -27.4232C23.5257 -27.5177 23.5665 -27.3823 23.7363 -27.0643C24.1231 -26.5162 24.3874 -26.3743 24.0887 -26.8751C24.0952 -27.0986 23.8781 -27.3286 23.7019 -27.4232Z" fill="white"/>
<path d="M21.5934 -24.1286C21.7223 -23.9459 21.9458 -23.9395 21.9931 -24.0276C22.0404 -24.1157 21.9996 -24.2511 21.7352 -24.3929C21.559 -24.4875 21.3355 -24.494 21.3355 -24.494C21.2882 -24.4059 21.4172 -24.2232 21.5934 -24.1286Z" fill="white"/>
<path d="M7.52394 -6.37077C7.67226 -6.85863 6.92652 -7.37232 6.12058 -7.35087C5.49733 -7.45837 5.49733 -7.45837 6.29035 -7.03279C6.99526 -6.65449 7.16503 -6.33641 6.45366 -6.49119C6.27743 -6.58576 6.31826 -6.45036 6.5826 -6.3085C7.19939 -5.97749 7.4229 -5.97103 7.52394 -6.37077Z" fill="white"/>
<path d="M24.0673 -27.681C24.0265 -27.8164 23.8029 -27.8229 23.7148 -27.8702C23.5794 -27.8294 23.6203 -27.694 23.7965 -27.5994C24.1489 -27.4102 24.2843 -27.4511 24.0673 -27.681Z" fill="white"/>
<path d="M14.6619 -16.4994C14.8381 -16.4049 15.0208 -16.5338 15.0208 -16.5338C15.0681 -16.6219 14.98 -16.6692 14.8038 -16.7638C14.6275 -16.8583 14.4448 -16.7294 14.4448 -16.7294C14.3976 -16.6413 14.4857 -16.594 14.6619 -16.4994Z" fill="white"/>
<path d="M4.16917 -7.94415C3.93919 -7.7271 3.89191 -7.63899 4.15625 -7.49713C4.5087 -7.30798 4.69139 -7.43692 4.61619 -7.93123C4.53454 -8.20203 4.39914 -8.1612 4.16917 -7.94415Z" fill="white"/>
<path d="M4.90637 -8.68342C5.17717 -8.76508 5.17717 -8.76508 4.86555 -8.81883C4.64203 -8.82529 4.50663 -8.78446 4.54746 -8.64906C4.54746 -8.64906 4.77097 -8.6426 4.90637 -8.68342Z" fill="white"/>
<path d="M7.96295 -16.9167C7.86837 -16.7405 7.95649 -16.6932 8.26812 -16.6395C8.57974 -16.5857 8.62703 -16.6738 8.49809 -16.8565C8.32832 -17.1746 8.10481 -17.1811 7.96295 -16.9167Z" fill="white"/>
<path d="M9.2955 -18.1309C9.2955 -18.1309 9.16656 -18.3136 8.94305 -18.3201C8.54331 -18.4211 7.82548 -18.3524 8.08982 -18.2105C8.26605 -18.116 9.24822 -18.0428 9.2955 -18.1309Z" fill="white"/>
</g>
</svg>
