<svg width="19" height="31" viewBox="0 0 19 31" fill="none" xmlns="http://www.w3.org/2000/svg">
<path d="M11.3073 19.9657C11.0221 19.7489 10.6084 19.6404 10.0664 19.6404H8.40462V22.2062H10.0664C10.6084 22.2062 11.0221 22.0977 11.3073 21.8809C11.5997 21.6569 11.7495 21.3316 11.7495 20.9125C11.7495 20.4933 11.5997 20.1825 11.3073 19.9657Z" fill="url(#paint0_linear)"/>
<path d="M18.6319 1.98409C18.9742 1.63718 19.0812 1.22522 18.9385 0.762674C18.7959 0.31458 18.475 0.0688505 18.0256 0.0110319C17.5977 -0.0467867 17.2411 0.126669 16.9416 0.437444C15.4724 1.9335 14.0032 3.42233 12.534 4.91116C12.0918 5.35925 11.9278 5.37371 11.4072 4.98343C11.0434 4.70879 10.6797 4.44138 10.316 4.16674C9.53147 3.58856 8.64711 3.58133 7.87686 4.16674C5.87991 5.67726 3.87583 7.18777 1.88601 8.71273C0.623651 9.68119 0.00316976 10.9749 0.00316976 12.5794C0.0103017 14.856 0.00316976 17.1326 0.00316976 19.4092C0.00316976 21.7436 -0.0039622 24.0853 0.00316976 26.4197C0.0174337 28.9276 2.05718 30.9874 4.53197 30.9946C7.58445 31.0018 10.6441 31.0018 13.6965 30.9946C16.2213 30.9874 18.2539 28.9348 18.261 26.3835C18.2681 21.7364 18.2681 17.0892 18.2539 12.4348C18.2539 11.2568 17.8402 10.216 17.0414 9.36319C16.3211 8.58987 15.4082 8.04059 14.588 7.39013C13.9604 6.89867 13.939 6.73245 14.4953 6.17594C15.8718 4.77384 17.2554 3.37897 18.6319 1.98409ZM6.52892 7.96832C7.39188 6.86254 8.55439 6.47226 9.92373 6.71799C10.0664 6.73967 10.209 6.77581 10.2661 6.94204C10.3231 7.12272 10.2161 7.23113 10.102 7.34677C9.52434 7.93218 8.93952 8.5176 8.36183 9.11024C8.0195 9.4716 7.92678 9.90524 8.09795 10.375C8.25485 10.8014 8.58292 11.0255 9.01084 11.0833C9.38883 11.1339 9.70977 10.9966 9.97365 10.7219C10.5727 10.1148 11.1647 9.51497 11.7638 8.90787C12.0847 8.58264 12.2773 8.62601 12.4199 9.05964C13.1688 11.2929 11.5356 13.5695 8.92526 13.5767C7.80554 13.5189 6.75001 12.8974 6.13666 11.6253C5.52331 10.3461 5.65882 9.08855 6.52892 7.96832ZM12.7337 23.0084C12.099 23.4926 11.2075 23.7311 10.0735 23.7311H8.40462V24.4105H10.9793V25.4151H8.40462V26.5064H6.4576V25.4151H5.30222V24.4105H6.4576V18.036H10.0735C11.2146 18.036 12.099 18.2745 12.7337 18.7587C13.3756 19.2429 13.7037 19.9512 13.7037 20.8908C13.7037 21.8231 13.3827 22.5242 12.7337 23.0084Z" fill="url(#paint1_linear)"/>
<defs>
<linearGradient id="paint0_linear" x1="9.5" y1="0" x2="33.7778" y2="12.4" gradientUnits="userSpaceOnUse">
<stop stop-color="#F4A261"/>
<stop offset="1" stop-color="#E9C46A"/>
</linearGradient>
<linearGradient id="paint1_linear" x1="9.5" y1="0" x2="33.7778" y2="12.4" gradientUnits="userSpaceOnUse">
<stop stop-color="#F4A261"/>
<stop offset="1" stop-color="#E9C46A"/>
</linearGradient>
</defs>
</svg>
