<svg width="19" height="27" viewBox="0 0 19 27" fill="none" xmlns="http://www.w3.org/2000/svg">
<path d="M8.27493 2.64451C6.35757 2.64451 4.44021 2.64451 2.52285 2.64451C2.49317 2.64451 2.46349 2.6506 2.4338 2.64451C2.3507 2.63842 2.23791 2.68105 2.2201 2.54706C2.20823 2.41916 2.31508 2.41916 2.40412 2.40089C2.88495 2.30344 3.37171 2.19991 3.85253 2.10246C7.17676 1.41425 10.5069 0.732122 13.8311 0.0439071C14.3654 -0.06572 14.8403 0.0134551 15.1905 0.470235C15.5111 0.890472 15.5467 1.37161 15.3152 1.84666C15.0599 2.37044 14.6266 2.64451 14.0508 2.64451C12.1275 2.64451 10.1982 2.64451 8.27493 2.64451Z" fill="url(#paint0_linear)"/>
<path d="M18.9955 7.00523C18.9955 5.06848 17.5768 3.61897 15.6891 3.61897C10.869 3.61288 6.05483 3.61897 1.23471 3.61897C0.445208 3.61897 0 4.08184 0 4.90404C0 8.02842 0 11.1589 0 14.2833C0 17.4076 0 20.5381 0 23.6625C0 25.5261 1.44841 27 3.26486 27C7.43201 27 11.5932 27 15.7604 27C17.5412 27 18.9955 25.5139 18.9955 23.6929C19.0015 18.1324 19.0015 12.5719 18.9955 7.00523ZM8.46489 19.7524C7.96032 19.7463 7.52105 19.2896 7.52699 18.778C7.53292 18.2603 7.97813 17.8096 8.47676 17.8157C8.98133 17.8218 9.41467 18.2786 9.41467 18.7901C9.41467 19.3078 8.96946 19.7585 8.46489 19.7524ZM11.7001 19.7524C11.1896 19.7707 10.7325 19.3261 10.7206 18.8023C10.7087 18.2907 11.1421 17.8279 11.6466 17.8157C12.175 17.8035 12.5905 18.2542 12.6142 18.8571C12.632 19.3383 12.2343 19.7281 11.7001 19.7524ZM13.2672 13.7838C13.0772 14.807 12.7686 15.8059 12.5193 16.8108C12.4243 17.2006 12.0919 17.4381 11.6823 17.4381C11.148 17.4381 10.6197 17.4381 10.0854 17.4381C9.58088 17.4381 9.07631 17.4381 8.57174 17.4381C8.07904 17.4381 7.78224 17.1945 7.65758 16.7072C7.32516 15.4161 7.01054 14.1127 6.63657 12.8337C6.60095 12.718 6.56534 12.6571 6.43474 12.6693C6.32789 12.6815 6.22104 12.6754 6.11419 12.6693C5.86488 12.6632 5.71647 12.5292 5.72241 12.2978C5.72241 12.0724 5.86488 11.9384 6.10826 11.9324C6.33383 11.9324 6.5594 11.9324 6.78497 11.9324C7.03429 11.9324 7.18863 12.042 7.25986 12.2917C7.36077 12.6328 7.46762 12.9799 7.55073 13.3271C7.58635 13.4671 7.65164 13.4976 7.78224 13.4976C9.4859 13.4915 11.1896 13.4915 12.8932 13.4976C12.9585 13.4976 13.0298 13.4976 13.0951 13.5098C13.2672 13.5524 13.3028 13.6133 13.2672 13.7838Z" fill="url(#paint1_linear)"/>
<defs>
<linearGradient id="paint0_linear" x1="9.5" y1="0" x2="32.278" y2="13.3575" gradientUnits="userSpaceOnUse">
<stop stop-color="#F4A261"/>
<stop offset="1" stop-color="#E9C46A"/>
</linearGradient>
<linearGradient id="paint1_linear" x1="9.5" y1="0" x2="32.278" y2="13.3575" gradientUnits="userSpaceOnUse">
<stop stop-color="#F4A261"/>
<stop offset="1" stop-color="#E9C46A"/>
</linearGradient>
</defs>
</svg>
