<svg width="24" height="24" viewBox="0 0 24 24" fill="none" xmlns="http://www.w3.org/2000/svg">
<path d="M24 20.1919C24 22.3611 22.3716 24 20.1968 24C14.7116 24 9.23182 24 3.75201 24C1.64686 24 0.00238072 22.3504 0.00238072 20.2508C0.00238072 17.5032 0.00238072 14.7556 0.00238072 12.0027C0.00238072 9.2283 -0.0029759 6.45392 0.00238072 3.67418C0.00773733 1.65499 1.68436 0 3.69844 0C9.19433 0 14.6956 0 20.1915 0C22.3716 0 23.9946 1.62285 23.9946 3.80272C24 9.27114 23.9946 14.7342 24 20.1919ZM10.2871 17.8032C10.271 17.3586 10.2764 16.9087 10.2871 16.4642C10.2871 16.3196 10.2442 16.2821 10.1049 16.2821C9.66035 16.2874 9.21039 16.2874 8.7658 16.2874C8.10158 16.2874 7.7159 15.9018 7.71054 15.2484C7.71054 14.9645 7.71054 14.6753 7.71054 14.3272C7.68912 14.0112 7.74268 13.6255 7.6784 13.2453C7.60877 12.8382 7.45878 12.474 7.20702 12.1526C7.11596 12.0402 7.12667 11.9705 7.21238 11.8581C7.56056 11.3921 7.72126 10.8672 7.7159 10.2834C7.71054 9.75854 7.71054 9.2283 7.7159 8.70341C7.72126 8.13033 8.123 7.72328 8.6908 7.71792C9.15683 7.71256 9.6175 7.71256 10.0835 7.71792C10.2174 7.71792 10.2924 7.70185 10.2924 7.53582C10.2817 7.08056 10.2871 6.62531 10.2924 6.17005C10.2924 6.07364 10.2978 5.99331 10.1585 5.99866C9.51037 6.02544 8.85686 5.93974 8.20871 6.04687C6.93919 6.2611 6.00714 7.37514 6.00714 8.66057C6.00714 9.20687 6.00714 9.74782 6.00714 10.2941C6.00714 10.8244 5.68575 11.135 5.15544 11.1457C4.87154 11.1511 4.49658 11.0225 4.33588 11.1993C4.19661 11.3546 4.29303 11.7242 4.29303 11.9973C4.29303 12.2223 4.30374 12.4419 4.28767 12.6668C4.27696 12.8221 4.34124 12.865 4.48586 12.8543C4.72691 12.8436 4.96796 12.8489 5.20901 12.8543C5.67503 12.865 5.99643 13.1863 6.00179 13.647C6.00714 14.1986 6.00179 14.7556 6.00714 15.3073C6.0125 16.807 7.19095 17.9906 8.6908 17.9906C9.15683 17.9906 9.6175 17.9853 10.0835 17.996C10.2335 18.0067 10.2924 17.9746 10.2871 17.8032ZM19.7147 11.3546C19.7308 11.1672 19.6558 11.1297 19.4897 11.1404C19.2594 11.1511 19.0237 11.1457 18.7934 11.1404C18.3273 11.1297 18.006 10.8083 18.0006 10.3423C17.9952 9.79067 18.0006 9.23365 18.0006 8.68199C18.0006 7.18768 16.8114 5.99866 15.3169 5.99866C14.8456 5.99866 14.3688 6.00402 13.8974 5.99866C13.7635 5.99866 13.71 6.02544 13.7153 6.17541C13.726 6.63066 13.726 7.08592 13.7153 7.54118C13.71 7.68579 13.7582 7.72328 13.8974 7.71792C14.3527 7.71256 14.8081 7.71256 15.2634 7.71792C15.8901 7.71792 16.2865 8.1089 16.2918 8.73019C16.2918 9.01406 16.2918 9.30328 16.2918 9.64606C16.3133 9.97813 16.2597 10.3691 16.324 10.7601C16.3883 11.1672 16.5436 11.5314 16.7954 11.8527C16.8811 11.9652 16.8811 12.0348 16.7954 12.1473C16.4418 12.6079 16.2811 13.1381 16.2918 13.7219C16.2972 14.2415 16.2972 14.7556 16.2918 15.2752C16.2865 15.8804 15.8901 16.2821 15.2901 16.2874C14.8348 16.2874 14.3795 16.2981 13.9242 16.2821C13.7582 16.2767 13.7153 16.3303 13.7207 16.491C13.7314 16.9355 13.726 17.3854 13.7207 17.8299C13.7207 17.9264 13.7153 18.0067 13.8546 18.0013C14.5027 17.9746 15.1562 18.0603 15.8044 17.9531C17.0632 17.7443 17.9952 16.6463 18.006 15.3662C18.0113 14.8146 18.006 14.2575 18.006 13.7059C18.006 13.1756 18.322 12.865 18.8577 12.8543C19.1416 12.8489 19.5165 12.9775 19.6772 12.7954C19.8165 12.64 19.7201 12.2705 19.7201 11.992C19.7147 11.7831 19.6986 11.5688 19.7147 11.3546Z" fill="url(#paint0_linear)"/>
<defs>
<linearGradient id="paint0_linear" x1="12" y1="24" x2="34.8197" y2="4.98361" gradientUnits="userSpaceOnUse">
<stop stop-color="#F4A261"/>
<stop offset="1" stop-color="#E9C46A"/>
</linearGradient>
</defs>
</svg>
