<svg width="24" height="24" viewBox="0 0 24 24" fill="none" xmlns="http://www.w3.org/2000/svg">
<path d="M7.95752 3.85025C8.11435 3.85025 8.20845 3.85025 8.29732 3.85025C11.643 3.85025 14.9887 3.85025 18.3344 3.85025C20.1222 3.85025 21.5337 4.92736 21.9153 6.59293C22.4067 8.70511 20.7705 10.791 18.6114 10.812C18.5174 10.812 18.418 10.8068 18.3239 10.812C18.0416 10.833 17.8953 10.9591 17.8744 11.1903C17.8534 11.4057 17.9946 11.6264 18.2403 11.6579C18.5278 11.6895 18.831 11.6895 19.1185 11.6422C21.3141 11.3007 22.8667 9.49323 22.8824 7.27597C22.8981 5.05346 21.335 3.1567 19.1708 2.79416C18.8937 2.74687 18.601 2.63654 18.3239 2.83094C18.2821 2.85721 18.2037 2.8362 18.1462 2.8362C14.5548 2.8362 10.9686 2.8362 7.37725 2.84145C7.20474 2.84145 7.09496 2.78891 6.97995 2.65755C6.51992 2.11112 6.07034 1.54367 5.56849 1.03927C4.62229 0.0830099 3.46698 -0.23224 2.1862 0.172331C0.95771 0.561139 0.225842 1.44384 0.0376453 2.73111C-0.129639 3.90279 0.262434 4.88007 1.17727 5.63667C2.11825 6.41429 3.05922 7.19716 3.99497 7.98003C4.06293 8.03783 4.14657 8.12715 4.14657 8.2007C4.1518 8.95205 4.19362 9.70865 4.12566 10.46C4.01588 11.6842 3.05399 12.5249 1.77322 12.5932C1.37592 12.6142 1.09886 12.8927 1.1459 13.2342C1.1825 13.5284 1.38638 13.7018 1.70526 13.7123C3.55062 13.7701 5.12937 12.2517 5.1555 10.3969C5.16073 9.9556 5.1555 9.51425 5.1555 9.00985C5.67304 9.43543 6.1383 9.81899 6.60879 10.2078C12.1187 14.7527 17.6182 19.2923 23.1177 23.8266C23.2013 23.8949 23.3059 24 23.4 24C23.5673 24 23.7816 23.9842 23.8966 23.8844C24.0691 23.7373 24.0116 23.38 23.8286 23.1593C23.3895 22.6182 22.9399 22.0822 22.4956 21.541C17.7228 15.7404 12.9499 9.93458 8.17708 4.13398C8.11435 4.06042 8.06207 3.98161 7.95752 3.85025ZM5.16596 9.0151C4.84707 8.6946 4.57001 8.43189 4.31908 8.14816C4.23544 8.05884 4.17271 7.91173 4.17271 7.79088C4.16225 6.89242 4.16748 5.9887 4.16225 5.09024C4.16225 4.9799 4.12566 4.84329 4.05247 4.76448C3.69176 4.38092 3.3206 4.01313 2.94944 3.65059C2.73511 3.44043 2.7142 3.225 2.91285 2.98857C3.11673 2.75213 3.34151 2.72586 3.57153 2.93077C4.04725 3.36687 4.51773 3.80822 4.99345 4.24431C5.12414 4.36516 5.18164 4.50702 5.18164 4.70143C5.17119 6.04649 5.17641 7.39682 5.17641 8.74188C5.16596 8.81019 5.16596 8.87324 5.16596 9.0151ZM6.50946 3.76618C6.88585 3.76618 7.2727 3.76618 7.65954 3.76618C7.65954 3.79771 7.65432 3.82398 7.65432 3.85551C7.26747 3.81347 6.87017 3.93957 6.50946 3.76618Z" fill="url(#paint0_linear)"/>
<defs>
<linearGradient id="paint0_linear" x1="12" y1="0" x2="-10.8197" y2="19.0164" gradientUnits="userSpaceOnUse">
<stop stop-color="#F4A261"/>
<stop offset="1" stop-color="#E9C46A"/>
</linearGradient>
</defs>
</svg>
