<svg width="235" height="234" viewBox="0 0 235 234" fill="none" xmlns="http://www.w3.org/2000/svg">
<path d="M140.192 116.602C141.585 113.823 142.805 110.696 143.85 107.57C144.895 104.617 145.592 101.837 146.289 99.0582C148.205 91.4153 149.076 85.5093 149.076 85.5093C149.076 85.5093 143.153 86.3779 135.488 88.2886C132.875 88.9834 129.913 89.8519 126.952 90.7204C123.816 91.7627 120.854 92.9786 117.893 94.3682M178.692 37.2197C190.887 32.7034 203.952 30.7926 203.952 30.7926C203.952 30.7926 203.43 34.4404 202.384 39.6515C201.339 44.3415 199.771 50.4212 197.681 56.1534M197.681 56.1534C195.764 56.5008 193.848 56.8482 191.758 57.1956C180.608 59.4538 167.543 64.3175 168.065 73.6975C168.065 74.3923 168.239 75.0871 168.414 75.7819M197.681 56.1534C203.43 55.2849 207.785 55.1112 207.785 55.1112C207.785 55.1112 205.52 64.8386 201.339 74.2186C196.461 85.1619 185.834 93.6734 175.73 87.0727L178.518 89.1571M94.3745 126.851C93.5035 126.503 92.4582 125.982 91.5872 125.461M91.5872 125.461C57.6164 106.528 116.499 80.6456 116.499 80.6456C116.499 80.6456 120.158 107.222 113.538 120.945C127.3 114.344 153.954 117.992 153.954 117.992C153.954 117.992 127.997 176.704 109.182 143.005M91.5872 125.461L103.956 103.053M109.182 143.005C108.66 141.963 108.137 141.095 107.789 140.226M109.182 143.005L131.655 130.672M150.644 117.818C160.226 110.523 178.692 107.57 185.834 106.701M185.834 106.701C186.009 106.701 186.009 106.701 186.183 106.701C187.751 106.528 188.796 106.354 188.796 106.354C188.796 106.354 188.622 107.222 188.273 108.786C187.577 111.565 186.531 116.255 184.789 121.466M185.834 106.701C183.918 104.79 182.35 102.185 180.782 99.0582M185.834 106.701L186.009 106.527C191.583 102.359 201.339 101.49 210.572 101.664C221.722 102.011 232 104.096 232 104.096C232 104.096 220.851 125.114 208.308 134.146M145.766 133.452C146.812 135.71 148.379 138.142 150.818 140.747M150.818 140.747C156.219 146.653 161.097 148.738 165.278 148.043C169.285 147.522 172.769 144.569 175.73 140.573C176.427 139.531 177.124 138.489 177.821 137.273M150.818 140.747L169.807 123.55M150.818 140.747C150.818 140.747 148.902 152.559 133.572 155.859M113.189 50.2475C113.189 50.0737 113.189 50.0737 113.189 50.2475ZM113.189 50.2475C118.415 48.5104 123.293 47.2945 125.906 46.7734C127.474 46.426 128.345 46.2523 128.345 46.2523C128.345 46.2523 128.171 47.2945 127.997 48.8578C127.997 49.0315 127.997 49.0315 127.997 49.2052C127.649 52.3319 126.777 57.3693 125.558 62.9278M113.189 50.2475C121.377 40.52 126.952 24.8867 126.952 24.8867C126.952 24.8867 112.318 23.8445 100.298 26.6237M113.189 50.2475C112.667 50.9423 111.97 51.6371 111.447 52.1582C107.092 56.6745 102.214 59.2801 97.1619 57.1956C96.4651 56.8482 95.594 56.5008 94.8972 55.9797M101.169 88.9834C98.904 87.9412 96.4651 86.3779 93.8519 83.946M93.8519 83.946C87.9288 78.5612 85.8383 73.6975 86.5351 69.5286C87.0577 65.5334 90.0193 62.0593 94.0261 59.1063C95.0714 58.4115 96.1166 57.7167 97.3361 57.0219M93.8519 83.946L111.099 65.0123M93.8519 83.946C93.8519 83.946 81.6573 85.5093 78.8699 102.185M207.088 138.489C207.611 137.099 207.959 135.71 208.308 134.32C211.095 122.335 210.05 107.743 210.05 107.743C210.05 107.743 194.371 113.302 184.615 121.466C183.918 121.987 183.221 122.682 182.699 123.203C178.169 127.546 175.556 132.409 177.647 137.447C177.995 138.142 178.343 139.01 178.866 139.705M96.1166 27.8397C97.5103 27.3185 98.904 26.9711 100.298 26.6237M100.298 26.6237C109.357 14.117 130.61 3 130.61 3C130.61 3 132.701 13.2485 133.049 24.3656C133.223 33.3982 132.352 43.2993 128.171 48.8578L127.997 49.0315M190.364 69.5286L177.647 80.2982M177.647 80.2982C177.472 80.993 177.124 81.6878 176.95 82.5564C176.95 82.9038 176.776 83.0775 176.776 83.4249C174.162 92.1101 169.633 105.138 162.839 111.739M177.647 80.2982C178.518 76.8241 179.04 74.3923 179.04 74.3923C179.04 74.3923 177.821 74.566 175.905 74.7397C175.034 74.9134 173.988 74.9134 172.769 75.0871C171.375 75.2608 169.981 75.4345 168.239 75.7819C167.194 75.9556 166.149 76.1293 165.104 76.303C161.097 77.1716 156.742 78.2138 152.56 79.6034M148.902 64.4912C150.818 66.7493 159.355 66.5756 161.097 66.7493C170.504 67.2704 175.382 54.2426 177.647 43.1256C179.389 34.7878 179.737 27.3185 179.737 27.3185C179.737 27.3185 169.981 29.5767 160.574 33.7456M160.574 33.7456C152.735 37.2197 145.069 42.2571 143.85 48.3367M160.574 33.7456C161.097 20.5441 158.135 6.47408 158.135 6.47408C158.135 6.47408 143.153 14.2908 132.875 24.3656M143.85 48.3367C142.456 49.2052 140.54 50.4212 138.275 52.1582C138.101 52.3319 137.753 52.5056 137.578 52.6793C136.882 53.0267 136.359 53.5478 135.662 54.0689M143.85 48.3367C144.721 47.6419 145.418 47.4682 145.418 47.4682C145.418 47.4682 145.766 48.5104 146.115 50.5949C146.289 51.4634 146.637 52.5056 146.812 53.5478C147.334 55.6323 147.857 58.2378 148.205 61.0171C148.728 64.4912 150.122 74.7397 150.644 80.2982M165.278 44.5152L149.076 66.7493M201.165 74.2186C214.405 73.6975 228.516 76.6504 228.516 76.6504C228.516 76.6504 220.502 91.7627 210.572 101.837M180.782 99.0582C179.04 95.5842 178.866 91.2416 178.692 88.636M180.782 99.0582L204.649 87.7675M135.836 54.0689C135.662 54.0689 135.662 54.0689 135.836 54.0689ZM135.836 54.0689C132.352 52.5056 129.913 50.7686 127.997 49.0315M127.997 49.0315C127.997 49.0315 127.997 49.0315 127.823 48.8578M146.986 30.2715L135.662 54.0689M135.662 54.0689C132.526 56.5008 128.868 59.4538 125.558 62.7541C119.461 68.6601 114.409 75.4345 114.409 81.6878M101.343 156.554C115.105 151.169 140.714 157.075 142.108 157.423M142.108 157.423C142.108 157.423 137.23 166.108 130.436 174.446C119.809 187.3 104.653 199.459 95.0714 178.093C92.9809 173.403 92.284 169.756 92.6325 166.629M142.108 157.423C148.902 155.859 157.264 156.207 164.407 156.902M118.764 167.671L95.2456 177.92C95.2456 177.92 60.7521 177.051 47.5122 186.779L84.2704 150.127M77.9989 133.104C83.3993 119.382 77.4762 93.8471 77.1278 92.4575C77.1278 92.4575 68.4173 97.3212 60.0553 104.096M60.0553 104.096C47.1638 114.692 34.9691 129.804 56.3969 139.358M60.0553 104.096C58.3132 103.748 56.5711 103.053 54.4806 102.185M56.3969 139.358C61.1005 141.442 64.7589 142.137 67.8947 141.789M56.3969 139.358L66.8495 115.908M56.3969 139.358C56.3969 139.358 55.5258 174.619 47.5122 186.952M130.61 174.446C130.959 176.183 131.655 177.92 132.526 180.004M132.526 180.004C143.502 204.67 161.968 184.868 172.246 170.624M132.526 180.004L156.045 169.582M172.246 170.624C176.601 164.545 179.563 159.333 179.563 159.333C179.563 159.333 178.692 159.16 177.124 158.812M172.246 170.624C190.538 189.037 212.314 139.01 212.314 139.01C212.314 139.01 210.398 138.836 207.262 138.489C205.346 138.315 202.907 138.142 200.294 138.142C198.726 138.142 197.332 138.142 195.59 138.142C193.848 138.142 192.106 138.142 190.19 138.315M177.124 158.812C174.511 158.291 169.807 157.423 164.407 156.902M177.124 158.812L189.841 151.691M164.407 156.902C163.536 153.254 163.884 150.475 165.104 148.043M54.4806 102.185C29.7428 91.4153 49.6027 72.829 63.8879 62.5804M54.4806 102.185L64.9332 78.7349M63.8879 62.5804C69.9852 58.2378 75.2115 55.2849 75.2115 55.2849C75.2115 55.2849 75.3857 56.1534 75.7341 57.7167M63.8879 62.5804C45.4217 44.3415 95.594 22.6285 95.594 22.6285C95.594 22.6285 95.7682 24.5393 96.1166 27.6659C96.2909 29.5767 96.4651 32.0085 96.4651 34.6141C96.4651 36.1774 96.4651 37.5671 96.4651 39.3041C96.4651 41.0411 96.4651 42.7782 96.2909 44.6889M75.7341 57.7167C76.2568 60.3223 77.1278 65.0123 77.6504 70.3971M75.7341 57.7167L82.8767 45.0363M77.6504 70.3971C78.3473 77.519 78.6957 85.8567 77.1278 92.6312M77.6504 70.3971C81.3088 71.2656 84.0962 70.9182 86.5351 69.7023M190.19 138.315C186.357 138.489 182.525 139.01 179.04 139.705C177.821 140.052 176.601 140.226 175.556 140.573M190.19 138.315L197.158 130.672M96.2909 44.6889C96.1166 48.5104 95.594 52.3319 94.8972 55.806C94.5488 57.0219 94.3746 58.2378 94.0261 59.2801M96.2909 44.6889L103.956 41.2148M159.877 91.4153L144.895 104.096M152.909 79.6034C152.909 79.6034 142.805 81.1667 136.882 88.1149M113.712 120.945C113.712 120.945 112.144 121.813 110.576 123.203M48.0348 133.973C48.0348 133.973 48.209 170.624 41.2407 180.873L53.4353 193.032C63.7137 186.258 100.472 186.258 100.472 186.258M53.6095 193.032L17.0256 229.51C13.5414 232.984 7.96667 232.984 4.48248 229.51C1.17251 226.209 1.17251 220.825 4.48248 217.698L41.4149 180.873M33.7497 188.342L46.1185 200.675M17.7224 204.323L30.0913 216.656M10.0572 212.139L22.2518 224.299M126.952 106.875L114.409 119.382M135.836 70.9182L132.526 85.683M185.834 49.0315L172.943 64.4912M111.621 123.029C111.621 123.029 102.214 189.732 73.4694 161.071C44.7249 132.409 111.621 123.029 111.621 123.029Z" stroke="url(#paint0_linear)" stroke-width="3" stroke-miterlimit="10"/>
<defs>
<linearGradient id="paint0_linear" x1="117" y1="3" x2="334.997" y2="185.366" gradientUnits="userSpaceOnUse">
<stop stop-color="#F4A261"/>
<stop offset="1" stop-color="#E9C46A"/>
</linearGradient>
</defs>
</svg>
