<svg width="223" height="237" viewBox="0 0 223 237" fill="none" xmlns="http://www.w3.org/2000/svg">
<path d="M20.5419 126.517C21.6746 128.728 26.1676 130.039 33.2592 130.294M33.2592 130.294C50.1871 130.966 81.9558 125.866 117.576 116.322C153.196 106.778 183.213 95.1424 197.582 86.2635C203.596 82.4968 206.877 79.2828 206.707 76.6342M33.2592 130.294L20.329 105.56C19.8916 104.6 18.9501 103.775 17.8073 103.542C16.6645 103.309 15.6115 103.412 14.5251 104.062C12.0613 105.62 11.2676 108.707 12.4901 111.253L20.4188 126.73L38.9573 164.329L39.3947 165.289M196.846 72.0922C180.96 70.6017 147.376 75.649 109.404 85.8237C71.4315 95.9984 39.8236 108.419 26.8108 117.653M33.7979 153.139C30.3608 157.113 28.6603 161.52 30.0073 166.547C30.1869 167.217 30.4114 168.055 30.7591 168.681C33.1142 173.438 37.8883 176.469 45.9213 177.549M45.9213 177.549C51.7585 178.5 59.3093 178.452 68.7864 177.529C69.5034 177.517 70.1755 177.337 70.8924 177.324C87.7407 175.683 108.979 171.609 130.822 165.756C152.664 159.904 172.926 152.858 188.506 145.81C189.133 145.462 189.805 145.282 190.432 144.934C199.101 140.995 205.619 137.093 210.244 133.519C216.616 128.399 219.28 123.555 218.941 118.257C218.929 117.542 218.705 116.704 218.525 116.034C217.178 111.007 213.502 108.04 208.538 106.317M45.9213 177.549L51.9439 189.945M39.6858 165.031C44.8205 172.097 83.323 168.605 128.352 156.54C173.381 144.474 208.471 128.247 209.385 119.561M51.9439 189.945C48.4618 193.751 46.7614 198.158 48.1084 203.186C48.288 203.856 48.5125 204.694 48.8601 205.319C51.0473 210.121 55.9444 212.94 63.9775 214.02C69.2208 214.771 75.6736 214.658 83.5937 213.973M51.9439 189.945L57.8318 201.837C60.1971 204.616 68.1852 205.529 80.0262 204.691M83.5937 213.973C83.7617 213.928 84.0978 213.838 84.3107 213.96C92.7348 213.14 102.29 211.837 112.551 209.806C121.636 208.09 131.09 205.736 140.667 203.17M83.5937 213.973L91.828 235.295M140.667 203.17C150.244 200.604 159.563 197.748 168.333 194.859C178.235 191.487 187.375 187.961 194.867 184.337C195.035 184.292 195.203 184.247 195.495 183.989C202.864 180.577 208.464 177.281 212.675 174.177C219.091 169.225 221.755 164.38 221.416 159.083C221.404 158.368 221.225 157.697 221 156.859C219.653 151.832 215.977 148.866 211.058 147.31M140.667 203.17L146.818 226.128M211.058 147.31L210.076 133.564M211.058 147.31L211.905 160.554M80.0262 204.691C88.3273 204.083 98.3867 202.645 109.532 200.557M80.0262 204.691L69.6714 177.472M109.532 200.557C118.449 198.886 128.116 196.655 138.197 193.954M109.532 200.557L100.477 172.81M138.197 193.954C148.278 191.252 157.766 188.351 166.323 185.34C177.02 181.575 186.451 177.791 193.943 174.167C204.617 168.972 211.078 164.188 211.737 160.599M138.197 193.954L130.654 165.801M212.63 174.009L213.816 192.55C214.336 201.211 184.958 215.908 146.818 226.128M63.9326 213.853L72.1756 230.503M197.414 86.3085L196.245 58.4237C196.144 57.3733 196.546 56.1877 197.42 55.4149C198.293 54.6421 199.257 54.2044 200.522 54.2244C203.435 54.3419 205.666 56.6179 205.88 59.4341L206.752 76.8018L209.497 118.633L209.598 119.683M146.818 226.128C108.678 236.347 75.843 238.141 72.0076 230.548M205.938 63.0107C208.851 63.1282 212.178 62.7756 215.538 61.8752C218.059 61.1998 220.614 62.6705 221.287 65.1841C221.961 67.6977 220.483 70.2488 217.963 70.9241C213.931 72.0046 210.1 72.4923 206.47 72.3873M14.2282 114.379C11.7644 115.937 8.70671 117.296 5.34632 118.196C2.82603 118.871 1.34861 121.422 2.02213 123.936C2.69565 126.45 5.25069 127.92 7.77098 127.245C11.8034 126.164 15.3652 124.671 18.4561 122.765M21.4168 107.604C27.9884 99.1975 30.6594 86.9871 33.733 73.5912C40.0034 46.5868 47.0559 15.7807 87.7166 4.88571M87.7166 4.88571C128.377 -6.00928 149.72 17.1883 168.652 37.4396C178.012 47.504 186.386 56.5755 196.325 60.7372M87.7166 4.88571L90.1861 14.1023M196.745 71.0418C183.053 66.9876 172.191 55.35 161.587 44.0026C143.809 24.6992 125.134 4.73796 90.1861 14.1023M90.1861 14.1023C55.2381 23.4665 49.046 50.0908 43.1334 75.7421C39.6238 90.8713 36.2039 106.336 26.2053 116.738M128.184 156.585L117.408 116.367M168.456 194.646L173.264 217.964M149.902 106.583L158.494 147.386M160.46 156.737L166.491 185.295M120.002 232.236L112.506 209.638M97.5032 163.728L84.5427 124.096M195.663 183.944L199.192 206.526M181.264 94.5872L187.918 135.55M189.469 145.372L194.111 174.122M66.1039 168.19L51.385 129.388M107.88 2.17692L110.26 11.0583M68.8999 12.6217L71.2796 21.5031M131.375 7.19651L127.213 15.8553M50.8943 28.7614L58.9968 34.1337M145.518 15.6202L140.84 23.6987M42.8583 43.1278L50.9492 47.7848M158.867 27.1301L154.188 35.2087M37.2209 59.7251L45.3119 64.3821M172.004 41.2113L167.326 49.2898M32.7162 78.5334L40.8072 83.1904M184.648 53.4491L179.969 61.5277M27.8856 95.4533L35.9766 100.11" stroke="url(#paint0_linear)" stroke-width="3" stroke-miterlimit="10" stroke-linecap="round" stroke-linejoin="round"/>
<defs>
<linearGradient id="paint0_linear" x1="87.6326" y1="4.90822" x2="344.088" y2="122.098" gradientUnits="userSpaceOnUse">
<stop stop-color="#F4A261"/>
<stop offset="1" stop-color="#E9C46A"/>
</linearGradient>
</defs>
</svg>
