<svg width="233" height="233" viewBox="0 0 233 233" fill="none" xmlns="http://www.w3.org/2000/svg">
<path d="M142.892 66.9751C142.372 64.0202 142.372 61.2393 143.586 59.1535C149.133 49.5938 152.773 66.6274 156.414 62.8036C160.401 58.8059 154.507 47.3343 160.747 40.9032C166.468 35.1674 171.322 41.2509 172.015 48.7248C172.189 50.1153 175.309 51.6796 176.869 48.8986C177.389 48.0295 185.19 28.7364 193.858 37.6008C194.031 37.7746 194.204 37.9484 194.378 38.1222C194.551 38.2961 194.724 38.4699 194.898 38.6437C203.739 47.5081 184.497 55.3296 183.63 55.6773C180.856 57.2416 182.243 60.3702 183.803 60.544C191.084 61.2393 197.325 66.2798 191.604 71.8418C185.19 78.2728 173.749 72.3632 169.762 76.1871C165.948 80.011 183.11 83.661 173.402 89.0492C171.322 90.2659 168.548 90.2659 165.601 89.7444M165.601 89.7444C165.081 84.1825 161.788 80.011 156.24 83.4872C154.68 84.5301 153.467 86.0944 152.6 87.6587C149.653 93.3945 150.693 101.564 147.053 103.823C145.319 104.866 144.279 103.128 143.239 100.868M165.601 89.7444C165.601 89.9183 165.601 90.0921 165.601 90.2659C165.601 91.3087 165.601 92.5254 165.428 93.7421C165.255 95.1326 168.028 97.3922 170.108 94.9588C170.802 94.2636 182.763 77.23 189.351 88.0063C189.351 88.1801 189.697 88.3539 189.871 88.7016C190.044 89.0492 190.217 89.3968 190.391 89.3968C191.431 91.1349 191.777 92.6992 191.604 93.9159C191.431 94.785 191.084 95.654 190.564 96.5231C188.83 98.9565 185.19 100.695 181.896 101.737C178.603 102.78 175.656 103.302 175.309 103.302C172.189 104.171 172.882 107.473 174.269 107.995C181.203 110.428 186.057 116.685 179.123 120.857C175.309 123.116 171.149 122.247 167.161 121.204C163.001 119.988 159.187 118.597 156.76 119.988C153.12 122.247 162.308 127.462 160.921 130.938M86.726 135.109C86.5526 132.676 86.0325 130.069 85.5125 127.809C84.4724 122.769 83.4323 117.902 85.3391 114.6C91.4065 103.997 95.3936 122.769 99.554 118.597C101.634 116.512 101.114 112.34 100.941 107.821C100.768 105.214 100.768 102.607 101.461 99.9994C101.981 98.0874 102.848 96.1755 104.408 94.6112C105.448 93.5683 106.315 93.0469 107.182 92.5254C108.742 91.8302 110.129 92.004 111.515 92.6992C113.076 93.5683 114.462 95.3064 115.502 97.3922C116.196 99.1303 116.716 101.042 116.889 103.128C117.063 104.692 120.53 106.43 122.263 103.302C122.437 102.954 123.823 99.6517 126.077 96.1755C127.984 93.0469 130.584 89.9183 133.531 88.8754C135.958 88.0063 138.385 88.1801 141.159 90.9611C141.332 91.1349 141.505 91.3088 141.679 91.4826C141.852 91.6564 142.199 92.004 142.199 92.004C144.799 94.6112 145.146 97.2184 144.279 99.6517C143.065 102.607 139.945 105.214 136.998 107.126C133.531 109.385 130.237 110.776 129.891 110.95C126.77 112.688 128.504 116.164 130.064 116.338C132.144 116.512 134.051 117.033 135.785 117.728C138.038 118.597 139.772 119.988 140.465 121.726C141.159 122.943 141.332 124.507 140.639 126.071C140.292 126.94 139.598 127.983 138.558 128.852C136.998 130.416 135.091 131.286 133.184 131.807C130.757 132.502 127.984 132.328 125.384 132.328C120.876 132.155 116.716 131.633 114.636 133.719C110.475 137.89 129.197 141.888 118.623 147.971C115.329 149.883 110.475 148.841 105.448 147.798C103.021 147.276 100.594 146.755 98.1672 146.581M77.0182 183.951C77.3649 185.689 78.405 187.253 79.7919 188.122C86.726 192.294 91.2331 201.158 97.1271 201.679C108.222 202.548 96.087 189.86 101.288 188.817C106.835 187.774 112.902 199.072 121.743 197.508C124.517 196.986 125.904 195.77 126.597 194.206C127.81 191.251 125.557 186.905 121.743 183.777C120.53 182.908 121.05 179.258 124.343 179.605C125.384 179.779 145.666 183.951 143.239 171.784C143.239 171.61 143.065 171.262 143.065 170.915C143.065 170.567 142.892 170.219 142.892 170.046C142.545 168.134 141.679 166.743 140.639 165.874C140.118 165.527 139.772 165.179 139.078 165.005C135.958 163.788 131.798 165.179 128.331 166.743C126.944 167.265 125.904 167.96 124.863 168.481M49.1085 155.967C47.375 155.619 45.8148 154.576 44.948 153.186C40.7876 146.233 31.9466 141.714 31.4266 135.805C30.5598 124.681 43.2145 136.848 44.2546 131.633C45.2948 126.071 34.0268 119.988 35.587 111.123C36.1071 108.342 37.3205 106.952 38.8807 106.257C41.8277 105.04 46.1615 107.299 49.2819 111.123C50.1486 112.34 53.789 111.819 53.4423 108.516C53.4423 107.473 49.1085 87.1373 61.4165 89.3968C61.5899 89.3968 61.9366 89.5706 62.2833 89.5706C62.63 89.5706 62.9767 89.7444 63.15 89.7444C65.0569 90.0921 66.4437 90.9611 67.3105 92.004C67.6572 92.5254 68.0039 92.8731 68.1773 93.5683C69.3907 96.6969 68.0039 100.868 66.4437 104.345C65.9237 105.735 65.2303 106.778 64.7102 107.821M119.143 166.222C119.143 166.048 119.316 166.048 119.316 165.874M119.143 166.222L118.97 166.048C119.143 166.048 119.143 165.874 119.316 165.874M119.143 166.222C120.703 167.438 122.263 168.134 123.997 168.308C124.517 168.308 124.863 168.308 125.21 168.308C127.29 168.308 128.331 167.612 128.677 166.569C129.371 164.657 127.81 161.529 127.117 159.095C126.597 157.184 126.424 155.793 128.157 155.445C129.024 155.272 129.891 155.445 130.757 155.793C133.531 156.836 136.478 159.617 139.772 161.876C141.679 163.093 143.586 163.962 145.666 164.31M119.316 165.874C122.09 159.617 121.05 152.838 113.596 154.229C111.689 154.576 110.302 155.445 108.915 156.488M108.915 156.488C103.888 160.66 102.154 169.003 97.8205 169.872C96.4337 170.219 95.7403 169.177 95.5669 167.612M108.915 156.488C108.048 155.793 107.355 155.272 106.488 154.75C105.101 153.881 104.061 152.491 103.714 150.752L103.541 150.057C103.368 149.014 103.368 147.971 103.714 147.102M66.7904 113.731C66.9638 113.731 66.9638 113.557 67.1371 113.557M66.7904 113.731L66.9638 113.904C66.9638 113.731 67.1371 113.731 67.1371 113.557M66.7904 113.731C65.577 112.166 64.8836 110.602 64.7102 108.864C64.7102 108.342 64.7102 107.995 64.7102 107.647C64.7102 105.561 65.4036 104.518 66.4437 104.171C68.3506 103.476 71.471 105.04 73.8979 105.735C75.8048 106.257 77.1916 106.43 77.5383 104.692C77.7116 103.823 77.5383 102.954 77.1916 102.085C76.1515 99.3041 73.3778 96.3493 71.1242 93.0469C69.9108 91.1349 69.044 89.223 68.6973 87.1373M67.1371 113.557C73.3778 110.776 80.1386 111.819 78.7517 119.292C78.405 121.204 77.5383 122.595 76.4982 123.985C72.3377 129.026 64.0168 130.764 63.15 135.109C62.8033 136.5 63.8435 137.195 65.4036 137.369M126.77 194.032C127.117 194.206 127.464 194.553 127.81 194.727C137.692 199.767 131.451 183.429 136.651 184.646C142.025 185.863 143.412 198.725 152.253 200.637C160.227 202.375 160.921 194.553 157.627 187.948C156.934 186.732 158.841 183.603 161.614 185.167C162.481 185.689 179.469 197.508 182.07 185.341C182.07 185.167 182.243 184.82 182.243 184.472C182.243 184.124 182.416 183.777 182.416 183.603C185.017 171.436 164.561 175.26 163.694 175.434C160.574 175.781 160.054 172.131 161.267 171.262C162.828 170.046 164.214 168.481 165.081 166.917C167.508 162.919 167.161 158.748 161.441 157.531C160.401 157.357 159.534 157.357 158.667 157.357C156.934 157.531 155.373 158.053 153.987 158.748C151.04 160.312 148.266 162.572 145.839 164.136C144.106 165.179 142.545 165.874 140.985 165.7C140.812 165.7 140.812 165.7 140.639 165.7C139.945 165.527 139.598 165.353 139.425 164.831M39.0541 106.083C38.8807 105.735 38.534 105.388 38.3607 105.04C33.3334 95.1326 49.6286 101.39 48.4151 96.1755C47.2016 90.7873 34.3735 89.3968 32.4667 80.5324C30.7331 72.537 38.534 71.8418 45.1214 75.1442C46.3349 75.8395 49.4552 73.9275 47.895 71.1465C47.375 70.2775 35.587 53.2439 47.7217 50.6367C47.895 50.6367 48.2417 50.4629 48.5884 50.4629C48.9351 50.4629 49.2819 50.2891 49.4552 50.2891C61.5899 47.6819 57.7761 68.1917 57.6028 69.0608C57.2561 72.1894 60.8965 72.7109 61.7632 71.4942C62.9767 69.9299 64.5369 68.5394 66.097 67.6703C70.0841 65.2369 74.2446 65.5846 75.4581 71.3204C75.6314 72.3632 75.6314 73.2323 75.6314 74.1014C75.4581 75.8395 74.938 77.4038 74.2446 78.7943C72.6844 81.7491 70.4308 84.5301 68.8707 86.9634C67.8306 88.7016 67.1371 90.2659 67.3105 91.8302C67.3105 92.004 67.3105 92.004 67.3105 92.1778C67.4838 92.8731 67.6572 93.2207 68.1773 93.3945M165.948 131.633C167.335 130.069 168.895 128.852 170.802 128.331C171.322 128.157 171.669 128.157 172.189 127.983C174.616 127.635 175.656 128.505 176.002 129.721C176.869 133.197 173.402 139.976 177.216 140.15C179.643 140.15 181.896 137.717 184.323 135.109C186.75 132.502 189.524 129.547 193.164 128.505C194.031 128.331 194.898 128.157 195.938 128.157C204.086 128.331 203.045 136.152 198.192 141.714C197.151 142.757 198.365 146.233 201.485 145.364C202.352 145.017 221.767 137.369 221.421 149.883C221.421 150.057 221.421 150.405 221.421 150.752C221.421 151.1 221.421 151.448 221.421 151.622C221.247 164.136 202.179 155.619 201.312 155.272C198.192 154.229 196.978 157.531 197.845 158.748C202.352 164.484 203.045 172.305 195.071 172.305C186.057 172.131 182.416 159.617 176.869 159.617C171.495 159.443 180.683 174.391 170.108 171.262C168.202 170.741 166.468 169.177 165.081 167.265M101.288 66.8012C102.848 65.4107 104.061 63.8464 104.581 61.9345C104.755 61.4131 104.755 61.0654 104.928 60.544C105.275 58.1106 104.408 57.0678 103.194 56.7201C99.7274 55.8511 92.9666 59.3273 92.7933 55.5035C92.7933 53.0701 95.2202 50.8105 97.8205 48.3772C100.421 45.9438 103.368 43.1628 104.408 39.5127M104.408 39.5127C104.581 38.6437 104.755 37.7746 104.755 36.7318C104.581 28.5626 96.7804 29.6055 91.2331 34.4722C90.193 35.5151 86.726 34.2984 87.5927 31.1698C87.9394 30.3007 95.5669 10.8337 83.0856 11.1814C82.9122 11.1814 82.5655 11.1814 82.2188 11.1814C81.8721 11.1814 81.5254 11.1814 81.352 11.1814C69.044 11.7028 77.3649 30.6483 77.7116 31.5174C78.7518 34.646 75.4581 35.8627 74.2446 34.9936C68.524 30.4745 60.7231 29.7793 60.7231 37.7746C60.8965 46.8128 73.3778 50.4629 73.3778 56.0249C73.5512 61.4131 58.6429 52.201 61.7632 62.8036C62.2833 64.7155 63.8434 66.4536 65.7503 67.8441M104.408 39.5127C106.488 40.7294 108.222 41.4247 108.915 39.6866C111.169 34.4722 101.288 26.1292 104.928 17.7862C108.048 10.3123 114.982 14.1362 118.276 20.741C118.97 22.1315 122.437 22.3053 122.783 19.0029C122.957 18.1339 122.957 -2.72359 134.398 2.31696C134.571 2.31696 134.918 2.49077 135.265 2.66458C135.611 2.83839 135.958 3.01221 135.958 3.01221C147.399 7.87894 132.491 22.3053 131.798 23.0006C129.717 25.434 132.318 27.8673 133.704 27.5197C140.812 25.434 148.266 27.6935 145.146 35.1674C144.799 35.8627 144.452 36.3841 144.106 36.9056C142.719 38.8175 140.639 40.208 138.558 41.0771C137.692 41.4247 136.825 41.7723 135.958 42.1199C134.398 42.6414 132.838 43.1628 131.278 43.6842C129.024 44.5533 127.117 45.5962 126.25 47.3343C125.384 49.42 127.81 50.1153 130.584 50.8105M139.772 121.031C139.945 121.031 140.118 121.031 140.292 120.857C147.226 119.466 148.613 125.202 146.533 130.938C146.186 131.807 145.839 132.676 145.319 133.545C144.626 134.762 146.359 137.89 149.306 136.326C149.653 136.152 151.56 134.936 153.987 133.719C156.067 132.676 158.667 131.633 161.094 131.112C162.828 130.764 164.388 130.764 165.948 131.286C167.855 131.981 169.242 133.545 169.762 136.5C169.762 136.674 169.935 137.021 169.935 137.369C169.935 137.717 170.108 138.064 170.108 138.238C172.015 147.624 160.227 147.276 154.333 146.581C152.6 146.407 151.386 146.06 151.213 146.06C148.093 145.712 147.573 149.188 148.613 150.057C151.56 152.491 153.64 155.793 153.813 158.574M111.862 92.8731C111.862 92.6992 111.862 92.5254 112.035 92.3516C113.422 85.3991 107.702 84.0086 101.981 86.0944C101.114 86.442 100.247 86.7896 99.3807 87.3111C98.1672 88.0063 95.0469 86.2682 96.607 83.3134C96.7804 82.9658 97.9939 81.0538 99.2073 78.6205C100.247 76.5347 101.288 73.9275 101.808 71.4942C102.154 69.7561 102.154 68.1917 101.634 66.6274C100.941 64.7155 99.3807 63.325 96.4337 62.8036C96.2603 62.8036 95.9136 62.6298 95.5669 62.6298C95.2202 62.6298 94.8735 62.4559 94.7002 62.4559C85.3391 60.544 85.6858 72.3632 86.3793 78.2728C86.5526 80.011 86.8993 81.2277 86.8993 81.4015C87.246 84.5301 83.779 85.0515 82.9122 84.0086C80.4853 81.0538 77.1916 78.9681 74.4179 78.7943M85.6858 129.2C84.8191 129.547 83.779 129.547 82.7389 129.374L82.0454 129.2C80.3119 128.852 78.9251 127.809 78.0583 126.419C77.5383 125.55 77.0182 124.854 76.3248 123.985M131.971 89.5706C129.717 88.5278 127.984 87.4849 129.024 85.7468C131.278 82.0967 139.425 83.1396 145.146 80.1848C146.706 79.3157 148.266 78.099 149.306 76.5347C152.773 70.9727 148.613 67.6703 143.065 67.1489C142.892 67.1489 142.719 67.1489 142.545 67.1489C141.505 67.1489 140.292 67.1489 139.078 67.3227C137.692 67.4965 135.438 64.7155 137.865 62.6298C138.558 61.9345 155.547 49.9415 144.799 43.3366C144.626 43.3366 144.452 42.989 144.106 42.8152C143.759 42.6414 143.412 42.4676 143.412 42.2937C141.679 41.2509 140.118 40.9032 138.905 41.0771C138.038 41.2509 137.172 41.5985 136.305 42.1199C133.878 43.858 132.144 47.5081 131.104 50.8105C130.064 54.113 129.544 57.0678 129.544 57.4154C128.677 60.544 125.384 59.8488 124.863 58.4583C122.437 51.5058 116.196 46.639 112.035 53.5915C109.782 57.4154 110.649 61.5869 111.689 65.5846C112.902 69.756 114.289 73.5799 112.902 76.0133C110.649 79.6633 105.448 70.4513 101.981 71.8418M192.991 128.505C191.777 126.419 191.084 124.681 192.818 123.985C198.018 121.726 206.339 131.633 214.66 127.983C222.114 124.854 218.3 117.902 211.713 114.6C210.326 113.904 210.153 110.428 213.447 110.08C214.487 109.907 235.116 109.907 230.262 98.435C230.262 98.2612 230.088 97.9136 229.915 97.566C229.742 97.2184 229.568 96.8707 229.568 96.8707C224.714 85.3991 210.326 100.347 209.633 101.042C207.206 103.128 204.779 100.521 205.126 99.1303C207.206 92.004 204.952 84.5301 197.498 87.6587C196.805 88.0063 196.285 88.3539 195.765 88.7016C193.858 90.0921 192.471 92.1778 191.604 94.2636C191.257 95.1326 190.911 96.0017 190.564 96.8707C190.044 98.435 189.524 99.9994 189.004 101.564C188.137 103.823 187.097 105.735 185.363 106.604C183.283 107.473 182.59 105.04 181.896 102.259M185.71 60.8916C185.017 60.544 184.15 60.3702 183.283 60.3702M171.842 46.9867C172.189 47.6819 172.362 48.551 172.362 49.42M188.484 74.1014C189.177 75.1442 190.911 76.0133 192.471 74.449C193.164 73.7537 207.553 58.8059 212.406 70.2775C212.406 70.4513 212.58 70.7989 212.753 70.9727C212.926 71.3204 213.1 71.668 213.1 71.8418C217.954 83.3134 197.325 83.3134 196.285 83.4872C193.164 83.8348 193.338 87.3111 194.551 88.0063C194.898 88.1801 195.245 88.3539 195.591 88.5278M158.667 44.2057C157.627 43.5104 156.76 41.7723 158.32 40.208C159.014 39.5127 173.922 25.0863 162.481 20.2196C162.308 20.2196 161.961 20.0458 161.788 19.872C161.441 19.6982 161.094 19.5244 160.921 19.5244C149.48 14.6576 149.48 35.3413 149.306 36.3841C148.959 39.5127 145.492 39.3389 144.799 38.1222C144.626 37.7746 144.452 37.427 144.279 37.0794M66.4437 182.386L21.7188 227.23C19.6386 229.316 16.6916 230.532 13.5713 230.532C10.4509 230.532 7.67729 229.316 5.42371 227.23L5.25036 227.056C0.916548 222.711 0.916548 215.932 5.25036 211.587L50.4953 166.222M50.6687 198.377L34.7203 182.386M43.7346 205.329L27.7862 189.339M29.8664 219.061L14.0913 203.07M23.1056 226.013L7.15723 210.022M101.114 131.807C101.288 131.981 101.461 132.155 101.634 132.328C110.475 141.193 91.2331 149.014 90.3664 149.362C87.5927 150.926 88.9795 154.055 90.5397 154.229C97.8205 154.924 104.061 159.965 98.3406 165.527C91.9265 171.958 80.4853 166.048 76.4982 169.872C72.6844 173.696 89.8463 177.346 80.1386 182.734C74.938 185.689 66.2704 180.996 58.1228 181.343C56.3893 181.343 54.8291 180.822 53.6157 179.605L53.269 179.258C52.0555 178.041 51.3621 176.477 51.5354 174.739C51.8821 166.743 47.2016 157.879 50.1486 152.664C55.6959 143.105 59.3363 160.138 62.9767 156.314C66.9638 152.317 61.0698 140.845 67.3105 134.414C73.0311 128.678 77.885 134.762 78.5784 142.236C78.7518 143.626 81.8721 145.19 83.4323 142.41C83.9523 141.54 91.7532 122.247 100.421 131.112C100.594 131.459 100.767 131.633 101.114 131.807Z" stroke="url(#paint0_linear)" stroke-width="3" stroke-miterlimit="10" stroke-linecap="round" stroke-linejoin="round"/>
<defs>
<linearGradient id="paint0_linear" x1="116.5" y1="1.53223" x2="334.238" y2="182.98" gradientUnits="userSpaceOnUse">
<stop stop-color="#F4A261"/>
<stop offset="1" stop-color="#E9C46A"/>
</linearGradient>
</defs>
</svg>
