<svg width="32" height="22" viewBox="0 0 32 22" fill="none" xmlns="http://www.w3.org/2000/svg">
<path d="M31.6304 9.73667C27.8574 3.10321 20.5619 -0.472016 13.1233 0.780405C7.5747 1.71972 3.34347 4.72698 0.422424 9.62744C-0.136012 10.5595 -0.143171 11.4842 0.415264 12.409C3.9735 18.2997 9.19989 21.2487 15.9441 21.5327C17.1039 21.5254 18.2494 21.4308 19.3663 21.1905C24.7215 20.0619 28.8239 17.1201 31.6232 12.3289C32.1244 11.4697 32.1244 10.5959 31.6304 9.73667ZM15.8796 18.0085C12.1138 17.9793 9.09966 14.79 9.12113 10.8653C9.14261 7.14445 12.2999 4.00611 16.0014 4.02796C19.8674 4.05709 22.8959 7.20998 22.8672 11.1711C22.8386 14.9502 19.6813 18.0376 15.8796 18.0085Z" fill="url(#paint0_linear)"/>
<path d="M16.0085 6.35804C18.5644 6.36532 20.5834 8.46968 20.5762 11.1202C20.5691 13.5667 18.4714 15.6784 16.0515 15.6784C13.4526 15.6711 11.405 13.6031 11.4122 10.9818C11.4193 8.44056 13.4884 6.35804 16.0085 6.35804Z" fill="url(#paint1_linear)"/>
<defs>
<linearGradient id="paint0_linear" x1="16" y1="0.532715" x2="35.7342" y2="25.592" gradientUnits="userSpaceOnUse">
<stop stop-color="#F4A261"/>
<stop offset="1" stop-color="#E9C46A"/>
</linearGradient>
<linearGradient id="paint1_linear" x1="16" y1="0.532715" x2="35.7342" y2="25.592" gradientUnits="userSpaceOnUse">
<stop stop-color="#F4A261"/>
<stop offset="1" stop-color="#E9C46A"/>
</linearGradient>
</defs>
</svg>
