<svg width="215" height="239" viewBox="0 0 215 239" fill="none" xmlns="http://www.w3.org/2000/svg">
<path d="M70.6517 71.2379L73.2516 61.5347M73.2516 61.5347L81.1496 32.0589C82.1798 28.2143 82.2502 24.3087 81.4448 20.757C80.6884 17.0224 78.8741 13.5929 76.4993 10.7981C73.543 7.25882 69.3817 4.574 64.6457 3.305C51.762 -0.343406 38.8634 6.99273 35.4295 19.8083L34.2522 24.2022M73.2516 61.5347C83.508 66.2451 95.4179 70.6137 108.119 74.2133C109.212 74.5062 110.123 74.7502 111.216 75.043C111.945 75.2383 112.673 75.4335 113.402 75.6287M40.6115 52.2001C35.3013 47.2452 32.0929 42.4611 31.5328 37.9941M40.6115 52.2001C45.158 56.3617 51.2109 60.7307 58.5038 64.8433C62.2168 67.0155 66.3432 69.1023 70.7007 71.0548C81.8188 76.1924 94.6394 80.805 108.665 84.5632C109.394 84.7584 110.122 84.9536 110.851 85.1488M40.6115 52.2001L48.3623 23.2736C48.4604 22.9074 48.5585 22.5413 48.6566 22.1751C50.5276 17.3784 55.7963 14.4732 60.8966 15.8399C63.4467 16.5232 65.5694 18.073 66.7673 20.16C68.2804 22.5277 68.8196 25.6155 68.0347 28.5448L58.2726 64.9776M164.339 31.9799L166.89 22.4598C170.275 9.82732 183.222 2.3081 195.791 5.67582C208.359 9.04353 215.813 22.0292 212.428 34.6617L203.107 69.4467M164.339 31.9799C161.936 30.7474 159.119 29.6003 156.485 28.502M164.339 31.9799C168.696 33.9324 172.823 36.0192 176.536 38.1914C183.829 42.304 189.881 46.673 194.428 50.8346M176.354 38.1426L179.689 25.6932C181.161 20.2009 186.759 16.7953 192.406 18.3083C197.87 19.7725 201.247 25.3866 199.726 31.062L194.428 50.8346M194.428 50.8346C201.448 57.4248 204.81 63.8201 203.338 69.3124M43.1624 42.68C47.7089 46.8416 53.7618 51.2106 61.0547 55.3232M176.56 82.5446C187.973 81.4819 196.402 78.4423 200.557 73.8651C201.678 72.5957 202.385 71.4118 202.96 69.9959L151.608 223.026C146.577 238.161 110.138 241.544 69.5185 230.66C28.8986 219.776 -0.966278 198.627 2.24366 183.004L6.67315 160.644M117.631 16.1288C120.595 16.7266 123.509 17.5076 126.423 18.2885C130.613 19.4111 134.753 20.7167 138.712 21.9736M98.8413 12.6639C90.7634 11.4806 83.3161 10.8586 76.184 10.5174M34.2871 24.8002C34.3362 24.6171 34.3853 24.4341 34.4343 24.251M110.851 85.1488C134.944 91.4083 157.601 93.5549 174.058 91.8816C177.681 91.4786 181.121 91.0268 184.063 90.2454C190.957 88.5607 195.946 85.9728 198.615 82.5674M110.851 85.1488L113.451 75.4456C112.673 75.4335 98.9929 44.8852 132.145 53.7682C174.222 65.0427 176.609 82.3615 176.609 82.3615L174.009 92.0647M6.67315 160.644L9.68687 145.754M6.67315 160.644C10.1469 176.096 38.779 194.56 76.3023 204.614C113.826 214.669 147.854 212.994 158.588 201.35M9.68687 145.754L22.2323 84.3617M9.68687 145.754C10.5474 161.486 40.1111 181.574 79.6381 192.165C119.165 202.756 154.763 200.325 163.605 186.996M22.2323 84.3617L25.5894 68.1898L31.7149 38.0429L33.1657 31.1713L34.4693 24.849M22.2323 84.3617C24.8653 100.765 55.3888 120.914 96.0087 131.798C136.629 142.682 173.319 140.543 183.619 127.605M25.4072 68.141C23.4092 85.0695 55.628 107.634 99.3445 119.348C142.879 131.013 182.064 127.581 188.98 111.97M110.194 65.7429C113.41 62.4839 119.295 60.9212 129.496 63.6544C159.418 71.4758 170.367 85.9868 171.214 87.1951C173.127 90.2584 173.96 92.2478 173.96 92.2478M132.306 235.318L139.125 209.87M161.739 125.471L170.619 92.3334M142.46 197.421L158.355 138.103M105.921 236.882L112.887 210.885M135.698 125.753L144.823 91.7006M116.272 198.253L132.313 138.386M91.2609 194.691L107.351 134.641M110.736 122.008L119.959 87.5892M81.1553 232.405L87.876 207.323M67.0346 188.199L83.174 127.966M86.5098 115.517L95.7814 80.9147M56.9291 225.913L63.6988 200.649M33.3406 217.042L40.3066 191.045M63.0685 106.096L72.242 71.8602M43.6424 178.595L59.7327 118.545M11.371 202.129L18.1898 176.681M40.7555 92.4646L49.5856 59.5103M21.5256 164.232L37.4197 104.914M146.473 43.283C135.908 40.4522 150.075 21.094 129.128 15.4811C105.812 9.23378 110.469 37.7567 99.1758 34.7306C86.7895 31.4117 103.803 -3.66682 132.218 3.94715C157.72 10.7802 159.952 46.8948 146.473 43.283Z" stroke="url(#paint0_linear)" stroke-width="3" stroke-miterlimit="10" stroke-linecap="round" stroke-linejoin="round"/>
<defs>
<linearGradient id="paint0_linear" x1="134.223" y1="-10.8211" x2="305.658" y2="162.155" gradientUnits="userSpaceOnUse">
<stop stop-color="#F4A261"/>
<stop offset="1" stop-color="#E9C46A"/>
</linearGradient>
</defs>
</svg>
