<svg width="234" height="237" viewBox="0 0 234 237" fill="none" xmlns="http://www.w3.org/2000/svg">
<path d="M67.1343 189.01C62.0153 193.774 58.8381 200.656 58.8381 208.066C58.8381 214.242 60.9563 219.888 64.4866 224.299M64.4866 224.299C69.2525 230.475 76.8427 234.356 85.1389 234.356M64.4866 224.299L6.23638 150.545C3.58864 147.193 2 142.958 2 138.371C2 132.725 4.2947 127.784 8.17805 124.079L117.971 19.977C119.736 18.389 121.854 17.5067 124.325 17.6832C126.62 17.8596 128.738 18.9183 130.15 20.8592L173.75 76.2626C176.751 79.9679 176.398 85.4376 172.867 88.6136L66.9578 189.01M99.7897 157.956H191.401C195.638 157.956 198.992 161.309 198.992 165.543M198.992 165.543V226.593C198.992 231.004 195.461 234.533 191.048 234.533H85.3154M198.992 165.543H219.114M219.114 228.181H198.815M188.048 60.5591L171.985 73.7923M148.155 12.2134L133.151 24.5645M148.155 12.2134L188.048 60.3826C190.342 63.2057 194.402 63.5586 197.226 61.2648C199.874 59.1475 200.227 54.9128 198.285 52.0897L158.216 3.92056C155.922 1.09746 151.862 0.744573 149.038 3.03834C146.213 5.33211 145.86 9.39032 148.155 12.2134ZM50.3653 172.424L20.1811 134.136M42.4221 183.011L12.2379 144.723M73.1358 150.722L42.9517 112.434M95.9064 129.019L65.7222 90.9074M118.677 107.493L88.6692 69.2048M141.624 85.7905L111.44 47.5022M62.8979 162.367L32.7137 124.255M85.6685 140.841L55.4843 102.553M108.615 119.138L78.4313 80.8501M131.386 97.4358L101.202 59.3239M154.157 75.9097L123.972 37.6213M186.282 183.011V217.418M171.985 183.011V217.418M157.863 183.011V217.418M143.566 183.011V217.418M129.268 183.011V217.418M115.147 183.011V217.418M100.849 183.011V217.418M86.7276 210.889V177.188M72.4298 210.713V190.598M225.469 234.533C221.939 234.533 218.938 231.71 218.938 228.004V165.543C218.938 162.014 221.762 159.015 225.469 159.015C228.999 159.015 232 161.838 232 165.543V228.181C232 231.71 229.176 234.533 225.469 234.533Z" stroke="url(#paint0_linear)" stroke-width="3" stroke-linecap="round" stroke-linejoin="round"/>
<defs>
<linearGradient id="paint0_linear" x1="117" y1="1.53271" x2="338.006" y2="183.333" gradientUnits="userSpaceOnUse">
<stop stop-color="#F4A261"/>
<stop offset="1" stop-color="#E9C46A"/>
</linearGradient>
</defs>
</svg>
