<svg width="240" height="240" viewBox="0 0 240 240" fill="none" xmlns="http://www.w3.org/2000/svg">
<g filter="url(#filter0_d)">
<circle cx="120" cy="105" r="60" fill="white"/>
</g>
<path d="M103.498 153.189C98.8954 151.873 94.7116 149.754 90.8231 147.001C85.335 143.127 80.659 138.449 77.0413 132.797C74.1864 128.363 72.0946 123.588 70.7164 118.496C69.3874 113.55 68.8952 108.556 69.0182 103.464C69.1659 98.0796 70.1503 92.8659 72.0453 87.8227C75.3185 79.1251 80.4129 71.7431 87.6484 65.7985C91.9306 62.2903 96.705 59.5616 101.849 57.5638C102.759 57.1984 103.694 56.8086 104.679 56.638C104.876 56.5406 105.122 56.4675 105.27 56.5893C105.836 57.0278 105.811 57.0278 106.451 56.8329C108.764 56.1264 111.078 55.5417 113.514 55.5904C114.228 55.6148 114.868 55.3468 115.557 55.2493C116.763 55.225 117.969 55.2006 119.199 55.1519C120.036 55.0544 120.897 55.0301 121.734 55.1519C136.156 55.5904 148.166 61.2426 157.961 71.6213C158.207 71.8649 158.6 72.0111 158.625 72.4496C158.723 72.5715 158.723 72.6689 158.625 72.7907C157.788 73.01 157.444 72.3278 157.025 71.8893C153.481 68.1617 149.421 65.092 144.917 62.5826C141.718 60.8041 138.321 59.5129 134.802 58.5383C130.126 57.2471 125.352 56.5649 120.479 56.7355C116.713 56.8573 112.997 57.4176 109.306 58.2216C104.26 59.2936 99.6337 61.3157 95.253 63.8982C88.6082 67.8207 83.1447 73.0344 78.9609 79.4906C76.1061 83.9003 74.088 88.6754 72.8083 93.743C72.1438 96.3742 71.8484 99.0785 71.5531 101.783C71.1347 105.559 71.4793 109.311 71.8731 113.063C72.2176 116.254 73.2759 119.3 74.3341 122.345C76.426 128.314 79.8222 133.503 83.9076 138.254C87.107 141.982 90.9954 145.003 95.253 147.512C97.8617 149.071 100.643 150.265 103.424 151.435C103.817 151.727 104.433 151.873 104.236 152.555C104.137 152.921 104.113 153.432 103.498 153.189Z" fill="#EFF5F2"/>
<path d="M170.413 107.874C170.389 112.429 169.823 116.863 168.395 121.224C166.033 128.412 162.366 134.795 157.173 140.325C155.795 141.787 154.318 143.127 152.768 144.394C152.325 144.296 152.325 144.296 152.595 143.882C149.593 145.904 146.837 148.194 143.465 149.461C142.333 150.119 141.102 150.558 139.921 151.118C139.675 151.215 139.429 151.24 139.183 151.215C138.986 151.191 138.814 151.142 138.666 150.996C138.641 150.29 139.207 150.168 139.675 149.973C143.514 148.292 147.034 146.099 150.331 143.565C150.75 143.297 151.02 142.81 151.562 142.713C152.915 142.031 153.974 141.007 155.081 140.033C155.721 139.472 154.958 138.79 155.376 138.254C157.025 136.281 158.724 134.381 160.2 132.285C163.301 127.949 165.639 123.247 167.165 118.155C167.854 115.889 168.223 113.599 168.666 111.284C168.863 110.31 169.404 109.408 169.454 108.385C169.724 108.068 169.946 107.752 170.413 107.874Z" fill="#EFF5F2"/>
<path d="M140.93 151.654C137.14 153.359 133.153 154.529 129.068 155.211C123.973 156.064 118.83 156.332 113.711 155.479C112.874 155.333 111.988 155.406 111.176 155.089C110.93 154.919 110.635 155.016 110.364 154.967C109.65 154.845 109.256 154.529 109.699 153.774C110.192 153.457 110.708 153.554 111.25 153.676C114.572 154.407 117.919 154.797 121.316 154.772C124.589 154.748 127.813 154.31 131.012 153.676C132.07 153.481 133.227 153.579 134.162 152.848C134.408 152.702 134.679 152.628 134.95 152.604C135.737 152.726 136.402 152.239 137.14 152.117C138.198 151.873 139.134 151.313 140.167 151.02C140.561 150.801 140.955 150.679 141.398 150.777C142.136 151.508 141.029 151.337 140.93 151.654Z" fill="#EFF5F2"/>
<path d="M115.606 55.2493C114.695 55.8828 113.637 55.6391 112.653 55.8097C110.388 56.1751 108.124 56.638 105.934 57.3446C105.639 57.442 105.294 57.3933 104.9 57.442C105.023 57.1009 105.885 56.5893 104.753 56.6624C106.155 55.8584 107.731 55.6148 109.256 55.2493C114.055 54.1286 118.928 53.8363 123.85 54.0799C126.213 54.1774 128.576 54.4697 130.889 55.2006C124.638 54.2504 118.412 54.1774 112.283 55.4199C113.342 55.7853 114.449 55.0057 115.606 55.2493Z" fill="#EFF5F2"/>
<path d="M170.537 97.0807C170.635 98.3963 171.103 99.6632 170.98 101.028C170.93 101.466 171.004 101.905 170.463 102.343C170.635 100.272 170.167 98.445 169.774 96.5691C169.232 95.8138 169.183 94.888 168.986 94.0597C167.632 88.31 165.344 82.9989 162.021 78.1019C161.677 77.6146 161.258 77.1274 161.283 76.4696C161.357 76.2746 161.48 76.1285 161.677 76.1041C163.153 77.7121 164.212 79.6124 165.221 81.5127C167.091 84.9723 168.592 88.578 169.528 92.3786C169.921 93.9379 170.217 95.5215 170.537 97.0807Z" fill="#EFF5F2"/>
<path d="M140.93 151.654C140.832 151.24 141.718 151.435 141.398 150.899C141.816 149.9 142.874 149.924 143.637 149.51C143.883 149.388 144.203 149.461 144.4 149.291C144.08 149.413 143.76 149.534 143.416 149.291C145.508 148.414 147.353 147.122 149.248 145.88C150.331 145.173 151.39 144.442 152.448 143.712C152.817 143.833 152.029 144.491 152.768 144.418C149.224 147.439 145.237 149.827 140.93 151.654Z" fill="#EFF5F2"/>
<path d="M103.498 153.189C104.654 152.702 104.014 152.214 103.498 151.727C103.645 151.556 103.842 151.483 104.039 151.556C104.999 151.946 106.032 152.141 107.041 152.458C107.288 152.531 107.435 152.702 107.534 152.945C107.534 152.994 107.558 153.043 107.534 153.067C106.968 153.481 106.918 153.53 106.918 154.188C105.786 153.774 104.482 153.993 103.498 153.189Z" fill="#EFF5F2"/>
<path d="M161.677 76.1285C161.628 76.299 161.529 76.4208 161.332 76.4452C160.052 75.9336 159.733 74.5449 158.797 73.7165C158.551 73.4973 158.404 73.2049 158.625 72.8638C158.65 72.7176 158.674 72.5958 158.699 72.4497C159.905 73.4973 160.766 74.8129 161.677 76.1285Z" fill="#EFF5F2"/>
<path d="M106.894 154.163C106.648 153.774 106.402 153.384 106.131 152.921C106.623 152.994 107.066 153.043 107.484 153.091C107.927 152.799 108.247 152.97 108.543 153.311C108.789 153.822 108.592 154.212 108.174 154.553C107.681 154.675 107.288 154.431 106.894 154.163Z" fill="#EFF5F2"/>
<path d="M170.413 107.874C170.192 108.044 169.97 108.19 169.749 108.361C169.355 107.971 169.38 107.557 169.675 107.143C169.872 106.68 169.38 105.754 170.094 105.754C170.807 105.754 170.315 106.68 170.487 107.143C170.463 107.362 170.438 107.606 170.413 107.874Z" fill="#EFF5F2"/>
<path d="M108.174 154.577C108.247 154.212 108.321 153.822 108.42 153.457C108.69 153.189 108.961 153.384 109.232 153.457C109.453 153.554 109.65 153.676 109.724 153.92C109.503 155.162 110.758 154.602 111.151 155.065C110.093 155.333 109.232 154.456 108.174 154.577Z" fill="#EFF5F2"/>
<path d="M121.783 55.1762C120.946 55.1762 120.085 55.1762 119.248 55.1762C120.085 54.8108 120.922 54.8352 121.783 55.1762Z" fill="#EFF5F2"/>
<path d="M128.896 153.432C132.243 152.921 135.393 151.63 138.715 150.972C138.887 150.972 139.06 150.996 139.232 150.996C139.257 151.678 138.592 151.581 138.223 151.8C137.854 152.019 137.411 152.092 137.017 152.263C136.353 152.434 135.713 152.677 135.048 152.896C134.777 152.921 134.507 152.921 134.261 152.945C134.088 153.286 133.744 153.335 133.449 153.384C131.947 153.579 130.52 154.017 129.019 154.188C128.502 154.236 127.985 154.31 127.591 153.798C128.01 153.335 128.502 153.652 128.896 153.432Z" fill="#EFF5F2"/>
<path d="M154.22 140.008C154.638 139.448 155.081 138.912 155.672 138.498C155.623 138.62 155.524 138.79 155.549 138.839C156.41 139.984 155.18 140.301 154.687 140.812C153.851 141.641 152.989 142.542 151.759 142.883C151.586 142.347 151.956 142.079 152.325 141.811C153.014 141.275 153.678 140.691 154.22 140.008Z" fill="#EFF5F2"/>
<path d="M154.22 140.008C154.22 140.812 153.481 141.056 153.063 141.543C152.645 142.006 151.956 142.225 151.759 142.883C151.193 142.883 151.242 143.712 150.676 143.663C150.43 143.638 150.208 143.614 149.741 143.59C151.316 142.274 152.645 140.983 154.22 140.008Z" fill="#EFF5F2"/>
<path d="M143.416 149.266C143.736 149.266 144.056 149.266 144.425 149.266C143.44 149.973 142.259 150.119 141.398 150.899C141.004 150.996 140.61 151.118 140.216 151.215C140.093 151.118 139.921 151.094 139.921 150.899C140.955 150.119 142.284 149.9 143.416 149.266Z" fill="#EFF5F2"/>
<path d="M139.896 150.899C139.995 150.996 140.093 151.118 140.192 151.215C139.207 151.605 138.198 151.995 137.214 152.36C137.091 152.312 136.943 152.287 136.919 152.141C137.534 151.459 138.641 151.776 139.207 150.996C139.453 150.947 139.675 150.923 139.896 150.899Z" fill="#EFF5F2"/>
<path d="M128.896 153.432C128.551 153.53 128.231 153.627 127.542 153.822C130.077 154.066 132.12 153.14 134.261 152.896C134.064 153.895 133.104 153.7 132.513 153.798C128.108 154.626 123.678 155.26 119.15 155.016C116.418 154.87 113.711 154.699 111.053 154.017C110.635 153.92 110.167 153.944 109.724 153.92C109.503 153.895 109.281 153.871 109.183 153.627C110.856 152.312 112.603 153.408 114.302 153.53C115.212 153.579 116.147 153.774 117.058 153.822C120.011 153.944 122.964 154.066 125.918 153.822C126.927 153.774 127.837 153.116 128.896 153.432Z" fill="#EFF5F2"/>
<path d="M136.919 152.141C137.017 152.214 137.115 152.287 137.214 152.36C136.476 152.482 135.86 153.14 135.048 152.872C135.467 152.117 136.303 152.409 136.919 152.141Z" fill="#EFF5F2"/>
<path d="M122.915 154.577C123.235 154.626 123.555 154.651 123.875 154.699C123.875 154.748 123.875 154.772 123.875 154.821C121.931 154.821 119.987 154.821 118.042 154.821C117.993 154.821 117.944 154.821 117.919 154.821C117.747 154.626 118.018 154.699 118.042 154.626C119.667 154.407 121.291 154.456 122.915 154.577Z" fill="#EFF5F2"/>
<path d="M122.915 154.577C121.291 154.577 119.667 154.602 118.042 154.602C119.667 154.139 121.291 154.261 122.915 154.577Z" fill="#EFF5F2"/>
<path d="M111 105.716C111 101.645 111 97.5635 111 93.492C111 92.0823 111.632 90.9979 113.002 90.367C114.383 89.736 115.7 89.9431 116.909 90.8007C122.262 94.5961 127.625 98.3817 132.978 102.187C135.697 104.119 135.665 107.441 132.935 109.374C127.561 113.169 122.198 116.984 116.824 120.78C115.036 122.041 112.574 121.598 111.471 119.823C111.139 119.291 111 118.699 111 118.078C111.011 113.958 111 109.837 111 105.716Z" fill="url(#paint0_linear)"/>
<defs>
<filter id="filter0_d" x="0" y="0" width="240" height="240" filterUnits="userSpaceOnUse" color-interpolation-filters="sRGB">
<feFlood flood-opacity="0" result="BackgroundImageFix"/>
<feColorMatrix in="SourceAlpha" type="matrix" values="0 0 0 0 0 0 0 0 0 0 0 0 0 0 0 0 0 0 127 0"/>
<feOffset dy="15"/>
<feGaussianBlur stdDeviation="30"/>
<feColorMatrix type="matrix" values="0 0 0 0 0.188235 0 0 0 0 0.670588 0 0 0 0 0.466667 0 0 0 0.15 0"/>
<feBlend mode="multiply" in2="BackgroundImageFix" result="effect1_dropShadow"/>
<feBlend mode="normal" in="SourceGraphic" in2="effect1_dropShadow" result="shape"/>
</filter>
<linearGradient id="paint0_linear" x1="123" y1="90" x2="150.558" y2="107.497" gradientUnits="userSpaceOnUse">
<stop stop-color="#F4A261"/>
<stop offset="1" stop-color="#E9C46A"/>
</linearGradient>
</defs>
</svg>
