<svg width="221" height="237" viewBox="0 0 221 237" fill="none" xmlns="http://www.w3.org/2000/svg">
<path d="M123.498 27.3607C109.689 3.44207 78.9387 -4.93774 54.854 8.96756C30.9354 22.777 22.5556 53.5269 36.4609 77.6116L63.4085 124.286L21.5073 111.935M104.357 195.211L83.1636 158.503M208.343 173.932C208.343 173.932 228.517 200.82 214.066 209.163M208.343 173.932L201.034 178.152M208.343 173.932L123.664 27.2648M201.034 178.152L102.204 235.211L67.105 174.418L9.47138 139.038C7.41989 137.786 5.6749 135.915 4.42822 133.755C0.304574 126.613 2.76167 117.443 9.90403 113.319C13.5583 111.21 17.7434 110.786 21.6734 111.839M201.034 178.152L192.065 183.33C192.065 183.33 198.453 218.178 212.904 209.834M200.383 160.146L94.2443 221.425M162.169 147.66L121.474 171.155M114.573 112.021L135.217 126.678L145.229 104.509L155.36 135.867L114.665 159.362L92.7405 134.813L116.945 137.227L114.573 112.021Z" stroke="url(#paint0_linear)" stroke-width="3" stroke-miterlimit="10" stroke-linecap="round" stroke-linejoin="round"/>
<defs>
<linearGradient id="paint0_linear" x1="30.9542" y1="22.7661" x2="255.313" y2="12.3294" gradientUnits="userSpaceOnUse">
<stop stop-color="#F4A261"/>
<stop offset="1" stop-color="#E9C46A"/>
</linearGradient>
</defs>
</svg>
