<svg width="274" height="256" viewBox="0 0 274 256" fill="none" xmlns="http://www.w3.org/2000/svg">
<path d="M22.2473 81.3214L8.79353 91.8259C0.639704 98.1922 -0.803386 109.792 5.54658 117.924L105.559 246.016C112.226 254.556 124.554 256.057 133.116 249.373L241.969 164.382C246.997 160.456 249.547 154.756 249.543 148.868M105.688 16.1723L119.142 5.66777C127.296 -0.698597 138.899 0.714567 145.249 8.84739L209.913 91.6666M89.2446 29.0111L38.6909 68.4825M132.275 159.485L36.6491 113.494C28.8969 109.729 23.7255 101.985 23.0857 93.3212L22.4602 83.5551L21.3164 66.1211C20.6152 55.9778 25.0204 46.2111 33.0383 39.9509L62.9357 16.6075C70.9536 10.3473 81.4971 8.44233 91.1675 11.5826L107.804 16.9205L117.126 19.8959C125.512 22.5118 131.635 29.513 133.408 37.9469L153.591 136.078M132.275 159.485L102.356 50.8464C98.4797 36.6367 88.2753 24.968 74.4942 19.3645L64.5664 15.3343M132.275 159.485L140.057 187.663M122.176 123.298L56.6944 86.4981C43.8491 79.2913 34.8978 66.426 32.9097 51.833L31.4076 41.2242M165.834 195.463L170.819 219.498M165.834 195.463L198.45 169.998M165.834 195.463L146.265 210.743M155.667 146.021L160.985 171.322M160.985 171.322L189.931 148.722M160.985 171.322L140.057 187.663M140.057 187.663L90.1827 226.604M146.265 210.743L152.609 233.716M146.265 210.743L103.729 243.954M210.204 122.857C195.702 125.016 186.424 120.697 180.513 113.967C167.633 99.151 170.622 72.1625 170.622 72.1625C170.622 72.1625 198.391 75.7899 209.309 92.5744M210.204 122.857C204.047 110.21 205.038 100.272 209.309 92.5744M210.204 122.857C220.501 113.072 230.077 111.049 238.689 112.834C258.301 116.94 271.942 141.416 271.942 141.416C271.942 141.416 247.13 154.462 228.423 147.032M210.204 122.857C222.49 129.628 227.435 138.203 228.317 146.896C230.369 166.894 211.029 187.23 211.029 187.23C211.029 187.23 191.031 167.5 192.665 147.46M210.204 122.857C218.144 136.948 211.84 154.089 211.84 154.089M209.309 92.5744C219.087 75.1214 246.654 69.5249 246.654 69.5249C246.654 69.5249 251.566 97.1077 238.719 112.592M189.599 100.109C189.599 100.109 195.515 114.69 207.591 123.152M228.466 94.4169C228.466 94.4169 209.471 110.993 209.599 121.802M240.65 131.594C240.65 131.594 223.601 118.724 210.068 122.963C207.357 136.861 200.564 144.129 192.529 147.566C174.345 155.655 149.109 143.505 149.109 143.505C149.109 143.505 161.557 119.385 180.619 114.102M178.456 133.464C178.456 133.464 199.017 134.864 208.437 124.236" stroke="url(#paint0_linear)" stroke-width="3" stroke-miterlimit="10" stroke-linecap="round" stroke-linejoin="round"/>
<defs>
<linearGradient id="paint0_linear" x1="64.7023" y1="15.2282" x2="340.41" y2="19.7687" gradientUnits="userSpaceOnUse">
<stop stop-color="#F4A261"/>
<stop offset="1" stop-color="#E9C46A"/>
</linearGradient>
</defs>
</svg>
