<svg width="224" height="255" viewBox="0 0 224 255" fill="none" xmlns="http://www.w3.org/2000/svg">
<path d="M173.008 29.7584C262.488 63.2402 180.294 213.907 216.953 240.463C216.953 240.463 201.692 252.642 193.659 252.793C185.557 253.129 177.619 242.371 169.425 241.831C161.485 241.175 152.047 250.692 143.946 249.345C135.844 247.997 130.254 236.013 122.244 233.858C114.419 231.772 103.44 239.239 95.7067 236.346C87.9739 233.452 84.5929 220.611 77.3206 217.048C69.8641 213.416 57.5957 218.718 50.7838 214.485C43.7187 210.368 43.0306 197.062 36.495 192.091C29.9595 187.12 16.909 190.024 11.0179 184.452C5.0578 179.065 1.53987 159.859 1.53987 159.859C46.3739 164.007 83.5289 -3.72337 173.008 29.7584ZM173.008 29.7584C160.718 27.2643 147.781 42.2072 147.781 42.2072M173.008 29.7584C173.008 29.7584 192.348 -5.09838 214.994 3.3754C223.832 6.68224 221.758 15.588 220.653 18.5419C216.854 28.6959 185.461 21.1587 180.902 33.3435M120.204 62.6166C123.933 59.3817 127.57 56.9542 131.069 54.8959M66.4954 133.231C69.3271 129.029 72.1588 124.827 75.0596 120.44C83.831 107.095 93.2011 92.7117 103.307 80.2873M184.971 62.8579C184.971 62.8579 187.437 45.0491 176.622 31.3209" stroke="url(#paint0_linear)" stroke-width="3" stroke-miterlimit="10" stroke-linecap="round" stroke-linejoin="round"/>
<defs>
<linearGradient id="paint0_linear" x1="186.825" y1="-7.16516" x2="349.658" y2="242.735" gradientUnits="userSpaceOnUse">
<stop stop-color="#F4A261"/>
<stop offset="1" stop-color="#E9C46A"/>
</linearGradient>
</defs>
</svg>
