<svg width="12" height="13" viewBox="0 0 12 13" fill="none" xmlns="http://www.w3.org/2000/svg">
<path d="M8.42513 12.5322H3.57486C1.60368 12.5322 0 10.9286 0 8.95736V4.10709C0 2.1359 1.60368 0.532227 3.57486 0.532227H8.42513C10.3963 0.532227 12 2.1359 12 4.10709V8.95736C12 10.9286 10.3963 12.5322 8.42513 12.5322ZM10.7928 4.10709C10.7928 2.79948 9.73275 1.73943 8.42513 1.73943H3.57486C2.26725 1.73943 1.2072 2.79948 1.2072 4.10709V8.95736C1.2072 10.265 2.26725 11.325 3.57486 11.325H8.42513C9.73275 11.325 10.7928 10.265 10.7928 8.95736V4.10709Z" fill="url(#paint0_linear)"/>
<path d="M6 9.63585C4.28866 9.63585 2.89637 8.24357 2.89637 6.53225C2.89637 4.82093 4.28866 3.42862 6 3.42862C7.71134 3.42862 9.10363 4.82091 9.10363 6.53225C9.10363 8.24359 7.71134 9.63585 6 9.63585ZM6 4.6358C4.95262 4.6358 4.10357 5.48485 4.10357 6.53223C4.10357 7.5796 4.95265 8.42865 6 8.42865C7.04738 8.42865 7.89643 7.5796 7.89643 6.53223C7.89643 5.48487 7.04735 4.6358 6 4.6358Z" fill="url(#paint1_linear)"/>
<path d="M9.10964 8.86886C9.52037 8.86886 9.85333 9.20182 9.85333 9.61255C9.85333 10.0233 9.52037 10.3562 9.10964 10.3562C8.69891 10.3562 8.36594 10.0233 8.36594 9.61255C8.36594 9.20182 8.69891 8.86886 9.10964 8.86886Z" fill="url(#paint2_linear)"/>
<defs>
<linearGradient id="paint0_linear" x1="9.10964" y1="0.567157" x2="9.10964" y2="12.439" gradientUnits="userSpaceOnUse">
<stop stop-color="#E09B3D"/>
<stop offset="0.3" stop-color="#C74C4D"/>
<stop offset="0.6" stop-color="#C21975"/>
<stop offset="1" stop-color="#7024C4"/>
</linearGradient>
<linearGradient id="paint1_linear" x1="9.10964" y1="0.567157" x2="9.10964" y2="12.439" gradientUnits="userSpaceOnUse">
<stop stop-color="#E09B3D"/>
<stop offset="0.3" stop-color="#C74C4D"/>
<stop offset="0.6" stop-color="#C21975"/>
<stop offset="1" stop-color="#7024C4"/>
</linearGradient>
<linearGradient id="paint2_linear" x1="9.10964" y1="0.567157" x2="9.10964" y2="12.439" gradientUnits="userSpaceOnUse">
<stop stop-color="#E09B3D"/>
<stop offset="0.3" stop-color="#C74C4D"/>
<stop offset="0.6" stop-color="#C21975"/>
<stop offset="1" stop-color="#7024C4"/>
</linearGradient>
</defs>
</svg>
