<svg width="245" height="217" viewBox="0 0 245 217" fill="none" xmlns="http://www.w3.org/2000/svg">
<path d="M100.926 98.4659C100.926 98.4659 105.487 101.57 106.035 105.406C106.582 109.241 103.298 113.624 103.298 113.624M105.487 127.138L103.115 127.503H102.933C99.284 128.051 95.8175 129.694 93.0807 131.886C86.8775 136.634 83.5934 144.487 84.8706 152.705C85.7828 158.184 88.702 162.932 92.5334 166.219C93.6281 167.132 94.7228 167.863 95.9999 168.593C96.5473 168.958 97.0946 169.141 97.6419 169.324C99.4664 170.054 101.291 170.602 103.298 170.967M103.298 170.967C105.487 171.333 107.859 171.333 110.048 170.967L232.106 150.331M103.298 170.967C91.8036 173.341 84.1408 184.299 85.9653 195.987C86.8775 201.283 89.6142 205.848 93.4456 209.136M232.106 150.331L232.836 150.148C238.674 149.235 242.688 143.574 241.776 137.73C240.864 131.886 235.208 127.868 229.37 128.781L106.582 149.6C106.399 149.6 106.217 149.418 106.217 149.235C106.217 149.053 106.217 148.87 106.399 148.87L231.377 128.416C237.215 127.503 241.229 121.842 240.316 115.998C239.404 110.154 233.748 106.136 227.91 107.049L198.718 111.797H198.353M232.106 150.331C236.85 150.879 240.681 154.531 241.411 159.279C242.323 165.123 238.31 170.785 232.471 171.698L107.494 192.152C107.312 192.152 107.312 192.334 107.312 192.517C107.312 192.7 107.494 192.882 107.677 192.882L230.464 172.246C236.303 171.333 241.958 175.35 242.871 181.194C243.783 187.038 239.769 192.7 233.931 193.613L111.143 214.249C106.764 214.98 102.568 214.249 98.7366 212.605C98.0068 212.24 97.4595 212.058 96.9122 211.692C95.8175 210.962 94.5403 210.049 93.4456 209.136M101.108 142.478C101.108 142.478 105.67 145.583 106.217 149.418C106.764 153.253 103.48 157.636 103.48 157.636M93.4456 209.136L10.4317 138.46C6.78272 135.356 4.22845 131.155 3.3162 126.042C1.85662 116.363 7.33007 107.049 16.27 103.579M102.021 185.577C102.021 185.577 106.582 188.682 107.129 192.517C107.677 196.352 104.393 200.735 104.393 200.735M235.573 64.8632L143.436 3.31912C143.072 2.95388 142.707 2.77125 142.342 2.58863C142.159 2.58863 142.159 2.40601 141.977 2.40601C140.335 1.67551 138.328 1.31027 136.321 1.67551L19.5541 20.851H19.3716C8.24231 22.6772 0.579481 33.2693 2.22152 44.4094C3.13376 49.7054 6.05293 54.0884 9.88434 57.193L16.8174 62.6717M92.8983 122.572L16.8174 62.6717M16.8174 62.6717C7.14762 65.5937 0.761929 75.4553 2.40396 85.6822C3.3162 90.7957 5.87048 95.1787 9.70189 98.2833L16.27 103.579M92.7158 166.219L16.27 103.579M147.815 98.1006C147.815 98.2833 147.633 98.4659 147.45 98.6485M232.836 106.136L198.901 111.797H198.536L110.231 126.772C108.771 126.955 107.312 127.138 105.852 126.955C103.115 126.772 100.379 126.225 97.8244 125.129C97.277 124.946 96.9121 124.764 96.3648 124.398C95.2701 123.851 94.1754 123.12 93.0807 122.207C88.8844 118.92 85.9653 114.171 85.053 108.51C84.1408 102.301 85.7828 96.2744 89.2493 91.7088C92.5334 87.3259 97.4595 84.2213 103.115 83.3081H103.298L228.092 62.8543C230.282 62.4891 232.289 62.8543 234.296 63.5848C234.478 63.5848 234.478 63.7674 234.661 63.7674C235.025 63.9501 235.573 64.1327 235.938 64.4979C238.31 66.1416 240.134 68.6983 240.681 71.8029C241.594 77.6468 237.58 83.3081 231.741 84.2213L148.363 97.918L106.399 104.858C106.217 104.858 106.035 105.04 106.217 105.223C106.217 105.406 106.399 105.588 106.582 105.588L229.37 84.7691C235.208 83.856 240.864 87.8737 241.776 93.7177C242.688 99.7442 238.674 105.223 232.836 106.136Z" stroke="url(#paint0_linear)" stroke-width="3" stroke-miterlimit="10" stroke-linecap="round" stroke-linejoin="round"/>
<defs>
<linearGradient id="paint0_linear" x1="122.5" y1="1.53223" x2="328.044" y2="195.336" gradientUnits="userSpaceOnUse">
<stop stop-color="#F4A261"/>
<stop offset="1" stop-color="#E9C46A"/>
</linearGradient>
</defs>
</svg>
