<svg width="70" height="39" viewBox="0 0 70 39" fill="none" xmlns="http://www.w3.org/2000/svg">
<path d="M52.7694 35.4693C53.9254 35.6435 55.0813 35.8177 56.2217 35.9919C57.1277 36.1345 57.5963 36.6571 57.487 37.4648C57.3932 38.225 56.7528 38.6367 55.8468 38.51C52.0352 37.9399 48.2393 37.3698 44.4278 36.7996C43.7717 36.7046 43.2874 36.4037 43.1469 35.7227C43.0219 35.1051 43.3499 34.6775 43.8498 34.3449C46.8022 32.3811 49.7546 30.4173 52.7225 28.4535C53.5192 27.9309 54.269 28.0576 54.6908 28.7544C55.0813 29.4196 54.8783 30.0689 54.066 30.6073C52.7538 31.4942 51.426 32.3652 50.1451 33.2996C55.5968 32.2069 60.8455 30.639 65.0944 26.7431C65.6099 26.268 66.0629 25.7137 66.4534 25.1119C67.8437 23.0372 67.8281 20.9942 66.3909 18.9354C65.0788 17.0508 63.2199 15.8472 61.2516 14.8019C60.6112 14.4535 59.9238 14.1843 59.2834 13.8517C58.6117 13.5033 58.3461 12.8381 58.6117 12.2046C58.8929 11.5553 59.5958 11.2703 60.3144 11.5712C62.7825 12.6481 65.1569 13.915 67.0939 15.863C68.8278 17.6051 70.0306 19.6322 69.9994 22.2137C69.9682 23.9874 69.2965 25.5553 68.2655 26.949C66.2972 29.6096 63.5948 31.2567 60.7205 32.6662C58.3774 33.8064 55.8936 34.6141 53.363 35.2318C53.1443 35.2476 52.91 35.2318 52.7694 35.4693Z" fill="url(#paint0_linear)"/>
<path d="M25.2452 13.8992C27.4477 15.0712 27.6977 16.7024 27.4165 19.3155C27.0416 22.8313 23.8549 23.6549 21.3087 23.2431C19.1217 22.8947 17.6533 21.5168 17.3722 19.6481C17.2316 18.6662 17.5908 18.2069 18.4344 18.2861C18.903 18.3336 19.1686 18.5078 19.2154 19.0621C19.3404 20.63 20.2308 21.406 21.8398 21.4693C23.6674 21.5485 24.5422 20.9467 24.8546 19.3313C25.0108 18.5553 25.0108 17.7476 24.9171 16.9716C24.7453 15.5463 23.9642 14.8653 22.4177 14.7861C22.0428 14.7703 21.6679 14.8178 21.6836 14.2476C21.6992 13.7408 21.6679 13.2024 22.3553 13.0915C22.4021 13.0757 22.4646 13.0915 22.5115 13.0757C24.839 12.7906 25.87 10.906 24.8702 8.70465C24.7921 8.5146 24.6828 8.32456 24.5422 8.16619C23.5893 7.20013 22.4177 7.29515 21.2462 7.56438C20.2308 7.80194 19.7622 8.59379 19.6997 9.60736C19.6528 10.3834 19.2467 10.6051 18.575 10.5734C17.8408 10.5418 17.6846 10.0983 17.7158 9.44899C17.7783 7.31099 19.4497 5.75895 21.8866 5.56891C22.1522 5.55307 22.4021 5.55307 22.6677 5.55307C24.261 5.60058 25.8075 5.88565 26.5573 7.51687C27.4009 9.3223 27.2446 11.1594 26.2137 12.8856C26.0262 13.3449 25.6044 13.5825 25.2452 13.8992Z" fill="url(#paint1_linear)"/>
<path d="M13.3107 12.0779C13.3107 12.6481 12.8733 12.9807 12.2641 13.2182C10.1084 14.0734 8.01516 15.0553 6.14063 16.4807C5.45331 17.0033 4.81284 17.5893 4.21925 18.2069C3.61003 18.8245 2.89146 18.8562 2.36034 18.3178C1.84485 17.7951 1.87609 17.0508 2.45407 16.4173C4.73474 13.9626 7.59339 12.4264 10.6082 11.1594C10.9988 11.001 11.3737 10.8268 11.7642 10.716C12.5765 10.4942 13.3107 11.096 13.3107 12.0779Z" fill="url(#paint2_linear)"/>
<path d="M13.2638 32.3019C13.217 33.1413 12.4671 33.7589 11.733 33.5055C9.9053 32.9037 8.17137 32.0643 6.53116 31.0349C5.9688 30.6865 5.93756 30.0689 6.20312 29.4829C6.46867 28.8969 7.21848 28.596 7.81208 28.9128C9.35856 29.768 10.9675 30.4965 12.6077 31.1933C13.0451 31.3992 13.2482 31.8585 13.2638 32.3019Z" fill="url(#paint3_linear)"/>
<path d="M21.8085 36.2137C20.0902 35.9128 18.3094 35.5802 16.5599 35.0734C15.8882 34.8833 15.5914 34.234 15.7632 33.5689C15.935 32.9037 16.5286 32.5236 17.2784 32.682C18.6218 32.9512 19.9652 33.268 21.3087 33.553C21.6367 33.6322 21.9804 33.6639 22.3084 33.7589C23.0582 33.9648 23.4019 34.5033 23.2769 35.2318C23.1832 35.8652 22.6364 36.2453 21.8085 36.2137Z" fill="url(#paint4_linear)"/>
<path d="M0.00156735 22.5938C-0.0296747 21.501 0.407714 20.9309 1.17314 20.8834C1.96982 20.8359 2.45407 21.3743 2.51655 22.3562C2.61028 23.7657 3.26636 24.8901 4.12552 25.9512C4.81284 26.7906 4.42232 27.915 3.42257 28.0734C3.01643 28.1367 2.64152 28.0417 2.36034 27.725C1.00131 26.2205 0.126536 24.5101 0.00156735 22.5938Z" fill="url(#paint5_linear)"/>
<path d="M53.6442 9.63904C53.5661 8.19786 52.91 6.99424 51.5978 6.29741C49.7702 5.33135 47.8956 5.33135 46.0367 6.20239C44.8027 6.78836 44.0997 7.83361 43.8654 9.1956C43.5842 10.9535 43.8186 12.7273 43.7405 14.1684C43.7405 15.863 43.7092 17.225 43.7405 18.6028C43.8029 21.0101 44.8964 22.5304 46.9271 23.1164C47.7863 23.3698 48.6767 23.4173 49.5515 23.3064C51.9727 23.0214 53.4255 21.7386 53.6129 19.2838C53.8785 16.0847 53.816 12.854 53.6442 9.63904ZM51.2229 19.0146C51.2073 20.5191 50.2544 21.4535 48.7548 21.4535C47.2239 21.4693 46.2554 20.535 46.2398 18.9829C46.2242 16.1322 46.2242 13.2974 46.2398 10.4467C46.2398 9.6232 46.3648 8.81551 47.0052 8.19786C47.677 7.54854 48.4892 7.29515 49.364 7.54854C50.27 7.80194 50.9105 8.40375 51.098 9.38564C51.1761 9.76573 51.2229 10.1617 51.2229 10.5576C51.2385 11.9354 51.2229 13.2974 51.2229 14.6752C51.2385 16.1164 51.2542 17.5734 51.2229 19.0146Z" fill="url(#paint6_linear)"/>
<path d="M36.9297 7.67524C37.8826 8.05533 38.5699 8.70465 38.5855 9.82908C38.6011 10.5418 39.0698 10.6843 39.6477 10.6684C40.2257 10.6526 40.5069 10.3675 40.5069 9.78157C40.5225 8.89469 40.257 8.11868 39.7258 7.43768C38.4449 5.77479 36.6641 5.47388 34.7427 5.61642C31.7747 5.83814 29.9939 7.80194 29.9939 10.811C29.9939 13.2341 29.9939 15.673 29.9939 18.096C29.9939 18.7137 30.0564 19.2997 30.2283 19.8856C31.0406 22.7521 33.7118 23.6549 36.3205 23.2748C38.4918 22.958 39.6321 21.7386 39.9133 19.5372C40.0539 18.492 40.0539 17.4309 39.9133 16.3856C39.7258 14.8969 39.1947 13.5825 37.6639 13.0757C35.8987 12.5055 34.1491 12.4897 32.4933 13.725C32.4933 12.6798 32.4777 11.682 32.4933 10.6843C32.5402 8.02365 34.4928 6.69334 36.9297 7.67524ZM33.4462 15.1503C34.1179 14.4852 34.9146 14.1209 35.8518 14.3902C36.7422 14.6436 37.1171 15.4196 37.3358 16.2748C37.492 16.8607 37.5077 17.4626 37.4764 18.0802C37.5077 18.9354 37.4139 19.7589 37.0547 20.535C36.4923 21.7227 35.4301 22.087 34.2741 21.4852C34.1335 21.406 33.9929 21.3426 33.868 21.2476C32.1653 19.9331 31.931 16.6707 33.4462 15.1503Z" fill="url(#paint7_linear)"/>
<path d="M56.2373 0.532715C54.847 0.532715 53.7535 1.62547 53.7379 3.03497C53.7223 4.46031 54.8314 5.61642 56.2373 5.61642C57.6432 5.61642 58.7523 4.46031 58.7366 3.03497C58.721 1.64131 57.6119 0.532715 56.2373 0.532715ZM56.1904 4.25443C55.5343 4.22275 55.0345 3.66846 55.0657 3.0033C55.0969 2.36982 55.6281 1.87887 56.2373 1.8947C56.8934 1.91054 57.4089 2.449 57.3932 3.11416C57.3932 3.76348 56.8309 4.2861 56.1904 4.25443Z" fill="url(#paint8_linear)"/>
<defs>
<linearGradient id="paint0_linear" x1="35" y1="0.532715" x2="68.5999" y2="52.1115" gradientUnits="userSpaceOnUse">
<stop stop-color="#F4A261"/>
<stop offset="1" stop-color="#E9C46A"/>
</linearGradient>
<linearGradient id="paint1_linear" x1="35" y1="0.532715" x2="68.5999" y2="52.1115" gradientUnits="userSpaceOnUse">
<stop stop-color="#F4A261"/>
<stop offset="1" stop-color="#E9C46A"/>
</linearGradient>
<linearGradient id="paint2_linear" x1="35" y1="0.532715" x2="68.5999" y2="52.1115" gradientUnits="userSpaceOnUse">
<stop stop-color="#F4A261"/>
<stop offset="1" stop-color="#E9C46A"/>
</linearGradient>
<linearGradient id="paint3_linear" x1="35" y1="0.532715" x2="68.5999" y2="52.1115" gradientUnits="userSpaceOnUse">
<stop stop-color="#F4A261"/>
<stop offset="1" stop-color="#E9C46A"/>
</linearGradient>
<linearGradient id="paint4_linear" x1="35" y1="0.532715" x2="68.5999" y2="52.1115" gradientUnits="userSpaceOnUse">
<stop stop-color="#F4A261"/>
<stop offset="1" stop-color="#E9C46A"/>
</linearGradient>
<linearGradient id="paint5_linear" x1="35" y1="0.532715" x2="68.5999" y2="52.1115" gradientUnits="userSpaceOnUse">
<stop stop-color="#F4A261"/>
<stop offset="1" stop-color="#E9C46A"/>
</linearGradient>
<linearGradient id="paint6_linear" x1="35" y1="0.532715" x2="68.5999" y2="52.1115" gradientUnits="userSpaceOnUse">
<stop stop-color="#F4A261"/>
<stop offset="1" stop-color="#E9C46A"/>
</linearGradient>
<linearGradient id="paint7_linear" x1="35" y1="0.532715" x2="68.5999" y2="52.1115" gradientUnits="userSpaceOnUse">
<stop stop-color="#F4A261"/>
<stop offset="1" stop-color="#E9C46A"/>
</linearGradient>
<linearGradient id="paint8_linear" x1="35" y1="0.532715" x2="68.5999" y2="52.1115" gradientUnits="userSpaceOnUse">
<stop stop-color="#F4A261"/>
<stop offset="1" stop-color="#E9C46A"/>
</linearGradient>
</defs>
</svg>
