<svg width="42" height="42" viewBox="0 0 42 42" fill="none" xmlns="http://www.w3.org/2000/svg">
<path d="M14.2049 40.8424C12.3099 40.3007 10.5871 39.428 8.986 38.2944C6.72618 36.6993 4.80077 34.7732 3.31111 32.4458C2.1356 30.62 1.27423 28.6538 0.706739 26.5571C0.159517 24.5206 -0.0431572 22.4641 0.00751147 20.3675C0.0683139 18.1504 0.473663 16.0036 1.25396 13.927C2.60175 10.3456 4.69943 7.30599 7.67875 4.85822C9.44202 3.41363 11.408 2.29007 13.5259 1.46746C13.9009 1.31698 14.2859 1.15647 14.6913 1.08625C14.7724 1.04612 14.8737 1.01602 14.9345 1.06618C15.1676 1.24676 15.1574 1.24676 15.4209 1.1665C16.3735 0.875578 17.3261 0.634813 18.3293 0.654877C18.6232 0.664909 18.8867 0.554559 19.1704 0.514431C19.667 0.5044 20.1635 0.494368 20.6702 0.474304C21.0147 0.434177 21.3694 0.424145 21.714 0.474304C27.6523 0.654877 32.5976 2.98227 36.6308 7.25583C36.7322 7.35615 36.8943 7.41634 36.9044 7.59691C36.945 7.64707 36.945 7.6872 36.9044 7.73736C36.5599 7.82764 36.418 7.54675 36.2457 7.36618C34.7865 5.83131 33.1144 4.5673 31.2599 3.53402C29.9426 2.80169 28.5441 2.27 27.095 1.86873C25.1696 1.33704 23.2036 1.05615 21.1971 1.12637C19.6467 1.17653 18.1165 1.40727 16.5964 1.73832C14.519 2.17972 12.6139 3.01236 10.8101 4.07574C8.07396 5.69086 5.82427 7.83768 4.10154 10.4961C2.92603 12.3119 2.09506 14.2781 1.56811 16.3647C1.2945 17.4482 1.17289 18.5617 1.05129 19.6753C0.879013 21.2302 1.02088 22.7751 1.18302 24.32C1.3249 25.6342 1.76065 26.8881 2.1964 28.1421C3.05777 30.5999 4.45622 32.7367 6.13842 34.6929C7.45581 36.2278 9.05694 37.4717 10.8101 38.505C11.8842 39.1471 13.0294 39.6386 14.1745 40.1202C14.3366 40.2405 14.59 40.3007 14.5089 40.5816C14.4683 40.7321 14.4582 40.9428 14.2049 40.8424Z" fill="#EFF5F2"/>
<path d="M41.7585 22.1832C41.7484 24.0592 41.5153 25.885 40.9275 27.6807C39.9547 30.6401 38.4448 33.2684 36.3065 35.5456C35.7391 36.1475 35.131 36.6993 34.4926 37.221C34.3102 37.1808 34.3102 37.1808 34.4217 37.0103C33.1854 37.8429 32.0504 38.7859 30.6621 39.3076C30.1959 39.5784 29.6892 39.759 29.2028 39.9897C29.1015 40.0299 29.0001 40.0399 28.8988 40.0299C28.8177 40.0198 28.7468 39.9998 28.686 39.9396C28.6758 39.6487 28.9089 39.5985 29.1015 39.5182C30.6823 38.826 32.1314 37.9232 33.4894 36.8799C33.6616 36.7695 33.7731 36.5689 33.9961 36.5288C34.5534 36.2479 34.9892 35.8265 35.4452 35.4253C35.7087 35.1945 35.3945 34.9136 35.5668 34.6929C36.2457 33.8803 36.945 33.0979 37.553 32.2351C38.8298 30.4495 39.7925 28.5133 40.4208 26.4167C40.7046 25.4837 40.8566 24.5407 41.039 23.5877C41.1201 23.1864 41.343 22.8152 41.3633 22.3939C41.4748 22.2635 41.566 22.1331 41.7585 22.1832Z" fill="#EFF5F2"/>
<path d="M29.6183 40.2104C28.0577 40.9127 26.416 41.3942 24.7338 41.6751C22.6361 42.0262 20.5182 42.1366 18.4104 41.7854C18.0658 41.7253 17.701 41.7553 17.3666 41.6249C17.2653 41.5547 17.1437 41.5948 17.0322 41.5748C16.7383 41.5246 16.5762 41.3942 16.7586 41.0832C16.9612 40.9528 17.1741 40.9929 17.397 41.0431C18.7651 41.344 20.1432 41.5046 21.5417 41.4945C22.8895 41.4845 24.217 41.3039 25.5344 41.0431C25.9701 40.9628 26.4464 41.003 26.8315 40.702C26.9328 40.6418 27.0443 40.6117 27.1558 40.6017C27.4801 40.6518 27.7537 40.4512 28.0577 40.401C28.4934 40.3007 28.8785 40.07 29.3041 39.9496C29.4663 39.8593 29.6284 39.8092 29.8108 39.8493C30.1148 40.1502 29.6588 40.08 29.6183 40.2104Z" fill="#EFF5F2"/>
<path d="M19.1907 0.514432C18.8157 0.77526 18.38 0.674941 17.9746 0.745164C17.0423 0.895642 16.11 1.08625 15.2081 1.37717C15.0865 1.4173 14.9446 1.39723 14.7825 1.4173C14.8332 1.27685 15.1878 1.06618 14.7217 1.09628C15.2993 0.765228 15.9479 0.66491 16.5762 0.514432C18.5522 0.0529671 20.5587 -0.067415 22.5855 0.0329034C23.5583 0.0730308 24.5311 0.193413 25.4837 0.494368C22.9097 0.103126 20.3459 0.0730308 17.8226 0.584655C18.2584 0.735133 18.7144 0.414113 19.1907 0.514432Z" fill="#EFF5F2"/>
<path d="M41.8092 17.7391C41.8497 18.2808 42.0422 18.8025 41.9916 19.3643C41.9713 19.5448 42.0017 19.7254 41.7788 19.906C41.8497 19.0533 41.6572 18.3009 41.495 17.5284C41.2721 17.2175 41.2518 16.8362 41.1707 16.4952C40.6134 14.1276 39.6709 11.9407 38.3029 9.9243C38.161 9.72367 37.9887 9.52303 37.9989 9.25217C38.0293 9.17191 38.08 9.11172 38.161 9.10169C38.769 9.76379 39.2048 10.5463 39.6203 11.3288C40.3904 12.7533 41.0086 14.238 41.3937 15.803C41.5558 16.445 41.6774 17.0971 41.8092 17.7391Z" fill="#EFF5F2"/>
<path d="M29.6183 40.2104C29.5777 40.0399 29.9426 40.1202 29.8108 39.8995C29.9831 39.4881 30.4188 39.4982 30.733 39.3276C30.8343 39.2775 30.9661 39.3076 31.0471 39.2374C30.9154 39.2875 30.7837 39.3377 30.6418 39.2374C31.5032 38.8762 32.2632 38.3445 33.0435 37.8329C33.4894 37.542 33.9251 37.241 34.3609 36.9401C34.5129 36.9902 34.1886 37.2611 34.4926 37.231C33.0333 38.4749 31.3917 39.4581 29.6183 40.2104Z" fill="#EFF5F2"/>
<path d="M14.2049 40.8424C14.6812 40.6418 14.4177 40.4412 14.2049 40.2405C14.2657 40.1703 14.3467 40.1402 14.4278 40.1703C14.823 40.3308 15.2486 40.4111 15.6641 40.5415C15.7655 40.5716 15.8263 40.6418 15.8668 40.7421C15.8668 40.7622 15.8769 40.7823 15.8668 40.7923C15.6337 40.9628 15.6135 40.9829 15.6135 41.2537C15.1473 41.0832 14.6102 41.1735 14.2049 40.8424Z" fill="#EFF5F2"/>
<path d="M38.161 9.11172C38.1408 9.18195 38.1002 9.23211 38.0191 9.24214C37.4922 9.03147 37.3605 8.45965 36.9754 8.11857C36.874 8.02828 36.8132 7.9079 36.9044 7.76746C36.9146 7.70726 36.9247 7.65711 36.9348 7.59692C37.4314 8.02828 37.7861 8.57 38.161 9.11172Z" fill="#EFF5F2"/>
<path d="M15.6033 41.2437C15.502 41.0832 15.4007 40.9227 15.2892 40.7321C15.4919 40.7622 15.6743 40.7823 15.8465 40.8023C16.0289 40.6819 16.1607 40.7522 16.2823 40.8926C16.3836 41.1033 16.3026 41.2638 16.1303 41.4042C15.9276 41.4544 15.7655 41.3541 15.6033 41.2437Z" fill="#EFF5F2"/>
<path d="M41.7585 22.1832C41.6673 22.2534 41.5761 22.3136 41.4849 22.3839C41.3227 22.2233 41.3329 22.0528 41.4545 21.8823C41.5356 21.6917 41.3329 21.3104 41.6268 21.3104C41.9206 21.3104 41.718 21.6917 41.7889 21.8823C41.7788 21.9725 41.7686 22.0729 41.7585 22.1832Z" fill="#EFF5F2"/>
<path d="M16.1303 41.4143C16.1607 41.2638 16.1911 41.1033 16.2316 40.9528C16.3431 40.8424 16.4546 40.9227 16.566 40.9528C16.6572 40.9929 16.7383 41.0431 16.7687 41.1434C16.6775 41.655 17.1943 41.4243 17.3565 41.6149C16.9207 41.7253 16.566 41.3641 16.1303 41.4143Z" fill="#EFF5F2"/>
<path d="M21.7342 0.484336C21.3897 0.484336 21.035 0.484336 20.6905 0.484336C21.035 0.333858 21.3796 0.34389 21.7342 0.484336Z" fill="#EFF5F2"/>
<path d="M24.6629 40.9428C26.0411 40.7321 27.3382 40.2004 28.7062 39.9296C28.7772 39.9296 28.8481 39.9396 28.9191 39.9396C28.9292 40.2205 28.6556 40.1803 28.5036 40.2706C28.3516 40.3609 28.1692 40.391 28.007 40.4612C27.7334 40.5315 27.4699 40.6318 27.1963 40.7221C27.0848 40.7321 26.9734 40.7321 26.872 40.7421C26.8011 40.8826 26.6592 40.9026 26.5376 40.9227C25.9195 41.003 25.3317 41.1835 24.7136 41.2538C24.5007 41.2738 24.2879 41.3039 24.1258 41.0932C24.2981 40.9026 24.5007 41.0331 24.6629 40.9428Z" fill="#EFF5F2"/>
<path d="M35.0905 35.4152C35.2628 35.1845 35.4452 34.9638 35.6884 34.7932C35.6681 34.8434 35.6276 34.9136 35.6377 34.9337C35.9924 35.4052 35.4857 35.5356 35.283 35.7463C34.9385 36.0874 34.5838 36.4585 34.0771 36.599C34.0062 36.3783 34.1582 36.2679 34.3102 36.1576C34.5939 35.9369 34.8676 35.6961 35.0905 35.4152Z" fill="#EFF5F2"/>
<path d="M35.0905 35.4152C35.0905 35.7463 34.7865 35.8466 34.6142 36.0472C34.4419 36.2378 34.1582 36.3281 34.0771 36.599C33.8441 36.599 33.8643 36.9401 33.6312 36.92C33.5299 36.91 33.4387 36.8999 33.2462 36.8899C33.8947 36.3482 34.4419 35.8165 35.0905 35.4152Z" fill="#EFF5F2"/>
<path d="M30.6418 39.2273C30.7735 39.2273 30.9053 39.2273 31.0573 39.2273C30.6519 39.5182 30.1655 39.5784 29.8108 39.8995C29.6487 39.9396 29.4865 39.9897 29.3244 40.0299C29.2737 39.9897 29.2028 39.9797 29.2028 39.8995C29.6284 39.5784 30.1756 39.4881 30.6418 39.2273Z" fill="#EFF5F2"/>
<path d="M29.1927 39.8995C29.2332 39.9396 29.2737 39.9897 29.3143 40.0299C28.9089 40.1904 28.4934 40.3509 28.0881 40.5014C28.0374 40.4813 27.9766 40.4713 27.9665 40.4111C28.2198 40.1302 28.6758 40.2606 28.9089 39.9396C29.0103 39.9195 29.1015 39.9095 29.1927 39.8995Z" fill="#EFF5F2"/>
<path d="M24.6629 40.9428C24.521 40.9829 24.3893 41.023 24.1055 41.1033C25.1493 41.2036 25.9904 40.8224 26.872 40.7221C26.791 41.1334 26.3958 41.0531 26.1525 41.0932C24.3386 41.4343 22.5145 41.6952 20.6499 41.5948C19.5251 41.5346 18.4104 41.4644 17.3159 41.1835C17.1437 41.1434 16.9511 41.1534 16.7687 41.1434C16.6775 41.1334 16.5863 41.1233 16.5458 41.023C17.2349 40.4813 17.9544 40.9327 18.6536 40.9829C19.0285 41.003 19.4136 41.0832 19.7886 41.1033C21.0046 41.1534 22.2207 41.2036 23.4367 41.1033C23.8522 41.0832 24.2271 40.8124 24.6629 40.9428Z" fill="#EFF5F2"/>
<path d="M27.9665 40.4111C28.007 40.4412 28.0476 40.4713 28.0881 40.5014C27.7841 40.5515 27.5307 40.8224 27.1963 40.712C27.3686 40.401 27.7131 40.5214 27.9665 40.4111Z" fill="#EFF5F2"/>
<path d="M22.2004 41.4143C22.3321 41.4343 22.4639 41.4444 22.5956 41.4644C22.5956 41.4845 22.5956 41.4945 22.5956 41.5146C21.795 41.5146 20.9945 41.5146 20.1939 41.5146C20.1736 41.5146 20.1534 41.5146 20.1432 41.5146C20.0723 41.4343 20.1838 41.4644 20.1939 41.4343C20.8627 41.344 21.5316 41.3641 22.2004 41.4143Z" fill="#EFF5F2"/>
<path d="M22.2004 41.4143C21.5316 41.4143 20.8627 41.4243 20.1939 41.4243C20.8627 41.2337 21.5316 41.2838 22.2004 41.4143Z" fill="#EFF5F2"/>
</svg>
