<svg width="232" height="256" viewBox="0 0 232 256" fill="none" xmlns="http://www.w3.org/2000/svg">
<path d="M155.727 61.3135C162.475 55.0321 169.499 50.5181 176.517 48.8244C182.917 47.341 188.739 48.7129 194.906 52.999C208.195 62.2034 214.68 70.9016 215.862 81.1889C216.585 87.5907 215.31 95.1501 212.083 103.692M107.384 131.134C103.847 137.335 101.036 142.225 98.6011 145.711L97.6999 146.975C90.0798 157.914 75.9158 178.574 67.2632 198.266C63.5116 206.667 55.815 226.991 64.1964 232.811C77.9635 242.332 85.4677 243.026 97.6794 235.951C113.269 226.772 134.532 204.815 165.38 170.189M125.994 74.9805C135.186 72.176 161.212 74.4465 177.974 86.0868C199.342 100.842 208.252 129.19 207.355 140.237M138.397 59.4916C154.085 59.7445 172.076 64.0009 186.321 73.8377C202.909 85.4311 214.183 104.254 219.124 120.816M93.7339 127.476C107.16 126.371 126.415 128.708 141.441 139.131C158.682 151.087 167.898 171.993 170.3 185.428M102.261 112.454C117.901 112.882 135.542 117.045 149.788 126.882C165.769 137.936 176.882 155.964 182.092 172.221M107.613 102.977C107.447 92.3975 106.944 80.9753 105.822 69.7635C105.193 63.0107 104.12 56.5151 102.65 50.1013C96.9841 22.246 83.9651 0.133471 56.1444 2.46132C25.4166 5.13893 3.99443 18.5874 2.25116 62.8934M2.25116 62.8934C1.95806 69.5873 2.17684 77.1708 2.77953 85.4216M2.25116 62.8934C14.8107 51.0208 34.0333 40.1811 54.1955 38.4349C71.4505 37.0384 89.1595 42.3479 102.872 49.9727M2.77953 85.4216C3.76067 97.16 5.76557 110.678 8.84126 125.799M2.77953 85.4216C7.52637 75.4061 29.4166 55.3107 55.2992 53.216C75.6364 51.5167 95.2047 61.0869 105.869 69.588M8.84126 125.799C8.87516 126.373 9.08407 126.993 9.16501 127.391C28.1179 219.758 37.8688 247.767 68.0137 250.765M8.84126 125.799C21.4347 114.5 39.8972 104.397 59.4873 102.686C74.6292 101.476 90.1233 105.251 102.893 111.494M86.9523 42.8852C84.2496 34.0718 80.4236 26.6504 75.1922 21.6743C70.3917 17.19 64.6637 15.467 57.1803 16.0956C41.0693 17.4223 31.1042 21.7127 24.9365 30.0306C21.1095 35.2132 18.4342 42.3975 16.9577 51.408M93.9089 127.523C93.9559 127.348 94.0029 127.172 93.8279 127.125M24.2019 132.172C32.8077 172.855 39.5235 200.992 47.2771 217.555M12.4496 143.133C15.4093 139.787 19.2571 135.927 24.1549 132.348C33.7755 125.143 46.5461 118.783 60.5439 117.642C72.4286 116.688 84.2477 119.479 93.9745 123.778C94.4995 123.919 94.9775 124.235 95.5025 124.376M202.62 41.7093C237.579 65.9384 246.713 99.0498 180.84 173.391C109.68 253.464 90.533 267.522 56.5293 243.926C27.2582 223.666 72.4277 159.392 87.4459 137.643C102.417 116.07 150.722 5.79303 202.62 41.7093Z" stroke="url(#paint0_linear)" stroke-width="3" stroke-miterlimit="10" stroke-linecap="round" stroke-linejoin="round"/>
<defs>
<linearGradient id="paint0_linear" x1="130.048" y1="19.6201" x2="301.769" y2="252.71" gradientUnits="userSpaceOnUse">
<stop stop-color="#F4A261"/>
<stop offset="1" stop-color="#E9C46A"/>
</linearGradient>
</defs>
</svg>
