<svg width="50" height="50" viewBox="60 45 50 50" fill="none" xmlns="http://www.w3.org/2000/svg">
                                <g filter="url(#filter0_d)">
                                <circle cx="85" cy="70" r="25" fill="white"/> 
</g>
<path d="M78.2049 89.8424C76.3099 89.3007 74.5871 88.428 72.986 87.2944C70.7262 85.6993 68.8008 83.7732 67.3111 81.4458C66.1356 79.62 65.2742 77.6538 64.7067 75.5571C64.1595 73.5206 63.9568 71.4641 64.0075 69.3675C64.0683 67.1504 64.4737 65.0036 65.254 62.927C66.6017 59.3456 68.6994 56.306 71.6787 53.8582C73.442 52.4136 75.408 51.2901 77.5259 50.4675C77.9009 50.317 78.2859 50.1565 78.6913 50.0862C78.7724 50.0461 78.8737 50.016 78.9345 50.0662C79.1676 50.2468 79.1574 50.2468 79.4209 50.1665C80.3735 49.8756 81.3261 49.6348 82.3293 49.6549C82.6232 49.6649 82.8867 49.5546 83.1704 49.5144C83.667 49.5044 84.1635 49.4944 84.6702 49.4743C85.0147 49.4342 85.3694 49.4241 85.714 49.4743C91.6523 49.6549 96.5976 51.9823 100.631 56.2558C100.732 56.3561 100.894 56.4163 100.904 56.5969C100.945 56.6471 100.945 56.6872 100.904 56.7374C100.56 56.8276 100.418 56.5468 100.246 56.3662C98.7865 54.8313 97.1144 53.5673 95.2599 52.534C93.9426 51.8017 92.5441 51.27 91.095 50.8687C89.1696 50.337 87.2036 50.0562 85.1971 50.1264C83.6467 50.1765 82.1165 50.4073 80.5964 50.7383C78.519 51.1797 76.6139 52.0124 74.8101 53.0757C72.074 54.6909 69.8243 56.8377 68.1015 59.4961C66.926 61.3119 66.0951 63.2781 65.5681 65.3647C65.2945 66.4482 65.1729 67.5617 65.0513 68.6753C64.879 70.2302 65.0209 71.7751 65.183 73.32C65.3249 74.6342 65.7606 75.8881 66.1964 77.1421C67.0578 79.5999 68.4562 81.7367 70.1384 83.6929C71.4558 85.2278 73.0569 86.4717 74.8101 87.505C75.8842 88.1471 77.0294 88.6386 78.1745 89.1202C78.3366 89.2405 78.59 89.3007 78.5089 89.5816C78.4683 89.7321 78.4582 89.9428 78.2049 89.8424Z" fill="#EFF5F2"/>
<path d="M105.758 71.1832C105.748 73.0592 105.515 74.885 104.928 76.6807C103.955 79.6401 102.445 82.2684 100.307 84.5456C99.7391 85.1475 99.131 85.6993 98.4926 86.221C98.3102 86.1808 98.3102 86.1808 98.4217 86.0103C97.1854 86.8429 96.0504 87.7859 94.6621 88.3076C94.1959 88.5784 93.6892 88.759 93.2028 88.9897C93.1015 89.0299 93.0001 89.0399 92.8988 89.0299C92.8177 89.0198 92.7468 88.9998 92.686 88.9396C92.6758 88.6487 92.9089 88.5985 93.1015 88.5182C94.6823 87.826 96.1314 86.9232 97.4894 85.8799C97.6616 85.7695 97.7731 85.5689 97.9961 85.5288C98.5534 85.2479 98.9892 84.8265 99.4452 84.4253C99.7087 84.1945 99.3945 83.9136 99.5668 83.6929C100.246 82.8803 100.945 82.0979 101.553 81.2351C102.83 79.4495 103.793 77.5133 104.421 75.4167C104.705 74.4837 104.857 73.5407 105.039 72.5877C105.12 72.1864 105.343 71.8152 105.363 71.3939C105.475 71.2635 105.566 71.1331 105.758 71.1832Z" fill="#EFF5F2"/>
<path d="M93.6183 89.2104C92.0577 89.9127 90.416 90.3942 88.7338 90.6751C86.6361 91.0262 84.5182 91.1366 82.4104 90.7854C82.0658 90.7253 81.701 90.7553 81.3666 90.6249C81.2653 90.5547 81.1437 90.5948 81.0322 90.5748C80.7383 90.5246 80.5762 90.3942 80.7586 90.0832C80.9612 89.9528 81.1741 89.9929 81.397 90.0431C82.7651 90.344 84.1432 90.5046 85.5417 90.4945C86.8895 90.4845 88.217 90.3039 89.5344 90.0431C89.9701 89.9628 90.4464 90.003 90.8315 89.702C90.9328 89.6418 91.0443 89.6117 91.1558 89.6017C91.4801 89.6518 91.7537 89.4512 92.0577 89.401C92.4934 89.3007 92.8785 89.07 93.3041 88.9496C93.4663 88.8593 93.6284 88.8092 93.8108 88.8493C94.1148 89.1502 93.6588 89.08 93.6183 89.2104Z" fill="#EFF5F2"/>
<path d="M83.1907 49.5144C82.8157 49.7753 82.38 49.6749 81.9746 49.7452C81.0423 49.8956 80.11 50.0862 79.2081 50.3772C79.0865 50.4173 78.9446 50.3972 78.7825 50.4173C78.8332 50.2769 79.1878 50.0662 78.7217 50.0963C79.2993 49.7652 79.9479 49.6649 80.5762 49.5144C82.5522 49.053 84.5587 48.9326 86.5855 49.0329C87.5583 49.073 88.5311 49.1934 89.4837 49.4944C86.9097 49.1031 84.3459 49.073 81.8226 49.5847C82.2584 49.7351 82.7144 49.4141 83.1907 49.5144Z" fill="#EFF5F2"/>
<path d="M105.809 66.7391C105.85 67.2808 106.042 67.8025 105.992 68.3643C105.971 68.5448 106.002 68.7254 105.779 68.906C105.85 68.0533 105.657 67.3009 105.495 66.5284C105.272 66.2175 105.252 65.8362 105.171 65.4952C104.613 63.1276 103.671 60.9407 102.303 58.9243C102.161 58.7237 101.989 58.523 101.999 58.2522C102.029 58.1719 102.08 58.1117 102.161 58.1017C102.769 58.7638 103.205 59.5463 103.62 60.3288C104.39 61.7533 105.009 63.238 105.394 64.803C105.556 65.445 105.677 66.0971 105.809 66.7391Z" fill="#EFF5F2"/>
<path d="M93.6183 89.2104C93.5777 89.0399 93.9426 89.1202 93.8108 88.8995C93.9831 88.4881 94.4188 88.4982 94.733 88.3276C94.8343 88.2775 94.9661 88.3076 95.0471 88.2374C94.9154 88.2875 94.7837 88.3377 94.6418 88.2374C95.5032 87.8762 96.2632 87.3445 97.0435 86.8329C97.4894 86.542 97.9251 86.241 98.3609 85.9401C98.5129 85.9902 98.1886 86.2611 98.4926 86.231C97.0333 87.4749 95.3917 88.4581 93.6183 89.2104Z" fill="#EFF5F2"/>
<path d="M78.2049 89.8424C78.6812 89.6418 78.4177 89.4412 78.2049 89.2405C78.2657 89.1703 78.3467 89.1402 78.4278 89.1703C78.823 89.3308 79.2486 89.4111 79.6641 89.5415C79.7655 89.5716 79.8263 89.6418 79.8668 89.7421C79.8668 89.7622 79.8769 89.7823 79.8668 89.7923C79.6337 89.9628 79.6135 89.9829 79.6135 90.2537C79.1473 90.0832 78.6102 90.1735 78.2049 89.8424Z" fill="#EFF5F2"/>
<path d="M102.161 58.1117C102.141 58.1819 102.1 58.2321 102.019 58.2421C101.492 58.0315 101.36 57.4597 100.975 57.1186C100.874 57.0283 100.813 56.9079 100.904 56.7675C100.915 56.7073 100.925 56.6571 100.935 56.5969C101.431 57.0283 101.786 57.57 102.161 58.1117Z" fill="#EFF5F2"/>
<path d="M79.6033 90.2437C79.502 90.0832 79.4007 89.9227 79.2892 89.7321C79.4919 89.7622 79.6743 89.7823 79.8465 89.8023C80.0289 89.6819 80.1607 89.7522 80.2823 89.8926C80.3836 90.1033 80.3026 90.2638 80.1303 90.4042C79.9276 90.4544 79.7655 90.3541 79.6033 90.2437Z" fill="#EFF5F2"/>
<path d="M105.758 71.1832C105.667 71.2534 105.576 71.3136 105.485 71.3839C105.323 71.2233 105.333 71.0528 105.454 70.8823C105.536 70.6917 105.333 70.3104 105.627 70.3104C105.921 70.3104 105.718 70.6917 105.789 70.8823C105.779 70.9725 105.769 71.0729 105.758 71.1832Z" fill="#EFF5F2"/>
<path d="M80.1303 90.4143C80.1607 90.2638 80.1911 90.1033 80.2316 89.9528C80.3431 89.8424 80.4546 89.9227 80.566 89.9528C80.6572 89.9929 80.7383 90.0431 80.7687 90.1434C80.6775 90.655 81.1943 90.4243 81.3565 90.6149C80.9207 90.7253 80.566 90.3641 80.1303 90.4143Z" fill="#EFF5F2"/>
<path d="M85.7342 49.4843C85.3897 49.4843 85.035 49.4843 84.6905 49.4843C85.035 49.3339 85.3796 49.3439 85.7342 49.4843Z" fill="#EFF5F2"/>
<path d="M88.6629 89.9428C90.0411 89.7321 91.3382 89.2004 92.7062 88.9296C92.7772 88.9296 92.8481 88.9396 92.9191 88.9396C92.9292 89.2205 92.6556 89.1803 92.5036 89.2706C92.3516 89.3609 92.1692 89.391 92.007 89.4612C91.7334 89.5315 91.4699 89.6318 91.1963 89.7221C91.0848 89.7321 90.9734 89.7321 90.872 89.7421C90.8011 89.8826 90.6592 89.9026 90.5376 89.9227C89.9195 90.003 89.3317 90.1835 88.7136 90.2538C88.5007 90.2738 88.2879 90.3039 88.1258 90.0932C88.2981 89.9026 88.5007 90.0331 88.6629 89.9428Z" fill="#EFF5F2"/>
<path d="M99.0905 84.4152C99.2628 84.1845 99.4452 83.9638 99.6884 83.7932C99.6681 83.8434 99.6276 83.9136 99.6377 83.9337C99.9924 84.4052 99.4857 84.5356 99.283 84.7463C98.9385 85.0874 98.5838 85.4585 98.0771 85.599C98.0062 85.3783 98.1582 85.2679 98.3102 85.1576C98.5939 84.9369 98.8676 84.6961 99.0905 84.4152Z" fill="#EFF5F2"/>
<path d="M99.0905 84.4152C99.0905 84.7463 98.7865 84.8466 98.6142 85.0472C98.4419 85.2378 98.1582 85.3281 98.0771 85.599C97.8441 85.599 97.8643 85.9401 97.6312 85.92C97.5299 85.91 97.4387 85.8999 97.2462 85.8899C97.8947 85.3482 98.4419 84.8165 99.0905 84.4152Z" fill="#EFF5F2"/>
<path d="M94.6418 88.2273C94.7735 88.2273 94.9053 88.2273 95.0573 88.2273C94.6519 88.5182 94.1655 88.5784 93.8108 88.8995C93.6487 88.9396 93.4865 88.9897 93.3244 89.0299C93.2737 88.9897 93.2028 88.9797 93.2028 88.8995C93.6284 88.5784 94.1756 88.4881 94.6418 88.2273Z" fill="#EFF5F2"/>
<path d="M93.1927 88.8995C93.2332 88.9396 93.2737 88.9897 93.3143 89.0299C92.9089 89.1904 92.4934 89.3509 92.0881 89.5014C92.0374 89.4813 91.9766 89.4713 91.9665 89.4111C92.2198 89.1302 92.6758 89.2606 92.9089 88.9396C93.0103 88.9195 93.1015 88.9095 93.1927 88.8995Z" fill="#EFF5F2"/>
<path d="M88.6629 89.9428C88.521 89.9829 88.3893 90.023 88.1055 90.1033C89.1493 90.2036 89.9904 89.8224 90.872 89.7221C90.791 90.1334 90.3958 90.0531 90.1525 90.0932C88.3386 90.4343 86.5145 90.6952 84.6499 90.5948C83.5251 90.5346 82.4104 90.4644 81.3159 90.1835C81.1437 90.1434 80.9511 90.1534 80.7687 90.1434C80.6775 90.1334 80.5863 90.1233 80.5458 90.023C81.2349 89.4813 81.9544 89.9327 82.6536 89.9829C83.0285 90.003 83.4136 90.0832 83.7886 90.1033C85.0046 90.1534 86.2207 90.2036 87.4367 90.1033C87.8522 90.0832 88.2271 89.8124 88.6629 89.9428Z" fill="#EFF5F2"/>
<path d="M91.9665 89.4111C92.007 89.4412 92.0476 89.4713 92.0881 89.5014C91.7841 89.5515 91.5307 89.8224 91.1963 89.712C91.3686 89.401 91.7131 89.5214 91.9665 89.4111Z" fill="#EFF5F2"/>
<path d="M86.2004 90.4143C86.3321 90.4343 86.4639 90.4444 86.5956 90.4644C86.5956 90.4845 86.5956 90.4945 86.5956 90.5146C85.795 90.5146 84.9945 90.5146 84.1939 90.5146C84.1736 90.5146 84.1534 90.5146 84.1432 90.5146C84.0723 90.4343 84.1838 90.4644 84.1939 90.4343C84.8627 90.344 85.5316 90.3641 86.2004 90.4143Z" fill="#EFF5F2"/>
<path d="M86.2004 90.4143C85.5316 90.4143 84.8627 90.4243 84.1939 90.4243C84.8627 90.2337 85.5316 90.2838 86.2004 90.4143Z" fill="#EFF5F2"/>
<path d="M91.4283 69.0066C91.4283 70.8221 91.4283 72.6377 91.4283 74.4532C91.4283 74.7377 91.2436 74.9473 90.9705 74.9847C90.5409 75.0446 90.2638 74.9211 90.1674 74.6291C90.1594 74.6067 90.1474 74.5805 90.1474 74.558C90.1594 74.1986 89.9305 74.0452 89.5933 73.9516C88.1999 73.566 86.8066 73.1655 85.4132 72.7762C84.8029 72.604 84.2649 72.735 83.8111 73.1543C83.6224 73.3264 83.4216 73.4762 83.1807 73.5735C82.7952 73.727 82.4379 73.5136 82.4379 73.1206C82.4379 70.8933 82.4379 68.666 82.4379 66.4387C82.4379 66.1392 82.5784 65.9745 82.8996 65.8847C84.0721 65.559 85.2406 65.2371 86.4131 64.9152C87.5053 64.6119 88.6015 64.3125 89.6977 64.0093C89.9988 63.9269 90.1273 63.7772 90.1514 63.4889C90.1755 63.197 90.3843 63.0098 90.6975 63.0023C90.9223 62.9948 91.1432 62.9948 91.3038 63.1782C91.4082 63.2943 91.4363 63.429 91.4363 63.5788C91.4283 65.3906 91.4283 67.1986 91.4283 69.0066Z" fill="url(#paint0_linear)"/>
<path d="M81.1489 71.8927C81.1489 73.7008 81.1489 75.5126 81.1489 77.3206C81.1489 77.8297 80.6189 78.1479 80.1411 77.9308C79.9282 77.8334 79.8118 77.6687 79.7556 77.4554C79.4183 76.1227 79.077 74.7901 78.7397 73.4575C78.6273 73.0157 78.5189 72.574 78.4064 72.1323C78.2779 71.6307 77.8925 71.4099 77.3945 71.2826C76.467 71.0505 76.0012 70.4778 76.0092 69.5794C76.0133 69.1564 75.957 68.7296 76.0815 68.3141C76.3144 67.558 76.8284 67.0489 77.6355 66.8392C78.6393 66.5772 79.6552 66.3601 80.6631 66.1243C80.9682 66.0531 81.1449 66.1991 81.1449 66.5061C81.1489 68.2991 81.1489 70.0959 81.1489 71.8927Z" fill="url(#paint1_linear)"/>
<path d="M92.7172 68.9056C92.7172 68.5425 92.7172 68.1831 92.7172 67.82C92.7172 67.7451 92.7252 67.6703 92.7413 67.5991C92.8296 67.2585 93.0706 67.1836 93.3516 67.412C93.7612 67.7489 93.9299 68.1981 93.9861 68.6847C94.0383 69.1713 93.9459 69.6393 93.6729 70.066C93.5685 70.2307 93.436 70.3655 93.2633 70.4703C93.0786 70.5788 92.918 70.5451 92.8096 70.3655C92.7453 70.2606 92.7212 70.1446 92.7212 70.0248C92.7172 69.6542 92.7172 69.2799 92.7172 68.9056Z" fill="url(#paint2_linear)"/>
<defs>
<filter id="filter0_d" x="0" y="0" width="170" height="170" filterUnits="userSpaceOnUse" color-interpolation-filters="sRGB">
<feFlood flood-opacity="0" result="BackgroundImageFix"/>
<feColorMatrix in="SourceAlpha" type="matrix" values="0 0 0 0 0 0 0 0 0 0 0 0 0 0 0 0 0 0 127 0"/>
<feOffset dy="15"/>
<feGaussianBlur stdDeviation="30"/>
<feColorMatrix type="matrix" values="0 0 0 0 0.188235 0 0 0 0 0.670588 0 0 0 0 0.466667 0 0 0 0.15 0"/>
<feBlend mode="multiply" in2="BackgroundImageFix" result="effect1_dropShadow"/>
<feBlend mode="normal" in="SourceGraphic" in2="effect1_dropShadow" result="shape"/>
</filter>
<linearGradient id="paint0_linear" x1="85" y1="63" x2="99.5" y2="77.5" gradientUnits="userSpaceOnUse">
<stop stop-color="#32AB77"/>
<stop offset="1" stop-color="#1F983A"/>
</linearGradient>
<linearGradient id="paint1_linear" x1="85" y1="63" x2="99.5" y2="77.5" gradientUnits="userSpaceOnUse">
<stop stop-color="#32AB77"/>
<stop offset="1" stop-color="#1F983A"/>
</linearGradient>
<linearGradient id="paint2_linear" x1="85" y1="63" x2="99.5" y2="77.5" gradientUnits="userSpaceOnUse">
<stop stop-color="#32AB77"/>
<stop offset="1" stop-color="#1F983A"/>
</linearGradient>
</defs>
</svg>
