<svg width="234" height="242" viewBox="0 0 234 242" fill="none" xmlns="http://www.w3.org/2000/svg">
<path d="M103.598 122.603C103.598 134.141 80.9606 143.515 52.8898 143.515C24.8189 143.515 2.1811 134.141 2.1811 122.603C2.1811 111.066 24.8189 101.691 52.8898 101.691C80.9606 101.511 103.598 110.885 103.598 122.603ZM103.598 122.603V219.05M2 122.603V219.05C2 226.08 10.5118 232.39 23.5512 236.176C31.7008 238.519 41.8425 239.962 52.7087 239.962C52.8898 239.962 52.8898 239.962 53.0709 239.962M82.5906 235.995V221.754M82.5906 161.542V139.549L74.0787 131.437M82.5906 176.145V207.332M53.0709 239.962V225.72M53.0709 239.962C64.1181 239.962 74.2598 238.519 82.4094 235.995C95.0866 232.21 103.417 225.9 103.417 219.05M53.0709 225.72C52.8898 225.72 52.8898 225.72 52.7087 225.72C41.8425 225.72 31.7008 224.278 23.5512 221.934C10.5118 218.148 2 211.839 2 204.808M53.0709 225.72C64.1181 225.72 74.2598 224.278 82.4094 221.754C95.0866 217.968 103.417 211.659 103.417 204.808M53.0709 165.689V143.515L54.1575 133.6M53.0709 180.111V211.298M23.7323 236.176V221.934M23.7323 161.723V139.729L31.5197 131.437M23.7323 176.325V207.512M2 190.206C2 197.237 10.5118 203.546 23.5512 207.332C31.7008 209.676 41.8425 211.118 52.7087 211.118C52.8898 211.118 52.8898 211.118 53.0709 211.118C64.1181 211.118 74.2598 209.676 82.4094 207.152C95.0866 203.366 103.417 197.056 103.417 190.206M2 144.597C2 151.627 10.5118 157.937 23.5512 161.723C31.7008 164.066 41.8425 165.508 52.7087 165.508C52.8898 165.508 52.8898 165.508 53.0709 165.508C64.1181 165.508 74.2598 164.066 82.4094 161.542C95.0866 157.757 103.417 151.447 103.417 144.597M2 159.019C2 166.049 10.5118 172.359 23.5512 176.145C31.7008 178.488 41.8425 179.93 52.7087 179.93C52.8898 179.93 52.8898 179.93 53.0709 179.93C64.1181 179.93 74.2598 178.488 82.4094 175.964C95.0866 172.179 103.417 165.869 103.417 159.019M103.598 211.298C115.189 211.298 125.15 203.366 127.866 192.189C138.37 147.301 167.165 38.9561 202.118 36.4323C216.787 35.3507 216.425 58.2455 223.85 55.3611C232 52.1161 232 25.4356 232 25.4356C232 14.0784 224.937 2 209.543 2C142.898 2 130.764 157.576 103.598 157.576M6.16535 114.311L17.0315 118.998M27.7165 104.396L33.874 113.229M54.1575 101.511L52.8898 111.426M69.3701 112.688L76.252 104.035M87.1181 118.096L99.4331 114.311M52.8898 133.6C27.7165 133.6 14.1339 125.668 13.0472 122.423C14.1339 119.178 27.5354 111.246 52.8898 111.246C78.063 111.246 91.6457 119.178 92.7323 122.423C91.4646 125.668 78.063 133.6 52.8898 133.6ZM209.543 13.7178C203.386 13.7178 197.772 15.7008 192.52 19.126C191.071 20.2077 190.346 22.0104 191.252 23.8131C191.976 25.4356 193.787 26.337 195.598 25.7962C197.409 25.2553 199.402 24.8948 201.213 24.8948C207.008 24.5342 211.535 25.9764 215.157 28.32C216.244 29.0411 217.512 29.0411 218.417 28.5003C219.504 27.9594 220.047 26.8778 220.047 25.6159C220.047 22.371 218.961 19.3063 217.331 17.143C215.52 14.7994 212.984 13.7178 209.543 13.7178Z" stroke="url(#paint0_linear)" stroke-width="3" stroke-miterlimit="10" stroke-linecap="round" stroke-linejoin="round"/>
<defs>
<linearGradient id="paint0_linear" x1="117" y1="2" x2="341.749" y2="183.025" gradientUnits="userSpaceOnUse">
<stop stop-color="#F4A261"/>
<stop offset="1" stop-color="#E9C46A"/>
</linearGradient>
</defs>
</svg>
