<svg width="1170" height="697" viewBox="0 0 1170 697" fill="none" xmlns="http://www.w3.org/2000/svg">
<path d="M1026.19 687.552C988.119 693.835 950.047 698.861 911.25 695.406C874.991 692.264 838.733 692.264 802.836 691.008C740.834 688.495 679.194 692.892 617.192 691.636C570.781 690.379 524.369 691.322 477.958 690.693C430.822 690.065 383.323 691.95 336.549 687.238C286.875 682.212 236.838 684.411 187.526 677.814C165.77 674.987 143.29 674.986 117.546 669.018C125.161 666.505 128.424 665.248 132.05 664.306C130.599 659.908 126.248 658.337 122.623 659.908C99.7795 669.96 76.5739 661.478 56.6316 656.138C38.1397 651.112 18.9225 638.232 12.7585 619.069C7.31973 602.42 3.33127 585.77 0.79316 569.121C-1.38236 554.042 1.15575 538.649 5.5068 523.885C7.31973 518.23 3.33127 512.576 4.05645 507.235C4.78162 497.811 -1.38236 485.56 16.0218 481.162C18.9225 480.533 18.1974 476.135 15.2967 472.994C7.31973 464.512 2.6061 456.03 9.85785 444.721C14.5715 437.496 1.51833 433.726 2.96868 426.501C3.33127 423.988 2.24351 420.532 6.59456 420.847C7.68232 420.847 8.77008 424.93 10.583 429.328C12.396 421.789 13.1211 416.763 10.2204 411.736C1.15575 395.715 -2.83271 379.694 10.9456 363.987C11.3082 348.28 8.77008 332.573 10.583 316.866C16.0218 307.442 14.2089 297.389 14.5715 287.651C16.3844 247.127 21.8232 206.602 21.8232 166.078C21.8232 153.513 26.1743 140.947 28.7124 128.381C31.2505 126.497 33.426 126.497 35.9641 128.381C34.5138 218.854 28.7124 309.327 29.075 400.113C29.4376 450.376 36.6893 500.638 26.5369 551.215C22.911 570.378 30.5253 591.739 37.0519 611.216C42.1281 626.609 60.6201 631.635 76.5739 636.033C109.207 645.457 143.653 649.227 177.736 652.368C212.544 655.196 247.715 655.824 282.524 659.908C336.187 666.19 390.212 666.819 443.875 666.505C587.46 666.19 730.682 668.704 873.904 669.646C908.712 669.96 943.883 672.159 978.691 672.159C1001.17 672.159 1022.93 669.018 1043.96 662.107C1047.95 667.133 1048.31 667.133 1046.86 668.704C1041.42 676.243 1033.44 681.583 1026.19 687.552Z" fill="#EFF5F2"/>
<path d="M1148.74 74.9771C1148.02 70.8933 1146.93 66.8094 1146.2 62.7256C1143.67 42.6206 1133.15 33.5105 1109.58 34.1388C1026.55 36.3378 944.968 26.5994 862.66 20.0024C812.623 15.9186 761.498 17.8035 710.736 19.6883C592.533 24.4004 473.967 18.7459 355.401 18.1176C350.687 1.78227 363.015 3.98125 374.255 5.23782C410.151 6.18024 446.047 9.32165 481.944 7.4368C543.221 4.29539 604.498 2.72469 665.775 2.41055C716.9 2.41055 767.662 -1.35914 818.787 1.78227C877.526 5.8661 936.628 6.80852 995.367 12.1489C1033.8 15.6045 1071.51 16.5469 1109.94 15.6045C1143.67 14.9762 1164.33 30.6832 1167.96 57.3852C1169.77 61.1549 1170.13 65.5529 1169.41 69.3225C1168.32 74.6629 1173.76 82.5165 1164.33 85.0296C1154.18 88.171 1153.82 78.7468 1148.74 74.9771Z" fill="#EFF5F2"/>
<path d="M1148.74 74.9771C1150.92 75.6054 1154.18 75.9199 1154.91 77.1764C1156.72 80.9461 1158.53 83.7734 1163.97 82.2027C1170.13 80.632 1166.87 76.234 1167.23 73.0926C1167.96 68.0663 1167.6 62.7259 1167.6 57.6997C1170.86 76.234 1170.86 93.8259 1165.78 112.674C1161.79 127.125 1170.13 145.031 1163.97 160.11C1150.92 192.78 1165.06 224.823 1163.61 257.179C1163.25 269.116 1157.44 280.426 1158.17 292.049C1159.98 330.06 1155.63 367.757 1148.74 405.139C1141.13 445.978 1137.86 488.073 1123.36 527.654C1111.4 559.383 1109.58 592.996 1097.98 624.724C1090.73 629.122 1086.01 636.033 1079.12 640.745C1076.22 642.63 1071.15 647.97 1068.97 639.803C1080.94 606.504 1086.74 571.634 1094.35 537.707C1098.34 519.173 1107.77 502.523 1112.12 483.989C1119.73 451.946 1128.07 420.218 1129.89 387.548C1133.51 324.091 1143.3 260.635 1141.49 196.864C1140.04 156.026 1147.65 115.815 1148.74 74.9771Z" fill="#EFF5F2"/>
<path d="M1068.97 639.803C1078.04 643.258 1078.76 635.091 1083.11 632.263C1087.83 629.436 1089.28 621.582 1097.98 624.724C1092.9 651.112 1080.94 673.102 1047.94 680.955C1040.33 682.84 1035.25 691.636 1025.46 687.552C1025.1 680.013 1033.44 677.814 1037.06 672.788C1039.24 669.646 1048.31 668.704 1043.23 662.421C1053.38 655.824 1064.26 650.169 1068.97 639.803Z" fill="#EFF5F2"/>
<path d="M152.714 14.6625C136.76 14.6625 120.807 14.6625 105.215 14.6625C103.402 11.521 102.677 8.69378 105.578 5.55237C120.807 1.78268 136.76 1.78268 151.989 2.7251C184.622 4.60995 217.617 -0.102163 250.25 6.18065C254.964 13.4059 246.624 14.6625 242.999 17.8039C226.32 16.8614 209.278 16.2332 192.236 15.2907C178.821 10.8928 165.767 4.60995 152.714 14.6625Z" fill="#EFF5F2"/>
<path d="M374.255 5.23782C364.465 5.8661 355.763 7.4368 355.401 18.1176C330.02 18.1176 304.638 18.118 278.895 18.118C274.181 12.1493 278.17 7.43723 282.521 3.03926C313.341 3.03926 343.798 0.525704 374.255 5.23782Z" fill="#EFF5F2"/>
<path d="M35.9641 128.381C33.426 128.381 31.2505 128.381 28.7124 128.381C35.239 102.936 24.721 76.8623 34.1483 51.731C35.5986 77.1764 42.8533 102.622 35.9641 128.381Z" fill="#EFF5F2"/>
<path d="M10.583 316.866C13.8463 332.573 23.9988 348.28 10.9456 363.987C8.77008 363.359 4.77867 362.731 4.77867 361.788C4.41609 346.709 -2.83271 330.688 10.583 316.866Z" fill="#EFF5F2"/>
<path d="M282.521 3.03926C281.433 8.06551 279.982 13.0918 278.895 18.118C266.929 18.118 254.964 17.8039 242.999 17.8039C242.636 12.4635 251.338 11.521 250.25 6.18065C261.128 6.80893 271.28 1.15441 282.521 3.03926Z" fill="#EFF5F2"/>
<path d="M105.215 5.55232C107.391 8.69373 107.028 11.521 104.853 14.6624C85.9982 14.6624 66.7811 14.6624 47.9266 14.6624C66.0559 7.43717 85.2731 5.55232 105.215 5.55232Z" fill="#EFF5F2"/>
<path d="M152.714 14.6625C153.439 11.521 146.55 5.55243 155.615 5.55243C168.668 5.86657 183.172 2.7251 192.236 15.2907C178.821 14.9766 165.767 14.9766 152.714 14.6625Z" fill="#EFF5F2"/>
</svg>
