<svg width="290" height="290" viewBox="0 0 290 290" fill="none" xmlns="http://www.w3.org/2000/svg">
<path d="M98.0813 282.007C84.9967 278.267 73.1016 272.241 62.0462 264.413C46.4426 253.4 33.1482 240.101 22.8624 224.03C14.7458 211.424 8.79824 197.847 4.87987 183.37C1.10143 169.309 -0.29799 155.109 0.0518649 140.632C0.471691 125.324 3.27053 110.501 8.6583 96.1626C17.9644 71.4341 32.4484 50.4461 53.0199 33.5448C65.1949 23.5703 78.7693 15.8124 93.3932 10.1324C95.9821 9.09343 98.641 7.98514 101.44 7.50027C102 7.2232 102.699 7.0154 103.119 7.36174C104.729 8.60855 104.659 8.60855 106.478 8.05441C113.055 6.04566 119.632 4.38324 126.559 4.52177C128.589 4.59104 130.408 3.8291 132.367 3.55203C135.796 3.48276 139.224 3.41349 142.723 3.27496C145.102 2.99789 147.551 2.92862 149.93 3.27496C190.933 4.52177 225.079 20.5918 252.927 50.0998C253.627 50.7925 254.746 51.2081 254.816 52.4549C255.096 52.8012 255.096 53.0783 254.816 53.4246C252.437 54.048 251.458 52.1085 250.268 50.8617C240.192 40.2638 228.647 31.5361 215.842 24.4015C206.746 19.345 197.09 15.6738 187.084 12.9031C173.79 9.23196 160.216 7.29247 146.361 7.77734C135.656 8.12368 125.09 9.71683 114.594 12.0027C100.25 15.0504 87.0958 20.7996 74.641 28.142C55.7488 39.2941 40.2152 54.1173 28.3202 72.4732C20.2035 85.0106 14.4659 98.587 10.8274 112.995C8.93818 120.476 8.09853 128.164 7.25888 135.853C6.06937 146.589 7.04897 157.257 8.1685 167.924C9.1481 176.998 12.1568 185.656 15.1656 194.315C21.1131 211.285 30.7691 226.039 42.3843 239.546C51.4806 250.144 62.536 258.733 74.641 265.868C82.0579 270.301 89.9646 273.695 97.8713 277.02C98.9909 277.851 100.74 278.267 100.18 280.206C99.9005 281.245 99.8305 282.7 98.0813 282.007Z" fill="#EFF5F2"/>
<path d="M288.332 153.17C288.262 166.123 286.653 178.73 282.595 191.128C275.878 211.562 265.452 229.71 250.688 245.434C246.77 249.59 242.571 253.4 238.163 257.002C236.904 256.725 236.904 256.725 237.673 255.547C229.137 261.296 221.3 267.808 211.714 271.409C208.496 273.28 204.997 274.526 201.638 276.12C200.939 276.397 200.239 276.466 199.539 276.397C198.979 276.327 198.49 276.189 198.07 275.773C198 273.765 199.609 273.418 200.939 272.864C211.854 268.085 221.86 261.851 231.236 254.647C232.426 253.885 233.195 252.499 234.735 252.222C238.583 250.283 241.592 247.374 244.741 244.603C246.56 243.01 244.391 241.07 245.58 239.546C250.268 233.936 255.096 228.533 259.294 222.576C268.111 210.246 274.758 196.878 279.096 182.401C281.055 175.959 282.105 169.448 283.365 162.867C283.924 160.097 285.464 157.534 285.604 154.624C286.373 153.724 287.003 152.823 288.332 153.17Z" fill="#EFF5F2"/>
<path d="M204.507 277.643C193.732 282.492 182.396 285.817 170.781 287.757C156.297 290.181 141.673 290.943 127.119 288.518C124.74 288.103 122.221 288.311 119.912 287.41C119.213 286.925 118.373 287.202 117.603 287.064C115.574 286.718 114.454 285.817 115.714 283.67C117.113 282.769 118.583 283.046 120.122 283.393C129.568 285.471 139.084 286.579 148.74 286.51C158.046 286.44 167.213 285.194 176.309 283.393C179.318 282.839 182.606 283.116 185.265 281.038C185.965 280.622 186.735 280.414 187.504 280.345C189.743 280.691 191.633 279.306 193.732 278.96C196.74 278.267 199.399 276.674 202.338 275.843C203.458 275.219 204.577 274.873 205.837 275.15C207.936 277.228 204.787 276.743 204.507 277.643Z" fill="#EFF5F2"/>
<path d="M132.507 3.55203C129.918 5.35298 126.909 4.66031 124.11 5.14518C117.673 6.1842 111.236 7.50028 105.008 9.50904C104.169 9.78611 103.189 9.64757 102.07 9.78611C102.419 8.81636 104.868 7.36174 101.65 7.56955C105.638 5.28372 110.116 4.59104 114.454 3.55203C128.099 0.365725 141.953 -0.465485 155.947 0.22719C162.665 0.50426 169.382 1.33547 175.959 3.4135C158.186 0.712063 140.484 0.50426 123.061 4.0369C126.07 5.07591 129.218 2.85935 132.507 3.55203Z" fill="#EFF5F2"/>
<path d="M288.682 122.484C288.962 126.225 290.292 129.827 289.942 133.706C289.802 134.952 290.012 136.199 288.472 137.446C288.962 131.558 287.633 126.363 286.513 121.03C284.974 118.882 284.834 116.25 284.274 113.895C280.426 97.548 273.918 82.4477 264.472 68.5249C263.493 67.1396 262.303 65.7542 262.373 63.884C262.583 63.3299 262.933 62.9143 263.493 62.845C267.691 67.4167 270.7 72.8195 273.569 78.2224C278.886 88.0584 283.155 98.31 285.814 109.116C286.933 113.549 287.773 118.051 288.682 122.484Z" fill="#EFF5F2"/>
<path d="M204.507 277.643C204.227 276.466 206.746 277.02 205.837 275.496C207.026 272.656 210.035 272.726 212.204 271.548C212.904 271.202 213.813 271.409 214.373 270.925C213.463 271.271 212.554 271.617 211.574 270.925C217.522 268.431 222.77 264.76 228.157 261.227C231.236 259.218 234.245 257.14 237.254 255.062C238.303 255.409 236.064 257.279 238.163 257.071C228.087 265.66 216.752 272.448 204.507 277.643Z" fill="#EFF5F2"/>
<path d="M98.0813 282.007C101.37 280.622 99.5507 279.237 98.0813 277.851C98.5011 277.366 99.0609 277.159 99.6206 277.366C102.349 278.475 105.288 279.029 108.157 279.929C108.857 280.137 109.277 280.622 109.557 281.315C109.557 281.453 109.626 281.592 109.557 281.661C107.947 282.839 107.807 282.977 107.807 284.847C104.589 283.67 100.88 284.293 98.0813 282.007Z" fill="#EFF5F2"/>
<path d="M263.493 62.9143C263.353 63.3992 263.073 63.7455 262.513 63.8148C258.875 62.3601 257.965 58.4119 255.306 56.0568C254.606 55.4334 254.187 54.6022 254.816 53.6324C254.886 53.2168 254.956 52.8705 255.026 52.4549C258.455 55.4334 260.904 59.1738 263.493 62.9143Z" fill="#EFF5F2"/>
<path d="M107.737 284.778C107.038 283.67 106.338 282.562 105.568 281.245C106.968 281.453 108.227 281.592 109.417 281.73C110.676 280.899 111.586 281.384 112.425 282.354C113.125 283.808 112.565 284.917 111.376 285.886C109.976 286.233 108.857 285.54 107.737 284.778Z" fill="#EFF5F2"/>
<path d="M288.332 153.17C287.703 153.655 287.073 154.07 286.443 154.555C285.324 153.447 285.394 152.269 286.233 151.092C286.793 149.776 285.394 147.144 287.423 147.144C289.452 147.144 288.053 149.776 288.542 151.092C288.472 151.715 288.402 152.408 288.332 153.17Z" fill="#EFF5F2"/>
<path d="M111.376 285.956C111.586 284.917 111.796 283.808 112.075 282.769C112.845 282.007 113.615 282.561 114.385 282.769C115.014 283.046 115.574 283.393 115.784 284.085C115.154 287.618 118.723 286.025 119.842 287.341C116.833 288.103 114.385 285.609 111.376 285.956Z" fill="#EFF5F2"/>
<path d="M150.07 3.34422C147.691 3.34422 145.242 3.34422 142.863 3.34422C145.242 2.30521 147.621 2.37448 150.07 3.34422Z" fill="#EFF5F2"/>
<path d="M170.291 282.7C179.807 281.245 188.764 277.574 198.21 275.704C198.7 275.704 199.189 275.773 199.679 275.773C199.749 277.713 197.86 277.436 196.81 278.059C195.761 278.683 194.501 278.89 193.382 279.375C191.493 279.86 189.673 280.553 187.784 281.176C187.014 281.245 186.245 281.245 185.545 281.315C185.055 282.284 184.076 282.423 183.236 282.562C178.968 283.116 174.909 284.362 170.641 284.847C169.172 284.986 167.702 285.194 166.583 283.739C167.772 282.423 169.172 283.323 170.291 282.7Z" fill="#EFF5F2"/>
<path d="M242.292 244.534C243.481 242.94 244.741 241.417 246.42 240.239C246.28 240.585 246 241.07 246.07 241.209C248.519 244.464 245.02 245.365 243.621 246.819C241.242 249.175 238.793 251.737 235.294 252.707C234.805 251.183 235.854 250.421 236.904 249.659C238.863 248.136 240.752 246.473 242.292 244.534Z" fill="#EFF5F2"/>
<path d="M242.292 244.534C242.292 246.819 240.192 247.512 239.003 248.897C237.813 250.214 235.854 250.837 235.294 252.707C233.685 252.707 233.825 255.062 232.216 254.924C231.516 254.854 230.886 254.785 229.557 254.716C234.035 250.976 237.813 247.304 242.292 244.534Z" fill="#EFF5F2"/>
<path d="M211.574 270.855C212.484 270.855 213.393 270.855 214.443 270.855C211.644 272.864 208.286 273.28 205.837 275.496C204.717 275.773 203.598 276.12 202.478 276.397C202.128 276.12 201.638 276.05 201.638 275.496C204.577 273.28 208.356 272.656 211.574 270.855Z" fill="#EFF5F2"/>
<path d="M201.568 275.496C201.848 275.773 202.128 276.12 202.408 276.397C199.609 277.505 196.74 278.613 193.942 279.652C193.592 279.514 193.172 279.444 193.102 279.029C194.851 277.089 198 277.99 199.609 275.773C200.309 275.635 200.939 275.565 201.568 275.496Z" fill="#EFF5F2"/>
<path d="M170.291 282.7C169.312 282.977 168.402 283.254 166.443 283.808C173.65 284.501 179.458 281.869 185.545 281.176C184.985 284.016 182.256 283.462 180.577 283.739C168.052 286.094 155.457 287.895 142.583 287.202C134.816 286.787 127.119 286.302 119.562 284.362C118.373 284.085 117.043 284.155 115.784 284.085C115.154 284.016 114.524 283.947 114.245 283.254C119.003 279.514 123.971 282.631 128.799 282.977C131.387 283.116 134.046 283.67 136.635 283.808C145.032 284.155 153.428 284.501 161.825 283.808C164.694 283.67 167.283 281.8 170.291 282.7Z" fill="#EFF5F2"/>
<path d="M193.102 279.029C193.382 279.237 193.662 279.444 193.942 279.652C191.842 279.999 190.093 281.869 187.784 281.107C188.974 278.96 191.353 279.791 193.102 279.029Z" fill="#EFF5F2"/>
<path d="M153.288 285.956C154.198 286.094 155.108 286.163 156.017 286.302C156.017 286.44 156.017 286.51 156.017 286.648C150.49 286.648 144.962 286.648 139.434 286.648C139.294 286.648 139.154 286.648 139.084 286.648C138.594 286.094 139.364 286.302 139.434 286.094C144.052 285.471 148.67 285.609 153.288 285.956Z" fill="#EFF5F2"/>
<path d="M153.288 285.956C148.67 285.956 144.052 286.025 139.434 286.025C144.052 284.709 148.67 285.055 153.288 285.956Z" fill="#EFF5F2"/>
</svg>
