<svg width="60" height="60" viewBox="60 45 60 60" fill="none" xmlns="http://www.w3.org/2000/svg">
<g filter="url(#filter0_d)">
<circle cx="90.0001" cy="75" r="30" fill="url(#paint0_linear)"/>
</g>
<mask id="mask0" mask-type="alpha" maskUnits="userSpaceOnUse" x="60" y="45" width="60" height="60">
<circle cx="90.0001" cy="75" r="30" fill="url(#paint1_linear)"/>
</mask>
<g mask="url(#mask0)">
<g opacity="0.25">
<path d="M180.625 196.429C180.988 195.951 181.09 195.652 180.791 195.55C180.571 195.508 180.552 195.368 180.814 195.19C181.014 195.091 181.196 194.853 181.097 194.652C181.078 194.512 181.302 194.053 181.544 193.735C181.866 193.477 182.029 193.099 181.949 193.038C181.79 192.917 182.24 191.5 182.562 191.242C182.622 191.163 182.782 191.284 182.941 191.405C183.1 191.526 183.138 191.807 182.937 191.905C182.816 192.064 182.755 192.144 182.896 192.125C183.036 192.106 183.259 191.647 183.384 190.988C183.508 190.329 183.913 189.632 184.296 189.295C184.799 188.798 184.86 188.719 184.523 188.336C184.205 188.094 184.167 187.814 184.348 187.575C184.53 187.336 184.75 187.378 184.848 187.579C184.947 187.779 185.167 187.821 185.288 187.662C185.409 187.503 185.39 187.363 185.091 187.26C184.871 187.219 184.693 186.958 184.734 186.738C184.776 186.518 184.916 186.499 184.954 186.779C184.992 187.06 185.132 187.041 185.416 186.503C185.579 186.124 185.741 185.745 185.722 185.605C185.703 185.465 185.866 185.086 186.249 184.749C186.631 184.411 186.794 184.033 186.714 183.972C186.635 183.911 186.74 183.112 186.986 182.294C187.232 181.476 187.319 180.536 187.22 180.336C187.122 180.135 187.106 179.495 187.189 179.055C187.273 178.616 187.356 178.176 187.136 178.135C186.996 178.154 186.958 177.874 187.14 177.635C187.442 177.237 187.363 177.176 186.981 177.514C186.477 178.01 186.238 177.828 186.166 176.768C186.071 176.067 185.991 176.007 185.571 176.064C185.23 176.181 185.15 176.121 185.412 175.942C185.533 175.783 185.654 175.624 185.514 175.643C185.374 175.662 185.256 175.321 185.279 174.961C185.301 174.602 185.35 173.382 185.418 172.302C185.508 170.863 185.353 170.242 184.974 170.079C184.735 169.897 184.557 169.636 184.618 169.557C184.939 169.299 183.969 167.932 183.568 168.129C183.367 168.228 183.348 168.087 183.371 167.728C183.473 167.428 183.374 167.228 183.154 167.186C182.935 167.144 182.836 166.944 182.957 166.785C182.999 166.565 182.9 166.364 182.881 166.224C182.722 166.103 182.662 166.182 182.601 166.262C182.62 166.402 182.359 166.58 181.999 166.558C181.579 166.615 181.518 166.694 181.878 166.717C182.098 166.758 182.295 167.16 182.212 167.599C182.125 168.539 181.644 168.675 181.67 167.815C181.693 167.456 181.575 167.115 181.495 167.054C181.018 166.691 180.9 166.35 181.264 165.872C181.567 165.475 181.707 165.456 182.025 165.698C182.84 166.444 180.327 162.646 178.917 161.195C178.58 160.813 178.364 160.271 178.326 159.991C178.349 159.631 178.011 159.249 177.773 159.067C177.155 158.723 176.484 157.458 176.036 155.735C175.862 154.973 175.604 154.652 175.324 154.69C175.123 154.788 174.725 154.485 174.468 154.163C173.418 152.736 171.989 151.146 171.728 151.324C171.667 151.403 171.11 150.979 170.595 150.335C170 149.631 169.583 149.188 169.462 149.347C169.28 149.586 168.962 149.344 168.068 148.537C167.75 148.295 167.53 148.253 167.428 148.553C167.326 148.852 167.185 148.871 167.087 148.67C167.348 148.492 167.39 148.272 167.511 148.113C167.772 147.935 166.897 147.269 166.139 146.943C165.681 146.72 165.382 146.618 164.885 146.114C164.647 145.933 164.506 145.952 164.385 146.111C164.344 146.331 164.124 146.289 164.025 146.088C163.866 145.967 163.908 145.747 164.048 145.728C164.188 145.709 164.15 145.429 163.911 145.247C163.673 145.066 163.373 144.964 163.313 145.043C163.192 145.202 162.953 145.021 162.756 144.619C162.559 144.218 162.32 144.036 162.138 144.275C162.017 144.434 161.797 144.392 161.778 144.252C161.759 144.112 161.54 144.07 161.339 144.169C161.138 144.267 161.059 144.207 161.381 143.949C161.884 143.453 161.229 142.828 160.646 143.264C160.184 143.541 159.964 143.499 159.827 143.018C159.433 142.215 158.876 141.791 158.255 141.947C157.713 142.163 157.713 142.163 157.778 141.583C157.842 141.004 157.842 141.004 157.202 141.019C156.702 141.016 156.323 140.853 156.126 140.451C155.671 139.728 155.053 139.384 154.91 139.903C154.849 139.982 154.508 140.1 154.288 140.058C153.629 139.933 153.531 139.733 153.913 139.396C154.034 139.236 154.057 138.877 153.939 138.536C153.644 137.934 152.965 137.669 152.704 137.847C152.644 137.926 152.087 137.502 151.59 136.999C151.014 136.435 150.457 136.011 150.317 136.03C150.177 136.049 149.48 135.644 148.824 135.019C148.169 134.394 147.453 133.849 147.233 133.807C146.494 133.622 145.24 132.793 143.789 131.563C141.86 129.969 141.781 129.908 140.641 129.92C140.08 129.996 139.701 129.833 139.842 129.814C140.023 129.576 138.375 127.944 138.015 127.921C137.875 127.94 137.697 127.679 137.579 127.338C137.462 126.997 137.064 126.694 136.844 126.653C136.545 126.551 135.848 126.146 135.272 125.581C134.696 125.017 134.139 124.593 133.919 124.552C133.699 124.51 133.142 124.086 132.646 123.583C131.017 122.091 129.702 121.341 129.38 121.599C129.259 121.758 129.179 121.698 129.282 121.398C129.365 120.959 129.206 120.838 128.031 120.069C127.254 119.604 125.663 118.392 124.432 117.203C123.261 115.935 122.067 115.026 121.927 115.045C121.707 115.004 121.309 114.701 120.972 114.319C120.635 113.936 120.237 113.633 119.957 113.671C119.616 113.789 119.536 113.728 119.798 113.55C119.919 113.391 119.881 113.111 119.703 112.849C119.365 112.467 119.305 112.547 119.161 113.066C119.097 113.645 119.097 113.645 118.82 113.183C118.487 112.301 116.543 110.067 116.539 110.567C116.657 110.907 116.516 110.926 116.138 110.764C115.539 110.559 115.459 110.499 115.902 110.082C116.084 109.843 115.948 109.362 115.353 108.658C114.917 108.075 114.602 107.333 114.564 107.052C114.689 106.393 113.954 105.708 112.719 105.019C111.503 104.47 109.851 103.338 107.721 101.843C106.846 101.177 105.929 100.73 105.789 100.749C105.588 100.848 105.429 100.727 105.452 100.367C105.474 100.007 105.376 99.8063 105.296 99.7457C105.217 99.6851 105.217 99.6851 105.137 99.6245C104.842 99.0224 104.425 98.5794 104.144 98.6174C104.023 98.7765 103.785 98.5948 103.606 98.3335C103.428 98.0722 103.11 97.83 102.811 97.7278C102.511 97.6257 102.193 97.3834 101.996 96.9819C101.86 96.5009 101.64 96.4594 101.458 96.6981C101.276 96.9368 100.977 96.8346 100.659 96.5923C100.42 96.4106 100.022 96.1078 99.7836 95.926C99.6245 95.8049 99.5069 95.464 99.5675 95.3845C99.6091 95.1648 99.3704 94.9831 99.0521 94.7408C98.5937 94.5175 98.4951 94.3168 98.7754 94.2788C98.9761 94.1802 98.9571 94.0401 98.5783 93.8773C98.1199 93.654 98.1199 93.654 98.2374 93.9949C98.336 94.1956 98.374 94.4759 98.3134 94.5555C98.2528 94.635 98.3704 94.9759 98.6091 95.1576C98.9274 95.3999 99.0449 95.7407 98.8632 95.9794C98.7421 96.1386 98.6209 96.2977 98.6625 96.078C98.6435 95.9379 98.4844 95.8167 98.3442 95.8357C98.0034 95.9533 97.0711 94.8666 96.6579 93.9236C96.5403 93.5827 96.4192 93.7418 96.4156 94.2418C96.3289 95.1812 96.1282 95.2798 95.431 94.8748C95.0522 94.7121 94.6924 94.6895 94.7114 94.8296C94.6698 95.0493 94.5296 95.0683 94.3705 94.9472C94.2114 94.826 94.0107 94.9246 93.7494 95.1027C93.4465 95.5006 93.1662 95.5386 92.9085 95.2167C92.5713 94.8343 92.5523 94.6941 92.9727 94.6371C93.253 94.5991 93.5143 94.421 93.4953 94.2809C93.4763 94.1407 93.177 94.0386 92.8967 94.0766C92.5559 94.1941 92.196 94.1716 92.0369 94.0504C91.9573 93.9898 91.5179 93.9067 91.0975 93.9637C90.3968 94.0586 90.3362 94.1382 90.3326 94.6382C90.329 95.1382 90.4086 95.1988 90.81 95.0016C91.1509 94.8841 91.2304 94.9446 91.0677 95.3235C90.9656 95.6228 91.1211 96.2439 91.7161 96.9482C92.2315 97.5919 92.6257 98.3947 92.5841 98.6145C92.7017 98.9553 92.6981 99.4553 92.7551 99.8757C92.8121 100.296 92.7099 100.595 92.5888 100.755C92.3881 100.853 92.4866 101.054 92.9261 101.137C93.6647 101.322 94.1386 102.186 93.9117 103.144C93.7869 103.803 93.7869 103.803 94.2679 103.667C94.5482 103.629 94.9081 103.651 94.9876 103.712C95.1468 103.833 95.0862 103.913 94.9461 103.932C94.8059 103.951 94.7038 104.25 94.7418 104.53C94.7987 104.951 94.598 105.049 93.4199 104.781C92.3214 104.573 92.1623 104.452 92.5637 104.254C92.9651 104.057 92.9461 103.917 92.3891 103.493C91.9913 103.19 91.8132 102.929 91.9949 102.69C92.2372 102.372 92.1232 101.531 91.8049 101.289C91.7254 101.228 91.7064 101.088 91.8275 100.929C91.9487 100.77 92.0092 100.69 91.8691 100.709C91.729 100.728 91.4713 100.407 91.3537 100.066C91.039 99.3234 89.7659 98.3542 89.6222 98.8732C89.5806 99.0929 89.5996 99.2331 89.8193 99.2746C90.3383 99.4184 90.5924 100.24 90.3655 101.199C90.1197 102.017 90.1197 102.017 89.9641 101.396C89.9071 100.975 89.6114 100.373 89.3727 100.191C89.115 99.8696 88.5201 99.1653 88.0843 98.5822C87.4703 97.7377 87.152 97.4955 86.9703 97.7342C86.8492 97.8933 86.6295 97.8517 86.5119 97.5109C86.4133 97.3101 86.0155 97.0073 85.7958 96.9657C85.3564 96.8826 85.2958 96.9621 85.5725 97.4241C85.7506 97.6854 85.747 98.1854 85.5048 98.5037C85.2019 98.9015 85.38 99.1628 86.1341 99.9882C86.6305 100.492 87.0853 101.215 87.1233 101.495C87.1993 102.056 87.0402 101.935 86.0474 100.928C85.3918 100.303 84.956 99.7198 85.0772 99.5606C85.1377 99.4811 85.1187 99.3409 85.0392 99.2803C84.9596 99.2198 84.6449 98.4775 84.4098 97.7958C84.2578 96.6747 83.9622 96.0725 83.822 96.0915C83.6819 96.1105 83.6213 96.1901 83.7804 96.3112C83.86 96.3718 83.6593 96.4704 83.3184 96.5879C82.6177 96.6829 82.2995 96.4406 82.6819 96.1033C82.8826 96.0048 82.9052 95.6449 82.7461 95.5238C82.4884 95.2019 82.3482 95.2209 81.7235 95.8765C81.2805 96.2933 80.8185 96.57 80.7389 96.5094C80.6594 96.4488 80.3791 96.4868 80.2579 96.646C80.0762 96.8847 80.0347 97.1044 80.3339 97.2065C80.5726 97.3882 80.9135 97.2707 81.1558 96.9524C81.3981 96.6341 81.5988 96.5356 81.6973 96.7363C81.7543 97.1567 83.3303 97.728 83.4324 97.4288C83.474 97.2091 83.6141 97.1901 83.8338 97.2316C84.0535 97.2732 83.8113 97.5915 83.3683 98.0083C82.9253 98.4252 82.5238 98.6223 82.4253 98.4216C82.3267 98.2209 82.1676 98.0997 81.9669 98.1983C81.7661 98.2968 81.5274 98.1151 81.4289 97.9144C81.2318 97.513 81.2318 97.513 81.3077 98.0735C81.3457 98.3538 81.702 98.8764 82.1604 99.0997C82.9371 99.5653 83.1306 100.467 82.5665 101.043C82.3242 101.361 82.2446 101.3 82.3468 101.001C82.5511 100.403 81.7174 99.5165 81.316 99.7136C81.1153 99.8122 81.1532 100.092 81.3919 100.274C81.7292 100.657 81.76 101.937 81.4228 101.554C81.3432 101.494 81.2826 101.573 81.3206 101.854C81.3776 102.274 81.2375 102.293 80.5593 102.028C79.6615 101.722 79.2067 100.999 79.8278 100.843C80.0285 100.744 80.1877 100.866 80.2067 101.006C80.2257 101.146 80.3848 101.267 80.5059 101.108C80.6271 100.949 80.5891 100.668 80.3504 100.487C80.1117 100.305 80.1343 99.9452 80.297 99.5663C80.5393 99.2481 80.5013 98.9678 80.4823 98.8276C80.3232 98.7065 80.202 98.8656 80.0203 99.1043C79.9182 99.4036 79.6379 99.4416 79.5393 99.2409C79.3802 99.1197 79.0809 99.0176 78.8802 99.1161C78.6795 99.2147 78.7211 98.995 78.9443 98.5366C79.2698 97.7789 79.3114 97.5592 79.0727 97.3775C78.853 97.3359 78.834 97.1958 79.0347 97.0972C79.2354 96.9986 79.296 96.9191 79.2164 96.8585C79.1368 96.7979 78.9587 96.5366 78.7806 96.2754C78.682 96.0746 78.3827 95.9725 78.3222 96.0521C78.201 96.2112 78.22 96.3513 78.4587 96.5331C78.6974 96.7148 78.6558 96.9345 78.5347 97.0936C78.4135 97.2528 78.2544 97.1316 78.2354 96.9915C78.2164 96.8513 78.0573 96.7302 77.9361 96.8893C77.815 97.0485 77.7734 97.2682 77.7924 97.4083C77.7508 97.628 77.7093 97.8477 77.5691 97.8667C77.3684 97.9653 77.3078 98.0448 77.467 98.166C77.5465 98.2266 77.7662 98.2681 77.967 98.1696C78.2282 97.9914 78.3268 98.1922 78.2437 98.6316C78.2211 98.9914 78.297 99.552 78.4752 99.8133C78.8884 100.756 78.1497 100.571 77.2971 99.5448C76.6035 98.6398 76.524 98.5792 76.4598 99.1588C76.4372 99.5186 76.5548 99.8595 76.7745 99.9011C76.9942 99.9426 77.0132 100.083 76.8731 100.102C76.7329 100.121 76.6308 100.42 76.7293 100.621C76.7673 100.901 76.9075 100.882 76.949 100.662C76.9906 100.443 77.0892 100.643 77.2257 101.124C77.2827 101.545 77.5594 102.007 77.7791 102.048C77.9988 102.09 78.0784 102.15 77.7981 102.188C77.5974 102.287 77.5748 102.647 77.6924 102.988C77.9275 103.669 77.9275 103.669 78.3515 103.112C78.6544 102.715 78.9157 102.536 78.9952 102.597C79.1544 102.718 79.0332 102.877 78.8931 102.896C78.7529 102.915 78.7114 103.135 78.7493 103.415C78.8479 103.616 78.7458 103.915 78.4845 104.093C78.2232 104.272 78.102 104.431 78.3407 104.612C78.4999 104.734 78.5379 105.014 78.4167 105.173C78.2956 105.332 78.3146 105.472 78.4737 105.593C78.6328 105.715 78.9095 106.177 79.0461 106.658C79.1826 107.139 79.6375 107.862 79.8346 108.263C80.8048 109.63 80.9188 110.471 80.0933 111.225C79.1468 112.138 78.5256 112.294 77.8891 111.809C77.4913 111.507 77.4307 111.586 77.287 112.105C77.1242 112.484 77.2228 112.685 77.5826 112.707C77.8629 112.669 77.8403 113.029 77.7156 113.688C77.4092 114.586 77.4092 114.586 77.0529 114.063C76.7762 113.601 76.6966 113.541 76.712 114.181C76.7465 114.961 76.5647 115.2 76.1479 114.757C75.8296 114.515 75.8296 114.515 75.9472 114.856C76.0458 115.056 76.0837 115.336 76.0422 115.556C76.0006 115.776 76.1181 116.117 76.4554 116.499C77.0694 117.344 77.0278 117.563 76.2059 117.817C75.3841 118.072 75.3841 118.072 75.9601 118.636C76.4565 119.139 76.3959 119.219 75.7106 119.954C75.2676 120.371 74.9042 120.848 74.9837 120.909C75.0633 120.969 74.5407 121.326 73.878 121.701C72.6132 122.372 72.1286 123.008 73.049 122.955C73.3293 122.917 73.6286 123.019 73.7877 123.14C74.0454 123.462 73.4207 124.118 72.72 124.213C72.4397 124.251 72.1784 124.429 71.9967 124.667C71.7734 125.126 71.853 125.186 72.7734 125.133C73.6938 125.08 74.6142 125.026 75.6747 124.954C77.0156 124.843 80.5345 125.009 80.7732 125.19C80.9323 125.312 81.4513 125.455 81.9513 125.459C83.0308 125.527 84.1638 126.515 85.5888 128.605C86.0436 129.328 86.8583 130.074 87.3357 130.438C88.0328 130.843 88.1124 130.903 87.9152 130.502C87.6575 130.18 87.8773 130.221 88.5138 130.706C89.0708 131.13 89.4876 131.573 89.5066 131.713C89.5256 131.853 89.7833 132.175 90.1431 132.198C90.5825 132.281 90.7607 132.542 90.7381 132.902C90.7951 133.323 90.9542 133.444 91.5338 133.508C92.2535 133.553 92.2725 133.693 92.1097 134.072C91.947 134.451 92.0266 134.511 92.7273 134.416C93.1477 134.359 93.6477 134.363 93.5871 134.443C93.9434 134.965 94.3448 134.768 94.4695 134.109C94.5943 133.45 94.5147 133.389 94.0337 133.526C93.5527 133.662 93.6133 133.583 94.0563 133.166C94.4387 132.829 94.6394 132.73 95.1358 133.234C95.5527 133.677 95.5907 133.957 95.2272 134.434C94.8222 135.131 94.8222 135.131 95.5419 135.177C95.9623 135.12 96.2806 135.362 96.2996 135.502C96.3186 135.642 96.6368 135.884 96.9967 135.907C97.4967 135.911 97.5763 135.971 96.9741 136.267C96.5121 136.544 96.5311 136.684 96.8494 136.926C97.4064 137.35 97.9063 137.354 97.8304 136.793C97.7128 136.452 97.9135 136.354 98.4325 136.497C99.3909 136.724 100.584 137.633 100.084 137.629C99.8041 137.667 99.4253 137.505 99.1866 137.323C98.5501 136.838 98.1296 136.895 98.0845 137.615C98.0619 137.975 97.8802 138.213 97.6795 138.312C97.5393 138.331 97.4977 138.551 97.6569 138.672C97.816 138.793 98.1759 138.816 98.4371 138.637C98.6984 138.459 99.0583 138.482 99.3765 138.724C99.6152 138.906 100.032 139.349 100.271 139.531C100.608 139.913 100.748 139.894 101.032 139.356C101.255 138.898 101.395 138.879 101.513 139.22C101.612 139.42 101.911 139.522 102.112 139.424C102.373 139.246 102.612 139.427 102.71 139.628C102.809 139.829 102.707 140.128 102.445 140.306C102.245 140.405 102.203 140.625 102.283 140.685C102.442 140.806 102.779 141.189 103.116 141.571C103.692 142.135 103.632 142.215 103.151 142.351C102.389 142.526 102.787 142.829 103.567 142.794C104.067 142.798 104.147 142.859 103.965 143.097C103.784 143.336 103.943 143.457 104.503 143.381C105.284 143.347 105.681 143.65 105.36 143.907C105.238 144.066 105.257 144.207 105.276 144.347C105.435 144.468 105.557 144.309 105.799 143.99C106.204 143.293 106.602 143.596 106.295 144.494C106.212 144.933 106.25 145.214 106.451 145.115C106.652 145.017 106.712 144.937 106.614 144.736C106.454 144.615 106.655 144.517 106.954 144.619C107.852 144.925 108.11 145.247 107.568 145.463C107.228 145.581 107.186 145.8 107.504 146.043C107.762 146.365 108.042 146.327 108.425 145.989C108.747 145.732 108.807 145.652 108.766 145.872C108.663 146.171 108.743 146.232 109.224 146.095C109.845 145.94 109.845 145.94 109.482 146.417C109.099 146.754 109.179 146.815 109.879 146.72C110.72 146.606 110.72 146.606 110.376 147.223C110.031 147.841 110.407 148.504 110.85 148.087C110.971 147.928 110.952 147.787 110.774 147.526C110.615 147.405 110.577 147.125 110.698 146.966C111.08 146.628 111.455 147.291 111.172 147.829C110.948 148.287 110.948 148.287 111.49 148.071C111.831 147.954 111.971 147.935 111.85 148.094C111.728 148.253 111.747 148.393 111.827 148.454C111.967 148.435 112.005 148.715 111.903 149.014C111.74 149.393 111.82 149.454 112.199 149.616C112.498 149.719 112.797 149.821 112.877 149.881C112.956 149.942 113.354 150.245 113.892 150.529C115.067 151.297 115.146 151.358 115.703 151.782C115.942 151.963 116.461 152.107 116.821 152.13C117.522 152.035 117.738 152.576 117.234 153.073C116.791 153.49 116.95 153.611 117.829 153.777C118.568 153.962 119.424 154.488 120.337 155.435C120.595 155.757 121.273 156.022 121.712 156.105C122.292 156.169 122.451 156.29 122.11 156.408C121.769 156.525 121.788 156.665 122.326 156.949C123.183 157.476 123.342 157.597 127.244 160.065C129.036 161.178 131.067 162.472 131.825 162.798C132.522 163.203 133.298 163.668 133.617 163.911C134.272 164.535 136.087 165.288 136.109 164.928C136.09 164.788 136.231 164.769 136.31 164.83C136.469 164.951 136.428 165.171 136.447 165.311C136.261 166.05 136.659 166.352 137.057 166.655C138.133 167.223 140.224 168.438 140.702 168.801C140.941 168.983 141.38 169.066 141.6 169.108C141.88 169.07 142.418 169.354 142.816 169.657C144.248 170.747 145.343 171.455 145.763 171.398C146.044 171.36 146.044 171.36 145.922 171.519C145.741 171.758 145.9 171.879 146.358 172.102C146.737 172.265 148.052 173.014 149.147 173.722C153.068 176.33 153.307 176.512 154.72 177.462C155.497 177.928 156.273 178.393 156.573 178.496C156.792 178.537 157.031 178.719 157.05 178.859C157.069 178.999 157.368 179.101 157.588 179.143C158.168 179.207 159.835 180.979 159.513 181.237C159.392 181.396 158.934 181.173 158.536 180.87C158.058 180.506 157.66 180.203 157.441 180.162C156.922 180.018 159.627 182.078 161.359 183.27C162.453 183.978 163.211 184.303 163.692 184.167C164.313 184.011 164.393 184.072 164.268 184.731C164.284 185.371 164.92 185.856 165.602 185.621C165.742 185.602 165.681 185.681 165.481 185.78C165.219 185.958 165.318 186.159 165.954 186.643C168.322 188.32 168.959 188.805 170.945 190.819C172.097 191.947 173.108 193.095 173.127 193.235C173.226 193.435 173.366 193.416 173.548 193.178C173.87 192.92 173.949 192.981 174.286 193.363C174.544 193.685 174.862 193.927 175.143 193.889C175.423 193.851 175.881 194.075 176.158 194.537C176.355 194.938 176.594 195.12 176.495 194.919C176.397 194.718 176.499 194.419 176.56 194.339C176.881 194.082 177.317 194.665 177.431 195.506C177.526 196.206 177.606 196.267 178.128 195.911C178.53 195.714 178.749 195.755 178.928 196.016C179.163 196.698 179.716 197.622 179.777 197.543C180.079 197.145 180.322 196.826 180.625 196.429ZM96.1626 96.0601C95.7837 95.8973 95.7837 95.8973 96.2647 95.7608C96.9654 95.6658 97.045 95.7264 96.8027 96.0447C96.602 96.1432 96.3217 96.1812 96.1626 96.0601ZM94.2443 101.386C93.907 101.004 93.888 100.864 94.4486 100.788C94.7289 100.75 95.0697 100.632 95.1493 100.693C95.2099 100.613 95.2479 100.894 95.2859 101.174C95.2407 101.894 94.7597 102.03 94.2443 101.386ZM95.7227 104.397C95.503 104.356 95.5446 104.136 95.7453 104.037C95.927 103.799 96.1467 103.84 96.1657 103.98C96.1847 104.12 96.1432 104.34 96.1432 104.34C96.0826 104.42 95.8023 104.458 95.7227 104.397ZM101.584 98.679C101.425 98.5579 101.387 98.2776 101.447 98.198C101.769 97.9403 102.209 98.0235 102.186 98.3833C102.243 98.8038 101.842 99.0009 101.584 98.679ZM87.4974 127.419C87.1791 127.176 86.982 126.775 87.0235 126.555C87.0651 126.336 87.444 126.498 87.7812 126.881C88.6149 127.767 88.312 128.165 87.4974 127.419ZM90.0779 130.137C89.9188 130.016 89.8582 130.096 89.8962 130.376C89.9342 130.656 89.8926 130.876 89.8736 130.736C89.794 130.675 89.5553 130.494 89.2561 130.391C88.9568 130.289 88.9378 130.149 89.2181 130.111C89.4984 130.073 89.4794 129.933 89.1801 129.831C88.8808 129.729 88.9224 129.509 89.3844 129.232C90.0887 128.637 91.3428 129.466 90.7786 130.042C90.5173 130.22 90.237 130.258 90.0779 130.137ZM103.457 113.553C103.158 113.451 103.127 112.17 103.449 111.913C103.57 111.754 103.79 111.795 103.869 111.856C103.949 111.916 103.847 112.216 103.665 112.454C103.343 112.712 103.423 112.773 103.764 112.655C104.044 112.617 104.264 112.659 104.302 112.939C104.298 113.439 103.836 113.716 103.457 113.553ZM107.626 117.983C108.069 117.566 108.428 117.589 108.425 118.089C108.402 118.448 107.94 118.725 107.561 118.562C107.342 118.521 107.444 118.222 107.626 117.983ZM106.989 117.498C107.171 117.26 107.451 117.222 107.47 117.362C107.629 117.483 107.588 117.703 107.447 117.722C107.326 117.881 107.107 117.839 106.966 117.858C106.826 117.877 106.807 117.737 106.989 117.498ZM104.772 114.302C104.651 114.461 104.552 114.261 104.654 113.961C104.9 113.143 105.98 113.211 106.594 114.055C107.526 115.142 107.159 116.119 106.185 115.252C105.867 115.01 105.45 114.567 105.351 114.366C105.192 114.245 104.973 114.204 104.772 114.302ZM92.352 133.754C92.1929 133.633 92.1739 133.492 92.314 133.473C92.3746 133.394 92.5147 133.375 92.7345 133.416C92.9542 133.458 92.9732 133.598 92.7724 133.697C92.6323 133.716 92.4316 133.814 92.352 133.754ZM98.1809 132.535C98.1014 132.475 98.0634 132.195 98.1845 132.035C98.3056 131.876 97.9078 131.573 97.2487 131.449C96.4304 131.203 95.8925 130.919 95.2785 130.075C94.8427 129.491 94.547 128.889 94.6076 128.81C94.6681 128.73 94.8878 128.772 94.9674 128.832C95.1265 128.953 95.1871 128.874 95.3083 128.715C95.3914 128.275 96.0505 128.4 96.1075 128.821C96.1455 129.101 96.0849 129.18 95.7251 129.158C95.3652 129.135 95.3652 129.135 95.5434 129.396C95.7025 129.518 95.9792 129.98 96.2369 130.301L96.6727 130.885L96.6989 130.025C96.6265 128.964 97.1871 128.888 97.6193 129.971C97.915 130.574 98.0135 130.774 98.3544 130.657C98.5551 130.558 98.5551 130.558 98.3354 130.517C98.1157 130.475 98.0361 130.414 98.1573 130.255C98.2784 130.096 98.5967 130.338 98.915 130.581C99.4909 131.145 99.4304 131.224 98.6013 132.478C98.4006 132.577 98.2605 132.596 98.1809 132.535ZM101.327 128.898C101.145 129.137 100.945 129.235 100.926 129.095C100.907 128.955 101.168 128.777 101.369 128.678C101.63 128.5 101.569 128.58 101.327 128.898ZM103.632 125.374C103.254 125.212 103.295 124.992 103.477 124.753C103.598 124.594 103.799 124.496 103.878 124.556C103.958 124.617 104.117 124.738 104.416 124.84C104.716 124.942 104.674 125.162 104.553 125.321C104.231 125.579 103.951 125.617 103.632 125.374ZM99.5407 132.565C99.2984 132.884 99.0182 132.922 98.9386 132.861C98.6999 132.679 99.6465 131.766 100.268 131.61C100.468 131.512 100.768 131.614 100.726 131.834C100.783 132.254 100.401 132.591 100.162 132.41C100.063 132.209 99.802 132.387 99.5407 132.565ZM100.333 133.671C100.151 133.91 99.8518 133.808 99.6131 133.626C99.1963 133.183 99.3174 133.024 99.9991 132.789C100.62 132.633 100.836 133.175 100.333 133.671ZM119.306 115.187C119.465 115.308 119.344 115.467 119.283 115.546C119.162 115.706 118.942 115.664 118.863 115.603C118.704 115.482 118.825 115.323 118.886 115.244C119.007 115.084 119.147 115.065 119.306 115.187ZM106.032 130.972C105.892 130.991 105.733 130.87 105.695 130.589C105.597 130.389 105.737 130.37 105.975 130.551C106.013 130.832 106.172 130.953 106.032 130.972ZM114.844 123.855C114.946 123.556 114.787 123.434 114.366 123.491C113.666 123.586 113.268 123.283 113.809 123.067C114.15 122.95 114.15 122.95 113.65 122.946C113.37 122.984 112.832 122.7 112.574 122.378C112.078 121.875 111.998 121.814 112.759 121.64C113.381 121.484 113.759 121.647 114.574 122.393C115.548 123.26 115.567 123.4 115.124 123.817C114.821 124.215 114.741 124.154 114.844 123.855ZM103.653 139.215C103.312 139.332 103.354 139.113 103.778 138.556C104.202 137.999 104.403 137.9 104.641 138.082C104.899 138.404 104.335 138.98 103.653 139.215ZM105.373 139.267C105.293 139.207 105.335 138.987 105.316 138.847C105.357 138.627 105.498 138.608 105.657 138.729C105.816 138.85 105.774 139.07 105.714 139.15C105.513 139.248 105.373 139.267 105.373 139.267ZM119.159 127.266C119.242 126.826 119.621 126.989 120.955 127.879C122.387 128.969 122.96 130.033 121.823 129.545C121.524 129.443 121.584 129.363 121.785 129.265C122.205 129.208 120.534 127.936 119.637 127.629C119.277 127.607 119.118 127.486 119.159 127.266ZM108.008 145.546C107.83 145.285 107.871 145.065 108.072 144.967C108.273 144.868 108.371 145.069 108.409 145.349C108.364 146.069 108.304 146.148 108.008 145.546ZM111.711 142.333C111.472 142.151 111.154 141.909 111.014 141.928C110.874 141.947 110.495 141.784 110.396 141.583C110.158 141.402 109.938 141.36 109.957 141.5C109.915 141.72 109.756 141.599 109.578 141.337C109.025 140.413 109.729 139.819 110.422 140.724C110.582 140.845 110.881 140.947 111.161 140.909C111.582 140.852 111.82 141.034 112.017 141.435C112.215 141.836 112.434 141.878 112.635 141.779C112.756 141.62 112.976 141.662 112.934 141.882C113.01 142.442 112.128 142.776 111.711 142.333ZM122.857 130.332C122.676 130.571 122.456 130.53 122.437 130.389C122.418 130.249 122.52 129.95 122.581 129.87C122.702 129.711 122.922 129.753 123.001 129.813C123.081 129.874 123.039 130.094 122.857 130.332ZM130.932 136.731C130.231 136.826 130.113 136.485 130.556 136.068C131.06 135.571 131.64 135.636 131.697 136.056C131.754 136.476 131.492 136.655 130.932 136.731ZM122.873 150.453C122.691 150.692 122.411 150.73 122.392 150.59C122.233 150.469 122.274 150.249 122.415 150.23C122.536 150.071 122.816 150.033 122.896 150.093C123.115 150.135 123.134 150.275 122.873 150.453ZM134.679 158.058C134.599 157.997 134.641 157.778 134.622 157.638C134.663 157.418 134.803 157.399 134.963 157.52C135.122 157.641 135.08 157.861 135.02 157.94C134.819 158.039 134.758 158.119 134.679 158.058ZM148.167 148.595C147.947 148.553 147.928 148.413 148.129 148.314C148.25 148.155 148.47 148.197 148.549 148.257C148.709 148.378 148.728 148.519 148.587 148.538C148.527 148.617 148.307 148.576 148.167 148.595ZM184.857 172.378C184.778 172.318 184.819 172.098 184.88 172.019C184.921 171.799 185.062 171.78 185.221 171.901C185.38 172.022 185.338 172.242 185.198 172.261C185.077 172.42 184.937 172.439 184.857 172.378Z" fill="white"/>
<path d="M186.927 176.593C187.007 176.654 187.226 176.695 187.348 176.536C187.469 176.377 187.45 176.237 187.31 176.256C187.09 176.215 186.95 176.233 186.889 176.313C186.829 176.393 186.848 176.533 186.927 176.593Z" fill="white"/>
<path d="M186.301 174.609C186.46 174.73 186.502 174.51 186.384 174.169C186.187 173.768 186.108 173.707 186.006 174.007C185.964 174.226 186.142 174.488 186.301 174.609Z" fill="white"/>
<path d="M101.756 141.541C101.575 141.78 101.594 141.92 101.734 141.901C101.954 141.943 102.094 141.924 102.154 141.844C102.215 141.765 102.196 141.625 102.177 141.484C102.078 141.284 101.878 141.382 101.756 141.541Z" fill="white"/>
<path d="M101.218 141.257C101.059 141.136 100.919 141.155 100.798 141.314C100.677 141.474 100.696 141.614 100.775 141.674C100.935 141.795 101.075 141.776 101.196 141.617C101.256 141.538 101.298 141.318 101.218 141.257Z" fill="white"/>
<path d="M101.487 140.079C101.207 140.117 100.968 139.936 101.009 139.716C100.99 139.576 100.869 139.735 100.786 140.174C100.48 141.072 100.859 141.235 101.544 140.5C101.866 140.242 101.847 140.102 101.487 140.079Z" fill="white"/>
<path d="M95.9634 137.76C95.8422 137.919 95.8007 138.139 95.8802 138.199C96.0394 138.32 96.1189 138.381 96.1795 138.301C96.2401 138.222 96.2211 138.082 96.2627 137.862C96.2247 137.582 96.0845 137.601 95.9634 137.76Z" fill="white"/>
<path d="M101.382 96.1375C101.602 96.1791 101.503 95.9784 101.105 95.6755C100.848 95.3537 100.628 95.3121 100.727 95.5128C100.905 95.7741 101.162 96.0959 101.382 96.1375Z" fill="white"/>
<path d="M97.4228 93.249C97.5819 93.3702 97.8016 93.4118 97.9227 93.2526C98.0439 93.0935 98.0249 92.9533 97.8468 92.6921C97.6876 92.5709 97.4679 92.5293 97.3468 92.6885C97.2256 92.8476 97.2636 93.1279 97.4228 93.249Z" fill="white"/>
<path d="M79.6005 110.222C80.2027 109.926 80.2027 109.926 79.9865 109.384C79.7894 108.983 79.6493 109.002 79.3654 109.54C78.8203 110.256 78.9984 110.517 79.6005 110.222Z" fill="white"/>
<path d="M95.6425 93.2763C95.8812 93.458 96.1805 93.5601 96.2411 93.4806C96.3622 93.3214 96.3432 93.1813 96.1651 92.92C96.006 92.7989 95.7067 92.6967 95.5665 92.7157C95.4454 92.8748 95.4644 93.015 95.6425 93.2763Z" fill="white"/>
<path d="M79.1945 108.279C78.7776 107.836 78.5769 107.934 78.793 108.476C78.8916 108.676 79.1303 108.858 79.2704 108.839C79.4712 108.741 79.3726 108.54 79.1945 108.279Z" fill="white"/>
<path d="M76.1648 109.617C75.7824 109.954 75.6802 110.253 75.7978 110.594C75.9343 111.075 76.0745 111.056 76.8999 110.302C77.4035 109.806 77.7669 109.328 77.7669 109.328C77.7895 108.969 76.7479 109.181 76.1648 109.617Z" fill="white"/>
<path d="M92.8505 92.1562C92.6498 92.2548 92.6688 92.3949 92.8279 92.516C92.987 92.6372 93.2863 92.7393 93.4265 92.7203C93.6272 92.6218 93.6082 92.4816 93.449 92.3605C93.2103 92.1788 93.0512 92.0576 92.8505 92.1562Z" fill="white"/>
<path d="M77.9938 108.37C78.1149 108.211 78.0959 108.071 77.8572 107.889C77.6981 107.768 77.539 107.647 77.4784 107.726C77.4178 107.806 77.4368 107.946 77.6149 108.207C77.7931 108.469 77.7931 108.469 77.9938 108.37Z" fill="white"/>
<path d="M76.3952 108.159C76.2361 108.037 76.077 107.916 76.0164 107.996C75.9558 108.075 76.0544 108.276 76.153 108.477C76.2515 108.678 76.4107 108.799 76.5318 108.64C76.5924 108.56 76.634 108.34 76.3952 108.159Z" fill="white"/>
<path d="M89.904 93.0551C90.2186 93.7974 90.2186 93.7974 90.4645 92.9791C90.9337 91.7024 91.3767 91.2856 91.3505 92.1454C91.3054 92.8651 91.5025 93.2666 91.8849 92.9293C92.0061 92.7702 91.9491 92.3497 91.8921 91.9293C91.7365 91.3082 91.5774 91.187 91.0964 91.3236C90.7556 91.4412 90.3161 91.358 90.0774 91.1763C89.7402 90.7938 89.6796 90.8734 89.695 91.5135C89.6119 91.953 89.7068 92.6537 89.904 93.0551Z" fill="white"/>
<path d="M75.4748 108.212C75.115 108.189 75.1114 108.689 75.4903 108.852C75.7895 108.954 75.7895 108.954 75.8121 108.594C75.7931 108.454 75.615 108.193 75.4748 108.212Z" fill="white"/>
<path d="M76.6816 104.481C76.6021 104.42 76.3444 104.098 76.2268 103.757C76.0297 103.356 75.791 103.174 75.3706 103.231C74.8706 103.227 74.81 103.307 74.886 103.868C75.0605 104.629 74.4964 105.205 73.6366 105.179C73.057 105.115 73.076 105.255 73.7315 105.879C74.4061 106.644 75.2659 106.67 74.9512 105.928C74.8527 105.727 74.9964 105.208 75.3182 104.951C75.7612 104.534 75.9014 104.515 76.1781 104.977C76.5533 105.64 76.6329 105.7 76.8182 104.962C76.7992 104.821 76.7612 104.541 76.6816 104.481Z" fill="white"/>
<path d="M88.8459 89.9874C88.9219 90.548 89.2402 90.7903 89.3044 90.2107C89.3649 90.1311 89.1868 89.8699 88.9481 89.6881C88.77 89.4269 88.7094 89.5064 88.8459 89.9874Z" fill="white"/>
<path d="M80.0275 98.1044C80.1676 98.0854 80.2282 98.0058 80.2698 97.7861C80.2508 97.6459 80.1522 97.4452 80.1332 97.3051C79.9741 97.1839 79.9135 97.2635 79.8909 97.6234C79.7888 97.9226 79.8873 98.1233 80.0275 98.1044Z" fill="white"/>
<path d="M80.0454 95.6044C80.2046 95.7256 80.3447 95.7066 80.4658 95.5474C80.587 95.3883 80.568 95.2482 80.4884 95.1876C80.3293 95.0664 80.1891 95.0854 80.068 95.2446C79.9279 95.2636 79.8863 95.4833 80.0454 95.6044Z" fill="white"/>
<path d="M79.7297 92.2221C79.5136 91.6805 79.3354 91.4192 79.0551 91.4572C78.7749 91.4952 78.7333 91.7149 79.01 92.1769C79.5634 93.1009 80.1429 93.1651 79.7297 92.2221Z" fill="white"/>
<path d="M77.6286 95.1471C77.7688 95.1281 77.7498 94.9879 77.5111 94.8062C77.2724 94.6245 77.1928 94.5639 77.2308 94.8442C77.3294 95.0449 77.4885 95.1661 77.6286 95.1471Z" fill="white"/>
<path d="M75.928 95.2349C75.947 95.375 76.1251 95.6363 76.4434 95.8786L76.9208 96.242L76.6856 95.5603C76.3104 94.8976 75.9315 94.7349 75.928 95.2349Z" fill="white"/>
<path d="M81.1891 95.0926C81.03 94.9715 80.8898 94.9905 80.8293 95.07C80.7687 95.1496 80.7877 95.2897 80.9468 95.4109C81.106 95.532 81.2461 95.513 81.3067 95.4335C81.3672 95.3539 81.3483 95.2138 81.1891 95.0926Z" fill="white"/>
</g>
<g opacity="0.25">
<path d="M50.9281 66.1008C51.5191 66.2041 51.8318 66.1573 51.785 65.8445C51.7209 65.6303 51.8366 65.549 52.1149 65.6992C52.2947 65.8321 52.5902 65.8837 52.7232 65.7039C52.8389 65.6226 53.3486 65.6102 53.7427 65.6791C54.1195 65.8464 54.5307 65.8168 54.5479 65.7183C54.5824 65.5212 56.0475 65.2697 56.4244 65.4371C56.5229 65.4543 56.4884 65.6513 56.454 65.8483C56.4196 66.0453 56.1881 66.2079 56.0083 66.075C55.8113 66.0406 55.7128 66.0233 55.7941 66.1391C55.8754 66.2548 56.3852 66.2424 57.0278 66.0501C57.6705 65.8579 58.4758 65.8971 58.9511 66.0817C59.6235 66.3007 59.722 66.3179 59.9065 65.8426C59.9754 65.4485 60.2068 65.286 60.5024 65.3376C60.7979 65.3892 60.862 65.6035 60.729 65.7833C60.5961 65.9631 60.6602 66.1773 60.8572 66.2117C61.0542 66.2462 61.1699 66.1649 61.1231 65.8521C61.059 65.6379 61.2091 65.3596 61.4234 65.2955C61.6376 65.2314 61.7189 65.3472 61.4874 65.5097C61.256 65.6723 61.3373 65.788 61.9455 65.7928C62.3568 65.7632 62.768 65.7335 62.8837 65.6522C62.9995 65.5709 63.4107 65.5413 63.886 65.7259C64.3614 65.9105 64.7726 65.8808 64.7898 65.7823C64.807 65.6838 65.5654 65.4102 66.4051 65.2524C67.2448 65.0946 68.119 64.7398 68.2519 64.56C68.3848 64.3802 68.9462 64.0722 69.3747 63.9441C69.8031 63.8159 70.2316 63.6878 70.1675 63.4736C70.0862 63.3578 70.3177 63.1952 70.6132 63.2469C71.1057 63.333 71.1229 63.2345 70.6476 63.0499C69.9753 62.8309 70.0269 62.5353 70.9355 61.9835C71.5141 61.577 71.5313 61.4785 71.2874 61.1314C71.0263 60.8827 71.0436 60.7842 71.3219 60.9344C71.5189 60.9688 71.7159 61.0032 71.6346 60.8875C71.5533 60.7718 71.802 60.5107 72.1319 60.3653C72.4619 60.2199 73.5674 59.7025 74.5573 59.2664C75.8771 58.6849 76.3572 58.2612 76.3275 57.85C76.3792 57.5545 76.5293 57.2762 76.6278 57.2934C77.0046 57.4608 77.7726 55.9707 77.413 55.7048C77.2332 55.5719 77.3489 55.4906 77.6789 55.3452C77.9916 55.2984 78.1246 55.1186 78.0605 54.9043C77.9964 54.6901 78.1293 54.5103 78.3263 54.5448C78.5406 54.4807 78.6735 54.3009 78.7892 54.2196C78.8237 54.0226 78.7252 54.0053 78.6266 53.9881C78.5109 54.0694 78.2326 53.9193 78.0872 53.5893C77.8434 53.2422 77.7449 53.2249 77.8902 53.5549C77.9543 53.7691 77.6884 54.1287 77.26 54.2569C76.3859 54.6117 76.0435 54.2473 76.8191 53.8753C77.149 53.7299 77.3977 53.4688 77.4149 53.3703C77.5182 52.7793 77.7669 52.5182 78.3579 52.6215C78.8504 52.7075 78.9317 52.8233 78.8629 53.2173C78.575 54.2837 80.7928 50.3061 81.4326 48.3876C81.6172 47.9122 81.9988 47.4713 82.2302 47.3088C82.5602 47.1634 82.7448 46.6881 82.7964 46.3925C82.8184 45.6858 83.6332 44.5085 84.9578 43.3187C85.5536 42.8138 85.721 42.4369 85.5584 42.2055C85.3786 42.0726 85.4647 41.58 85.6321 41.2032C86.4172 39.6147 87.1728 37.6149 86.8945 37.4647C86.7959 37.4475 86.9164 36.758 87.2512 36.0043C87.6031 35.1522 87.8049 34.5784 87.6079 34.5439C87.3124 34.4923 87.3812 34.0982 87.6863 32.9334C87.7552 32.5393 87.6911 32.3251 87.3784 32.372C87.0656 32.4188 86.9843 32.3031 87.1173 32.1233C87.3956 32.2735 87.6098 32.2094 87.8068 32.2438C88.0851 32.394 88.2745 31.3104 88.2152 30.4879C88.2027 29.9782 88.1559 29.6654 88.3749 28.9931C88.4265 28.6976 88.3452 28.5819 88.1482 28.5474C87.934 28.6115 87.8699 28.3973 88.0028 28.2175C88.0373 28.0205 88.2515 27.9564 88.3328 28.0721C88.4141 28.1878 88.6455 28.0252 88.6972 27.7297C88.7488 27.4342 88.702 27.1215 88.6034 27.1042C88.4064 27.0698 88.4581 26.7743 88.7239 26.4147C88.9898 26.0551 89.0415 25.7596 88.7459 25.7079C88.5489 25.6735 88.4848 25.4593 88.6006 25.378C88.7163 25.2967 88.6522 25.0825 88.4724 24.9495C88.2926 24.8166 88.3098 24.7181 88.6866 24.8854C89.359 25.1044 89.6124 24.2351 88.9573 23.9176C88.4992 23.6345 88.4351 23.4203 88.7995 23.0779C89.3312 22.3587 89.4517 21.6691 89.028 21.189C88.5872 20.8074 88.5872 20.8074 89.1313 20.598C89.6755 20.3885 89.6755 20.3885 89.3676 19.8271C89.1409 19.3815 89.1112 18.9702 89.3771 18.6106C89.8103 17.8742 89.8323 17.1675 89.3054 17.2784C89.2069 17.2612 88.9458 17.0125 88.8817 16.7983C88.6895 16.1556 88.8224 15.9758 89.2977 16.1604C89.4947 16.1948 89.8247 16.0494 90.0733 15.7884C90.4721 15.249 90.3956 14.525 90.1173 14.3748C90.0188 14.3576 90.1393 13.6681 90.3583 12.9957C90.5945 12.2249 90.715 11.5353 90.6338 11.4196C90.5525 11.3039 90.5917 10.4986 90.8451 9.62926C91.0985 8.7599 91.2535 7.87334 91.1894 7.65911C91.0144 6.91792 91.1741 5.4231 91.5997 3.56868C92.1285 1.12321 92.1457 1.0247 91.6111 0.0176387C91.2859 -0.445249 91.2563 -0.856486 91.3376 -0.740766C91.6331 -0.689123 92.3245 -2.90314 92.1792 -3.23309C92.0979 -3.34881 92.248 -3.62712 92.4967 -3.88822C92.7454 -4.14932 92.8314 -4.64185 92.7673 -4.85608C92.7205 -5.16882 92.7597 -5.97408 92.9959 -6.74493C93.2321 -7.51578 93.3526 -8.20533 93.2885 -8.41955C93.2245 -8.63378 93.345 -9.32333 93.564 -9.99566C94.1397 -12.1284 94.2009 -13.6404 93.8241 -13.8078C93.6271 -13.8422 93.6443 -13.9407 93.957 -13.9876C94.3855 -14.1158 94.4199 -14.3128 94.5624 -15.7091C94.6188 -16.6129 94.9631 -18.583 95.4528 -20.2232C96.0409 -21.8462 96.2991 -23.3238 96.2179 -23.4395C96.1538 -23.6537 96.2398 -24.1463 96.4244 -24.6216C96.609 -25.0969 96.6951 -25.5895 96.5325 -25.8209C96.2714 -26.0696 96.2886 -26.1681 96.5669 -26.0179C96.7639 -25.9835 96.9954 -26.1461 97.1455 -26.4244C97.3301 -26.8997 97.2316 -26.9169 96.7046 -26.806C96.1605 -26.5965 96.1605 -26.5965 96.4435 -27.0546C97.0738 -27.7566 98.164 -30.51 97.7184 -30.2834C97.4697 -30.0223 97.3884 -30.138 97.3588 -30.5492C97.265 -31.1747 97.2823 -31.2732 97.8561 -31.0714C98.1516 -31.0198 98.516 -31.3622 98.8679 -32.2143C99.1854 -32.8694 99.7 -33.4901 99.9314 -33.6527C100.574 -33.8449 100.845 -34.8128 100.889 -36.2263C100.817 -37.5586 101.063 -39.5459 101.412 -42.1243C101.601 -43.2079 101.576 -44.2274 101.495 -44.3431C101.315 -44.4761 101.35 -44.6731 101.68 -44.8185C102.01 -44.9638 102.143 -45.1436 102.16 -45.2421C102.177 -45.3406 102.177 -45.3406 102.194 -45.4391C102.593 -45.9785 102.795 -46.5524 102.632 -46.7838C102.435 -46.8182 102.487 -47.1138 102.637 -47.3921C102.787 -47.6704 102.856 -48.0644 102.809 -48.3771C102.762 -48.6899 102.831 -49.0839 103.097 -49.4435C103.461 -49.7859 103.397 -50.0001 103.102 -50.0518C102.806 -50.1034 102.759 -50.4161 102.828 -50.8102C102.88 -51.1057 102.966 -51.5982 103.018 -51.8938C103.052 -52.0908 103.301 -52.3519 103.399 -52.3346C103.613 -52.3987 103.665 -52.6942 103.734 -53.0883C103.721 -53.598 103.854 -53.7778 104.017 -53.5464C104.197 -53.4134 104.312 -53.4947 104.283 -53.906C104.27 -54.4157 104.27 -54.4157 104.022 -54.1546C103.889 -53.9748 103.657 -53.8123 103.559 -53.8295C103.46 -53.8467 103.212 -53.5856 103.16 -53.2901C103.091 -52.896 102.843 -52.6349 102.547 -52.6866C102.35 -52.721 102.153 -52.7554 102.367 -52.8195C102.483 -52.9008 102.517 -53.0978 102.436 -53.2136C102.175 -53.4622 102.711 -54.7897 103.359 -55.5902C103.608 -55.8513 103.411 -55.8857 102.965 -55.659C102.091 -55.3042 101.911 -55.4371 101.95 -56.2424C101.921 -56.6537 101.775 -56.9836 101.659 -56.9023C101.445 -56.8382 101.364 -56.954 101.398 -57.151C101.433 -57.348 101.253 -57.4809 100.975 -57.6311C100.482 -57.7171 100.32 -57.9486 100.487 -58.3254C100.672 -58.8007 100.787 -58.882 101.031 -58.5348C101.194 -58.3034 101.472 -58.1533 101.588 -58.2345C101.703 -58.3158 101.657 -58.6286 101.494 -58.86C101.233 -59.1087 101.088 -59.4386 101.122 -59.6356C101.139 -59.7341 101.011 -60.1626 100.767 -60.5098C100.361 -61.0884 100.262 -61.1056 99.8165 -60.8789C99.3708 -60.6523 99.3536 -60.5538 99.7132 -60.2879C99.9743 -60.0392 99.9571 -59.9407 99.5458 -59.9111C99.2331 -59.8642 98.753 -59.4405 98.4011 -58.5884C98.0663 -57.8348 97.5346 -57.1156 97.3204 -57.0515C97.0717 -56.7904 96.626 -56.5637 96.2789 -56.3198C95.9317 -56.076 95.619 -56.0291 95.422 -56.0635C95.2422 -56.1965 95.1092 -56.0167 95.2374 -55.5882C95.4124 -54.847 94.8634 -54.0293 93.908 -53.7902C93.2653 -53.598 93.2653 -53.598 93.6077 -53.2336C93.7703 -53.0021 93.9157 -52.6722 93.8985 -52.5737C93.864 -52.3767 93.7655 -52.3939 93.6842 -52.5096C93.6029 -52.6253 93.2902 -52.5785 93.0588 -52.4159C92.7116 -52.172 92.5318 -52.3049 92.2286 -53.4746C91.9082 -54.5457 91.9427 -54.7427 92.3023 -54.4769C92.6619 -54.211 92.7776 -54.2923 92.8981 -54.9818C92.9842 -55.4744 93.1343 -55.7527 93.4298 -55.701C93.8239 -55.6322 94.5182 -56.1199 94.587 -56.514C94.6043 -56.6125 94.72 -56.6938 94.917 -56.6593C95.114 -56.6249 95.2125 -56.6077 95.1312 -56.7234C95.0499 -56.8391 95.2173 -57.216 95.4659 -57.4771C95.9805 -58.0978 96.2559 -59.6739 95.7289 -59.5629C95.5147 -59.4988 95.399 -59.4176 95.4631 -59.2033C95.574 -58.6764 94.961 -58.0729 94.0056 -57.8338C93.1659 -57.676 93.1659 -57.676 93.646 -58.0997C93.9931 -58.3435 94.3919 -58.8829 94.4436 -59.1785C94.6109 -59.5553 94.9629 -60.4074 95.2804 -61.0625C95.7481 -61.996 95.8169 -62.39 95.5214 -62.4416C95.3244 -62.4761 95.2603 -62.6903 95.509 -62.9514C95.6419 -63.1312 95.728 -63.6237 95.6639 -63.8379C95.5357 -64.2664 95.4372 -64.2836 95.1541 -63.8255C95.004 -63.5472 94.5583 -63.3205 94.1643 -63.3894C93.6717 -63.4755 93.5216 -63.1972 93.1352 -62.148C92.9162 -61.4757 92.483 -60.7393 92.2515 -60.5767C91.7887 -60.2515 91.8231 -60.4485 92.2611 -61.7932C92.5145 -62.6625 92.832 -63.3177 93.0291 -63.2832C93.1276 -63.266 93.2433 -63.3473 93.2605 -63.4458C93.2777 -63.5443 93.7922 -64.165 94.2896 -64.6872C95.2153 -65.3375 95.6141 -65.8769 95.5328 -65.9927C95.4516 -66.1084 95.353 -66.1256 95.3186 -65.9286C95.3014 -65.8301 95.1216 -65.963 94.8605 -66.2117C94.454 -66.7903 94.5229 -67.1843 94.9982 -66.9997C95.178 -66.8668 95.508 -67.0122 95.5424 -67.2092C95.7098 -67.586 95.6285 -67.7017 94.7591 -67.9551C94.1853 -68.1569 93.7272 -68.44 93.7444 -68.5385C93.7616 -68.637 93.599 -68.8685 93.402 -68.9029C93.1065 -68.9546 92.8923 -68.8905 92.9391 -68.5777C92.8875 -68.2822 93.1486 -68.0336 93.5426 -67.9647C93.9366 -67.8958 94.1164 -67.7629 93.9835 -67.5831C93.6363 -67.3392 93.8534 -65.677 94.1662 -65.7239C94.3804 -65.788 94.4617 -65.6723 94.5258 -65.458C94.5899 -65.2438 94.1958 -65.3127 93.622 -65.5145C93.0482 -65.7163 92.6886 -65.9821 92.8215 -66.1619C92.9544 -66.3417 92.9889 -66.5387 92.8091 -66.6717C92.6293 -66.8046 92.6809 -67.1001 92.8139 -67.2799C93.0797 -67.6395 93.0797 -67.6395 92.6168 -67.3144C92.3854 -67.1518 92.0851 -66.5952 92.0975 -66.0854C92.0411 -65.1816 91.3296 -64.5954 90.5587 -64.8316C90.1647 -64.9004 90.1819 -64.999 90.4946 -65.0458C91.1201 -65.1395 91.5237 -66.2872 91.1641 -66.5531C90.9843 -66.686 90.7529 -66.5234 90.7012 -66.2279C90.5166 -65.7526 89.3938 -65.1367 89.5784 -65.612C89.5956 -65.7105 89.4971 -65.7277 89.2657 -65.5651C88.9185 -65.3212 88.8372 -65.437 88.7607 -66.1609C88.6201 -67.0992 89.0534 -67.8356 89.477 -67.3555C89.6568 -67.2225 89.6224 -67.0255 89.5067 -66.9442C89.391 -66.8629 89.3565 -66.6659 89.5536 -66.6315C89.7506 -66.5971 89.982 -66.7596 90.0337 -67.0552C90.0853 -67.3507 90.4152 -67.4961 90.8265 -67.5257C91.2205 -67.4569 91.452 -67.6194 91.5677 -67.7007C91.6021 -67.8977 91.4051 -67.9322 91.1096 -67.9838C90.7968 -67.937 90.6343 -68.1684 90.7672 -68.3482C90.8016 -68.5452 90.7548 -68.8579 90.575 -68.9909C90.3952 -69.1238 90.6094 -69.1879 91.1191 -69.2003C91.9416 -69.2596 92.1558 -69.3237 92.2075 -69.6192C92.1434 -69.8335 92.2591 -69.9148 92.4389 -69.7818C92.6187 -69.6489 92.7172 -69.6317 92.7345 -69.7302C92.7517 -69.8287 92.9018 -70.107 93.052 -70.3853C93.1849 -70.5651 93.138 -70.8778 93.0395 -70.8951C92.8425 -70.9295 92.7268 -70.8482 92.6752 -70.5527C92.6235 -70.2571 92.4093 -70.1931 92.2123 -70.2275C92.0153 -70.2619 92.0497 -70.4589 92.1654 -70.5402C92.2811 -70.6215 92.3156 -70.8185 92.1185 -70.853C91.9215 -70.8874 91.7073 -70.8233 91.5916 -70.742C91.3773 -70.6779 91.1631 -70.6139 91.0818 -70.7296C90.902 -70.8625 90.8035 -70.8797 90.7691 -70.6827C90.7519 -70.5842 90.816 -70.37 90.9958 -70.237C91.2741 -70.0869 91.1411 -69.9071 90.7127 -69.7789C90.3827 -69.6336 89.9198 -69.3084 89.7697 -69.0301C89.1222 -68.2296 88.9472 -68.9708 89.4665 -70.1997C89.9514 -71.2317 89.9686 -71.3302 89.4244 -71.1207C89.0945 -70.9754 88.8458 -70.7143 88.9099 -70.5C88.974 -70.2858 88.8582 -70.2045 88.777 -70.3202C88.6957 -70.436 88.3829 -70.3891 88.25 -70.2093C88.0185 -70.0467 88.0998 -69.931 88.3141 -69.9951C88.5283 -70.0591 88.3954 -69.8793 88.031 -69.537C87.6838 -69.2931 87.4007 -68.835 87.4648 -68.6207C87.5289 -68.4065 87.5117 -68.308 87.3491 -68.5395C87.1693 -68.6724 86.8393 -68.527 86.5907 -68.2659C86.0934 -67.7437 86.0934 -67.7437 86.7829 -67.6232C87.2755 -67.5372 87.5538 -67.387 87.5365 -67.2885C87.5021 -67.0915 87.3051 -67.1259 87.2238 -67.2416C87.1425 -67.3574 86.9283 -67.2933 86.6968 -67.1307C86.5639 -66.9509 86.2512 -66.904 85.9729 -67.0542C85.6946 -67.2043 85.4975 -67.2388 85.4459 -66.9432C85.4115 -66.7462 85.18 -66.5836 84.983 -66.6181C84.786 -66.6525 84.6703 -66.5712 84.6359 -66.3742C84.6014 -66.1772 84.3183 -65.7191 83.954 -65.3767C83.5896 -65.0343 83.1563 -64.2979 82.8905 -63.9383C82.1225 -62.4482 81.4282 -61.9605 80.379 -62.3469C79.1329 -62.7677 78.7092 -63.2478 78.8469 -64.0358C78.933 -64.5284 78.8345 -64.5456 78.3075 -64.4346C77.8963 -64.405 77.7633 -64.2252 77.9087 -63.8952C78.0713 -63.6638 77.7413 -63.5184 77.0986 -63.3262C76.1604 -63.1856 76.1604 -63.1856 76.4607 -63.7422C76.7438 -64.2003 76.761 -64.2988 76.1996 -63.9909C75.5225 -63.6016 75.227 -63.6532 75.4288 -64.2271C75.4977 -64.6211 75.4977 -64.6211 75.249 -64.36C75.1161 -64.1802 74.8846 -64.0176 74.6704 -63.9535C74.4562 -63.8895 74.2075 -63.6284 74.0229 -63.153C73.5553 -62.2196 73.341 -62.1555 72.7376 -62.7686C72.1341 -63.3816 72.1341 -63.3816 71.8979 -62.6108C71.6789 -61.9384 71.5803 -61.9556 70.6125 -62.2263C70.0387 -62.4281 69.4476 -62.5314 69.4304 -62.4329C69.4132 -62.3344 68.8566 -62.6347 68.2187 -63.0507C67.0414 -63.8655 66.2533 -64.0032 66.7238 -63.2104C66.8864 -62.9789 66.9333 -62.6662 66.8989 -62.4692C66.7315 -62.0924 65.8621 -62.3458 65.4557 -62.9244C65.2931 -63.1559 65.0148 -63.306 64.7193 -63.3577C64.2095 -63.3452 64.1923 -63.2467 64.6628 -62.4539C65.1334 -61.661 65.6039 -60.8682 66.1558 -59.9597C66.8702 -58.8197 68.3411 -55.6187 68.2895 -55.3231C68.255 -55.1261 68.366 -54.5992 68.5927 -54.1535C69.0288 -53.1636 68.672 -51.7032 67.4708 -49.4768C67.0376 -48.7404 66.7497 -47.674 66.6465 -47.083C66.6073 -46.2777 66.59 -46.1792 66.8559 -46.5388C67.0233 -46.9156 67.0874 -46.7014 66.9496 -45.9133C66.8291 -45.2238 66.6273 -44.6499 66.5116 -44.5686C66.3959 -44.4873 66.2285 -44.1105 66.3739 -43.7806C66.5021 -43.3521 66.3519 -43.0738 66.022 -42.9284C65.6748 -42.6846 65.6404 -42.4875 65.8498 -41.9434C66.1406 -41.2835 66.0249 -41.2022 65.6136 -41.1725C65.2024 -41.1429 65.1851 -41.0444 65.5916 -40.4658C65.8355 -40.1186 66.0622 -39.6729 65.9636 -39.6901C65.6633 -39.1335 66.023 -38.8677 66.6656 -39.0599C67.3083 -39.2521 67.3255 -39.3506 66.9832 -39.715C66.6408 -40.0794 66.7393 -40.0622 67.3131 -39.8604C67.7884 -39.6758 67.9682 -39.5429 67.7492 -38.8705C67.5474 -38.2967 67.316 -38.1341 66.7249 -38.2374C65.9197 -38.2766 65.9197 -38.2766 66.2104 -37.6167C66.4543 -37.2695 66.3854 -36.8755 66.2697 -36.7942C66.154 -36.7129 66.0851 -36.3189 66.2305 -35.989C66.4572 -35.5433 66.44 -35.4448 65.9006 -35.8436C65.4424 -36.1267 65.3267 -36.0454 65.2579 -35.6513C65.1374 -34.9618 65.364 -34.5161 65.8269 -34.8413C66.0756 -35.1024 66.2554 -34.9695 66.3663 -34.4425C66.6054 -33.4871 66.3472 -32.0095 66.1205 -32.4551C65.958 -32.6866 65.9283 -33.0978 65.9799 -33.3933C66.1177 -34.1814 65.8738 -34.5286 65.2139 -34.2378C64.8839 -34.0924 64.5884 -34.1441 64.4086 -34.277C64.3273 -34.3927 64.1131 -34.3287 64.0787 -34.1316C64.0442 -33.9346 64.1896 -33.6047 64.4679 -33.4545C64.7462 -33.3044 64.8916 -32.9744 64.8227 -32.5804C64.7711 -32.2849 64.5693 -31.7111 64.5177 -31.4155C64.3331 -30.9402 64.4144 -30.8245 65.0226 -30.8197C65.5324 -30.8321 65.6137 -30.7164 65.365 -30.4553C65.2321 -30.2755 65.2789 -29.9628 65.4587 -29.8299C65.737 -29.6797 65.6854 -29.3842 65.5525 -29.2044C65.4195 -29.0246 65.1068 -28.9777 64.8285 -29.1279C64.6487 -29.2608 64.4345 -29.1967 64.4172 -29.0982C64.3828 -28.9012 64.1982 -28.4259 64.0137 -27.9506C63.7774 -27.1797 63.6789 -27.1969 63.3365 -27.5613C62.8316 -28.1571 62.7455 -27.6646 63.1348 -26.9875C63.3614 -26.5418 63.3442 -26.4433 63.0487 -26.495C62.7532 -26.5466 62.7187 -26.3496 63.0439 -25.8867C63.4332 -25.2096 63.3471 -24.717 62.9703 -24.8844C62.7733 -24.9188 62.6575 -24.8375 62.5418 -24.7563C62.5074 -24.5592 62.7044 -24.5248 63.0984 -24.456C63.9037 -24.4167 63.8176 -23.9242 62.8794 -23.7836C62.451 -23.6555 62.2195 -23.4929 62.3993 -23.3599C62.5791 -23.227 62.6776 -23.2098 62.8106 -23.3896C62.845 -23.5866 63.0248 -23.4537 63.0717 -23.1409C63.2122 -22.2027 63.0449 -21.8259 62.604 -22.2075C62.3429 -22.4562 62.1287 -22.3921 62.0598 -21.9981C61.8924 -21.6212 62.055 -21.3898 62.5304 -21.2052C62.9072 -21.0379 63.0057 -21.0206 62.7914 -20.9566C62.4787 -20.9097 62.4615 -20.8112 62.8039 -20.4468C63.2276 -19.9667 63.2276 -19.9667 62.6365 -20.07C62.1612 -20.2546 62.144 -20.1561 62.5504 -19.5775C63.0382 -18.8831 63.0382 -18.8831 62.3314 -18.9051C61.6247 -18.9271 61.2087 -18.2892 61.7825 -18.0874C61.9795 -18.053 62.0952 -18.1343 62.2454 -18.4126C62.2798 -18.6096 62.5112 -18.7722 62.7083 -18.7378C63.1836 -18.5532 62.7676 -17.9153 62.1593 -17.92C61.6495 -17.9076 61.6495 -17.9076 62.0904 -17.526C62.3515 -17.2774 62.4328 -17.1616 62.2358 -17.1961C62.0388 -17.2305 61.9231 -17.1492 61.9059 -17.0507C61.9872 -16.935 61.7557 -16.7724 61.443 -16.7255C61.0317 -16.6959 61.0145 -16.5974 61.0442 -16.1861C61.091 -15.8734 61.1379 -15.5607 61.1207 -15.4621C61.1035 -15.3636 61.0174 -14.8711 61.0126 -14.2628C60.8701 -12.8665 60.8529 -12.768 60.7324 -12.0785C60.6808 -11.7829 60.7917 -11.256 60.9371 -10.926C61.3435 -10.3474 60.962 -9.90654 60.2896 -10.1255C59.7158 -10.3273 59.6814 -10.1303 59.9377 -9.27341C60.1127 -8.53222 60.0391 -7.52993 59.6183 -6.28376C59.4509 -5.90695 59.5274 -5.18297 59.6556 -4.75451C59.865 -4.21033 59.8306 -4.01332 59.5695 -4.26197C59.3084 -4.51063 59.1927 -4.42934 59.1879 -3.82108C59.1143 -2.8188 59.0798 -2.62178 58.682 1.9784C58.5175 4.08148 58.3014 6.48008 58.3607 7.30257C58.3215 8.10785 58.2651 9.01162 58.1962 9.40565C57.9428 10.275 58.1082 12.2327 58.4382 12.0873C58.5539 12.006 58.6352 12.1218 58.618 12.2203C58.5836 12.4173 58.3693 12.4814 58.2536 12.5627C57.5124 12.7377 57.4264 13.2302 57.3403 13.7228C57.3307 14.9393 57.2131 17.3551 57.1098 17.9461C57.0582 18.2417 57.1863 18.6701 57.2504 18.8843C57.413 19.1158 57.4082 19.724 57.3221 20.2166C57.0123 21.9897 56.887 23.2875 57.1309 23.6347C57.2935 23.8661 57.2935 23.8661 57.0965 23.8317C56.8009 23.78 56.7665 23.9771 56.7789 24.4868C56.8086 24.8981 56.7474 26.4101 56.6221 27.7079C56.1086 32.3894 56.0569 32.6849 55.8628 34.3767C55.8064 35.2805 55.75 36.1843 55.7968 36.497C55.8609 36.7113 55.8092 37.0068 55.6935 37.0881C55.5778 37.1694 55.6247 37.4821 55.6887 37.6963C55.8982 38.2405 55.091 40.5358 54.7142 40.3685C54.5172 40.334 54.5048 39.8243 54.5908 39.3317C54.6941 38.7407 54.7802 38.2482 54.7161 38.0339C54.6052 37.507 54.0199 40.8562 53.7569 42.9421C53.6316 44.2399 53.6909 45.0624 54.0333 45.4268C54.457 45.9069 54.4398 46.0054 53.7971 46.1976C53.2357 46.5056 53.098 47.2936 53.6202 47.7909C53.7014 47.9066 53.6029 47.8894 53.4231 47.7565C53.1448 47.6064 53.0119 47.7861 52.8742 48.5742C52.4735 51.4481 52.3358 52.2362 51.4597 54.9255C50.9873 56.4672 50.4336 57.8932 50.3178 57.9745C50.1849 58.1543 50.2662 58.27 50.5617 58.3217C50.9385 58.489 50.9213 58.5875 50.7367 59.0628C50.5694 59.4397 50.5005 59.8337 50.6631 60.0651C50.8257 60.2966 50.8381 60.8063 50.555 61.2644C50.2892 61.624 50.2375 61.9195 50.3705 61.7397C50.5034 61.56 50.8161 61.5131 50.9146 61.5303C51.2915 61.6977 50.9739 62.3528 50.2796 62.8405C49.701 63.247 49.6838 63.3455 50.2404 63.6458C50.6 63.9117 50.6641 64.1259 50.5139 64.4042C50.0166 64.9264 49.4504 65.8426 49.549 65.8598C50.0415 65.9459 50.4355 66.0148 50.9281 66.1008ZM101.234 -55.0479C101.204 -55.4591 101.204 -55.4591 101.547 -55.0947C101.953 -54.5161 101.936 -54.4176 101.542 -54.4865C101.362 -54.6194 101.199 -54.8509 101.234 -55.0479ZM95.6219 -54.3028C95.8064 -54.7782 95.9222 -54.8594 96.2473 -54.3966C96.4099 -54.1651 96.671 -53.9165 96.6538 -53.818C96.7523 -53.8007 96.5209 -53.6382 96.2894 -53.4756C95.6295 -53.1848 95.2871 -53.5492 95.6219 -54.3028ZM93.6278 -51.6058C93.5637 -51.8201 93.778 -51.8841 93.9578 -51.7512C94.2533 -51.6996 94.3174 -51.4853 94.2016 -51.404C94.0859 -51.3227 93.8717 -51.2587 93.8717 -51.2587C93.7732 -51.2759 93.6106 -51.5073 93.6278 -51.6058ZM101.4 -49.0294C101.435 -49.2264 101.666 -49.389 101.765 -49.3718C102.142 -49.2044 102.27 -48.776 101.94 -48.6306C101.593 -48.3867 101.233 -48.6526 101.4 -49.0294ZM69.4018 -48.3272C69.4706 -48.7213 69.7365 -49.0809 69.9507 -49.1449C70.165 -49.209 70.1946 -48.7978 70.01 -48.3224C69.6065 -47.1748 69.1139 -47.2609 69.4018 -48.3272ZM68.1738 -44.7857C68.2082 -44.9828 68.1097 -45 67.8783 -44.8374C67.6468 -44.6748 67.4326 -44.6107 67.5483 -44.692C67.5656 -44.7905 67.6172 -45.086 67.5703 -45.3988C67.5235 -45.7115 67.6392 -45.7928 67.8018 -45.5614C67.9644 -45.3299 68.0801 -45.4112 68.0332 -45.724C67.9864 -46.0367 68.2006 -46.1008 68.6587 -45.8177C69.5108 -45.4657 69.3511 -43.9709 68.5803 -44.2071C68.302 -44.3573 68.1394 -44.5887 68.1738 -44.7857ZM89.0526 -40.5281C89.0057 -40.8408 90.1285 -41.4567 90.5053 -41.2893C90.7023 -41.2549 90.7664 -41.0407 90.7492 -40.9422C90.732 -40.8437 90.4192 -40.7968 90.1237 -40.8485C89.7469 -41.0158 89.7297 -40.9173 89.9908 -40.6687C90.1534 -40.4372 90.2174 -40.223 89.986 -40.0604C89.5403 -39.8337 89.0822 -40.1168 89.0526 -40.5281ZM87.0346 -34.7898C87.6085 -34.588 87.7538 -34.258 87.3082 -34.0314C86.9782 -33.886 86.5201 -34.1691 86.4905 -34.5803C86.4264 -34.7945 86.7391 -34.8414 87.0346 -34.7898ZM87.1723 -35.5778C87.4679 -35.5262 87.6305 -35.2947 87.5147 -35.2135C87.4803 -35.0164 87.2661 -34.9524 87.1848 -35.0681C86.9878 -35.1025 86.9237 -35.3167 86.8424 -35.4325C86.7611 -35.5482 86.8768 -35.6295 87.1723 -35.5778ZM88.9914 -39.016C88.7943 -39.0505 88.9273 -39.2303 89.24 -39.2771C90.0797 -39.4349 90.5158 -38.4451 90.0482 -37.5116C89.5116 -36.1842 88.4749 -36.0608 88.7972 -37.3242C88.8661 -37.7182 89.0679 -38.292 89.2008 -38.4718C89.2352 -38.6689 89.1712 -38.8831 88.9914 -39.016ZM66.0076 -41.1037C66.0421 -41.3007 66.1578 -41.382 66.2391 -41.2663C66.3376 -41.249 66.4189 -41.1333 66.483 -40.9191C66.547 -40.7049 66.4313 -40.6236 66.2515 -40.7565C66.1702 -40.8722 65.9904 -41.0052 66.0076 -41.1037ZM69.7691 -36.4872C69.7863 -36.5858 70.0178 -36.7483 70.2148 -36.7139C70.4118 -36.6795 70.4979 -37.172 70.3056 -37.8147C70.1478 -38.6544 70.1526 -39.2627 70.6203 -40.1961C70.9378 -40.8512 71.3366 -41.3906 71.4351 -41.3734C71.5336 -41.3562 71.5977 -41.142 71.5805 -41.0435C71.546 -40.8464 71.6445 -40.8292 71.8416 -40.7948C72.27 -40.923 72.4622 -40.2803 72.1151 -40.0364C71.8836 -39.8738 71.7851 -39.891 71.6398 -40.221C71.4944 -40.5509 71.4944 -40.5509 71.3442 -40.2726C71.3098 -40.0756 71.0267 -39.6175 70.8594 -39.2407L70.5418 -38.5855L71.3175 -38.9576C72.226 -39.5094 72.5512 -39.0465 71.788 -38.1647C71.3892 -37.6253 71.2563 -37.4455 71.5174 -37.1969C71.6972 -37.064 71.6972 -37.064 71.6331 -37.2782C71.569 -37.4924 71.5862 -37.5909 71.7832 -37.5565C71.9802 -37.5221 71.9114 -37.128 71.8425 -36.734C71.6063 -35.9632 71.5078 -35.9804 70.013 -36.1401C69.8332 -36.273 69.7519 -36.3887 69.7691 -36.4872ZM74.4458 -35.3654C74.1503 -35.4171 73.9705 -35.55 74.0862 -35.6313C74.2019 -35.7126 74.4802 -35.5625 74.66 -35.4295C74.9383 -35.2794 74.8398 -35.2966 74.4458 -35.3654ZM78.6347 -34.938C78.6051 -35.3492 78.8193 -35.4133 79.1148 -35.3616C79.3119 -35.3272 79.4917 -35.1943 79.4744 -35.0958C79.4572 -34.9973 79.4228 -34.8002 79.4697 -34.4875C79.5165 -34.1748 79.3023 -34.1107 79.1053 -34.1451C78.7285 -34.3125 78.5659 -34.5439 78.6347 -34.938ZM70.3678 -35.266C69.9738 -35.3348 69.8112 -35.5663 69.8284 -35.6648C69.88 -35.9603 71.1262 -35.5395 71.5499 -35.0594C71.7297 -34.9264 71.7766 -34.6137 71.5623 -34.5496C71.2152 -34.3058 70.7398 -34.4903 70.7915 -34.7859C70.9244 -34.9657 70.6461 -35.1158 70.3678 -35.266ZM69.75 -34.0542C69.4545 -34.1059 69.4076 -34.4186 69.4592 -34.7141C69.661 -35.2879 69.8581 -35.2535 70.3802 -34.7562C70.8039 -34.2761 70.4223 -33.8352 69.75 -34.0542ZM94.8875 -25.7023C94.8531 -25.5053 94.6561 -25.5397 94.5576 -25.5569C94.3606 -25.5914 94.2965 -25.8056 94.3137 -25.9041C94.3481 -26.1011 94.5451 -26.0667 94.6436 -26.0495C94.8407 -26.015 94.9219 -25.8993 94.8875 -25.7023ZM74.7672 -30.2335C74.6859 -30.3492 74.7203 -30.5462 74.9518 -30.7088C75.0847 -30.8886 75.166 -30.7729 75.1143 -30.4774C74.8829 -30.3148 74.8485 -30.1178 74.7672 -30.2335ZM85.1382 -25.6802C85.4509 -25.7271 85.4853 -25.9241 85.2415 -26.2713C84.835 -26.8499 84.9211 -27.3424 85.362 -26.9608C85.6231 -26.7122 85.6231 -26.7122 85.3964 -27.1579C85.2338 -27.3893 85.2386 -27.9976 85.406 -28.3744C85.625 -29.0467 85.6422 -29.1452 86.1471 -28.5494C86.5708 -28.0693 86.6005 -27.658 86.3126 -26.5917C85.9903 -25.3283 85.8746 -25.247 85.3008 -25.4488C84.8082 -25.5349 84.8254 -25.6334 85.1382 -25.6802ZM66.353 -28.5569C66.0919 -28.8056 66.3061 -28.8697 66.9956 -28.7492C67.6852 -28.6287 67.865 -28.4957 67.8134 -28.2002C67.646 -27.8234 66.8751 -28.0596 66.353 -28.5569ZM67.097 -27.0057C67.1142 -27.1042 67.3285 -27.1683 67.4442 -27.2496C67.6584 -27.3136 67.7397 -27.1979 67.7053 -27.0009C67.6709 -26.8039 67.4566 -26.7398 67.3581 -26.757C67.1783 -26.89 67.097 -27.0057 67.097 -27.0057ZM84.0929 -20.2796C84.5213 -20.4077 84.551 -19.9965 84.3741 -18.4031C84.0642 -16.63 83.3823 -15.6325 83.2934 -16.8662C83.2465 -17.179 83.345 -17.1618 83.5248 -17.0288C83.7687 -16.6817 84.1302 -18.7503 83.9896 -19.6885C83.8442 -20.0185 83.8787 -20.2155 84.0929 -20.2796ZM62.7321 -21.779C62.8823 -22.0574 63.0965 -22.1214 63.2763 -21.9885C63.4561 -21.8556 63.3232 -21.6758 63.0917 -21.5132C62.4318 -21.2224 62.3333 -21.2396 62.7321 -21.779ZM67.2883 -19.9677C67.34 -20.2632 67.4088 -20.6572 67.3276 -20.773C67.2463 -20.8887 67.2166 -21.2999 67.3495 -21.4797C67.4012 -21.7752 67.3371 -21.9895 67.2214 -21.9082C67.0072 -21.8441 67.0416 -22.0411 67.1917 -22.3194C67.7579 -23.2356 68.61 -22.8837 68.1252 -21.8518C68.0907 -21.6547 68.1376 -21.342 68.3002 -21.1106C68.5441 -20.7634 68.4924 -20.4679 68.2266 -20.1083C67.9607 -19.7487 68.0248 -19.5344 68.2046 -19.4015C68.4016 -19.3671 68.4657 -19.1529 68.2514 -19.0888C67.7885 -18.7636 67.0866 -19.3939 67.2883 -19.9677ZM83.0696 -15.5856C82.7741 -15.6373 82.71 -15.8515 82.8257 -15.9328C82.9414 -16.0141 83.2542 -16.061 83.3527 -16.0438C83.5497 -16.0093 83.6138 -15.7951 83.5966 -15.6966C83.5793 -15.5981 83.3651 -15.534 83.0696 -15.5856ZM81.0995 -5.47383C80.693 -6.05244 80.9417 -6.31353 81.5155 -6.11174C82.1879 -5.89273 82.3973 -5.34856 82.0502 -5.10468C81.703 -4.8608 81.4247 -5.01094 81.0995 -5.47383ZM65.2083 -6.32205C64.9128 -6.37369 64.7502 -6.60514 64.8659 -6.68643C64.9003 -6.88344 65.1146 -6.94752 65.1959 -6.8318C65.3929 -6.79737 65.5555 -6.56593 65.5382 -6.46742C65.6023 -6.2532 65.4866 -6.1719 65.2083 -6.32205ZM63.8819 7.65832C63.8991 7.55981 64.1133 7.49573 64.229 7.41443C64.4433 7.35036 64.5246 7.46608 64.4901 7.6631C64.4557 7.86011 64.2415 7.92419 64.143 7.90697C63.9632 7.77404 63.8647 7.75682 63.8819 7.65832ZM78.4868 15.2863C78.4227 15.0721 78.5384 14.9908 78.7182 15.1237C78.9153 15.1582 78.9793 15.3724 78.9621 15.4709C78.9277 15.6679 78.812 15.7492 78.7307 15.6335C78.6322 15.6163 78.5681 15.402 78.4868 15.2863ZM74.2321 58.8035C74.2493 58.705 74.4636 58.6409 74.5621 58.6582C74.7763 58.5941 74.8576 58.7098 74.8232 58.9068C74.7887 59.1038 74.5745 59.1679 74.4932 59.0522C74.2962 59.0178 74.2149 58.902 74.2321 58.8035Z" fill="white"/>
<path d="M71.4405 62.5793C71.4232 62.6778 71.4873 62.8921 71.6843 62.9265C71.8814 62.9609 71.9971 62.8796 71.9158 62.7639C71.8517 62.5497 71.7704 62.434 71.6719 62.4167C71.5734 62.3995 71.4577 62.4808 71.4405 62.5793Z" fill="white"/>
<path d="M72.9152 61.1113C72.8808 61.3083 73.095 61.2442 73.3436 60.9831C73.6095 60.6235 73.6267 60.525 73.314 60.5719C73.0998 60.636 72.9496 60.9143 72.9152 61.1113Z" fill="white"/>
<path d="M63.415 -29.1719C63.1194 -29.2235 63.0037 -29.1422 63.085 -29.0265C63.1491 -28.8123 63.2304 -28.6965 63.3289 -28.6793C63.4274 -28.6621 63.5431 -28.7434 63.6588 -28.8247C63.7918 -29.0045 63.612 -29.1374 63.415 -29.1719Z" fill="white"/>
<path d="M63.4197 -29.7801C63.4542 -29.9771 63.3729 -30.0929 63.1759 -30.1273C62.9788 -30.1617 62.8631 -30.0804 62.8459 -29.9819C62.8115 -29.7849 62.8928 -29.6692 63.0898 -29.6347C63.1883 -29.6175 63.4025 -29.6816 63.4197 -29.7801Z" fill="white"/>
<path d="M64.5894 -30.0833C64.4268 -30.3147 64.4784 -30.6103 64.6927 -30.6743C64.8084 -30.7556 64.6114 -30.7901 64.1829 -30.6619C63.2447 -30.5213 63.2744 -30.1101 64.2422 -29.8394C64.619 -29.6721 64.7348 -29.7534 64.5894 -30.0833Z" fill="white"/>
<path d="M64.1102 -36.0549C63.9132 -36.0894 63.699 -36.0253 63.6818 -35.9268C63.6473 -35.7298 63.6301 -35.6313 63.7286 -35.614C63.8271 -35.5968 63.9428 -35.6781 64.1571 -35.7422C64.3885 -35.9048 64.3072 -36.0205 64.1102 -36.0549Z" fill="white"/>
<path d="M103.565 -50.3769C103.629 -50.1627 103.762 -50.3425 103.848 -50.835C104.015 -51.2119 103.951 -51.4261 103.818 -51.2463C103.668 -50.968 103.501 -50.5912 103.565 -50.3769Z" fill="white"/>
<path d="M104.31 -55.221C104.275 -55.024 104.339 -54.8098 104.536 -54.7753C104.733 -54.7409 104.849 -54.8222 104.999 -55.1005C105.034 -55.2975 104.97 -55.5118 104.772 -55.5462C104.575 -55.5806 104.344 -55.418 104.31 -55.221Z" fill="white"/>
<path d="M81.0437 -63.2459C81.5831 -62.847 81.5831 -62.8471 81.9647 -63.2879C82.2306 -63.6475 82.1493 -63.7633 81.541 -63.768C80.6545 -63.923 80.5043 -63.6447 81.0437 -63.2459Z" fill="white"/>
<path d="M103.467 -56.7895C103.415 -56.4939 103.462 -56.1812 103.561 -56.164C103.758 -56.1296 103.873 -56.2109 104.024 -56.4892C104.058 -56.6862 104.011 -56.9989 103.93 -57.1146C103.733 -57.1491 103.617 -57.0678 103.467 -56.7895Z" fill="white"/>
<path d="M82.5825 -64.4997C82.7843 -65.0735 82.6045 -65.2064 82.2229 -64.7656C82.09 -64.5858 82.0383 -64.2902 82.1196 -64.1745C82.2994 -64.0416 82.4324 -64.2214 82.5825 -64.4997Z" fill="white"/>
<path d="M80.0012 -66.575C79.5259 -66.7596 79.2132 -66.7127 78.9645 -66.4516C78.6001 -66.1092 78.6814 -65.9935 79.7306 -65.6072C80.4029 -65.3881 80.994 -65.2849 80.994 -65.2849C81.3239 -65.4302 80.6564 -66.2575 80.0012 -66.575Z" fill="white"/>
<path d="M103.178 -59.7839C102.998 -59.9168 102.883 -59.8355 102.848 -59.6385C102.814 -59.4415 102.861 -59.1288 102.942 -59.013C103.122 -58.8801 103.237 -58.9614 103.272 -59.1584C103.324 -59.4539 103.358 -59.651 103.178 -59.7839Z" fill="white"/>
<path d="M81.9494 -65.524C82.1464 -65.4895 82.2621 -65.5708 82.3138 -65.8663C82.3482 -66.0634 82.3826 -66.2604 82.2841 -66.2776C82.1856 -66.2948 82.0699 -66.2135 81.9197 -65.9352C81.7696 -65.6569 81.7696 -65.6569 81.9494 -65.524Z" fill="white"/>
<path d="M81.4023 -67.0408C81.4368 -67.2378 81.4712 -67.4348 81.3727 -67.452C81.2742 -67.4692 81.1412 -67.2894 81.0083 -67.1096C80.8754 -66.9298 80.8409 -66.7328 81.038 -66.6984C81.1365 -66.6812 81.3507 -66.7453 81.4023 -67.0408Z" fill="white"/>
<path d="M101.025 -61.9874C100.511 -61.3667 100.511 -61.3667 101.351 -61.5245C102.7 -61.6947 103.274 -61.4929 102.498 -61.1209C101.838 -60.8302 101.572 -60.4706 102.048 -60.286C102.245 -60.2516 102.592 -60.4954 102.939 -60.7393C103.419 -61.163 103.454 -61.36 103.111 -61.7244C102.85 -61.973 102.722 -62.4015 102.774 -62.697C102.958 -63.1723 102.86 -63.1896 102.298 -62.8816C101.87 -62.7534 101.291 -62.347 101.025 -61.9874Z" fill="white"/>
<path d="M80.9318 -67.8336C80.7864 -68.1636 80.3407 -67.9369 80.3704 -67.5257C80.4173 -67.2129 80.4173 -67.2129 80.7472 -67.3583C80.8629 -67.4396 81.0131 -67.7179 80.9318 -67.8336Z" fill="white"/>
<path d="M84.8003 -68.4773C84.8176 -68.5758 84.9849 -68.9526 85.2336 -69.2137C85.4994 -69.5733 85.5511 -69.8688 85.3072 -70.216C85.0805 -70.6616 84.982 -70.6789 84.5192 -70.3537C83.9233 -69.8487 83.1525 -70.0849 82.7805 -70.8606C82.571 -71.4047 82.4553 -71.3234 82.2018 -70.4541C81.8327 -69.5035 82.2047 -68.7278 82.7193 -69.3485C82.8522 -69.5283 83.3792 -69.6393 83.756 -69.4719C84.3298 -69.2701 84.4111 -69.1544 84.128 -68.6963C83.712 -68.0584 83.6948 -67.9599 84.436 -68.1349C84.5517 -68.2162 84.7831 -68.3788 84.8003 -68.4773Z" fill="white"/>
<path d="M103.263 -64.3372C102.8 -64.012 102.732 -63.618 103.276 -63.8275C103.374 -63.8102 103.524 -64.0886 103.576 -64.3841C103.726 -64.6624 103.628 -64.6796 103.263 -64.3372Z" fill="white"/>
<path d="M92.0009 -68.4371C92.0822 -68.3214 92.1807 -68.3042 92.3949 -68.3683C92.5107 -68.4496 92.6436 -68.6294 92.7593 -68.7107C92.7938 -68.9077 92.6953 -68.9249 92.3653 -68.7795C92.0526 -68.7327 91.9196 -68.5529 92.0009 -68.4371Z" fill="white"/>
<path d="M94.2293 -69.5705C94.1949 -69.3735 94.2761 -69.2577 94.4732 -69.2233C94.6702 -69.1889 94.7859 -69.2702 94.8031 -69.3687C94.8375 -69.5657 94.7562 -69.6814 94.5592 -69.7158C94.4779 -69.8316 94.2637 -69.7675 94.2293 -69.5705Z" fill="white"/>
<path d="M97.0879 -71.4058C97.4695 -71.8467 97.6196 -72.125 97.457 -72.3564C97.2945 -72.5879 97.0802 -72.5238 96.7971 -72.0657C96.231 -71.1495 96.4404 -70.6053 97.0879 -71.4058Z" fill="white"/>
<path d="M93.5244 -71.927C93.6057 -71.8113 93.7214 -71.8926 93.7731 -72.1881C93.8247 -72.4836 93.8419 -72.5821 93.6105 -72.4195C93.4775 -72.2397 93.4431 -72.0427 93.5244 -71.927Z" fill="white"/>
<path d="M92.6646 -73.3969C92.5489 -73.3156 92.3988 -73.0373 92.3299 -72.6433L92.2266 -72.0523L92.7239 -72.5745C93.1399 -73.2124 93.1103 -73.6236 92.6646 -73.3969Z" fill="white"/>
<path d="M95.2096 -68.7901C95.244 -68.9871 95.1627 -69.1028 95.0642 -69.12C94.9657 -69.1372 94.85 -69.0559 94.8155 -68.8589C94.7811 -68.6619 94.8624 -68.5462 94.9609 -68.529C95.0594 -68.5118 95.1751 -68.5931 95.2096 -68.7901Z" fill="white"/>
</g>
</g>
<path d="M93.5632 77.3832C92.3547 77.3832 91.142 77.3832 89.9335 77.3832C89.784 77.3832 89.6388 77.3911 89.5748 77.5359C89.5107 77.6846 89.6132 77.7786 89.7199 77.8725C89.9762 78.0995 90.2281 78.3305 90.4758 78.5614C90.8131 78.8785 90.8131 79.2856 90.4672 79.6026C90.0402 79.994 89.6089 80.3855 89.1733 80.7691C88.8317 81.0744 88.3919 81.0783 88.0545 80.773C86.5343 79.3834 85.0098 77.9899 83.4981 76.5926C82.8405 75.9859 82.832 75.0269 83.4853 74.4241C85.0141 73.0071 86.5557 71.6097 88.093 70.2045C88.3919 69.9344 88.8488 69.9305 89.152 70.2006C89.6132 70.6077 90.0658 71.0226 90.51 71.4453C90.8131 71.735 90.8046 72.1382 90.4971 72.4278C90.2367 72.6744 89.9634 72.9171 89.6943 73.1598C89.5961 73.2459 89.5192 73.3398 89.5748 73.469C89.6345 73.606 89.7626 73.6256 89.9078 73.6256C92.3077 73.6217 94.7034 73.6256 97.1033 73.6217C97.6969 73.6217 98.0001 73.8917 98.0001 74.4358C98.0001 75.16 98.0001 75.8841 98.0001 76.6082C98.0001 77.0975 97.6841 77.3832 97.1503 77.3832C95.9546 77.3832 94.7589 77.3832 93.5632 77.3832Z" fill="white"/>
<defs>
<filter id="filter0_d" x="6.10352e-05" y="0" width="180" height="180" filterUnits="userSpaceOnUse" color-interpolation-filters="sRGB">
<feFlood flood-opacity="0" result="BackgroundImageFix"/>
<feColorMatrix in="SourceAlpha" type="matrix" values="0 0 0 0 0 0 0 0 0 0 0 0 0 0 0 0 0 0 127 0"/>
<feOffset dy="15"/>
<feGaussianBlur stdDeviation="30"/>
<feColorMatrix type="matrix" values="0 0 0 0 0.188235 0 0 0 0 0.670588 0 0 0 0 0.466667 0 0 0 0.15 0"/>
<feBlend mode="multiply" in2="BackgroundImageFix" result="effect1_dropShadow"/>
<feBlend mode="normal" in="SourceGraphic" in2="effect1_dropShadow" result="shape"/>
</filter>
<linearGradient id="paint0_linear" x1="90.0001" y1="45" x2="147.049" y2="92.541" gradientUnits="userSpaceOnUse">
<stop stop-color="#32AB77"/>
<stop offset="1" stop-color="#1F983A"/>
</linearGradient>
<linearGradient id="paint1_linear" x1="90.0001" y1="45" x2="147.049" y2="92.541" gradientUnits="userSpaceOnUse">
<stop stop-color="#32AB77"/>
<stop offset="1" stop-color="#1F983A"/>
</linearGradient>
</defs>
</svg>
