<svg width="610" height="610" viewBox="0 0 610 610" fill="none" xmlns="http://www.w3.org/2000/svg">
<path d="M206.309 593.188C178.786 585.32 153.765 572.644 130.511 556.18C97.6897 533.014 69.7254 505.039 48.0899 471.236C31.017 444.719 18.5066 416.162 10.2645 385.71C2.3168 356.133 -0.626807 326.264 0.109095 295.813C0.992178 263.613 6.87939 232.433 18.2123 202.273C37.7873 150.258 68.2536 106.111 111.525 70.5599C137.134 49.579 165.687 33.2605 196.448 21.3131C201.893 19.1276 207.486 16.7963 213.373 15.7764C214.551 15.1936 216.023 14.7565 216.906 15.485C220.291 18.1076 220.144 18.1076 223.971 16.942C237.805 12.7167 251.64 9.21991 266.211 9.51131C270.48 9.65701 274.306 8.05431 278.427 7.4715C285.639 7.3258 292.851 7.1801 300.21 6.8887C305.214 6.3059 310.365 6.1602 315.37 6.8887C401.617 9.51131 473.441 43.3139 532.019 105.382C533.491 106.839 535.846 107.714 535.993 110.336C536.582 111.065 536.582 111.647 535.993 112.376C530.989 113.687 528.928 109.608 526.426 106.985C505.232 84.6928 480.947 66.3345 454.013 51.3274C434.88 40.6912 414.569 32.9691 393.522 27.1411C365.558 19.419 337.005 15.3393 307.863 16.3592C285.345 17.0877 263.12 20.4389 241.043 25.247C210.871 31.6578 183.202 43.7509 157.003 59.1952C117.265 82.653 84.5906 113.833 59.57 152.444C42.4971 178.815 30.4283 207.373 22.7749 237.678C18.801 253.414 17.0348 269.587 15.2687 285.76C12.7666 308.343 14.8271 330.781 17.182 353.219C19.2425 372.306 25.5713 390.518 31.9001 408.731C44.4104 444.428 64.7213 475.462 89.1532 503.873C108.287 526.166 131.541 544.232 157.003 559.24C172.605 568.564 189.236 575.704 205.867 582.697C208.222 584.446 211.902 585.32 210.724 589.4C210.136 591.585 209.988 594.645 206.309 593.188Z" fill="#EFF5F2"/>
<path d="M606.492 322.185C606.345 349.431 602.96 375.948 594.424 402.029C580.294 445.01 558.364 483.184 527.309 516.258C519.067 525 510.236 533.014 500.964 540.59C498.315 540.007 498.315 540.007 499.934 537.53C481.978 549.623 465.494 563.319 445.33 570.896C438.56 574.83 431.201 577.452 424.136 580.803C422.664 581.386 421.192 581.532 419.72 581.386C418.543 581.241 417.513 580.949 416.63 580.075C416.482 575.85 419.868 575.121 422.664 573.955C445.624 563.902 466.671 550.789 486.393 535.636C488.895 534.034 490.514 531.12 493.752 530.537C501.847 526.457 508.176 520.338 514.799 514.51C518.626 511.159 514.063 507.079 516.565 503.873C526.426 492.072 536.582 480.707 545.413 468.177C563.957 442.242 577.939 414.122 587.065 383.67C591.186 370.12 593.393 356.424 596.043 342.583C597.22 336.755 600.458 331.364 600.752 325.245C602.371 323.35 603.696 321.456 606.492 322.185Z" fill="#EFF5F2"/>
<path d="M430.17 584.009C407.504 594.208 383.661 601.201 359.229 605.281C328.763 610.381 298.002 611.983 267.389 606.884C262.385 606.01 257.086 606.447 252.229 604.553C250.757 603.533 248.991 604.115 247.372 603.824C243.104 603.096 240.749 601.201 243.398 596.685C246.342 594.791 249.433 595.373 252.671 596.102C272.54 600.473 292.557 602.804 312.867 602.659C332.442 602.513 351.723 599.89 370.857 596.102C377.185 594.936 384.103 595.519 389.696 591.148C391.167 590.274 392.786 589.837 394.405 589.691C399.115 590.42 403.089 587.506 407.504 586.777C413.833 585.32 419.426 581.969 425.608 580.221C427.963 578.909 430.317 578.181 432.967 578.764C437.382 583.135 430.759 582.115 430.17 584.009Z" fill="#EFF5F2"/>
<path d="M278.722 7.47151C273.276 11.2597 266.947 9.80272 261.06 10.8226C247.519 13.0081 233.979 15.7764 220.88 20.0018C219.114 20.5846 217.053 20.2932 214.698 20.5846C215.434 18.5448 220.585 15.485 213.815 15.9221C222.204 11.114 231.624 9.65702 240.749 7.47151C269.449 0.769284 298.591 -0.979123 328.027 0.477883C342.156 1.06069 356.286 2.80909 370.121 7.18011C332.737 1.49779 295.5 1.06069 258.852 8.49142C265.181 10.6769 271.804 6.01451 278.722 7.47151Z" fill="#EFF5F2"/>
<path d="M607.228 257.639C607.817 265.507 610.613 273.084 609.878 281.243C609.583 283.866 610.025 286.488 606.787 289.111C607.817 276.726 605.021 265.799 602.666 254.58C599.428 250.063 599.133 244.526 597.956 239.573C589.861 205.187 576.173 173.425 556.304 144.139C554.243 141.225 551.741 138.311 551.888 134.377C552.33 133.211 553.066 132.337 554.243 132.191C563.074 141.807 569.403 153.172 575.437 164.537C586.623 185.226 595.601 206.79 601.194 229.519C603.549 238.844 605.315 248.315 607.228 257.639Z" fill="#EFF5F2"/>
<path d="M430.17 584.009C429.582 581.532 434.88 582.697 432.967 579.492C435.469 573.518 441.798 573.664 446.36 571.187C447.832 570.459 449.745 570.896 450.923 569.876C449.009 570.604 447.096 571.333 445.035 569.876C457.546 564.631 468.584 556.909 479.917 549.478C486.393 545.252 492.722 540.881 499.051 536.51C501.258 537.239 496.549 541.173 500.964 540.736C479.77 558.803 455.927 573.081 430.17 584.009Z" fill="#EFF5F2"/>
<path d="M206.309 593.188C213.226 590.274 209.4 587.36 206.309 584.446C207.192 583.426 208.369 582.989 209.547 583.426C215.287 585.757 221.468 586.923 227.503 588.817C228.975 589.254 229.858 590.274 230.446 591.731C230.446 592.022 230.594 592.314 230.446 592.459C227.061 594.936 226.767 595.228 226.767 599.162C219.997 596.685 212.196 597.996 206.309 593.188Z" fill="#EFF5F2"/>
<path d="M554.243 132.337C553.949 133.357 553.36 134.085 552.183 134.231C544.529 131.171 542.616 122.866 537.023 117.913C535.551 116.601 534.668 114.853 535.993 112.813C536.14 111.939 536.287 111.21 536.435 110.336C543.646 116.601 548.798 124.469 554.243 132.337Z" fill="#EFF5F2"/>
<path d="M226.62 599.016C225.148 596.685 223.676 594.354 222.057 591.585C225.001 592.022 227.65 592.314 230.152 592.605C232.801 590.857 234.715 591.877 236.481 593.916C237.953 596.976 236.775 599.307 234.273 601.347C231.33 602.076 228.975 600.619 226.62 599.016Z" fill="#EFF5F2"/>
<path d="M606.492 322.185C605.168 323.205 603.843 324.079 602.518 325.099C600.164 322.768 600.311 320.291 602.077 317.814C603.254 315.046 600.311 309.509 604.579 309.509C608.847 309.509 605.904 315.046 606.934 317.814C606.787 319.125 606.64 320.582 606.492 322.185Z" fill="#EFF5F2"/>
<path d="M234.273 601.493C234.715 599.307 235.156 596.976 235.745 594.791C237.364 593.188 238.983 594.353 240.602 594.791C241.926 595.373 243.104 596.102 243.545 597.559C242.221 604.99 249.727 601.639 252.082 604.407C245.753 606.01 240.602 600.764 234.273 601.493Z" fill="#EFF5F2"/>
<path d="M315.664 7.0344C310.66 7.0344 305.508 7.0344 300.504 7.0344C305.508 4.84889 310.513 4.99459 315.664 7.0344Z" fill="#EFF5F2"/>
<path d="M358.199 594.645C378.216 591.585 397.055 583.863 416.924 579.929C417.954 579.929 418.985 580.075 420.015 580.075C420.162 584.155 416.188 583.572 413.98 584.883C411.773 586.194 409.123 586.631 406.769 587.651C402.795 588.671 398.968 590.128 394.994 591.44C393.375 591.585 391.756 591.585 390.284 591.731C389.254 593.771 387.194 594.062 385.427 594.354C376.449 595.519 367.913 598.142 358.935 599.162C355.844 599.453 352.753 599.89 350.398 596.831C352.901 594.062 355.844 595.956 358.199 594.645Z" fill="#EFF5F2"/>
<path d="M509.648 514.364C512.15 511.013 514.799 507.807 518.331 505.33C518.037 506.059 517.448 507.079 517.596 507.37C522.747 514.218 515.388 516.112 512.444 519.172C507.44 524.126 502.289 529.517 494.93 531.557C493.899 528.351 496.107 526.748 498.315 525.146C502.436 521.94 506.41 518.444 509.648 514.364Z" fill="#EFF5F2"/>
<path d="M509.648 514.364C509.648 519.172 505.232 520.629 502.73 523.543C500.228 526.311 496.107 527.623 494.93 531.557C491.545 531.557 491.839 536.51 488.454 536.219C486.982 536.073 485.657 535.928 482.861 535.782C492.28 527.914 500.228 520.192 509.648 514.364Z" fill="#EFF5F2"/>
<path d="M445.035 569.73C446.949 569.73 448.862 569.73 451.07 569.73C445.183 573.955 438.118 574.83 432.967 579.492C430.612 580.075 428.257 580.803 425.902 581.386C425.166 580.803 424.136 580.658 424.136 579.492C430.317 574.83 438.265 573.518 445.035 569.73Z" fill="#EFF5F2"/>
<path d="M423.989 579.492C424.577 580.075 425.166 580.803 425.755 581.386C419.868 583.717 413.833 586.049 407.946 588.234C407.21 587.943 406.327 587.797 406.18 586.923C409.859 582.843 416.482 584.737 419.868 580.075C421.339 579.783 422.664 579.638 423.989 579.492Z" fill="#EFF5F2"/>
<path d="M358.199 594.645C356.139 595.228 354.225 595.811 350.104 596.976C365.264 598.433 377.48 592.897 390.284 591.44C389.107 597.413 383.367 596.248 379.835 596.831C353.489 601.784 326.997 605.572 299.916 604.115C283.579 603.241 267.389 602.221 251.493 598.142C248.991 597.559 246.195 597.705 243.545 597.559C242.221 597.413 240.896 597.268 240.308 595.811C250.316 587.943 260.766 594.499 270.921 595.228C276.367 595.519 281.96 596.685 287.405 596.976C305.067 597.705 322.729 598.433 340.39 596.976C346.425 596.685 351.87 592.751 358.199 594.645Z" fill="#EFF5F2"/>
<path d="M406.18 586.923C406.769 587.36 407.357 587.797 407.946 588.234C403.531 588.963 399.851 592.897 394.994 591.294C397.496 586.777 402.5 588.526 406.18 586.923Z" fill="#EFF5F2"/>
<path d="M322.434 601.493C324.348 601.784 326.261 601.93 328.174 602.221C328.174 602.513 328.174 602.658 328.174 602.95C316.547 602.95 304.92 602.95 293.292 602.95C292.998 602.95 292.704 602.95 292.557 602.95C291.526 601.784 293.145 602.221 293.292 601.784C303.006 600.473 312.72 600.764 322.434 601.493Z" fill="#EFF5F2"/>
<path d="M322.434 601.493C312.72 601.493 303.006 601.639 293.292 601.639C303.006 598.87 312.72 599.599 322.434 601.493Z" fill="#EFF5F2"/>
</svg>
