<svg width="60" height="60" viewBox="60 45 60 60" fill="none" xmlns="http://www.w3.org/2000/svg">
<g filter="url(#filter0_d)">
<circle r="30" transform="matrix(-1 0 0 1 90.0001 75)" fill="url(#paint0_linear)"/>
</g>
<mask id="mask0" mask-type="alpha" maskUnits="userSpaceOnUse" x="60" y="45" width="60" height="60">
<circle r="30" transform="matrix(-1 0 0 1 90.0001 75)" fill="url(#paint1_linear)"/>
</mask>
<g mask="url(#mask0)">
<g opacity="0.25">
<path d="M-0.624504 196.429C-0.987939 195.951 -1.09009 195.652 -0.790817 195.55C-0.571111 195.508 -0.552112 195.368 -0.813401 195.19C-1.01412 195.091 -1.19582 194.853 -1.09726 194.652C-1.07826 194.512 -1.30157 194.053 -1.54386 193.735C-1.86572 193.477 -2.02844 193.099 -1.94886 193.038C-1.78973 192.917 -2.23991 191.5 -2.56177 191.242C-2.62234 191.163 -2.78147 191.284 -2.94061 191.405C-3.09974 191.526 -3.13774 191.807 -2.93702 191.905C-2.81588 192.064 -2.75529 192.144 -2.89544 192.125C-3.03558 192.106 -3.25888 191.647 -3.38361 190.988C-3.50834 190.329 -3.91335 189.632 -4.29578 189.295C-4.79936 188.798 -4.85992 188.719 -4.52266 188.336C-4.20439 188.094 -4.16641 187.814 -4.34812 187.575C-4.52984 187.336 -4.74955 187.378 -4.84811 187.579C-4.94667 187.779 -5.16638 187.821 -5.28753 187.662C-5.40867 187.503 -5.38967 187.363 -5.0904 187.26C-4.87069 187.219 -4.69257 186.958 -4.73414 186.738C-4.77572 186.518 -4.91586 186.499 -4.95385 186.779C-4.99184 187.06 -5.13198 187.041 -5.41584 186.503C-5.57856 186.124 -5.74129 185.745 -5.72229 185.605C-5.70329 185.465 -5.86602 185.086 -6.24845 184.749C-6.63089 184.411 -6.79361 184.033 -6.71403 183.972C-6.63446 183.911 -6.7402 183.112 -6.98608 182.294C-7.23195 181.476 -7.31869 180.536 -7.22013 180.336C-7.12157 180.135 -7.10616 179.495 -7.18932 179.055C-7.27247 178.616 -7.35563 178.176 -7.13593 178.135C-6.99578 178.154 -6.95779 177.874 -7.13951 177.635C-7.44237 177.237 -7.36281 177.176 -6.98038 177.514C-6.4768 178.01 -6.23809 177.828 -6.1657 176.768C-6.07073 176.067 -5.99117 176.007 -5.57075 176.064C-5.2299 176.181 -5.15032 176.121 -5.41161 175.942C-5.53276 175.783 -5.6539 175.624 -5.51376 175.643C-5.37361 175.662 -5.25605 175.321 -5.27864 174.961C-5.30122 174.602 -5.34998 173.382 -5.41772 172.302C-5.50805 170.863 -5.3525 170.242 -4.97366 170.079C-4.73496 169.897 -4.55684 169.636 -4.61741 169.557C-4.93927 169.299 -3.96904 167.932 -3.56762 168.129C-3.3669 168.228 -3.34791 168.087 -3.3705 167.728C-3.47264 167.428 -3.37408 167.228 -3.15438 167.186C-2.93467 167.144 -2.83611 166.944 -2.95726 166.785C-2.99883 166.565 -2.90027 166.364 -2.88127 166.224C-2.72214 166.103 -2.66156 166.182 -2.60099 166.262C-2.61999 166.402 -2.3587 166.58 -1.99885 166.558C-1.57843 166.615 -1.51786 166.694 -1.87771 166.717C-2.09741 166.758 -2.29454 167.16 -2.21139 167.599C-2.12464 168.539 -1.64365 168.675 -1.66982 167.815C-1.6924 167.456 -1.57484 167.115 -1.49528 167.054C-1.01787 166.691 -0.900314 166.35 -1.26375 165.872C-1.56661 165.475 -1.70675 165.456 -2.02502 165.698C-2.8397 166.444 -0.326878 162.646 1.08275 161.195C1.42002 160.813 1.63614 160.271 1.67413 159.991C1.65154 159.631 1.98881 159.249 2.22751 159.067C2.84505 158.723 3.516 157.458 3.96365 155.735C4.13819 154.973 4.39589 154.652 4.67617 154.69C4.87688 154.788 5.27472 154.485 5.53242 154.163C6.5822 152.736 8.01083 151.146 8.27211 151.324C8.33268 151.403 8.88965 150.979 9.40505 150.335C10 149.631 10.4168 149.188 10.538 149.347C10.7197 149.586 11.038 149.344 11.9322 148.537C12.2505 148.295 12.4702 148.253 12.5723 148.553C12.6745 148.852 12.8146 148.871 12.9132 148.67C12.6519 148.492 12.6103 148.272 12.4892 148.113C12.2279 147.935 13.1031 147.269 13.8608 146.943C14.3192 146.72 14.6185 146.618 15.1149 146.114C15.3536 145.933 15.4938 145.952 15.6149 146.111C15.6565 146.331 15.8762 146.289 15.9747 146.088C16.1339 145.967 16.0923 145.747 15.9522 145.728C15.812 145.709 15.85 145.429 16.0887 145.247C16.3274 145.066 16.6267 144.964 16.6873 145.043C16.8084 145.202 17.0471 145.021 17.2442 144.619C17.4414 144.218 17.6801 144.036 17.8618 144.275C17.9829 144.434 18.2026 144.392 18.2216 144.252C18.2406 144.112 18.4603 144.07 18.661 144.169C18.8618 144.267 18.9413 144.207 18.6195 143.949C18.1159 143.453 18.7714 142.828 19.3546 143.264C19.8166 143.541 20.0363 143.499 20.1728 143.018C20.5671 142.215 21.124 141.791 21.7452 141.947C22.2867 142.163 22.2867 142.163 22.2226 141.583C22.1584 141.004 22.1584 141.004 22.7986 141.019C23.2985 141.016 23.6774 140.853 23.8745 140.451C24.3293 139.728 24.9469 139.384 25.0906 139.903C25.1512 139.982 25.492 140.1 25.7117 140.058C26.3709 139.933 26.4694 139.733 26.087 139.396C25.9658 139.236 25.9433 138.877 26.0608 138.536C26.3565 137.934 27.0346 137.669 27.2959 137.847C27.3565 137.926 27.9135 137.502 28.4099 136.999C28.9858 136.435 29.5428 136.011 29.6829 136.03C29.8231 136.049 30.5202 135.644 31.1757 135.019C31.8313 134.394 32.5474 133.849 32.7671 133.807C33.5058 133.622 34.7598 132.793 36.2111 131.563C38.1397 129.969 38.2192 129.908 39.3593 129.92C39.9199 129.996 40.2987 129.833 40.1586 129.814C39.9769 129.576 41.6252 127.944 41.9851 127.921C42.1252 127.94 42.3033 127.679 42.4209 127.338C42.5385 126.997 42.9363 126.694 43.156 126.653C43.4553 126.551 44.1524 126.146 44.7284 125.581C45.3043 125.017 45.8613 124.593 46.081 124.552C46.3007 124.51 46.8577 124.086 47.3541 123.583C48.9834 122.091 50.2981 121.341 50.6199 121.599C50.7411 121.758 50.8207 121.698 50.7185 121.398C50.6353 120.959 50.7945 120.838 51.969 120.069C52.7457 119.604 54.337 118.392 55.5685 117.203C56.7395 115.935 57.933 115.026 58.0731 115.045C58.2928 115.004 58.6907 114.701 59.0279 114.319C59.3652 113.936 59.763 113.633 60.0433 113.671C60.3842 113.789 60.4637 113.728 60.2024 113.55C60.0813 113.391 60.1193 113.111 60.2974 112.849C60.6347 112.467 60.6953 112.547 60.839 113.066C60.9031 113.645 60.9031 113.645 61.1798 113.183C61.5135 112.301 63.4575 110.067 63.4611 110.567C63.3436 110.907 63.4837 110.926 63.8625 110.764C64.4611 110.559 64.5407 110.499 64.0977 110.082C63.9159 109.843 64.0525 109.362 64.6475 108.658C65.0833 108.075 65.398 107.333 65.436 107.052C65.3112 106.393 66.0463 105.708 67.2814 105.019C68.4975 104.47 70.1494 103.338 72.2788 101.843C73.154 101.177 74.0708 100.73 74.211 100.749C74.4117 100.848 74.5708 100.727 74.5482 100.367C74.5256 100.007 74.6242 99.8063 74.7038 99.7457C74.7833 99.6851 74.7833 99.6851 74.8629 99.6245C75.1586 99.0224 75.5754 98.5794 75.8557 98.6174C75.9768 98.7765 76.2156 98.5948 76.3937 98.3335C76.5718 98.0722 76.8901 97.83 77.1894 97.7278C77.4886 97.6257 77.8069 97.3834 78.004 96.9819C78.1406 96.5009 78.3603 96.4594 78.542 96.6981C78.7237 96.9368 79.023 96.8346 79.3413 96.5923C79.58 96.4106 79.9778 96.1078 80.2165 95.926C80.3756 95.8049 80.4932 95.464 80.4326 95.3845C80.391 95.1648 80.6298 94.9831 80.948 94.7408C81.4064 94.5175 81.505 94.3168 81.2247 94.2788C81.024 94.1802 81.043 94.0401 81.4218 93.8773C81.8802 93.654 81.8802 93.654 81.7627 93.9949C81.6641 94.1956 81.6261 94.4759 81.6867 94.5555C81.7473 94.635 81.6297 94.9759 81.391 95.1576C81.0728 95.3999 80.9552 95.7407 81.1369 95.9794C81.2581 96.1386 81.3792 96.2977 81.3376 96.078C81.3566 95.9379 81.5158 95.8167 81.6559 95.8357C81.9967 95.9533 82.929 94.8666 83.3422 93.9236C83.4598 93.5827 83.5809 93.7418 83.5845 94.2418C83.6713 95.1812 83.872 95.2798 84.5691 94.8748C84.9479 94.7121 85.3078 94.6895 85.2888 94.8296C85.3303 95.0493 85.4705 95.0683 85.6296 94.9472C85.7888 94.826 85.9895 94.9246 86.2508 95.1027C86.5536 95.5006 86.8339 95.5386 87.0916 95.2167C87.4289 94.8343 87.4479 94.6941 87.0274 94.6371C86.7472 94.5991 86.4859 94.421 86.5049 94.2809C86.5239 94.1407 86.8231 94.0386 87.1034 94.0766C87.4443 94.1941 87.8041 94.1716 87.9632 94.0504C88.0428 93.9898 88.4822 93.9067 88.9027 93.9637C89.6033 94.0586 89.6639 94.1382 89.6675 94.6382C89.6711 95.1382 89.5915 95.1988 89.1901 95.0016C88.8493 94.8841 88.7697 94.9446 88.9324 95.3235C89.0346 95.6228 88.879 96.2439 88.284 96.9482C87.7687 97.5919 87.3744 98.3947 87.416 98.6145C87.2984 98.9553 87.302 99.4553 87.245 99.8757C87.188 100.296 87.2902 100.595 87.4113 100.755C87.612 100.853 87.5135 101.054 87.0741 101.137C86.3354 101.322 85.8616 102.186 86.0884 103.144C86.2132 103.803 86.2132 103.803 85.7322 103.667C85.4519 103.629 85.0921 103.651 85.0125 103.712C84.8534 103.833 84.9139 103.913 85.0541 103.932C85.1942 103.951 85.2964 104.25 85.2584 104.53C85.2014 104.951 85.4021 105.049 86.5802 104.781C87.6787 104.573 87.8379 104.452 87.4364 104.254C87.035 104.057 87.054 103.917 87.611 103.493C88.0088 103.19 88.187 102.929 88.0052 102.69C87.7629 102.372 87.8769 101.531 88.1952 101.289C88.2748 101.228 88.2937 101.088 88.1726 100.929C88.0515 100.77 87.9909 100.69 88.131 100.709C88.2712 100.728 88.5289 100.407 88.6464 100.066C88.9611 99.3234 90.2342 98.3542 90.3779 98.8732C90.4195 99.0929 90.4005 99.2331 90.1808 99.2746C89.6618 99.4184 89.4077 100.24 89.6346 101.199C89.8805 102.017 89.8805 102.017 90.036 101.396C90.093 100.975 90.3887 100.373 90.6274 100.191C90.8851 99.8696 91.48 99.1653 91.9159 98.5822C92.5298 97.7377 92.8481 97.4955 93.0298 97.7342C93.151 97.8933 93.3707 97.8517 93.4882 97.5109C93.5868 97.3101 93.9846 97.0073 94.2043 96.9657C94.6437 96.8826 94.7043 96.9621 94.4276 97.4241C94.2495 97.6854 94.2531 98.1854 94.4954 98.5037C94.7982 98.9015 94.6201 99.1628 93.866 99.9882C93.3696 100.492 92.9148 101.215 92.8768 101.495C92.8008 102.056 92.9599 101.935 93.9527 100.928C94.6083 100.303 95.0441 99.7198 94.923 99.5606C94.8624 99.4811 94.8814 99.3409 94.961 99.2803C95.0405 99.2198 95.3552 98.4775 95.5903 97.7958C95.7423 96.6747 96.038 96.0725 96.1781 96.0915C96.3182 96.1105 96.3788 96.1901 96.2197 96.3112C96.1401 96.3718 96.3408 96.4704 96.6817 96.5879C97.3824 96.6829 97.7006 96.4406 97.3182 96.1033C97.1175 96.0048 97.0949 95.6449 97.2541 95.5238C97.5118 95.2019 97.6519 95.2209 98.2766 95.8765C98.7196 96.2933 99.1816 96.57 99.2612 96.5094C99.3407 96.4488 99.621 96.4868 99.7422 96.646C99.9239 96.8847 99.9655 97.1044 99.6662 97.2065C99.4275 97.3882 99.0866 97.2707 98.8443 96.9524C98.6021 96.6341 98.4013 96.5356 98.3028 96.7363C98.2458 97.1567 96.6699 97.728 96.5677 97.4288C96.5261 97.2091 96.386 97.1901 96.1663 97.2316C95.9466 97.2732 96.1889 97.5915 96.6319 98.0083C97.0749 98.4252 97.4763 98.6223 97.5749 98.4216C97.6734 98.2209 97.8326 98.0997 98.0333 98.1983C98.234 98.2968 98.4727 98.1151 98.5712 97.9144C98.7684 97.513 98.7684 97.513 98.6924 98.0735C98.6544 98.3538 98.2981 98.8764 97.8397 99.0997C97.063 99.5653 96.8695 100.467 97.4337 101.043C97.6759 101.361 97.7555 101.3 97.6534 101.001C97.4491 100.403 98.2827 99.5165 98.6842 99.7136C98.8849 99.8122 98.8469 100.092 98.6082 100.274C98.2709 100.657 98.2401 101.937 98.5774 101.554C98.6569 101.494 98.7175 101.573 98.6795 101.854C98.6225 102.274 98.7627 102.293 99.4408 102.028C100.339 101.722 100.793 100.999 100.172 100.843C99.9716 100.744 99.8124 100.866 99.7935 101.006C99.7745 101.146 99.6153 101.267 99.4942 101.108C99.373 100.949 99.411 100.668 99.6497 100.487C99.8884 100.305 99.8658 99.9452 99.7031 99.5663C99.4608 99.2481 99.4988 98.9678 99.5178 98.8276C99.677 98.7065 99.7981 98.8656 99.9798 99.1043C100.082 99.4036 100.362 99.4416 100.461 99.2409C100.62 99.1197 100.919 99.0176 101.12 99.1161C101.321 99.2147 101.279 98.995 101.056 98.5366C100.73 97.7789 100.689 97.5592 100.927 97.3775C101.147 97.3359 101.166 97.1958 100.965 97.0972C100.765 96.9986 100.704 96.9191 100.784 96.8585C100.863 96.7979 101.041 96.5366 101.22 96.2754C101.318 96.0746 101.617 95.9725 101.678 96.0521C101.799 96.2112 101.78 96.3513 101.541 96.5331C101.303 96.7148 101.344 96.9345 101.465 97.0936C101.587 97.2528 101.746 97.1316 101.765 96.9915C101.784 96.8513 101.943 96.7302 102.064 96.8893C102.185 97.0485 102.227 97.2682 102.208 97.4083C102.249 97.628 102.291 97.8477 102.431 97.8667C102.632 97.9653 102.692 98.0448 102.533 98.166C102.454 98.2266 102.234 98.2681 102.033 98.1696C101.772 97.9914 101.673 98.1922 101.756 98.6316C101.779 98.9914 101.703 99.552 101.525 99.8133C101.112 100.756 101.85 100.571 102.703 99.5448C103.397 98.6398 103.476 98.5792 103.54 99.1588C103.563 99.5186 103.445 99.8595 103.226 99.9011C103.006 99.9426 102.987 100.083 103.127 100.102C103.267 100.121 103.369 100.42 103.271 100.621C103.233 100.901 103.093 100.882 103.051 100.662C103.009 100.443 102.911 100.643 102.774 101.124C102.717 101.545 102.441 102.007 102.221 102.048C102.001 102.09 101.922 102.15 102.202 102.188C102.403 102.287 102.425 102.647 102.308 102.988C102.073 103.669 102.073 103.669 101.649 103.112C101.346 102.715 101.084 102.536 101.005 102.597C100.846 102.718 100.967 102.877 101.107 102.896C101.247 102.915 101.289 103.135 101.251 103.415C101.152 103.616 101.254 103.915 101.516 104.093C101.777 104.272 101.898 104.431 101.659 104.612C101.5 104.734 101.462 105.014 101.583 105.173C101.705 105.332 101.686 105.472 101.526 105.593C101.367 105.715 101.091 106.177 100.954 106.658C100.817 107.139 100.363 107.862 100.166 108.263C99.1953 109.63 99.0813 110.471 99.9068 111.225C100.853 112.138 101.474 112.294 102.111 111.809C102.509 111.507 102.569 111.586 102.713 112.105C102.876 112.484 102.777 112.685 102.417 112.707C102.137 112.669 102.16 113.029 102.285 113.688C102.591 114.586 102.591 114.586 102.947 114.063C103.224 113.601 103.303 113.541 103.288 114.181C103.254 114.961 103.435 115.2 103.852 114.757C104.17 114.515 104.17 114.515 104.053 114.856C103.954 115.056 103.916 115.336 103.958 115.556C104 115.776 103.882 116.117 103.545 116.499C102.931 117.344 102.972 117.563 103.794 117.817C104.616 118.072 104.616 118.072 104.04 118.636C103.544 119.139 103.604 119.219 104.29 119.954C104.733 120.371 105.096 120.848 105.016 120.909C104.937 120.969 105.459 121.326 106.122 121.701C107.387 122.372 107.872 123.008 106.951 122.955C106.671 122.917 106.372 123.019 106.212 123.14C105.955 123.462 106.579 124.118 107.28 124.213C107.56 124.251 107.822 124.429 108.003 124.667C108.227 125.126 108.147 125.186 107.227 125.133C106.306 125.08 105.386 125.026 104.325 124.954C102.985 124.843 99.4657 125.009 99.227 125.19C99.0678 125.312 98.5488 125.455 98.0488 125.459C96.9693 125.527 95.8364 126.515 94.4113 128.605C93.9565 129.328 93.1418 130.074 92.6644 130.438C91.9673 130.843 91.8878 130.903 92.0849 130.502C92.3426 130.18 92.1229 130.221 91.4863 130.706C90.9294 131.13 90.5125 131.573 90.4935 131.713C90.4745 131.853 90.2168 132.175 89.857 132.198C89.4176 132.281 89.2394 132.542 89.262 132.902C89.205 133.323 89.0459 133.444 88.4664 133.508C87.7467 133.553 87.7277 133.693 87.8904 134.072C88.0531 134.451 87.9735 134.511 87.2728 134.416C86.8524 134.359 86.3524 134.363 86.413 134.443C86.0567 134.965 85.6553 134.768 85.5306 134.109C85.4059 133.45 85.4854 133.389 85.9664 133.526C86.4474 133.662 86.3868 133.583 85.9438 133.166C85.5614 132.829 85.3607 132.73 84.8643 133.234C84.4475 133.677 84.4095 133.957 84.7729 134.434C85.1779 135.131 85.1779 135.131 84.4582 135.177C84.0378 135.12 83.7195 135.362 83.7005 135.502C83.6815 135.642 83.3633 135.884 83.0034 135.907C82.5034 135.911 82.4239 135.971 83.026 136.267C83.488 136.544 83.469 136.684 83.1507 136.926C82.5938 137.35 82.0938 137.354 82.1698 136.793C82.2873 136.452 82.0866 136.354 81.5676 136.497C80.6092 136.724 79.4157 137.633 79.9157 137.629C80.196 137.667 80.5748 137.505 80.8135 137.323C81.4501 136.838 81.8705 136.895 81.9156 137.615C81.9382 137.975 82.12 138.213 82.3207 138.312C82.4608 138.331 82.5024 138.551 82.3432 138.672C82.1841 138.793 81.8243 138.816 81.563 138.637C81.3017 138.459 80.9418 138.482 80.6236 138.724C80.3849 138.906 79.968 139.349 79.7293 139.531C79.3921 139.913 79.2519 139.894 78.9681 139.356C78.7448 138.898 78.6046 138.879 78.4871 139.22C78.3885 139.42 78.0892 139.522 77.8885 139.424C77.6272 139.246 77.3885 139.427 77.29 139.628C77.1914 139.829 77.2936 140.128 77.5548 140.306C77.7556 140.405 77.7971 140.625 77.7176 140.685C77.5584 140.806 77.2212 141.189 76.8839 141.571C76.3079 142.135 76.3685 142.215 76.8495 142.351C77.6108 142.526 77.2129 142.829 76.4327 142.794C75.9327 142.798 75.8531 142.859 76.0348 143.097C76.2165 143.336 76.0574 143.457 75.4969 143.381C74.7166 143.347 74.3188 143.65 74.6406 143.907C74.7618 144.066 74.7428 144.207 74.7238 144.347C74.5646 144.468 74.4435 144.309 74.2012 143.99C73.7962 143.293 73.3983 143.596 73.7048 144.494C73.788 144.933 73.75 145.214 73.5492 145.115C73.3485 145.017 73.288 144.937 73.3865 144.736C73.5457 144.615 73.3449 144.517 73.0457 144.619C72.1478 144.925 71.8902 145.247 72.4317 145.463C72.7726 145.581 72.8141 145.8 72.4959 146.043C72.2382 146.365 71.9579 146.327 71.5755 145.989C71.2536 145.732 71.193 145.652 71.2346 145.872C71.3368 146.171 71.2572 146.232 70.7762 146.095C70.1551 145.94 70.1551 145.94 70.5185 146.417C70.9009 146.754 70.8214 146.815 70.1207 146.72C69.2798 146.606 69.2798 146.606 69.6243 147.223C69.9687 147.841 69.5935 148.504 69.1505 148.087C69.0293 147.928 69.0483 147.787 69.2264 147.526C69.3856 147.405 69.4236 147.125 69.3024 146.966C68.92 146.628 68.5447 147.291 68.8286 147.829C69.0519 148.287 69.0519 148.287 68.5103 148.071C68.1695 147.954 68.0293 147.935 68.1505 148.094C68.2716 148.253 68.2526 148.393 68.1731 148.454C68.0329 148.435 67.9949 148.715 68.0971 149.014C68.2598 149.393 68.1802 149.454 67.8014 149.616C67.5021 149.719 67.2028 149.821 67.1233 149.881C67.0437 149.942 66.6459 150.245 66.1079 150.529C64.9334 151.297 64.8538 151.358 64.2968 151.782C64.0581 151.963 63.5392 152.107 63.1793 152.13C62.4786 152.035 62.2625 152.576 62.7661 153.073C63.2091 153.49 63.0499 153.611 62.1711 153.777C61.4324 153.962 60.5762 154.488 59.6629 155.435C59.4052 155.757 58.7271 156.022 58.2877 156.105C57.7081 156.169 57.549 156.29 57.8899 156.408C58.2307 156.525 58.2117 156.665 57.6737 156.949C56.8175 157.476 56.6584 157.597 52.756 160.065C50.9639 161.178 48.9331 162.472 48.1755 162.798C47.4783 163.203 46.7017 163.668 46.3834 163.911C45.7279 164.535 43.9132 165.288 43.8906 164.928C43.9096 164.788 43.7695 164.769 43.6899 164.83C43.5308 164.951 43.5724 165.171 43.5534 165.311C43.7387 166.05 43.3408 166.352 42.943 166.655C41.867 167.223 39.7757 168.438 39.2983 168.801C39.0596 168.983 38.6202 169.066 38.4005 169.108C38.1202 169.07 37.5822 169.354 37.1844 169.657C35.7522 170.747 34.6572 171.455 34.2368 171.398C33.9565 171.36 33.9565 171.36 34.0777 171.519C34.2594 171.758 34.1003 171.879 33.6418 172.102C33.263 172.265 31.9483 173.014 30.8534 173.722C26.932 176.33 26.6933 176.512 25.2801 177.462C24.5034 177.928 23.7267 178.393 23.4275 178.496C23.2077 178.537 22.969 178.719 22.95 178.859C22.931 178.999 22.6318 179.101 22.4121 179.143C21.8325 179.207 20.1652 180.979 20.487 181.237C20.6082 181.396 21.0666 181.173 21.4644 180.87C21.9418 180.506 22.3397 180.203 22.5594 180.162C23.0784 180.018 20.3731 182.078 18.6416 183.27C17.5466 183.978 16.7889 184.303 16.308 184.167C15.6868 184.011 15.6073 184.072 15.732 184.731C15.7166 185.371 15.08 185.856 14.3983 185.621C14.2582 185.602 14.3188 185.681 14.5195 185.78C14.7808 185.958 14.6822 186.159 14.0457 186.643C11.6776 188.32 11.0411 188.805 9.05549 190.819C7.90355 191.947 6.89177 193.095 6.87277 193.235C6.77421 193.435 6.63406 193.416 6.45235 193.178C6.13048 192.92 6.05093 192.981 5.71366 193.363C5.45597 193.685 5.13769 193.927 4.85741 193.889C4.57713 193.851 4.11873 194.075 3.84203 194.537C3.64491 194.938 3.40621 195.12 3.50477 194.919C3.60333 194.718 3.50118 194.419 3.44061 194.339C3.11875 194.082 2.68293 194.665 2.56895 195.506C2.47397 196.206 2.39441 196.267 1.87185 195.911C1.47043 195.714 1.25071 195.755 1.07258 196.016C0.837457 196.698 0.284083 197.622 0.223511 197.543C-0.0793511 197.145 -0.321642 196.826 -0.624504 196.429ZM83.8376 96.0601C84.2164 95.8973 84.2164 95.8973 83.7354 95.7608C83.0347 95.6658 82.9551 95.7264 83.1974 96.0447C83.3981 96.1432 83.6784 96.1812 83.8376 96.0601ZM85.7558 101.386C86.0931 101.004 86.1121 100.864 85.5515 100.788C85.2712 100.75 84.9304 100.632 84.8508 100.693C84.7903 100.613 84.7523 100.894 84.7143 101.174C84.7594 101.894 85.2404 102.03 85.7558 101.386ZM84.2774 104.397C84.4971 104.356 84.4555 104.136 84.2548 104.037C84.0731 103.799 83.8534 103.84 83.8344 103.98C83.8154 104.12 83.857 104.34 83.857 104.34C83.9175 104.42 84.1978 104.458 84.2774 104.397ZM78.4162 98.679C78.5753 98.5579 78.6133 98.2776 78.5528 98.198C78.2309 97.9403 77.7915 98.0235 77.8141 98.3833C77.7571 98.8038 78.1585 99.0009 78.4162 98.679ZM92.5028 127.419C92.821 127.176 93.0182 126.775 92.9766 126.555C92.935 126.336 92.5562 126.498 92.2189 126.881C91.3852 127.767 91.6881 128.165 92.5028 127.419ZM89.9222 130.137C90.0813 130.016 90.1419 130.096 90.1039 130.376C90.0659 130.656 90.1075 130.876 90.1265 130.736C90.2061 130.675 90.4448 130.494 90.7441 130.391C91.0433 130.289 91.0623 130.149 90.782 130.111C90.5018 130.073 90.5208 129.933 90.82 129.831C91.1193 129.729 91.0777 129.509 90.6157 129.232C89.9114 128.637 88.6574 129.466 89.2215 130.042C89.4828 130.22 89.7631 130.258 89.9222 130.137ZM76.5429 113.553C76.8422 113.451 76.873 112.17 76.5511 111.913C76.43 111.754 76.2103 111.795 76.1307 111.856C76.0511 111.916 76.1533 112.216 76.335 112.454C76.6568 112.712 76.5773 112.773 76.2364 112.655C75.9561 112.617 75.7364 112.659 75.6984 112.939C75.702 113.439 76.164 113.716 76.5429 113.553ZM72.3746 117.983C71.9316 117.566 71.5717 117.589 71.5753 118.089C71.5979 118.448 72.0599 118.725 72.4387 118.562C72.6584 118.521 72.5563 118.222 72.3746 117.983ZM73.0111 117.498C72.8294 117.26 72.5491 117.222 72.5301 117.362C72.371 117.483 72.4125 117.703 72.5527 117.722C72.6738 117.881 72.8935 117.839 73.0337 117.858C73.1738 117.877 73.1928 117.737 73.0111 117.498ZM75.2282 114.302C75.3494 114.461 75.4479 114.261 75.3458 113.961C75.0999 113.143 74.0204 113.211 73.4064 114.055C72.4742 115.142 72.8412 116.119 73.815 115.252C74.1333 115.01 74.5501 114.567 74.6487 114.366C74.8078 114.245 75.0275 114.204 75.2282 114.302ZM87.6481 133.754C87.8072 133.633 87.8262 133.492 87.6861 133.473C87.6255 133.394 87.4854 133.375 87.2657 133.416C87.046 133.458 87.027 133.598 87.2277 133.697C87.3678 133.716 87.5685 133.814 87.6481 133.754ZM81.8192 132.535C81.8988 132.475 81.9368 132.195 81.8156 132.035C81.6945 131.876 82.0923 131.573 82.7514 131.449C83.5697 131.203 84.1077 130.919 84.7216 130.075C85.1575 129.491 85.4531 128.889 85.3926 128.81C85.332 128.73 85.1123 128.772 85.0327 128.832C84.8736 128.953 84.813 128.874 84.6919 128.715C84.6087 128.275 83.9496 128.4 83.8926 128.821C83.8546 129.101 83.9152 129.18 84.275 129.158C84.6349 129.135 84.6349 129.135 84.4568 129.396C84.2976 129.518 84.0209 129.98 83.7632 130.301L83.3274 130.885L83.3012 130.025C83.3736 128.964 82.8131 128.888 82.3808 129.971C82.0851 130.574 81.9866 130.774 81.6457 130.657C81.445 130.558 81.445 130.558 81.6647 130.517C81.8844 130.475 81.964 130.414 81.8428 130.255C81.7217 130.096 81.4034 130.338 81.0852 130.581C80.5092 131.145 80.5698 131.224 81.3988 132.478C81.5995 132.577 81.7396 132.596 81.8192 132.535ZM78.673 128.898C78.8547 129.137 79.0555 129.235 79.0745 129.095C79.0934 128.955 78.8322 128.777 78.6315 128.678C78.3702 128.5 78.4307 128.58 78.673 128.898ZM76.3677 125.374C76.7465 125.212 76.705 124.992 76.5232 124.753C76.4021 124.594 76.2014 124.496 76.1218 124.556C76.0422 124.617 75.8831 124.738 75.5838 124.84C75.2846 124.942 75.3261 125.162 75.4473 125.321C75.7691 125.579 76.0494 125.617 76.3677 125.374ZM80.4594 132.565C80.7017 132.884 80.982 132.922 81.0615 132.861C81.3002 132.679 80.3536 131.766 79.7325 131.61C79.5318 131.512 79.2325 131.614 79.2741 131.834C79.2171 132.254 79.5996 132.591 79.8383 132.41C79.9368 132.209 80.1981 132.387 80.4594 132.565ZM79.6673 133.671C79.849 133.91 80.1483 133.808 80.387 133.626C80.8038 133.183 80.6827 133.024 80.001 132.789C79.3798 132.633 79.1637 133.175 79.6673 133.671ZM60.6942 115.187C60.5351 115.308 60.6562 115.467 60.7168 115.546C60.8379 115.706 61.0576 115.664 61.1372 115.603C61.2963 115.482 61.1752 115.323 61.1146 115.244C60.9935 115.084 60.8533 115.065 60.6942 115.187ZM73.9678 130.972C74.1079 130.991 74.2671 130.87 74.305 130.589C74.4036 130.389 74.2635 130.37 74.0248 130.551C73.9868 130.832 73.8276 130.953 73.9678 130.972ZM65.1565 123.855C65.0543 123.556 65.2135 123.434 65.6339 123.491C66.3346 123.586 66.7324 123.283 66.1909 123.067C65.85 122.95 65.85 122.95 66.35 122.946C66.6303 122.984 67.1683 122.7 67.426 122.378C67.9224 121.875 68.0019 121.814 67.2407 121.64C66.6195 121.484 66.2407 121.647 65.426 122.393C64.4522 123.26 64.4332 123.4 64.8762 123.817C65.1791 124.215 65.2586 124.154 65.1565 123.855ZM76.347 139.215C76.6878 139.332 76.6463 139.113 76.2223 138.556C75.7982 137.999 75.5975 137.9 75.3588 138.082C75.1011 138.404 75.6653 138.98 76.347 139.215ZM74.6273 139.267C74.7069 139.207 74.6653 138.987 74.6843 138.847C74.6427 138.627 74.5026 138.608 74.3435 138.729C74.1843 138.85 74.2259 139.07 74.2865 139.15C74.4872 139.248 74.6273 139.267 74.6273 139.267ZM60.8409 127.266C60.7577 126.826 60.3789 126.989 59.0452 127.879C57.613 128.969 57.0406 130.033 58.1771 129.545C58.4764 129.443 58.4158 129.363 58.2151 129.265C57.7947 129.208 59.4656 127.936 60.3635 127.629C60.7233 127.607 60.8824 127.486 60.8409 127.266ZM71.9923 145.546C72.1704 145.285 72.1289 145.065 71.9281 144.967C71.7274 144.868 71.6289 145.069 71.5909 145.349C71.636 146.069 71.6966 146.148 71.9923 145.546ZM68.2892 142.333C68.5279 142.151 68.8461 141.909 68.9863 141.928C69.1264 141.947 69.5052 141.784 69.6038 141.583C69.8425 141.402 70.0622 141.36 70.0432 141.5C70.0848 141.72 70.2439 141.599 70.4221 141.337C70.9755 140.413 70.2712 139.819 69.5776 140.724C69.4185 140.845 69.1192 140.947 68.8389 140.909C68.4185 140.852 68.1798 141.034 67.9827 141.435C67.7856 141.836 67.5659 141.878 67.3652 141.779C67.244 141.62 67.0243 141.662 67.0659 141.882C66.9899 142.442 67.8723 142.776 68.2892 142.333ZM57.1428 130.332C57.3245 130.571 57.5442 130.53 57.5632 130.389C57.5822 130.249 57.48 129.95 57.4195 129.87C57.2983 129.711 57.0786 129.753 56.999 129.813C56.9195 129.874 56.961 130.094 57.1428 130.332ZM49.0685 136.731C49.7692 136.826 49.8867 136.485 49.4437 136.068C48.9401 135.571 48.3606 135.636 48.3036 136.056C48.2466 136.476 48.5079 136.655 49.0685 136.731ZM57.1271 150.453C57.3088 150.692 57.5891 150.73 57.6081 150.59C57.7672 150.469 57.7257 150.249 57.5855 150.23C57.4644 150.071 57.1841 150.033 57.1045 150.093C56.8848 150.135 56.8658 150.275 57.1271 150.453ZM45.3214 158.058C45.4009 157.997 45.3594 157.778 45.3784 157.638C45.3368 157.418 45.1966 157.399 45.0375 157.52C44.8784 157.641 44.92 157.861 44.9805 157.94C45.1812 158.039 45.2418 158.119 45.3214 158.058ZM31.8331 148.595C32.0528 148.553 32.0718 148.413 31.8711 148.314C31.75 148.155 31.5303 148.197 31.4507 148.257C31.2916 148.378 31.2726 148.519 31.4127 148.538C31.4733 148.617 31.693 148.576 31.8331 148.595ZM-4.85717 172.378C-4.77759 172.318 -4.81918 172.098 -4.87975 172.019C-4.92132 171.799 -5.06147 171.78 -5.2206 171.901C-5.37973 172.022 -5.33816 172.242 -5.19802 172.261C-5.07687 172.42 -4.93674 172.439 -4.85717 172.378Z" fill="white"/>
<path d="M-6.92698 176.593C-7.00655 176.654 -7.22625 176.695 -7.3474 176.536C-7.46854 176.377 -7.44956 176.237 -7.30941 176.256C-7.08971 176.215 -6.94956 176.233 -6.88899 176.313C-6.82842 176.393 -6.8474 176.533 -6.92698 176.593Z" fill="white"/>
<path d="M-6.3012 174.609C-6.46033 174.73 -6.50192 174.51 -6.38436 174.169C-6.18724 173.768 -6.10765 173.707 -6.00551 174.007C-5.96394 174.226 -6.14207 174.488 -6.3012 174.609Z" fill="white"/>
<path d="M78.2437 141.541C78.4254 141.78 78.4064 141.92 78.2663 141.901C78.0466 141.943 77.9065 141.924 77.8459 141.844C77.7853 141.765 77.8043 141.625 77.8233 141.484C77.9219 141.284 78.1226 141.382 78.2437 141.541Z" fill="white"/>
<path d="M78.7817 141.257C78.9408 141.136 79.081 141.155 79.2021 141.314C79.3233 141.474 79.3043 141.614 79.2247 141.674C79.0656 141.795 78.9254 141.776 78.8043 141.617C78.7437 141.538 78.7021 141.318 78.7817 141.257Z" fill="white"/>
<path d="M78.5132 140.079C78.7935 140.117 79.0322 139.936 78.9907 139.716C79.0096 139.576 79.1308 139.735 79.2139 140.174C79.5204 141.072 79.1416 141.235 78.4563 140.5C78.1344 140.242 78.1534 140.102 78.5132 140.079Z" fill="white"/>
<path d="M84.0367 137.76C84.1579 137.919 84.1995 138.139 84.1199 138.199C83.9608 138.32 83.8812 138.381 83.8206 138.301C83.7601 138.222 83.779 138.082 83.7375 137.862C83.7755 137.582 83.9156 137.601 84.0367 137.76Z" fill="white"/>
<path d="M78.618 96.1375C78.3983 96.1791 78.4968 95.9784 78.8947 95.6755C79.1524 95.3537 79.3721 95.3121 79.2735 95.5128C79.0954 95.7741 78.8377 96.0959 78.618 96.1375Z" fill="white"/>
<path d="M82.5774 93.249C82.4182 93.3702 82.1985 93.4118 82.0774 93.2526C81.9562 93.0935 81.9752 92.9533 82.1534 92.6921C82.3125 92.5709 82.5322 92.5293 82.6533 92.6885C82.7745 92.8476 82.7365 93.1279 82.5774 93.249Z" fill="white"/>
<path d="M100.4 110.222C99.7975 109.926 99.7975 109.926 100.014 109.384C100.211 108.983 100.351 109.002 100.635 109.54C101.18 110.256 101.002 110.517 100.4 110.222Z" fill="white"/>
<path d="M84.3576 93.2763C84.1189 93.458 83.8196 93.5601 83.7591 93.4806C83.6379 93.3214 83.6569 93.1813 83.835 92.92C83.9942 92.7989 84.2934 92.6967 84.4336 92.7157C84.5547 92.8748 84.5357 93.015 84.3576 93.2763Z" fill="white"/>
<path d="M100.806 108.279C101.222 107.836 101.423 107.934 101.207 108.476C101.109 108.676 100.87 108.858 100.73 108.839C100.529 108.741 100.628 108.54 100.806 108.279Z" fill="white"/>
<path d="M103.835 109.617C104.218 109.954 104.32 110.253 104.202 110.594C104.066 111.075 103.926 111.056 103.1 110.302C102.597 109.806 102.233 109.328 102.233 109.328C102.211 108.969 103.252 109.181 103.835 109.617Z" fill="white"/>
<path d="M87.1496 92.1562C87.3503 92.2548 87.3314 92.3949 87.1722 92.516C87.0131 92.6372 86.7138 92.7393 86.5737 92.7203C86.373 92.6218 86.392 92.4816 86.5511 92.3605C86.7898 92.1788 86.9489 92.0576 87.1496 92.1562Z" fill="white"/>
<path d="M102.006 108.37C101.885 108.211 101.904 108.071 102.143 107.889C102.302 107.768 102.461 107.647 102.522 107.726C102.582 107.806 102.563 107.946 102.385 108.207C102.207 108.469 102.207 108.469 102.006 108.37Z" fill="white"/>
<path d="M103.605 108.159C103.764 108.037 103.923 107.916 103.984 107.996C104.044 108.075 103.946 108.276 103.847 108.477C103.749 108.678 103.589 108.799 103.468 108.64C103.408 108.56 103.366 108.34 103.605 108.159Z" fill="white"/>
<path d="M90.0962 93.0551C89.7815 93.7974 89.7815 93.7974 89.5356 92.9791C89.0664 91.7024 88.6234 91.2856 88.6496 92.1454C88.6948 92.8651 88.4976 93.2666 88.1152 92.9293C87.9941 92.7702 88.051 92.3497 88.108 91.9293C88.2636 91.3082 88.4227 91.187 88.9037 91.3236C89.2446 91.4412 89.684 91.358 89.9227 91.1763C90.2599 90.7938 90.3205 90.8734 90.3051 91.5135C90.3883 91.953 90.2933 92.6537 90.0962 93.0551Z" fill="white"/>
<path d="M104.525 108.212C104.885 108.189 104.889 108.689 104.51 108.852C104.211 108.954 104.211 108.954 104.188 108.594C104.207 108.454 104.385 108.193 104.525 108.212Z" fill="white"/>
<path d="M103.318 104.481C103.398 104.42 103.656 104.098 103.773 103.757C103.97 103.356 104.209 103.174 104.63 103.231C105.13 103.227 105.19 103.307 105.114 103.868C104.94 104.629 105.504 105.205 106.364 105.179C106.943 105.115 106.924 105.255 106.269 105.879C105.594 106.644 104.734 106.67 105.049 105.928C105.147 105.727 105.004 105.208 104.682 104.951C104.239 104.534 104.099 104.515 103.822 104.977C103.447 105.64 103.367 105.7 103.182 104.962C103.201 104.821 103.239 104.541 103.318 104.481Z" fill="white"/>
<path d="M91.1542 89.9874C91.0782 90.548 90.7599 90.7903 90.6958 90.2107C90.6352 90.1311 90.8133 89.8699 91.052 89.6881C91.2302 89.4269 91.2907 89.5064 91.1542 89.9874Z" fill="white"/>
<path d="M99.9726 98.1044C99.8325 98.0854 99.7719 98.0058 99.7304 97.7861C99.7493 97.6459 99.8479 97.4452 99.8669 97.3051C100.026 97.1839 100.087 97.2635 100.109 97.6234C100.211 97.9226 100.113 98.1233 99.9726 98.1044Z" fill="white"/>
<path d="M99.9547 95.6044C99.7956 95.7256 99.6554 95.7066 99.5343 95.5474C99.4131 95.3883 99.4321 95.2482 99.5117 95.1876C99.6708 95.0664 99.811 95.0854 99.9321 95.2446C100.072 95.2636 100.114 95.4833 99.9547 95.6044Z" fill="white"/>
<path d="M100.27 92.2221C100.487 91.6805 100.665 91.4192 100.945 91.4572C101.225 91.4952 101.267 91.7149 100.99 92.1769C100.437 93.1009 99.8572 93.1651 100.27 92.2221Z" fill="white"/>
<path d="M102.371 95.1471C102.231 95.1281 102.25 94.9879 102.489 94.8062C102.728 94.6245 102.807 94.5639 102.769 94.8442C102.671 95.0449 102.512 95.1661 102.371 95.1471Z" fill="white"/>
<path d="M104.072 95.2349C104.053 95.375 103.875 95.6363 103.557 95.8786L103.079 96.242L103.314 95.5603C103.69 94.8976 104.069 94.7349 104.072 95.2349Z" fill="white"/>
<path d="M98.811 95.0926C98.9701 94.9715 99.1103 94.9905 99.1709 95.07C99.2314 95.1496 99.2124 95.2897 99.0533 95.4109C98.8942 95.532 98.754 95.513 98.6934 95.4335C98.6329 95.3539 98.6519 95.2138 98.811 95.0926Z" fill="white"/>
</g>
<g opacity="0.25">
<path d="M129.072 66.1008C128.481 66.2041 128.168 66.1573 128.215 65.8445C128.279 65.6303 128.163 65.549 127.885 65.6992C127.705 65.8321 127.41 65.8837 127.277 65.7039C127.161 65.6226 126.651 65.6102 126.257 65.6791C125.881 65.8464 125.469 65.8168 125.452 65.7183C125.418 65.5212 123.953 65.2697 123.576 65.4371C123.477 65.4543 123.512 65.6513 123.546 65.8483C123.581 66.0453 123.812 66.2079 123.992 66.075C124.189 66.0406 124.287 66.0233 124.206 66.1391C124.125 66.2548 123.615 66.2424 122.972 66.0501C122.33 65.8579 121.524 65.8971 121.049 66.0817C120.377 66.3007 120.278 66.3179 120.094 65.8426C120.025 65.4485 119.793 65.286 119.498 65.3376C119.202 65.3892 119.138 65.6035 119.271 65.7833C119.404 65.9631 119.34 66.1773 119.143 66.2117C118.946 66.2462 118.83 66.1649 118.877 65.8521C118.941 65.6379 118.791 65.3596 118.577 65.2955C118.363 65.2314 118.281 65.3472 118.513 65.5097C118.744 65.6723 118.663 65.788 118.055 65.7928C117.643 65.7632 117.232 65.7335 117.116 65.6522C117.001 65.5709 116.589 65.5413 116.114 65.7259C115.639 65.9105 115.227 65.8808 115.21 65.7823C115.193 65.6838 114.435 65.4102 113.595 65.2524C112.755 65.0946 111.881 64.7398 111.748 64.56C111.615 64.3802 111.054 64.0722 110.625 63.9441C110.197 63.8159 109.768 63.6878 109.833 63.4736C109.914 63.3578 109.682 63.1952 109.387 63.2469C108.894 63.333 108.877 63.2345 109.352 63.0499C110.025 62.8309 109.973 62.5353 109.065 61.9835C108.486 61.577 108.469 61.4785 108.713 61.1314C108.974 60.8827 108.957 60.7842 108.678 60.9344C108.481 60.9688 108.284 61.0032 108.365 60.8875C108.447 60.7718 108.198 60.5107 107.868 60.3653C107.538 60.2199 106.433 59.7025 105.443 59.2664C104.123 58.6849 103.643 58.2612 103.673 57.85C103.621 57.5545 103.471 57.2762 103.372 57.2934C102.995 57.4608 102.227 55.9707 102.587 55.7048C102.767 55.5719 102.651 55.4906 102.321 55.3452C102.008 55.2984 101.876 55.1186 101.94 54.9043C102.004 54.6901 101.871 54.5103 101.674 54.5448C101.46 54.4807 101.327 54.3009 101.211 54.2196C101.176 54.0226 101.275 54.0053 101.373 53.9881C101.489 54.0694 101.767 53.9193 101.913 53.5893C102.157 53.2422 102.255 53.2249 102.11 53.5549C102.046 53.7691 102.312 54.1287 102.74 54.2569C103.614 54.6117 103.957 54.2473 103.181 53.8753C102.851 53.7299 102.602 53.4688 102.585 53.3703C102.482 52.7793 102.233 52.5182 101.642 52.6215C101.15 52.7075 101.068 52.8233 101.137 53.2173C101.425 54.2837 99.2073 50.3061 98.5675 48.3876C98.3829 47.9122 98.0013 47.4713 97.7698 47.3088C97.4399 47.1634 97.2553 46.6881 97.2037 46.3925C97.1817 45.6858 96.3668 44.5085 95.0423 43.3187C94.4464 42.8138 94.2791 42.4369 94.4417 42.2055C94.6215 42.0726 94.5354 41.58 94.368 41.2032C93.5829 39.6147 92.8273 37.6149 93.1056 37.4647C93.2041 37.4475 93.0836 36.758 92.7489 36.0043C92.397 35.1522 92.1952 34.5784 92.3922 34.5439C92.6877 34.4923 92.6189 34.0982 92.3138 32.9334C92.2449 32.5393 92.309 32.3251 92.6217 32.372C92.9345 32.4188 93.0158 32.3031 92.8828 32.1233C92.6045 32.2735 92.3903 32.2094 92.1933 32.2438C91.915 32.394 91.7256 31.3104 91.7849 30.4879C91.7973 29.9782 91.8442 29.6654 91.6252 28.9931C91.5736 28.6976 91.6549 28.5819 91.8519 28.5474C92.0661 28.6115 92.1302 28.3973 91.9972 28.2175C91.9628 28.0205 91.7486 27.9564 91.6673 28.0721C91.586 28.1878 91.3546 28.0252 91.3029 27.7297C91.2513 27.4342 91.2981 27.1215 91.3966 27.1042C91.5937 27.0698 91.542 26.7743 91.2761 26.4147C91.0103 26.0551 90.9586 25.7596 91.2542 25.7079C91.4512 25.6735 91.5152 25.4593 91.3995 25.378C91.2838 25.2967 91.3479 25.0825 91.5277 24.9495C91.7075 24.8166 91.6903 24.7181 91.3135 24.8854C90.6411 25.1044 90.3877 24.2351 91.0428 23.9176C91.5009 23.6345 91.565 23.4203 91.2006 23.0779C90.6689 22.3587 90.5484 21.6691 90.972 21.189C91.4129 20.8074 91.4129 20.8074 90.8688 20.598C90.3246 20.3885 90.3246 20.3885 90.6325 19.8271C90.8592 19.3815 90.8889 18.9702 90.623 18.6106C90.1897 17.8742 90.1678 17.1675 90.6947 17.2784C90.7932 17.2612 91.0543 17.0125 91.1184 16.7983C91.3106 16.1556 91.1777 15.9758 90.7024 16.1604C90.5054 16.1948 90.1754 16.0494 89.9268 15.7884C89.5279 15.249 89.6045 14.525 89.8828 14.3748C89.9813 14.3576 89.8608 13.6681 89.6418 12.9957C89.4055 12.2249 89.285 11.5353 89.3663 11.4196C89.4476 11.3039 89.4084 10.4986 89.155 9.62926C88.9016 8.7599 88.7466 7.87334 88.8107 7.65911C88.9857 6.91792 88.826 5.4231 88.4004 3.56868C87.8716 1.12321 87.8544 1.0247 88.389 0.0176387C88.7142 -0.445249 88.7438 -0.856486 88.6625 -0.740766C88.367 -0.689123 87.6755 -2.90314 87.8209 -3.23309C87.9022 -3.34881 87.7521 -3.62712 87.5034 -3.88822C87.2547 -4.14932 87.1687 -4.64185 87.2327 -4.85608C87.2796 -5.16882 87.2404 -5.97408 87.0042 -6.74493C86.768 -7.51578 86.6475 -8.20533 86.7115 -8.41955C86.7756 -8.63378 86.6551 -9.32333 86.4361 -9.99566C85.8604 -12.1284 85.7992 -13.6404 86.176 -13.8078C86.373 -13.8422 86.3558 -13.9407 86.0431 -13.9876C85.6146 -14.1158 85.5802 -14.3128 85.4377 -15.7091C85.3813 -16.6129 85.037 -18.583 84.5473 -20.2232C83.9592 -21.8462 83.7009 -23.3238 83.7822 -23.4395C83.8463 -23.6537 83.7602 -24.1463 83.5757 -24.6216C83.3911 -25.0969 83.305 -25.5895 83.4676 -25.8209C83.7287 -26.0696 83.7115 -26.1681 83.4332 -26.0179C83.2362 -25.9835 83.0047 -26.1461 82.8546 -26.4244C82.67 -26.8997 82.7685 -26.9169 83.2955 -26.806C83.8396 -26.5965 83.8396 -26.5965 83.5566 -27.0546C82.9263 -27.7566 81.836 -30.51 82.2817 -30.2834C82.5304 -30.0223 82.6117 -30.138 82.6413 -30.5492C82.735 -31.1747 82.7178 -31.2732 82.144 -31.0714C81.8485 -31.0198 81.4841 -31.3622 81.1322 -32.2143C80.8146 -32.8694 80.3001 -33.4901 80.0687 -33.6527C79.426 -33.8449 79.1553 -34.8128 79.1114 -36.2263C79.1831 -37.5586 78.9373 -39.5459 78.5882 -42.1243C78.3989 -43.2079 78.4238 -44.2274 78.5051 -44.3431C78.6849 -44.4761 78.6504 -44.6731 78.3205 -44.8185C77.9905 -44.9638 77.8576 -45.1436 77.8404 -45.2421C77.8232 -45.3406 77.8232 -45.3406 77.8059 -45.4391C77.4071 -45.9785 77.2053 -46.5524 77.3679 -46.7838C77.5649 -46.8182 77.5133 -47.1138 77.3632 -47.3921C77.213 -47.6704 77.1441 -48.0644 77.191 -48.3771C77.2379 -48.6899 77.169 -49.0839 76.9031 -49.4435C76.5388 -49.7859 76.6028 -50.0001 76.8984 -50.0518C77.1939 -50.1034 77.2408 -50.4161 77.1719 -50.8102C77.1203 -51.1057 77.0342 -51.5982 76.9825 -51.8938C76.9481 -52.0908 76.6995 -52.3519 76.6009 -52.3346C76.3867 -52.3987 76.3351 -52.6942 76.2662 -53.0883C76.2787 -53.598 76.1457 -53.7778 75.9831 -53.5464C75.8033 -53.4134 75.6876 -53.4947 75.7173 -53.906C75.7297 -54.4157 75.7297 -54.4157 75.9784 -54.1546C76.1113 -53.9748 76.3427 -53.8123 76.4412 -53.8295C76.5397 -53.8467 76.7884 -53.5856 76.84 -53.2901C76.9089 -52.896 77.1576 -52.6349 77.4531 -52.6866C77.6501 -52.721 77.8471 -52.7554 77.6329 -52.8195C77.5172 -52.9008 77.4827 -53.0978 77.564 -53.2136C77.8251 -53.4622 77.2886 -54.7897 76.6411 -55.5902C76.3925 -55.8513 76.5895 -55.8857 77.0352 -55.659C77.9093 -55.3042 78.0891 -55.4371 78.0499 -56.2424C78.0795 -56.6537 78.2249 -56.9836 78.3406 -56.9023C78.5549 -56.8382 78.6361 -56.954 78.6017 -57.151C78.5673 -57.348 78.7471 -57.4809 79.0254 -57.6311C79.5179 -57.7171 79.6805 -57.9486 79.5132 -58.3254C79.3286 -58.8007 79.2129 -58.882 78.969 -58.5348C78.8064 -58.3034 78.5281 -58.1533 78.4124 -58.2345C78.2966 -58.3158 78.3435 -58.6286 78.5061 -58.86C78.7672 -59.1087 78.9126 -59.4386 78.8781 -59.6356C78.8609 -59.7341 78.9891 -60.1626 79.2329 -60.5098C79.6394 -61.0884 79.7379 -61.1056 80.1836 -60.8789C80.6293 -60.6523 80.6465 -60.5538 80.2869 -60.2879C80.0258 -60.0392 80.043 -59.9407 80.4542 -59.9111C80.767 -59.8642 81.2471 -59.4405 81.599 -58.5884C81.9337 -57.8348 82.4655 -57.1156 82.6797 -57.0515C82.9284 -56.7904 83.3741 -56.5637 83.7212 -56.3198C84.0684 -56.076 84.3811 -56.0291 84.5781 -56.0635C84.7579 -56.1965 84.8909 -56.0167 84.7627 -55.5882C84.5877 -54.847 85.1366 -54.0293 86.0921 -53.7902C86.7348 -53.598 86.7348 -53.598 86.3924 -53.2336C86.2298 -53.0021 86.0844 -52.6722 86.1016 -52.5737C86.1361 -52.3767 86.2346 -52.3939 86.3159 -52.5096C86.3971 -52.6253 86.7099 -52.5785 86.9413 -52.4159C87.2885 -52.172 87.4683 -52.3049 87.7715 -53.4746C88.0919 -54.5457 88.0574 -54.7427 87.6978 -54.4769C87.3382 -54.211 87.2225 -54.2923 87.102 -54.9818C87.0159 -55.4744 86.8658 -55.7527 86.5703 -55.701C86.1762 -55.6322 85.4819 -56.1199 85.4131 -56.514C85.3958 -56.6125 85.2801 -56.6938 85.0831 -56.6593C84.8861 -56.6249 84.7876 -56.6077 84.8689 -56.7234C84.9502 -56.8391 84.7828 -57.216 84.5341 -57.4771C84.0196 -58.0978 83.7442 -59.6739 84.2712 -59.5629C84.4854 -59.4988 84.6011 -59.4176 84.537 -59.2033C84.4261 -58.6764 85.0391 -58.0729 85.9945 -57.8338C86.8342 -57.676 86.8342 -57.676 86.3541 -58.0997C86.007 -58.3435 85.6082 -58.8829 85.5565 -59.1785C85.3892 -59.5553 85.0372 -60.4074 84.7197 -61.0625C84.252 -61.996 84.1832 -62.39 84.4787 -62.4416C84.6757 -62.4761 84.7398 -62.6903 84.4911 -62.9514C84.3582 -63.1312 84.2721 -63.6237 84.3362 -63.8379C84.4644 -64.2664 84.5629 -64.2836 84.846 -63.8255C84.9961 -63.5472 85.4418 -63.3205 85.8358 -63.3894C86.3283 -63.4755 86.4785 -63.1972 86.8649 -62.148C87.0839 -61.4757 87.5171 -60.7393 87.7486 -60.5767C88.2114 -60.2515 88.177 -60.4485 87.739 -61.7932C87.4856 -62.6625 87.168 -63.3177 86.971 -63.2832C86.8725 -63.266 86.7568 -63.3473 86.7396 -63.4458C86.7224 -63.5443 86.2078 -64.165 85.7105 -64.6872C84.7848 -65.3375 84.386 -65.8769 84.4672 -65.9927C84.5485 -66.1084 84.647 -66.1256 84.6815 -65.9286C84.6987 -65.8301 84.8785 -65.963 85.1396 -66.2117C85.546 -66.7903 85.4772 -67.1843 85.0019 -66.9997C84.8221 -66.8668 84.4921 -67.0122 84.4577 -67.2092C84.2903 -67.586 84.3716 -67.7017 85.241 -67.9551C85.8148 -68.1569 86.2729 -68.44 86.2557 -68.5385C86.2385 -68.637 86.4011 -68.8685 86.5981 -68.9029C86.8936 -68.9546 87.1078 -68.8905 87.061 -68.5777C87.1126 -68.2822 86.8515 -68.0336 86.4575 -67.9647C86.0635 -67.8958 85.8837 -67.7629 86.0166 -67.5831C86.3638 -67.3392 86.1466 -65.677 85.8339 -65.7239C85.6197 -65.788 85.5384 -65.6723 85.4743 -65.458C85.4102 -65.2438 85.8043 -65.3127 86.3781 -65.5145C86.9519 -65.7163 87.3115 -65.9821 87.1786 -66.1619C87.0456 -66.3417 87.0112 -66.5387 87.191 -66.6717C87.3708 -66.8046 87.3192 -67.1001 87.1862 -67.2799C86.9204 -67.6395 86.9204 -67.6395 87.3833 -67.3144C87.6147 -67.1518 87.915 -66.5952 87.9026 -66.0854C87.959 -65.1816 88.6705 -64.5954 89.4414 -64.8316C89.8354 -64.9004 89.8182 -64.999 89.5054 -65.0458C88.88 -65.1395 88.4764 -66.2872 88.836 -66.5531C89.0158 -66.686 89.2472 -66.5234 89.2989 -66.2279C89.4835 -65.7526 90.6062 -65.1367 90.4217 -65.612C90.4044 -65.7105 90.503 -65.7277 90.7344 -65.5651C91.0816 -65.3212 91.1629 -65.437 91.2394 -66.1609C91.38 -67.0992 90.9467 -67.8356 90.523 -67.3555C90.3432 -67.2225 90.3777 -67.0255 90.4934 -66.9442C90.6091 -66.8629 90.6436 -66.6659 90.4465 -66.6315C90.2495 -66.5971 90.0181 -66.7596 89.9664 -67.0552C89.9148 -67.3507 89.5848 -67.4961 89.1736 -67.5257C88.7796 -67.4569 88.5481 -67.6194 88.4324 -67.7007C88.398 -67.8977 88.595 -67.9322 88.8905 -67.9838C89.2033 -67.937 89.3658 -68.1684 89.2329 -68.3482C89.1985 -68.5452 89.2453 -68.8579 89.4251 -68.9909C89.6049 -69.1238 89.3907 -69.1879 88.881 -69.2003C88.0585 -69.2596 87.8442 -69.3237 87.7926 -69.6192C87.8567 -69.8335 87.741 -69.9148 87.5612 -69.7818C87.3814 -69.6489 87.2828 -69.6317 87.2656 -69.7302C87.2484 -69.8287 87.0983 -70.107 86.9481 -70.3853C86.8152 -70.5651 86.862 -70.8778 86.9606 -70.8951C87.1576 -70.9295 87.2733 -70.8482 87.3249 -70.5527C87.3766 -70.2571 87.5908 -70.1931 87.7878 -70.2275C87.9848 -70.2619 87.9504 -70.4589 87.8347 -70.5402C87.719 -70.6215 87.6845 -70.8185 87.8815 -70.853C88.0786 -70.8874 88.2928 -70.8233 88.4085 -70.742C88.6227 -70.6779 88.837 -70.6139 88.9183 -70.7296C89.0981 -70.8625 89.1966 -70.8797 89.231 -70.6827C89.2482 -70.5842 89.1841 -70.37 89.0043 -70.237C88.726 -70.0869 88.859 -69.9071 89.2874 -69.7789C89.6174 -69.6336 90.0803 -69.3084 90.2304 -69.0301C90.8779 -68.2296 91.0529 -68.9708 90.5336 -70.1997C90.0487 -71.2317 90.0315 -71.3302 90.5757 -71.1207C90.9056 -70.9754 91.1543 -70.7143 91.0902 -70.5C91.0261 -70.2858 91.1418 -70.2045 91.2231 -70.3202C91.3044 -70.436 91.6172 -70.3891 91.7501 -70.2093C91.9815 -70.0467 91.9003 -69.931 91.686 -69.9951C91.4718 -70.0591 91.6047 -69.8793 91.9691 -69.537C92.3163 -69.2931 92.5994 -68.835 92.5353 -68.6207C92.4712 -68.4065 92.4884 -68.308 92.651 -68.5395C92.8308 -68.6724 93.1608 -68.527 93.4094 -68.2659C93.9067 -67.7437 93.9067 -67.7437 93.2172 -67.6232C92.7246 -67.5372 92.4463 -67.387 92.4635 -67.2885C92.498 -67.0915 92.695 -67.1259 92.7763 -67.2416C92.8576 -67.3574 93.0718 -67.2933 93.3032 -67.1307C93.4362 -66.9509 93.7489 -66.904 94.0272 -67.0542C94.3055 -67.2043 94.5025 -67.2388 94.5542 -66.9432C94.5886 -66.7462 94.8201 -66.5836 95.0171 -66.6181C95.2141 -66.6525 95.3298 -66.5712 95.3642 -66.3742C95.3987 -66.1772 95.6818 -65.7191 96.0461 -65.3767C96.4105 -65.0343 96.8437 -64.2979 97.1096 -63.9383C97.8776 -62.4482 98.5719 -61.9605 99.6211 -62.3469C100.867 -62.7677 101.291 -63.2478 101.153 -64.0358C101.067 -64.5284 101.166 -64.5456 101.693 -64.4346C102.104 -64.405 102.237 -64.2252 102.091 -63.8952C101.929 -63.6638 102.259 -63.5184 102.901 -63.3262C103.84 -63.1856 103.84 -63.1856 103.539 -63.7422C103.256 -64.2003 103.239 -64.2988 103.8 -63.9909C104.478 -63.6016 104.773 -63.6532 104.571 -64.2271C104.502 -64.6211 104.502 -64.6211 104.751 -64.36C104.884 -64.1802 105.115 -64.0176 105.33 -63.9535C105.544 -63.8895 105.793 -63.6284 105.977 -63.153C106.445 -62.2196 106.659 -62.1555 107.263 -62.7686C107.866 -63.3816 107.866 -63.3816 108.102 -62.6108C108.321 -61.9384 108.42 -61.9556 109.388 -62.2263C109.961 -62.4281 110.552 -62.5314 110.57 -62.4329C110.587 -62.3344 111.144 -62.6347 111.781 -63.0507C112.959 -63.8655 113.747 -64.0032 113.276 -63.2104C113.114 -62.9789 113.067 -62.6662 113.101 -62.4692C113.269 -62.0924 114.138 -62.3458 114.544 -62.9244C114.707 -63.1559 114.985 -63.306 115.281 -63.3577C115.791 -63.3452 115.808 -63.2467 115.337 -62.4539C114.867 -61.661 114.396 -60.8682 113.844 -59.9597C113.13 -58.8197 111.659 -55.6187 111.711 -55.3231C111.745 -55.1261 111.634 -54.5992 111.407 -54.1535C110.971 -53.1636 111.328 -51.7032 112.529 -49.4768C112.962 -48.7404 113.25 -47.674 113.354 -47.083C113.393 -46.2777 113.41 -46.1792 113.144 -46.5388C112.977 -46.9156 112.913 -46.7014 113.05 -45.9133C113.171 -45.2238 113.373 -44.6499 113.488 -44.5686C113.604 -44.4873 113.772 -44.1105 113.626 -43.7806C113.498 -43.3521 113.648 -43.0738 113.978 -42.9284C114.325 -42.6846 114.36 -42.4875 114.15 -41.9434C113.86 -41.2835 113.975 -41.2022 114.386 -41.1725C114.798 -41.1429 114.815 -41.0444 114.408 -40.4658C114.165 -40.1186 113.938 -39.6729 114.036 -39.6901C114.337 -39.1335 113.977 -38.8677 113.334 -39.0599C112.692 -39.2521 112.675 -39.3506 113.017 -39.715C113.359 -40.0794 113.261 -40.0622 112.687 -39.8604C112.212 -39.6758 112.032 -39.5429 112.251 -38.8705C112.453 -38.2967 112.684 -38.1341 113.275 -38.2374C114.08 -38.2766 114.08 -38.2766 113.79 -37.6167C113.546 -37.2695 113.615 -36.8755 113.73 -36.7942C113.846 -36.7129 113.915 -36.3189 113.77 -35.989C113.543 -35.5433 113.56 -35.4448 114.1 -35.8436C114.558 -36.1267 114.673 -36.0454 114.742 -35.6513C114.863 -34.9618 114.636 -34.5161 114.173 -34.8413C113.925 -35.1024 113.745 -34.9695 113.634 -34.4425C113.395 -33.4871 113.653 -32.0095 113.88 -32.4551C114.042 -32.6866 114.072 -33.0978 114.02 -33.3933C113.882 -34.1814 114.126 -34.5286 114.786 -34.2378C115.116 -34.0924 115.412 -34.1441 115.591 -34.277C115.673 -34.3927 115.887 -34.3287 115.921 -34.1316C115.956 -33.9346 115.81 -33.6047 115.532 -33.4545C115.254 -33.3044 115.109 -32.9744 115.177 -32.5804C115.229 -32.2849 115.431 -31.7111 115.482 -31.4155C115.667 -30.9402 115.586 -30.8245 114.977 -30.8197C114.468 -30.8321 114.386 -30.7164 114.635 -30.4553C114.768 -30.2755 114.721 -29.9628 114.541 -29.8299C114.263 -29.6797 114.315 -29.3842 114.448 -29.2044C114.581 -29.0246 114.893 -28.9777 115.172 -29.1279C115.351 -29.2608 115.566 -29.1967 115.583 -29.0982C115.617 -28.9012 115.802 -28.4259 115.986 -27.9506C116.223 -27.1797 116.321 -27.1969 116.664 -27.5613C117.169 -28.1571 117.255 -27.6646 116.865 -26.9875C116.639 -26.5418 116.656 -26.4433 116.951 -26.495C117.247 -26.5466 117.281 -26.3496 116.956 -25.8867C116.567 -25.2096 116.653 -24.717 117.03 -24.8844C117.227 -24.9188 117.343 -24.8375 117.458 -24.7563C117.493 -24.5592 117.296 -24.5248 116.902 -24.456C116.096 -24.4167 116.182 -23.9242 117.121 -23.7836C117.549 -23.6555 117.781 -23.4929 117.601 -23.3599C117.421 -23.227 117.322 -23.2098 117.19 -23.3896C117.155 -23.5866 116.975 -23.4537 116.928 -23.1409C116.788 -22.2027 116.955 -21.8259 117.396 -22.2075C117.657 -22.4562 117.871 -22.3921 117.94 -21.9981C118.108 -21.6212 117.945 -21.3898 117.47 -21.2052C117.093 -21.0379 116.994 -21.0206 117.209 -20.9566C117.521 -20.9097 117.539 -20.8112 117.196 -20.4468C116.773 -19.9667 116.773 -19.9667 117.364 -20.07C117.839 -20.2546 117.856 -20.1561 117.45 -19.5775C116.962 -18.8831 116.962 -18.8831 117.669 -18.9051C118.375 -18.9271 118.791 -18.2892 118.218 -18.0874C118.021 -18.053 117.905 -18.1343 117.755 -18.4126C117.72 -18.6096 117.489 -18.7722 117.292 -18.7378C116.817 -18.5532 117.233 -17.9153 117.841 -17.92C118.351 -17.9076 118.351 -17.9076 117.91 -17.526C117.649 -17.2774 117.567 -17.1616 117.764 -17.1961C117.961 -17.2305 118.077 -17.1492 118.094 -17.0507C118.013 -16.935 118.244 -16.7724 118.557 -16.7255C118.968 -16.6959 118.986 -16.5974 118.956 -16.1861C118.909 -15.8734 118.862 -15.5607 118.879 -15.4621C118.897 -15.3636 118.983 -14.8711 118.987 -14.2628C119.13 -12.8665 119.147 -12.768 119.268 -12.0785C119.319 -11.7829 119.208 -11.256 119.063 -10.926C118.657 -10.3474 119.038 -9.90654 119.71 -10.1255C120.284 -10.3273 120.319 -10.1303 120.062 -9.27341C119.887 -8.53222 119.961 -7.52993 120.382 -6.28376C120.549 -5.90695 120.473 -5.18297 120.345 -4.75451C120.135 -4.21033 120.17 -4.01332 120.431 -4.26197C120.692 -4.51063 120.807 -4.42934 120.812 -3.82108C120.886 -2.8188 120.92 -2.62178 121.318 1.9784C121.483 4.08148 121.699 6.48008 121.639 7.30257C121.679 8.10785 121.735 9.01162 121.804 9.40565C122.057 10.275 121.892 12.2327 121.562 12.0873C121.446 12.006 121.365 12.1218 121.382 12.2203C121.417 12.4173 121.631 12.4814 121.746 12.5627C122.488 12.7377 122.574 13.2302 122.66 13.7228C122.669 14.9393 122.787 17.3551 122.89 17.9461C122.942 18.2417 122.814 18.6701 122.75 18.8843C122.587 19.1158 122.592 19.724 122.678 20.2166C122.988 21.9897 123.113 23.2875 122.869 23.6347C122.707 23.8661 122.707 23.8661 122.904 23.8317C123.199 23.78 123.234 23.9771 123.221 24.4868C123.191 24.8981 123.253 26.4101 123.378 27.7079C123.892 32.3894 123.943 32.6849 124.137 34.3767C124.194 35.2805 124.25 36.1843 124.203 36.497C124.139 36.7113 124.191 37.0068 124.307 37.0881C124.422 37.1694 124.375 37.4821 124.311 37.6963C124.102 38.2405 124.909 40.5358 125.286 40.3685C125.483 40.334 125.495 39.8243 125.409 39.3317C125.306 38.7407 125.22 38.2482 125.284 38.0339C125.395 37.507 125.98 40.8562 126.243 42.9421C126.368 44.2399 126.309 45.0624 125.967 45.4268C125.543 45.9069 125.56 46.0054 126.203 46.1976C126.764 46.5056 126.902 47.2936 126.38 47.7909C126.299 47.9066 126.397 47.8894 126.577 47.7565C126.855 47.6064 126.988 47.7861 127.126 48.5742C127.527 51.4481 127.664 52.2362 128.54 54.9255C129.013 56.4672 129.567 57.8932 129.682 57.9745C129.815 58.1543 129.734 58.27 129.438 58.3217C129.062 58.489 129.079 58.5875 129.263 59.0628C129.431 59.4397 129.5 59.8337 129.337 60.0651C129.174 60.2966 129.162 60.8063 129.445 61.2644C129.711 61.624 129.763 61.9195 129.63 61.7397C129.497 61.56 129.184 61.5131 129.085 61.5303C128.709 61.6977 129.026 62.3528 129.72 62.8405C130.299 63.247 130.316 63.3455 129.76 63.6458C129.4 63.9117 129.336 64.1259 129.486 64.4042C129.983 64.9264 130.55 65.8426 130.451 65.8598C129.959 65.9459 129.565 66.0148 129.072 66.1008ZM78.7662 -55.0479C78.7959 -55.4591 78.7959 -55.4591 78.4535 -55.0947C78.047 -54.5161 78.0642 -54.4176 78.4582 -54.4865C78.638 -54.6194 78.8006 -54.8509 78.7662 -55.0479ZM84.3782 -54.3028C84.1937 -54.7782 84.0779 -54.8594 83.7528 -54.3966C83.5902 -54.1651 83.3291 -53.9165 83.3463 -53.818C83.2478 -53.8007 83.4792 -53.6382 83.7107 -53.4756C84.3706 -53.1848 84.713 -53.5492 84.3782 -54.3028ZM86.3723 -51.6058C86.4364 -51.8201 86.2221 -51.8841 86.0423 -51.7512C85.7468 -51.6996 85.6827 -51.4853 85.7984 -51.404C85.9142 -51.3227 86.1284 -51.2587 86.1284 -51.2587C86.2269 -51.2759 86.3895 -51.5073 86.3723 -51.6058ZM78.5998 -49.0294C78.5653 -49.2264 78.3339 -49.389 78.2354 -49.3718C77.8586 -49.2044 77.7304 -48.776 78.0604 -48.6306C78.4075 -48.3867 78.7671 -48.6526 78.5998 -49.0294ZM110.598 -48.3272C110.529 -48.7213 110.264 -49.0809 110.049 -49.1449C109.835 -49.209 109.805 -48.7978 109.99 -48.3224C110.394 -47.1748 110.886 -47.2609 110.598 -48.3272ZM111.826 -44.7857C111.792 -44.9828 111.89 -45 112.122 -44.8374C112.353 -44.6748 112.567 -44.6107 112.452 -44.692C112.435 -44.7905 112.383 -45.086 112.43 -45.3988C112.477 -45.7115 112.361 -45.7928 112.198 -45.5614C112.036 -45.3299 111.92 -45.4112 111.967 -45.724C112.014 -46.0367 111.8 -46.1008 111.341 -45.8177C110.489 -45.4657 110.649 -43.9709 111.42 -44.2071C111.698 -44.3573 111.861 -44.5887 111.826 -44.7857ZM90.9475 -40.5281C90.9944 -40.8408 89.8716 -41.4567 89.4948 -41.2893C89.2978 -41.2549 89.2337 -41.0407 89.2509 -40.9422C89.2681 -40.8437 89.5809 -40.7968 89.8764 -40.8485C90.2532 -41.0158 90.2704 -40.9173 90.0093 -40.6687C89.8467 -40.4372 89.7827 -40.223 90.0141 -40.0604C90.4598 -39.8337 90.9179 -40.1168 90.9475 -40.5281ZM92.9655 -34.7898C92.3916 -34.588 92.2463 -34.258 92.6919 -34.0314C93.0219 -33.886 93.48 -34.1691 93.5096 -34.5803C93.5737 -34.7945 93.261 -34.8414 92.9655 -34.7898ZM92.8277 -35.5778C92.5322 -35.5262 92.3696 -35.2947 92.4854 -35.2135C92.5198 -35.0164 92.734 -34.9524 92.8153 -35.0681C93.0123 -35.1025 93.0764 -35.3167 93.1577 -35.4325C93.239 -35.5482 93.1233 -35.6295 92.8277 -35.5778ZM91.0087 -39.016C91.2057 -39.0505 91.0728 -39.2303 90.7601 -39.2771C89.9204 -39.4349 89.4843 -38.4451 89.9519 -37.5116C90.4884 -36.1842 91.5252 -36.0608 91.2029 -37.3242C91.134 -37.7182 90.9322 -38.292 90.7993 -38.4718C90.7649 -38.6689 90.8289 -38.8831 91.0087 -39.016ZM113.992 -41.1037C113.958 -41.3007 113.842 -41.382 113.761 -41.2663C113.663 -41.249 113.581 -41.1333 113.517 -40.9191C113.453 -40.7049 113.569 -40.6236 113.749 -40.7565C113.83 -40.8722 114.01 -41.0052 113.992 -41.1037ZM110.231 -36.4872C110.214 -36.5858 109.982 -36.7483 109.785 -36.7139C109.588 -36.6795 109.502 -37.172 109.694 -37.8147C109.852 -38.6544 109.847 -39.2627 109.38 -40.1961C109.062 -40.8512 108.664 -41.3906 108.565 -41.3734C108.466 -41.3562 108.402 -41.142 108.42 -41.0435C108.454 -40.8464 108.356 -40.8292 108.159 -40.7948C107.73 -40.923 107.538 -40.2803 107.885 -40.0364C108.116 -39.8738 108.215 -39.891 108.36 -40.221C108.506 -40.5509 108.506 -40.5509 108.656 -40.2726C108.69 -40.0756 108.973 -39.6175 109.141 -39.2407L109.458 -38.5855L108.683 -38.9576C107.774 -39.5094 107.449 -39.0465 108.212 -38.1647C108.611 -37.6253 108.744 -37.4455 108.483 -37.1969C108.303 -37.064 108.303 -37.064 108.367 -37.2782C108.431 -37.4924 108.414 -37.5909 108.217 -37.5565C108.02 -37.5221 108.089 -37.128 108.158 -36.734C108.394 -35.9632 108.492 -35.9804 109.987 -36.1401C110.167 -36.273 110.248 -36.3887 110.231 -36.4872ZM105.554 -35.3654C105.85 -35.4171 106.03 -35.55 105.914 -35.6313C105.798 -35.7126 105.52 -35.5625 105.34 -35.4295C105.062 -35.2794 105.16 -35.2966 105.554 -35.3654ZM101.365 -34.938C101.395 -35.3492 101.181 -35.4133 100.885 -35.3616C100.688 -35.3272 100.508 -35.1943 100.526 -35.0958C100.543 -34.9973 100.577 -34.8002 100.53 -34.4875C100.484 -34.1748 100.698 -34.1107 100.895 -34.1451C101.272 -34.3125 101.434 -34.5439 101.365 -34.938ZM109.632 -35.266C110.026 -35.3348 110.189 -35.5663 110.172 -35.6648C110.12 -35.9603 108.874 -35.5395 108.45 -35.0594C108.27 -34.9264 108.224 -34.6137 108.438 -34.5496C108.785 -34.3058 109.26 -34.4903 109.209 -34.7859C109.076 -34.9657 109.354 -35.1158 109.632 -35.266ZM110.25 -34.0542C110.546 -34.1059 110.592 -34.4186 110.541 -34.7141C110.339 -35.2879 110.142 -35.2535 109.62 -34.7562C109.196 -34.2761 109.578 -33.8352 110.25 -34.0542ZM85.1126 -25.7023C85.147 -25.5053 85.344 -25.5397 85.4425 -25.5569C85.6395 -25.5914 85.7036 -25.8056 85.6864 -25.9041C85.652 -26.1011 85.455 -26.0667 85.3565 -26.0495C85.1594 -26.015 85.0781 -25.8993 85.1126 -25.7023ZM105.233 -30.2335C105.314 -30.3492 105.28 -30.5462 105.048 -30.7088C104.915 -30.8886 104.834 -30.7729 104.886 -30.4774C105.117 -30.3148 105.152 -30.1178 105.233 -30.2335ZM94.8619 -25.6802C94.5492 -25.7271 94.5147 -25.9241 94.7586 -26.2713C95.1651 -26.8499 95.079 -27.3424 94.6381 -26.9608C94.377 -26.7122 94.377 -26.7122 94.6037 -27.1579C94.7663 -27.3893 94.7615 -27.9976 94.5941 -28.3744C94.3751 -29.0467 94.3579 -29.1452 93.8529 -28.5494C93.4293 -28.0693 93.3996 -27.658 93.6875 -26.5917C94.0098 -25.3283 94.1255 -25.247 94.6993 -25.4488C95.1919 -25.5349 95.1746 -25.6334 94.8619 -25.6802ZM113.647 -28.5569C113.908 -28.8056 113.694 -28.8697 113.004 -28.7492C112.315 -28.6287 112.135 -28.4957 112.187 -28.2002C112.354 -27.8234 113.125 -28.0596 113.647 -28.5569ZM112.903 -27.0057C112.886 -27.1042 112.672 -27.1683 112.556 -27.2496C112.342 -27.3136 112.26 -27.1979 112.295 -27.0009C112.329 -26.8039 112.543 -26.7398 112.642 -26.757C112.822 -26.89 112.903 -27.0057 112.903 -27.0057ZM95.9072 -20.2796C95.4787 -20.4077 95.4491 -19.9965 95.626 -18.4031C95.9359 -16.63 96.6178 -15.6325 96.7067 -16.8662C96.7536 -17.179 96.6551 -17.1618 96.4753 -17.0288C96.2314 -16.6817 95.8699 -18.7503 96.0105 -19.6885C96.1559 -20.0185 96.1214 -20.2155 95.9072 -20.2796ZM117.268 -21.779C117.118 -22.0574 116.904 -22.1214 116.724 -21.9885C116.544 -21.8556 116.677 -21.6758 116.908 -21.5132C117.568 -21.2224 117.667 -21.2396 117.268 -21.779ZM112.712 -19.9677C112.66 -20.2632 112.591 -20.6572 112.673 -20.773C112.754 -20.8887 112.783 -21.2999 112.651 -21.4797C112.599 -21.7752 112.663 -21.9895 112.779 -21.9082C112.993 -21.8441 112.959 -22.0411 112.808 -22.3194C112.242 -23.2356 111.39 -22.8837 111.875 -21.8518C111.909 -21.6547 111.862 -21.342 111.7 -21.1106C111.456 -20.7634 111.508 -20.4679 111.774 -20.1083C112.039 -19.7487 111.975 -19.5344 111.796 -19.4015C111.599 -19.3671 111.534 -19.1529 111.749 -19.0888C112.212 -18.7636 112.914 -19.3939 112.712 -19.9677ZM96.9305 -15.5856C97.226 -15.6373 97.2901 -15.8515 97.1744 -15.9328C97.0587 -16.0141 96.7459 -16.061 96.6474 -16.0438C96.4504 -16.0093 96.3863 -15.7951 96.4035 -15.6966C96.4207 -15.5981 96.635 -15.534 96.9305 -15.5856ZM98.9006 -5.47383C99.307 -6.05244 99.0584 -6.31353 98.4846 -6.11174C97.8122 -5.89273 97.6028 -5.34856 97.9499 -5.10468C98.2971 -4.8608 98.5754 -5.01094 98.9006 -5.47383ZM114.792 -6.32205C115.087 -6.37369 115.25 -6.60514 115.134 -6.68643C115.1 -6.88344 114.886 -6.94752 114.804 -6.8318C114.607 -6.79737 114.445 -6.56593 114.462 -6.46742C114.398 -6.2532 114.513 -6.1719 114.792 -6.32205ZM116.118 7.65832C116.101 7.55981 115.887 7.49573 115.771 7.41443C115.557 7.35036 115.476 7.46608 115.51 7.6631C115.544 7.86011 115.759 7.92419 115.857 7.90697C116.037 7.77404 116.135 7.75682 116.118 7.65832ZM101.513 15.2863C101.577 15.0721 101.462 14.9908 101.282 15.1237C101.085 15.1582 101.021 15.3724 101.038 15.4709C101.072 15.6679 101.188 15.7492 101.269 15.6335C101.368 15.6163 101.432 15.402 101.513 15.2863ZM105.768 58.8035C105.751 58.705 105.537 58.6409 105.438 58.6582C105.224 58.5941 105.143 58.7098 105.177 58.9068C105.211 59.1038 105.426 59.1679 105.507 59.0522C105.704 59.0178 105.785 58.902 105.768 58.8035Z" fill="white"/>
<path d="M108.56 62.5793C108.577 62.6778 108.513 62.8921 108.316 62.9265C108.119 62.9609 108.003 62.8796 108.084 62.7639C108.148 62.5497 108.23 62.434 108.328 62.4167C108.427 62.3995 108.542 62.4808 108.56 62.5793Z" fill="white"/>
<path d="M107.085 61.1113C107.119 61.3083 106.905 61.2442 106.656 60.9831C106.391 60.6235 106.373 60.525 106.686 60.5719C106.9 60.636 107.05 60.9143 107.085 61.1113Z" fill="white"/>
<path d="M116.585 -29.1719C116.881 -29.2235 116.996 -29.1422 116.915 -29.0265C116.851 -28.8123 116.77 -28.6965 116.671 -28.6793C116.573 -28.6621 116.457 -28.7434 116.341 -28.8247C116.208 -29.0045 116.388 -29.1374 116.585 -29.1719Z" fill="white"/>
<path d="M116.58 -29.7801C116.546 -29.9771 116.627 -30.0929 116.824 -30.1273C117.021 -30.1617 117.137 -30.0804 117.154 -29.9819C117.189 -29.7849 117.107 -29.6692 116.91 -29.6347C116.812 -29.6175 116.598 -29.6816 116.58 -29.7801Z" fill="white"/>
<path d="M115.411 -30.0833C115.573 -30.3147 115.522 -30.6103 115.307 -30.6743C115.192 -30.7556 115.389 -30.7901 115.817 -30.6619C116.755 -30.5213 116.726 -30.1101 115.758 -29.8394C115.381 -29.6721 115.265 -29.7534 115.411 -30.0833Z" fill="white"/>
<path d="M115.89 -36.0549C116.087 -36.0894 116.301 -36.0253 116.318 -35.9268C116.353 -35.7298 116.37 -35.6313 116.271 -35.614C116.173 -35.5968 116.057 -35.6781 115.843 -35.7422C115.612 -35.9048 115.693 -36.0205 115.89 -36.0549Z" fill="white"/>
<path d="M76.4355 -50.3769C76.3714 -50.1627 76.2385 -50.3425 76.1524 -50.835C75.985 -51.2119 76.0491 -51.4261 76.182 -51.2463C76.3322 -50.968 76.4996 -50.5912 76.4355 -50.3769Z" fill="white"/>
<path d="M75.6905 -55.221C75.7249 -55.024 75.6608 -54.8098 75.4638 -54.7753C75.2668 -54.7409 75.1511 -54.8222 75.0009 -55.1005C74.9665 -55.2975 75.0306 -55.5118 75.2276 -55.5462C75.4246 -55.5806 75.6561 -55.418 75.6905 -55.221Z" fill="white"/>
<path d="M98.9564 -63.2459C98.417 -62.847 98.417 -62.8471 98.0354 -63.2879C97.7695 -63.6475 97.8508 -63.7633 98.4591 -63.768C99.3456 -63.923 99.4958 -63.6447 98.9564 -63.2459Z" fill="white"/>
<path d="M76.5331 -56.7895C76.5847 -56.4939 76.5378 -56.1812 76.4393 -56.164C76.2423 -56.1296 76.1266 -56.2109 75.9765 -56.4892C75.942 -56.6862 75.9889 -56.9989 76.0702 -57.1146C76.2672 -57.1491 76.3829 -57.0678 76.5331 -56.7895Z" fill="white"/>
<path d="M97.4176 -64.4997C97.2158 -65.0735 97.3956 -65.2064 97.7772 -64.7656C97.9101 -64.5858 97.9618 -64.2902 97.8805 -64.1745C97.7007 -64.0416 97.5677 -64.2214 97.4176 -64.4997Z" fill="white"/>
<path d="M99.9989 -66.575C100.474 -66.7596 100.787 -66.7127 101.036 -66.4516C101.4 -66.1092 101.319 -65.9935 100.27 -65.6072C99.5972 -65.3881 99.0061 -65.2849 99.0061 -65.2849C98.6762 -65.4302 99.3437 -66.2575 99.9989 -66.575Z" fill="white"/>
<path d="M76.8219 -59.7839C77.0017 -59.9168 77.1174 -59.8355 77.1519 -59.6385C77.1863 -59.4415 77.1394 -59.1288 77.0581 -59.013C76.8783 -58.8801 76.7626 -58.9614 76.7282 -59.1584C76.6765 -59.4539 76.6421 -59.651 76.8219 -59.7839Z" fill="white"/>
<path d="M98.0507 -65.524C97.8537 -65.4895 97.738 -65.5708 97.6863 -65.8663C97.6519 -66.0634 97.6175 -66.2604 97.716 -66.2776C97.8145 -66.2948 97.9302 -66.2135 98.0804 -65.9352C98.2305 -65.6569 98.2305 -65.6569 98.0507 -65.524Z" fill="white"/>
<path d="M98.5978 -67.0408C98.5633 -67.2378 98.5289 -67.4348 98.6274 -67.452C98.7259 -67.4692 98.8589 -67.2894 98.9918 -67.1096C99.1247 -66.9298 99.1592 -66.7328 98.9621 -66.6984C98.8636 -66.6812 98.6494 -66.7453 98.5978 -67.0408Z" fill="white"/>
<path d="M78.9747 -61.9874C79.4893 -61.3667 79.4893 -61.3667 78.6496 -61.5245C77.3001 -61.6947 76.7263 -61.4929 77.5019 -61.1209C78.1618 -60.8302 78.4277 -60.4706 77.9524 -60.286C77.7553 -60.2516 77.4082 -60.4954 77.061 -60.7393C76.5809 -61.163 76.5465 -61.36 76.8889 -61.7244C77.15 -61.973 77.2781 -62.4015 77.2265 -62.697C77.0419 -63.1723 77.1404 -63.1896 77.7018 -62.8816C78.1303 -62.7534 78.7089 -62.347 78.9747 -61.9874Z" fill="white"/>
<path d="M99.0683 -67.8336C99.2137 -68.1636 99.6593 -67.9369 99.6297 -67.5257C99.5828 -67.2129 99.5828 -67.2129 99.2529 -67.3583C99.1372 -67.4396 98.987 -67.7179 99.0683 -67.8336Z" fill="white"/>
<path d="M95.1998 -68.4773C95.1825 -68.5758 95.0152 -68.9526 94.7665 -69.2137C94.5006 -69.5733 94.449 -69.8688 94.6929 -70.216C94.9195 -70.6616 95.0181 -70.6789 95.4809 -70.3537C96.0768 -69.8487 96.8476 -70.0849 97.2196 -70.8606C97.4291 -71.4047 97.5448 -71.3234 97.7982 -70.4541C98.1674 -69.5035 97.7954 -68.7278 97.2808 -69.3485C97.1479 -69.5283 96.6209 -69.6393 96.2441 -69.4719C95.6703 -69.2701 95.589 -69.1544 95.8721 -68.6963C96.2881 -68.0584 96.3053 -67.9599 95.5641 -68.1349C95.4484 -68.2162 95.217 -68.3788 95.1998 -68.4773Z" fill="white"/>
<path d="M76.7368 -64.3372C77.1997 -64.012 77.2686 -63.618 76.7244 -63.8275C76.6259 -63.8102 76.4757 -64.0886 76.4241 -64.3841C76.2739 -64.6624 76.3724 -64.6796 76.7368 -64.3372Z" fill="white"/>
<path d="M87.9992 -68.4371C87.9179 -68.3214 87.8194 -68.3042 87.6051 -68.3683C87.4894 -68.4496 87.3565 -68.6294 87.2408 -68.7107C87.2063 -68.9077 87.3048 -68.9249 87.6348 -68.7795C87.9475 -68.7327 88.0805 -68.5529 87.9992 -68.4371Z" fill="white"/>
<path d="M85.7708 -69.5705C85.8052 -69.3735 85.7239 -69.2577 85.5269 -69.2233C85.3299 -69.1889 85.2142 -69.2702 85.197 -69.3687C85.1626 -69.5657 85.2438 -69.6814 85.4409 -69.7158C85.5222 -69.8316 85.7364 -69.7675 85.7708 -69.5705Z" fill="white"/>
<path d="M82.9122 -71.4058C82.5306 -71.8467 82.3805 -72.125 82.543 -72.3564C82.7056 -72.5879 82.9199 -72.5238 83.2029 -72.0657C83.7691 -71.1495 83.5597 -70.6053 82.9122 -71.4058Z" fill="white"/>
<path d="M86.4757 -71.927C86.3944 -71.8113 86.2787 -71.8926 86.227 -72.1881C86.1754 -72.4836 86.1582 -72.5821 86.3896 -72.4195C86.5225 -72.2397 86.557 -72.0427 86.4757 -71.927Z" fill="white"/>
<path d="M87.3355 -73.3969C87.4512 -73.3156 87.6013 -73.0373 87.6702 -72.6433L87.7735 -72.0523L87.2762 -72.5745C86.8601 -73.2124 86.8898 -73.6236 87.3355 -73.3969Z" fill="white"/>
<path d="M84.7905 -68.7901C84.7561 -68.9871 84.8374 -69.1028 84.9359 -69.12C85.0344 -69.1372 85.1501 -69.0559 85.1845 -68.8589C85.219 -68.6619 85.1377 -68.5462 85.0392 -68.529C84.9407 -68.5118 84.8249 -68.5931 84.7905 -68.7901Z" fill="white"/>
</g>
</g>
<path d="M86.4369 77.3832C87.6454 77.3832 88.8582 77.3832 90.0667 77.3832C90.2161 77.3832 90.3613 77.3911 90.4254 77.5359C90.4894 77.6846 90.3869 77.7786 90.2802 77.8725C90.024 78.0995 89.772 78.3305 89.5243 78.5614C89.187 78.8785 89.187 79.2856 89.5329 79.6026C89.9599 79.994 90.3912 80.3855 90.8268 80.7691C91.1684 81.0744 91.6082 81.0783 91.9456 80.773C93.4658 79.3834 94.9903 77.9899 96.502 76.5926C97.1596 75.9859 97.1682 75.0269 96.5148 74.4241C94.986 73.0071 93.4445 71.6097 91.9072 70.2045C91.6082 69.9344 91.1513 69.9305 90.8481 70.2006C90.3869 70.6077 89.9343 71.0226 89.4902 71.4453C89.187 71.735 89.1955 72.1382 89.503 72.4278C89.7635 72.6744 90.0368 72.9171 90.3058 73.1598C90.404 73.2459 90.4809 73.3398 90.4254 73.469C90.3656 73.606 90.2375 73.6256 90.0923 73.6256C87.6924 73.6217 85.2967 73.6256 82.8968 73.6217C82.3033 73.6217 82.0001 73.8917 82.0001 74.4358C82.0001 75.16 82.0001 75.8841 82.0001 76.6082C82.0001 77.0975 82.3161 77.3832 82.8499 77.3832C84.0455 77.3832 85.2412 77.3832 86.4369 77.3832Z" fill="white"/>
<defs>
<filter id="filter0_d" x="6.10352e-05" y="0" width="180" height="180" filterUnits="userSpaceOnUse" color-interpolation-filters="sRGB">
<feFlood flood-opacity="0" result="BackgroundImageFix"/>
<feColorMatrix in="SourceAlpha" type="matrix" values="0 0 0 0 0 0 0 0 0 0 0 0 0 0 0 0 0 0 127 0"/>
<feOffset dy="15"/>
<feGaussianBlur stdDeviation="30"/>
<feColorMatrix type="matrix" values="0 0 0 0 0.188235 0 0 0 0 0.670588 0 0 0 0 0.466667 0 0 0 0.15 0"/>
<feBlend mode="multiply" in2="BackgroundImageFix" result="effect1_dropShadow"/>
<feBlend mode="normal" in="SourceGraphic" in2="effect1_dropShadow" result="shape"/>
</filter>
<linearGradient id="paint0_linear" x1="30" y1="0" x2="87.0492" y2="47.541" gradientUnits="userSpaceOnUse">
<stop stop-color="#32AB77"/>
<stop offset="1" stop-color="#1F983A"/>
</linearGradient>
<linearGradient id="paint1_linear" x1="30" y1="0" x2="87.0492" y2="47.541" gradientUnits="userSpaceOnUse">
<stop stop-color="#32AB77"/>
<stop offset="1" stop-color="#1F983A"/>
</linearGradient>
</defs>
</svg>
