<svg width="701" height="702" viewBox="0 0 701 702" fill="none" xmlns="http://www.w3.org/2000/svg">
<path d="M237.086 682.213C205.458 673.171 176.704 658.604 149.981 639.684C112.263 613.061 80.1271 580.914 55.264 542.068C35.6441 511.595 21.2675 478.778 11.7958 443.783C2.66242 409.794 -0.720314 375.469 0.12537 340.475C1.14019 303.472 7.90567 267.64 20.9292 232.981C43.4244 173.206 78.4357 122.473 128.162 81.6187C157.592 57.5079 190.404 38.755 225.754 25.0253C232.012 22.5137 238.439 19.8347 245.205 18.6627C246.558 17.9929 248.249 17.4906 249.264 18.3278C253.154 21.3417 252.985 21.3417 257.383 20.0022C273.281 15.1465 289.18 11.1281 305.925 11.4629C310.83 11.6304 315.227 9.78856 319.963 9.11882C328.251 8.95138 336.539 8.78395 344.995 8.44907C350.746 7.77933 356.666 7.61189 362.416 8.44907C461.531 11.4629 544.069 50.3082 611.386 121.636C613.077 123.31 615.783 124.315 615.953 127.329C616.629 128.166 616.629 128.836 615.953 129.673C610.202 131.18 607.834 126.492 604.959 123.478C580.603 97.86 552.695 76.7631 521.743 59.5171C499.756 47.2943 476.415 38.4202 452.228 31.7227C420.092 22.8486 387.28 18.1604 353.791 19.3324C327.913 20.1696 302.373 24.0206 277.002 29.546C242.329 36.9132 210.532 50.8104 180.425 68.5587C134.758 95.5159 97.2099 131.347 68.4567 175.718C48.8368 206.024 34.9676 238.841 26.1724 273.668C21.6057 291.751 19.5761 310.337 17.5465 328.922C14.6711 354.875 17.0391 380.66 19.7452 406.445C22.1132 428.379 29.386 449.309 36.6589 470.238C51.0356 511.26 74.3764 546.924 102.453 579.574C124.441 605.192 151.165 625.954 180.425 643.2C198.354 653.916 217.466 662.12 236.579 670.157C239.285 672.166 243.513 673.171 242.16 677.859C241.484 680.371 241.315 683.887 237.086 682.213Z" fill="#EFF5F2"/>
<path d="M696.969 370.781C696.8 402.092 692.91 432.565 683.1 462.536C666.863 511.93 641.662 555.798 605.974 593.806C596.502 603.852 586.354 613.061 575.698 621.768C572.654 621.098 572.654 621.098 574.514 618.252C553.879 632.149 534.936 647.888 511.764 656.595C503.984 661.116 495.527 664.129 487.409 667.981C485.717 668.65 484.026 668.818 482.335 668.65C480.981 668.483 479.797 668.148 478.783 667.143C478.614 662.288 482.504 661.451 485.717 660.111C512.103 648.558 536.289 633.489 558.953 616.075C561.829 614.234 563.689 610.885 567.41 610.215C576.713 605.527 583.986 598.495 591.597 591.797C595.995 587.946 590.751 583.258 593.627 579.574C604.959 566.012 616.629 552.952 626.777 538.552C648.089 508.749 664.157 476.433 674.643 441.439C679.379 425.868 681.916 410.129 684.96 394.222C686.314 387.525 690.035 381.33 690.373 374.297C692.233 372.121 693.756 369.944 696.969 370.781Z" fill="#EFF5F2"/>
<path d="M494.343 671.664C468.296 683.385 440.896 691.422 412.819 696.11C377.808 701.97 342.458 703.812 307.278 697.952C301.527 696.947 295.438 697.449 289.857 695.273C288.165 694.101 286.136 694.77 284.275 694.435C279.37 693.598 276.664 691.422 279.709 686.231C283.091 684.054 286.643 684.724 290.364 685.561C313.198 690.584 336.2 693.263 359.541 693.096C382.036 692.929 404.193 689.915 426.181 685.561C433.454 684.222 441.403 684.892 447.831 679.868C449.522 678.864 451.382 678.362 453.243 678.194C458.655 679.031 463.222 675.683 468.296 674.845C475.569 673.171 481.996 669.32 489.1 667.311C491.806 665.804 494.512 664.967 497.557 665.636C502.631 670.659 495.02 669.487 494.343 671.664Z" fill="#EFF5F2"/>
<path d="M320.301 9.11883C314.043 13.4722 306.77 11.7978 300.005 12.9699C284.444 15.4814 268.884 18.6627 253.831 23.5183C251.801 24.1881 249.433 23.8532 246.727 24.1881C247.573 21.844 253.492 18.3278 245.712 18.8301C255.353 13.3047 266.178 11.6304 276.664 9.11883C309.646 1.41676 343.135 -0.592474 376.962 1.08189C393.199 1.75163 409.437 3.76087 425.335 8.78396C382.375 2.25394 339.583 1.75163 297.468 10.2909C304.741 12.8024 312.352 7.44447 320.301 9.11883Z" fill="#EFF5F2"/>
<path d="M697.815 296.607C698.491 305.648 701.705 314.355 700.859 323.732C700.521 326.745 701.029 329.759 697.307 332.773C698.491 318.541 695.278 305.983 692.572 293.091C688.851 287.9 688.512 281.538 687.159 275.845C677.857 236.33 662.127 199.829 639.294 166.174C636.926 162.825 634.05 159.477 634.219 154.956C634.727 153.616 635.573 152.612 636.926 152.444C647.074 163.495 654.347 176.555 661.281 189.615C674.136 213.391 684.453 238.172 690.88 264.292C693.586 275.008 695.616 285.891 697.815 296.607Z" fill="#EFF5F2"/>
<path d="M494.343 671.664C493.667 668.818 499.756 670.157 497.557 666.474C500.432 659.609 507.705 659.776 512.948 656.93C514.64 656.093 516.838 656.595 518.192 655.423C515.993 656.26 513.794 657.097 511.426 655.423C525.803 649.395 538.488 640.521 551.511 631.982C558.953 627.126 566.226 622.103 573.499 617.08C576.036 617.917 570.624 622.438 575.698 621.936C551.342 642.698 523.942 659.106 494.343 671.664Z" fill="#EFF5F2"/>
<path d="M237.086 682.213C245.036 678.864 240.638 675.515 237.086 672.166C238.101 670.994 239.454 670.492 240.807 670.994C247.403 673.673 254.507 675.013 261.442 677.19C263.133 677.692 264.148 678.864 264.825 680.538C264.825 680.873 264.994 681.208 264.825 681.375C260.934 684.222 260.596 684.557 260.596 689.077C252.816 686.231 243.852 687.738 237.086 682.213Z" fill="#EFF5F2"/>
<path d="M636.926 152.612C636.587 153.784 635.911 154.621 634.558 154.788C625.763 151.272 623.564 141.728 617.137 136.036C615.445 134.529 614.43 132.519 615.953 130.175C616.122 129.171 616.291 128.333 616.46 127.329C624.748 134.529 630.668 143.57 636.926 152.612Z" fill="#EFF5F2"/>
<path d="M260.427 688.91C258.736 686.231 257.044 683.552 255.184 680.371C258.566 680.873 261.611 681.208 264.486 681.543C267.531 679.534 269.73 680.706 271.759 683.05C273.451 686.566 272.097 689.245 269.222 691.589C265.839 692.426 263.133 690.752 260.427 688.91Z" fill="#EFF5F2"/>
<path d="M696.969 370.781C695.447 371.953 693.925 372.958 692.402 374.13C689.696 371.451 689.865 368.604 691.895 365.758C693.248 362.577 689.865 356.214 694.77 356.214C699.675 356.214 696.293 362.577 697.477 365.758C697.307 367.265 697.138 368.939 696.969 370.781Z" fill="#EFF5F2"/>
<path d="M269.222 691.756C269.73 689.245 270.237 686.566 270.913 684.054C272.774 682.213 274.634 683.552 276.495 684.054C278.017 684.724 279.37 685.561 279.878 687.236C278.355 695.775 286.981 691.924 289.688 695.105C282.415 696.947 276.495 690.919 269.222 691.756Z" fill="#EFF5F2"/>
<path d="M362.755 8.61651C357.004 8.61651 351.084 8.61651 345.334 8.61651C351.084 6.10497 356.835 6.2724 362.755 8.61651Z" fill="#EFF5F2"/>
<path d="M411.635 683.887C434.638 680.371 456.287 671.497 479.121 666.976C480.305 666.976 481.489 667.143 482.673 667.143C482.842 671.832 478.275 671.162 475.738 672.669C473.201 674.176 470.157 674.678 467.45 675.85C462.884 677.022 458.486 678.696 453.919 680.203C452.059 680.371 450.199 680.371 448.507 680.538C447.323 682.882 444.955 683.217 442.926 683.552C432.608 684.892 422.798 687.905 412.481 689.077C408.929 689.412 405.377 689.915 402.671 686.399C405.546 683.217 408.929 685.394 411.635 683.887Z" fill="#EFF5F2"/>
<path d="M585.677 591.63C588.553 587.779 591.597 584.095 595.656 581.248C595.318 582.086 594.641 583.258 594.811 583.593C600.73 591.462 592.274 593.639 588.891 597.155C583.14 602.848 577.22 609.043 568.763 611.387C567.58 607.703 570.117 605.862 572.654 604.02C577.389 600.336 581.956 596.318 585.677 591.63Z" fill="#EFF5F2"/>
<path d="M585.677 591.63C585.677 597.155 580.603 598.829 577.728 602.178C574.852 605.359 570.117 606.866 568.763 611.387C564.873 611.387 565.212 617.08 561.321 616.745C559.63 616.578 558.108 616.41 554.894 616.243C565.719 607.201 574.852 598.327 585.677 591.63Z" fill="#EFF5F2"/>
<path d="M511.426 655.255C513.625 655.255 515.824 655.255 518.361 655.255C511.595 660.111 503.477 661.116 497.557 666.474C494.851 667.143 492.144 667.981 489.438 668.65C488.593 667.981 487.409 667.813 487.409 666.474C494.512 661.116 503.646 659.609 511.426 655.255Z" fill="#EFF5F2"/>
<path d="M487.24 666.474C487.916 667.143 488.593 667.981 489.269 668.65C482.504 671.329 475.569 674.008 468.804 676.52C467.958 676.185 466.943 676.017 466.774 675.013C471.002 670.325 478.614 672.501 482.504 667.143C484.195 666.808 485.717 666.641 487.24 666.474Z" fill="#EFF5F2"/>
<path d="M411.635 683.887C409.267 684.557 407.069 685.226 402.333 686.566C419.754 688.24 433.792 681.878 448.507 680.203C447.154 687.068 440.558 685.729 436.498 686.399C406.223 692.091 375.778 696.445 344.657 694.77C325.883 693.766 307.278 692.594 289.011 687.905C286.136 687.236 282.922 687.403 279.878 687.236C278.355 687.068 276.833 686.901 276.157 685.226C287.658 676.185 299.667 683.72 311.337 684.557C317.595 684.892 324.022 686.231 330.28 686.566C350.577 687.403 370.873 688.24 391.17 686.566C398.104 686.231 404.362 681.71 411.635 683.887Z" fill="#EFF5F2"/>
<path d="M466.774 675.013C467.45 675.515 468.127 676.017 468.804 676.52C463.729 677.357 459.501 681.878 453.919 680.036C456.795 674.845 462.545 676.855 466.774 675.013Z" fill="#EFF5F2"/>
<path d="M370.535 691.756C372.734 692.091 374.933 692.259 377.131 692.594C377.131 692.928 377.131 693.096 377.131 693.431C363.77 693.431 350.408 693.431 337.046 693.431C336.708 693.431 336.369 693.431 336.2 693.431C335.016 692.091 336.877 692.594 337.046 692.091C348.209 690.584 359.372 690.919 370.535 691.756Z" fill="#EFF5F2"/>
<path d="M370.535 691.756C359.372 691.756 348.209 691.924 337.046 691.924C348.209 688.743 359.372 689.58 370.535 691.756Z" fill="#EFF5F2"/>
</svg>
