<svg width="99" height="61" viewBox="0 0 99 61" fill="none" xmlns="http://www.w3.org/2000/svg">
<path d="M17.5948 60.5322L23.9289 59.8426H27.2133L30.7322 60.3023L35.1896 56.8541L40.5853 42.3713L41.2891 38.923L42.2275 36.6242L45.981 24.9V18.923L45.2772 15.4748L44.1043 12.7161L42.2275 9.49775L40.3507 7.1989L38.0047 5.35981L35.4242 3.52074L29.3247 0.99199L26.2749 0.532227L19.4716 0.99199L16.1872 0.762108L13.6066 2.6012L7.50712 5.12993L5.39574 7.1989L1.87678 12.4862L0 18.4633V24.6702L0.469205 28.1184L1.87678 31.3368L3.75355 33.6357L7.50712 38.0035L13.1374 41.4518L15.2488 45.3598L14.7796 47.6587L13.372 50.8771L12.6682 54.3253L11.2607 56.8541L14.0758 59.8426L17.5948 60.5322ZM69.9099 60.5322L73.4289 59.8426L76.7133 60.3023L83.7512 60.5322L87.7393 57.5437L89.3815 54.3253L91.0237 47.8885L92.4313 44.9001L96.654 33.1759L98.0616 27.6587L99 24.9L98.7654 18.4633L98.2962 15.7046L96.8886 12.2564L93.1351 6.96902L90.7891 4.90005L85.1588 2.14142L78.5901 0.99199L72.2559 0.762108L65.9218 1.91153L60.2915 4.90005L56.0687 9.95751L54.6611 12.4862L53.4881 15.2449L53.0189 18.2334L52.7844 25.1299L56.3033 33.8656L58.1801 36.3943L63.1066 40.0725L66.391 41.2219L68.5024 44.9001L67.0948 47.6587L65.4526 53.8656L64.2796 57.084L67.0948 60.3023L69.9099 60.5322ZM24.3981 7.42878L23.9289 5.12993L26.2749 4.90005L26.7441 7.42878H24.3981ZM14.3104 6.27935V5.12993H15.718V6.27935H14.3104ZM76.9479 7.1989V5.58969H78.5901V7.1989H76.9479ZM66.6256 6.73912L66.391 6.04947L67.0948 5.81959L67.3294 6.50923L66.6256 6.73912ZM15.2488 28.5782L13.6066 27.1989V26.0495L15.0142 24.2104L15.9526 23.2909L16.4218 22.6012L17.8294 20.3023L19.4716 18.6932L20.6446 18.2334L22.9905 17.7736L23.2251 16.6242L22.9905 15.4748L21.3483 13.8656L20.1754 13.1759L18.2986 11.7966L18.064 10.6472L19.4716 8.5782L20.41 8.34832L21.5829 8.5782L23.2251 10.4173L23.9289 11.5667L24.8673 12.7161L25.5711 13.4058L27.2133 15.7046V17.0839L26.5095 18.2334L24.6327 19.8426L23.9289 20.7621L23.4597 21.9115L23.2251 23.2909L24.1635 24.2104L25.3365 23.9805L26.5095 24.2104L27.2133 25.1299L27.4479 27.6587L25.1019 28.1184L24.1635 27.6587L23.4597 26.5092L23.2251 25.3598L21.8175 24.2104L20.6446 24.4403L19.4716 24.9L17.8294 26.5092L16.4218 28.3483L15.2488 28.5782ZM71.7867 11.5667L71.3175 9.03797L73.6635 8.80809L73.8981 11.1069L71.7867 11.5667ZM81.1706 12.4862L80.936 10.1874L81.6398 9.26787H84.2204L84.455 11.5667L83.7512 12.4862H81.1706ZM5.39574 16.8541L4.45735 14.7851L6.56873 12.7161L7.27251 11.7966L8.9147 9.49775L11.4953 10.4173L11.9644 12.4862L11.4953 13.4058L9.38389 14.5552L8.44549 15.015L6.33413 16.1644L5.39574 16.8541ZM29.3247 12.0265L29.5592 9.49775L31.9052 9.72763L31.6706 12.0265H29.3247ZM62.872 12.2564L60.9953 11.7966L61.699 9.72763L63.3412 10.4173L62.872 12.2564ZM78.5901 18.2334L76.2441 18.0035L75.5403 17.3138L76.0095 14.7851L76.9479 13.6357H79.2939L79.9976 14.5552V16.8541L79.2939 18.0035L78.5901 18.2334ZM40.8199 22.6012L38.9431 20.5322L38.2393 19.3828L37.3009 18.6932L36.128 18.0035L34.2512 16.6242L34.955 14.0954H36.8318L38.2393 15.7046L39.1777 16.6242L40.1161 17.7736L41.0545 18.4633L42.4621 20.7621L40.8199 22.6012ZM68.5024 16.8541L66.391 16.1644L66.6256 14.0954L68.7369 14.5552L68.5024 16.8541ZM88.9123 17.5437L87.0355 17.0839L87.5048 14.5552L89.8507 14.0954L89.6161 16.6242L88.9123 17.5437ZM14.0758 18.4633L13.372 18.0035L13.1374 15.4748L14.0758 14.5552L16.4218 14.3253L17.1256 15.2449L17.3602 17.5437L16.4218 18.2334L14.0758 18.4633ZM60.7607 21.4518L60.5261 18.4633L63.3412 18.2334L63.5758 20.992L60.7607 21.4518ZM8.6801 22.1414V19.3828L11.4953 19.1529V22.1414H8.6801ZM29.09 22.3713V19.6127L31.6706 19.3828L31.9052 22.1414L29.09 22.3713ZM82.5782 23.2909L81.6398 22.8311V20.3023L84.2204 19.6127L84.9242 20.5322V23.061L82.5782 23.2909ZM92.4313 22.1414L92.1967 20.3023L94.3081 20.0725V21.6816L92.4313 22.1414ZM73.8981 23.061L71.5521 22.8311L71.7867 20.3023L74.3673 20.5322L73.8981 23.061ZM66.391 26.7391V24.2104L68.7369 24.4403L68.5024 26.7391H66.391ZM34.955 27.4288L34.7204 24.9L36.8318 24.4403L37.3009 26.969L34.955 27.4288ZM79.2939 27.8886L76.4787 27.6587L76.2441 24.9L78.8246 24.4403L79.5284 25.1299L79.2939 27.8886ZM88.9123 27.4288L86.5663 26.969L87.2701 24.4403L89.8507 24.6702V26.969L88.9123 27.4288ZM3.98816 27.4288L3.75355 25.3598L5.86493 25.1299L6.09952 27.4288H3.98816ZM61.699 32.946L59.8223 30.6472L58.8839 29.038L57.7109 28.5782L57.0071 27.6587L56.5379 26.7391L57.0071 25.1299L58.1801 25.5897L58.6493 26.7391L58.8839 27.8886V29.038H60.5261L63.3412 29.2679L64.045 32.0265L61.699 32.946ZM24.3981 37.7736L23.9289 35.4748L26.0403 34.0954L26.9787 33.4058L27.9171 32.4863L28.6209 29.9575L29.09 29.038L30.0284 28.5782L32.1398 29.2679L32.609 30.6472V31.7966L31.6706 34.0954L30.4976 34.7851L29.5592 35.4748L28.6209 36.3943L26.2749 37.7736H24.3981ZM21.1137 33.4058L18.7678 32.946L19.0024 30.1874L19.7062 29.2679L22.0521 29.7276V32.2564L21.1137 33.4058ZM10.7915 33.1759L8.6801 32.4863V29.7276L11.7299 29.9575V32.4863L10.7915 33.1759ZM73.4289 32.7161L71.3175 32.4863L71.5521 29.9575L73.6635 30.4173L73.4289 32.7161ZM92.6659 32.2564L92.4313 29.9575H94.5427L94.7772 32.2564H92.6659ZM41.2891 32.2564L39.8815 32.0265L40.1161 30.4173L41.5237 30.6472L41.2891 32.2564ZM82.109 33.1759L81.8744 30.6472L84.455 30.4173V33.1759H82.109ZM34.955 38.6931L34.0166 37.7736V35.015L36.3626 34.5552L37.5356 35.4748L37.3009 38.2334L34.955 38.6931ZM66.391 37.5437L66.1564 35.015L68.5024 34.7851V37.3138L66.391 37.5437ZM76.4787 38.0035L76.2441 35.015H79.0592L79.2939 37.7736L76.4787 38.0035ZM89.1469 38.0035L86.5663 37.7736V35.2449L89.3815 35.4748L89.1469 38.0035ZM14.3104 37.7736L14.0758 35.9345L15.718 35.7047L16.1872 37.5437L14.3104 37.7736ZM29.7938 42.8311L28.6209 42.1414L28.3862 40.7621V39.3828L30.0284 38.6931L31.2014 38.4633L32.3744 39.1529L33.0782 41.4518L32.3744 42.3713L29.7938 42.8311ZM71.5521 42.6012L70.8483 41.4518L71.3175 39.1529H73.6635L74.3673 39.8426L73.8981 42.6012H71.5521ZM83.7512 43.7506L81.4052 43.5207L80.7014 42.6012L80.936 40.0725L81.8744 39.1529H84.455L85.1588 39.6127L84.9242 42.1414L84.455 43.061L83.7512 43.7506ZM21.5829 43.7506L19.0024 43.5207V40.5322L21.3483 39.6127L22.2867 40.5322L22.5213 42.8311L21.5829 43.7506ZM25.1019 48.1184L24.3981 47.1989L23.9289 44.6702L26.2749 44.4403L27.2133 44.9001L27.4479 47.6587L25.1019 48.1184ZM34.955 46.969L34.7204 45.5897L36.128 45.1299L36.3626 46.969H34.955ZM76.7133 47.6587L76.2441 45.1299H78.8246L79.0592 47.4288L76.7133 47.6587ZM88.9123 47.6587L87.0355 47.1989L87.5048 45.1299L89.3815 45.5897L88.9123 47.6587ZM31.6706 53.4058L29.3247 53.1759L29.09 50.6472L30.0284 49.9575H32.3744V52.4863L31.6706 53.4058ZM78.1209 57.7736L76.9479 57.5437L76.7133 55.9345L78.1209 55.015L80.7014 52.4863L81.4052 51.3368L83.0474 49.9575L84.455 51.1069L83.5166 53.1759L82.5782 54.0955L81.4052 55.015L80.4668 55.7046L79.5284 56.6242L78.1209 57.7736ZM19.237 52.946L19.0024 50.4173L21.1137 50.1874L21.3483 52.7161L19.237 52.946ZM71.7867 52.2564L71.3175 50.4173L73.4289 50.6472V52.2564H71.7867ZM24.6327 57.084V54.7851L26.7441 55.015V57.084H24.6327Z" fill="#D8E1DD"/>
</svg>
